<?xml version="1.0" standalone="no"?>
<!DOCTYPE svg PUBLIC "-//W3C//DTD SVG 1.0//EN" "http://www.w3.org/TR/2001/REC-SVG-20010904/DTD/svg10.dtd">
<svg xmlns="http://www.w3.org/2000/svg" xmlns:xlink="http://www.w3.org/1999/xlink" id="body_1" width="56" height="56">

<defs>
        <clipPath  id="1">

            <path clip-rule="evenodd" d="M0 0L56 0L56 56L0 56z" />        </clipPath>
</defs>

<g transform="matrix(1 0 0 1 0 0)">
	<g clip-path="url(#1)" >
		<g>
            <path d="M28.0003 4.66406C 40.8873 4.66406 51.3337 15.1104 51.3337 27.9974C 51.3337 40.8844 40.8873 51.3307 28.0003 51.3307L28.0003 51.3307L9.33366 51.3307C 8.09598 51.3307 6.909 50.8391 6.03383 49.9639C 5.15866 49.0887 4.66699 47.9017 4.66699 46.6641L4.66699 46.6641L4.66699 27.9974C 4.66699 15.1104 15.1133 4.66406 28.0003 4.66406zM28.0003 9.33073C 23.0496 9.33073 18.3017 11.2974 14.801 14.7981C 11.3003 18.2987 9.33366 23.0467 9.33366 27.9974L9.33366 27.9974L9.33366 46.6641L28.0003 46.6641C 32.951 46.6641 37.699 44.6974 41.1997 41.1967C 44.7003 37.696 46.667 32.9481 46.667 27.9974C 46.667 23.0467 44.7003 18.2987 41.1997 14.7981C 37.699 11.2974 32.951 9.33073 28.0003 9.33073zM28.0003 32.6641C 28.595 32.6647 29.1671 32.8924 29.5995 33.3007C 30.032 33.709 30.2922 34.267 30.3271 34.8607C 30.3619 35.4543 30.1688 36.0389 29.787 36.495C 29.4053 36.9511 28.8639 37.2442 28.2733 37.3144L28.2733 37.3144L28.0003 37.3307L21.0003 37.3307C 20.4056 37.3301 19.8336 37.1023 19.4011 36.6941C 18.9687 36.2858 18.7084 35.7278 18.6736 35.1341C 18.6387 34.5404 18.8319 33.9558 19.2136 33.4998C 19.5953 33.0437 20.1368 32.7506 20.7273 32.6804L20.7273 32.6804L21.0003 32.6641L28.0003 32.6641zM35.0003 23.3307C 35.6192 23.3307 36.2127 23.5766 36.6502 24.0141C 37.0878 24.4517 37.3337 25.0452 37.3337 25.6641C 37.3337 26.2829 37.0878 26.8764 36.6502 27.314C 36.2127 27.7516 35.6192 27.9974 35.0003 27.9974L35.0003 27.9974L21.0003 27.9974C 20.3815 27.9974 19.788 27.7516 19.3504 27.314C 18.9128 26.8764 18.667 26.2829 18.667 25.6641C 18.667 25.0452 18.9128 24.4517 19.3504 24.0141C 19.788 23.5766 20.3815 23.3307 21.0003 23.3307L21.0003 23.3307L35.0003 23.3307z" stroke="none" fill="#146DFA" fill-rule="nonzero" />
		</g>
	</g>
</g>
</svg>