<?xml version="1.0" standalone="no"?>
<!DOCTYPE svg PUBLIC "-//W3C//DTD SVG 1.0//EN" "http://www.w3.org/TR/2001/REC-SVG-20010904/DTD/svg10.dtd">
<svg xmlns="http://www.w3.org/2000/svg" xmlns:xlink="http://www.w3.org/1999/xlink" id="body_1" width="56" height="56">

<defs>
        <clipPath  id="1">

            <path clip-rule="evenodd" d="M0 0L56 0L56 56L0 56z" />        </clipPath>
</defs>

<g transform="matrix(1 0 0 1 0 0)">
	<g clip-path="url(#1)" >
		<g>
            <path d="M46.667 9.33594C 47.8443 9.33557 48.9783 9.78022 49.8416 10.5808C 50.7049 11.3813 51.2337 12.4786 51.322 13.6526L51.322 13.6526L51.3337 14.0026L51.3337 42.0026C 51.334 43.1799 50.8894 44.3139 50.0888 45.1772C 49.2883 46.0405 48.191 46.5693 47.017 46.6576L47.017 46.6576L46.667 46.6693L9.33366 46.6693C 8.15631 46.6696 7.02234 46.225 6.15905 45.4244C 5.29576 44.6239 4.76696 43.5266 4.67866 42.3526L4.67866 42.3526L4.66699 42.0026L4.66699 14.0026C 4.66662 12.8253 5.11127 11.6913 5.91182 10.828C 6.71236 9.9647 7.80963 9.43591 8.98366 9.3476L8.98366 9.3476L9.33366 9.33594L46.667 9.33594zM46.667 17.3019L30.4737 33.4953C 29.8174 34.1507 28.9278 34.5189 28.0003 34.5189C 27.0728 34.5189 26.1832 34.1507 25.527 33.4953L25.527 33.4953L9.33366 17.3019L9.33366 42.0026L46.667 42.0026L46.667 17.3019zM43.3677 14.0026L12.633 14.0026L28.0003 29.3699L43.3677 14.0026z" stroke="none" fill="#146DFA" fill-rule="nonzero" />
		</g>
	</g>
</g>
</svg>