<?xml version="1.0" standalone="no"?>
<!DOCTYPE svg PUBLIC "-//W3C//DTD SVG 1.0//EN" "http://www.w3.org/TR/2001/REC-SVG-20010904/DTD/svg10.dtd">
<svg xmlns="http://www.w3.org/2000/svg" xmlns:xlink="http://www.w3.org/1999/xlink" id="body_1" width="56" height="56">

<g transform="matrix(1 0 0 1 0 0)">
	<g>
		<g>
            <path d="M6.629 39.9385L3.5735 50.183C 3.402 50.7552 3.535 51.3765 3.927 51.828C 4.319 52.2812 4.91575 52.5017 5.50725 52.4142L5.50725 52.4142L18.4223 50.498C 21.3535 51.7422 24.5788 52.4335 27.9668 52.4335C 41.4698 52.4335 52.4335 41.4698 52.4335 27.9668C 52.4335 14.4638 41.4698 3.5 27.9668 3.5C 14.4637 3.5 3.5 14.4638 3.5 27.9668C 3.5 32.3138 4.63575 36.3982 6.629 39.9385zM11 40C 11.1417 39.5275 11.2572 38.9235 11 38.5C 9.08375 35.336 8 31.9638 8 28C 8 16.4272 16.4272 8 28 8C 39.571 8 48 16.4272 48 28C 48 39.571 39.571 48 28 48C 24.941 48 22.1215 47.1795 19.5 46C 19.1955 45.8618 18.8308 45.951 18.5 46L18.5 46L8 48L11 40zM28 35C 28.966 35 29.75 35.784 29.75 36.75C 29.75 37.716 28.966 38.5 28 38.5C 27.034 38.5 26.25 37.716 26.25 36.75C 26.25 35.784 27.034 35 28 35zM25 18L26.25 31.5C 26.25 32.466 27.034 33.25 28 33.25C 28.966 33.25 29.75 32.466 29.75 31.5L29.75 31.5L31 18C 31 17.034 28.966 16 28 16C 27.034 16 25 17.034 25 18z" stroke="none" fill="#146DFA" fill-rule="nonzero" />
		</g>
	</g>
</g>
</svg>