<svg width="16" height="17" viewBox="0 0 16 17" fill="none" xmlns="http://www.w3.org/2000/svg">
<path fill-rule="evenodd" clip-rule="evenodd" d="M8.00016 15.1693C4.85746 15.1693 3.28612 15.1693 2.30981 14.1929C1.3335 13.2167 1.3335 11.6453 1.3335 8.5026C1.3335 5.3599 1.3335 3.78856 2.30981 2.81225C3.28612 1.83594 4.85746 1.83594 8.00016 1.83594C11.1428 1.83594 12.7142 1.83594 13.6905 2.81225C14.6668 3.78856 14.6668 5.3599 14.6668 8.5026C14.6668 11.6453 14.6668 13.2167 13.6905 14.1929C12.7142 15.1693 11.1428 15.1693 8.00016 15.1693ZM10.687 6.48238C10.8823 6.67764 10.8823 6.99423 10.687 7.18947L7.3537 10.5228C7.15843 10.7181 6.8419 10.7181 6.64661 10.5228L5.31328 9.18947C5.11802 8.9942 5.11802 8.67767 5.31328 8.4824C5.50854 8.28714 5.82512 8.28714 6.02038 8.4824L7.00016 9.46214L9.97996 6.48238C10.1752 6.28712 10.4918 6.28712 10.687 6.48238Z" fill="#146DFA"/>
</svg>
