<svg width="594" height="594" viewBox="0 0 594 594" fill="none" xmlns="http://www.w3.org/2000/svg">
    <path
        d="M485.892 303.05C380.861 242.462 211.131 242.462 106.777 303.05C2.42348 363.638 3.02936 462.017 108.108 522.652C213.187 583.288 382.869 583.3 487.223 522.652C591.576 462.005 590.971 363.698 485.892 303.05Z"
        fill="#F5F5F5" />
    <path
        d="M55.2064 395.453C62.9759 390.974 75.5331 390.974 83.2551 395.453C90.9771 399.932 90.9295 407.214 83.16 411.705C75.3905 416.195 62.8333 416.183 55.1232 411.705C47.4131 407.226 47.4369 399.943 55.2064 395.453Z"
        fill="#E0E0E0" />
    <path
        d="M510.555 363.423C518.704 358.671 531.867 358.671 539.958 363.423C548.048 368.175 548.012 375.755 539.863 380.459C531.713 385.164 518.55 385.211 510.46 380.459C502.369 375.707 502.405 368.128 510.555 363.423Z"
        fill="#E0E0E0" />
    <path
        d="M70.876 434.38C69.4861 435.188 69.4742 436.495 70.876 437.291L82.162 443.86C82.9418 444.259 83.805 444.467 84.6806 444.467C85.5562 444.467 86.4194 444.259 87.1992 443.86L321.568 308.547C321.874 308.446 322.14 308.251 322.329 307.99C322.518 307.729 322.62 307.414 322.62 307.092C322.62 306.77 322.518 306.455 322.329 306.194C322.14 305.933 321.874 305.738 321.568 305.637L310.27 299.067C309.49 298.669 308.627 298.461 307.751 298.461C306.876 298.461 306.013 298.669 305.233 299.067L70.876 434.38Z"
        fill="#E0E0E0" />
    <path
        d="M525.203 418.708C525.305 418.744 525.393 418.811 525.456 418.899C525.518 418.987 525.552 419.093 525.552 419.201C525.552 419.309 525.518 419.415 525.456 419.503C525.393 419.591 525.305 419.658 525.203 419.694L521.378 421.915C521.113 422.05 520.82 422.12 520.522 422.12C520.225 422.12 519.932 422.05 519.667 421.915L434.048 372.72C433.947 372.682 433.86 372.613 433.799 372.524C433.738 372.435 433.705 372.33 433.705 372.221C433.705 372.113 433.738 372.008 433.799 371.919C433.86 371.83 433.947 371.761 434.048 371.722L437.873 369.501C438.138 369.372 438.428 369.305 438.723 369.305C439.017 369.305 439.307 369.372 439.572 369.501L525.203 418.708Z"
        fill="#E0E0E0" />
    <path
        d="M174.719 485.413C197.089 472.487 233.252 472.487 255.503 485.413C277.755 498.338 277.612 519.271 255.242 532.196C232.872 545.122 196.697 545.11 174.458 532.196C152.219 519.283 152.338 498.326 174.719 485.413Z"
        fill="#E0E0E0" />
    <path
        d="M419.364 382.747C399.786 371.449 368.149 371.449 348.702 382.747C329.254 394.045 329.361 412.376 348.927 423.673C368.494 434.971 400.142 434.971 419.59 423.673C439.037 412.376 438.978 394.045 419.364 382.747Z"
        fill="#E0E0E0" />
    <path
        d="M225.304 456.025L241.936 465.624C242.839 466.145 243.864 466.42 244.906 466.42C245.949 466.42 246.973 466.145 247.876 465.624L332.545 416.75C332.728 416.646 332.88 416.496 332.986 416.314C333.092 416.133 333.147 415.926 333.147 415.716C333.147 415.506 333.092 415.3 332.986 415.118C332.88 414.936 332.728 414.786 332.545 414.683L315.687 405.179C314.784 404.657 313.76 404.383 312.717 404.383C311.675 404.383 310.65 404.657 309.747 405.179L225.257 453.958C225.076 454.066 224.928 454.219 224.826 454.403C224.724 454.587 224.673 454.795 224.678 455.005C224.683 455.215 224.743 455.421 224.853 455.6C224.963 455.779 225.119 455.926 225.304 456.025Z"
        fill="#E0E0E0" />
    <path d="M363.932 104.414L368.363 101.836L415.206 128.78V133.912L363.932 104.414Z" fill="#F5F5F5" />
    <path d="M363.932 104.414L415.206 133.912V139.757L363.92 110.295L363.932 104.414Z" fill="#E0E0E0" />
    <path d="M441.983 149.32L446.415 146.742L493.257 173.686V178.806L441.983 149.32Z" fill="#F5F5F5" />
    <path d="M441.984 149.32L493.258 178.806V184.663L441.972 155.201L441.984 149.32Z" fill="#E0E0E0" />
    <path d="M364.181 55.1873L368.613 52.6094L368.351 185.25L363.92 187.828L364.181 55.1873Z" fill="#F0F0F0" />
    <path d="M363.92 187.828L368.351 185.25L419.376 214.534L414.945 217.112L363.92 187.828Z" fill="#F5F5F5" />
    <path
        d="M359.097 46.3359L420.314 81.5601L420.029 225.914L358.776 190.737L359.097 46.3359ZM414.933 217.063L415.194 84.4351L364.181 55.1865L363.92 187.827L414.945 217.111"
        fill="#E0E0E0" />
    <path d="M359.097 46.3826L363.528 43.8047L424.757 78.9814L420.314 81.5593L359.097 46.3826Z" fill="#F5F5F5" />
    <path d="M420.314 81.5623L424.758 78.9844L424.461 223.338L420.029 225.916L420.314 81.5623Z" fill="#F0F0F0" />
    <path d="M442.233 100.094L446.664 97.5156L446.403 230.156L441.972 232.734L442.233 100.094Z" fill="#F0F0F0" />
    <path d="M441.972 232.734L446.403 230.156L497.428 259.44L492.996 262.018L441.972 232.734Z" fill="#F5F5F5" />
    <path
        d="M437.184 91.2891L498.401 126.466L498.081 270.867L436.851 235.69L437.184 91.2891ZM493.02 262.017L493.281 129.376L442.233 100.092L441.936 232.732L493.02 262.017Z"
        fill="#E0E0E0" />
    <path d="M437.148 91.2889L441.58 88.7109L502.797 123.888L498.366 126.466L437.148 91.2889Z" fill="#F5F5F5" />
    <path d="M498.366 126.469L502.797 123.891L502.512 268.245L498.081 270.822L498.366 126.469Z" fill="#F0F0F0" />
    <path
        d="M50.3713 369.648L69.1893 370.195L87.9953 369.648C88.8031 382.348 86.3202 395.297 82.9107 401.618C82.1039 403.243 80.8018 404.57 79.1922 405.407C73.6443 408.603 64.6749 408.603 59.1625 405.407C57.522 404.57 56.2058 403.212 55.4203 401.546C52.0227 395.155 49.5635 382.289 50.3713 369.648Z"
        fill="white" />
    <path
        d="M55.931 361.938C48.5535 366.191 48.5179 373.093 55.836 377.382C63.1541 381.67 75.0697 381.635 82.4472 377.382C89.8247 373.128 89.8484 366.226 82.5303 361.938C75.2123 357.649 63.2966 357.684 55.931 361.938Z"
        fill="#EBEBEB" />
    <path
        d="M58.8421 363.639C53.0921 366.953 53.0684 372.335 58.7708 375.661C64.4732 378.988 73.7752 378.976 79.5251 375.661C85.2751 372.347 85.3107 366.953 79.5964 363.639C73.8821 360.324 64.592 360.312 58.8421 363.639Z"
        fill="#E0E0E0" />
    <g opacity="0.15">
        <path
            d="M58.8421 363.639C53.0921 366.953 53.0684 372.335 58.7708 375.661C64.4732 378.988 73.7752 378.976 79.5251 375.661C85.2751 372.347 85.3107 366.953 79.5964 363.639C73.8821 360.324 64.592 360.312 58.8421 363.639Z"
            fill="black" />
    </g>
    <path
        d="M38.2539 289.375C80.6536 303.263 81.0219 331.62 71.5179 351.816C69.1419 355.903 61.8238 358.089 55.468 332.975L66.5283 334.412L53.5791 327.89L50.2171 317.816L61.0279 318.624L47.2946 312.838C44.7742 304.836 41.7547 296.999 38.2539 289.375Z"
        fill="#52BE79" />
    <path opacity="0.2"
        d="M38.2539 289.375C80.6536 303.263 81.0219 331.62 71.5179 351.816C69.1419 355.903 61.8238 358.089 55.468 332.975L66.5283 334.412L53.5791 327.89L50.2171 317.816L61.0279 318.624L47.2946 312.838C44.7742 304.836 41.7547 296.999 38.2539 289.375Z"
        fill="black" />
    <path opacity="0.2"
        d="M38.2539 289.375C80.6536 303.263 81.0219 331.62 71.5179 351.816C69.1419 355.903 61.8238 358.089 55.468 332.975L66.5283 334.412L53.5791 327.89L50.2171 317.816L61.0279 318.624L47.2946 312.838C44.7742 304.836 41.7547 296.999 38.2539 289.375Z"
        fill="white" />
    <path
        d="M50.2524 296.469C72.5987 313.433 74.6183 332.893 68.31 353.196C70.5435 335.316 72.9551 317.199 50.2524 296.469Z"
        fill="white" />
    <path
        d="M110.056 318.188C68.2744 324.068 63.2016 350.465 68.7496 370.816C70.3177 375.021 76.7448 378.277 86.819 355.942L76.2221 355.419L89.397 351.451L94.149 342.637L83.9441 341.579L97.6892 338.49C101.392 331.476 105.522 324.696 110.056 318.188Z"
        fill="#52BE79" />
    <path opacity="0.2"
        d="M110.056 318.188C68.2744 324.068 63.2016 350.465 68.7496 370.816C70.3177 375.021 76.7448 378.277 86.819 355.942L76.2221 355.419L89.397 351.451L94.149 342.637L83.9441 341.579L97.6892 338.49C101.392 331.476 105.522 324.696 110.056 318.188Z"
        fill="white" />
    <path opacity="0.1"
        d="M110.056 318.188C68.2744 324.068 63.2016 350.465 68.7496 370.816C70.3177 375.021 76.7448 378.277 86.819 355.942L76.2221 355.419L89.397 351.451L94.149 342.637L83.9441 341.579L97.6892 338.49C101.392 331.476 105.522 324.696 110.056 318.188Z"
        fill="black" />
    <path
        d="M97.7132 322.797C74.072 334.891 68.9636 352.663 71.4703 372.693C72.3613 355.609 73.1216 338.372 97.7132 322.797Z"
        fill="white" />
    <path
        d="M26.0293 328.055C64.3423 328.684 71.8623 351.815 69.1537 370.823C68.2152 374.791 62.786 378.438 51.1911 359.442L60.6951 357.778L48.3756 355.676L43.0533 348.263L52.1297 346.172L39.3943 344.924C35.288 339.033 30.8246 333.4 26.0293 328.055Z"
        fill="#52BE79" />
    <path
        d="M37.6719 330.836C60.327 339.081 66.9204 354.537 66.8967 372.808C64.1524 357.59 61.5863 342.146 37.6719 330.836Z"
        fill="white" />
    <path opacity="0.2"
        d="M26.0293 328.055C64.3423 328.684 71.8623 351.815 69.1537 370.823C68.2152 374.791 62.786 378.438 51.1911 359.442L60.6951 357.778L48.3756 355.676L43.0533 348.263L52.1297 346.172L39.3943 344.924C35.288 339.033 30.8246 333.4 26.0293 328.055Z"
        fill="white" />
    <path
        d="M505.483 336.359L525.203 336.93L544.936 336.359C545.78 349.677 543.178 363.256 539.602 369.885C538.756 371.586 537.391 372.976 535.705 373.853C529.884 377.215 520.475 377.215 514.69 373.853C512.976 372.962 511.606 371.529 510.793 369.778C507.205 363.113 504.639 349.606 505.483 336.359Z"
        fill="white" />
    <path
        d="M511.303 328.268C503.581 332.734 503.534 339.969 511.22 344.436C518.906 348.903 531.416 348.891 539.114 344.436C546.813 339.981 546.884 332.734 539.197 328.268C531.511 323.801 519.037 323.813 511.303 328.268Z"
        fill="#EBEBEB" />
    <path
        d="M514.404 330.048C508.381 333.529 508.345 339.172 514.333 342.653C520.32 346.134 530.074 346.134 536.097 342.653C542.12 339.172 542.168 333.529 536.168 330.048C530.169 326.567 520.344 326.567 514.404 330.048Z"
        fill="#E0E0E0" />
    <g opacity="0.15">
        <path
            d="M514.404 330.048C508.381 333.529 508.345 339.172 514.333 342.653C520.32 346.134 530.074 346.134 536.097 342.653C542.12 339.172 542.168 333.529 536.168 330.048C530.169 326.567 520.344 326.567 514.404 330.048Z"
            fill="black" />
    </g>
    <path
        d="M535.266 295.992C538.473 292 542.204 288.425 545.15 284.231C547.158 281.38 548.833 277.875 547.989 274.489C547.517 272.933 546.62 271.54 545.398 270.468C544.176 269.395 542.679 268.685 541.075 268.419C537.837 267.934 534.534 268.671 531.809 270.486C529.112 272.295 526.742 274.549 524.799 277.15C513.703 291.217 508.456 309.02 510.151 326.856C510.181 328.9 510.818 330.889 511.981 332.571C512.693 333.411 513.631 334.028 514.685 334.348C515.738 334.669 516.862 334.678 517.921 334.376C523.291 332.773 522.578 325.514 523.457 321.308C524.667 315.443 526.749 309.793 529.635 304.546C531.254 301.533 533.138 298.67 535.266 295.992Z"
        fill="#52BE79" />
    <path opacity="0.2"
        d="M535.266 295.992C538.473 292 542.204 288.425 545.15 284.231C547.158 281.38 548.833 277.875 547.989 274.489C547.517 272.933 546.62 271.54 545.398 270.468C544.176 269.395 542.679 268.685 541.075 268.419C537.837 267.934 534.534 268.671 531.809 270.486C529.112 272.295 526.742 274.549 524.799 277.15C513.703 291.217 508.456 309.02 510.151 326.856C510.181 328.9 510.818 330.889 511.981 332.571C512.693 333.411 513.631 334.028 514.685 334.348C515.738 334.669 516.862 334.678 517.921 334.376C523.291 332.773 522.578 325.514 523.457 321.308C524.667 315.443 526.749 309.793 529.635 304.546C531.254 301.533 533.138 298.67 535.266 295.992Z"
        fill="white" />
    <path
        d="M517.54 328.956C517.643 328.936 517.737 328.881 517.805 328.802C517.874 328.722 517.915 328.622 517.92 328.517C518.289 319.892 521.092 290.501 541.383 273.75C541.481 273.671 541.543 273.557 541.556 273.432C541.569 273.307 541.533 273.183 541.455 273.085C541.374 272.99 541.26 272.93 541.136 272.917C541.013 272.904 540.888 272.938 540.789 273.013C520.201 289.966 517.362 319.749 517.029 328.481C517.026 328.603 517.07 328.722 517.152 328.813C517.234 328.903 517.347 328.959 517.469 328.968L517.54 328.956Z"
        fill="#F0F0F0" />
    <path
        d="M514.57 329.898C515 331.785 515.805 333.567 516.938 335.136C518.071 336.706 519.508 338.031 521.164 339.034C524.268 340.502 527.719 341.078 531.131 340.697C534.588 340.316 537.987 339.518 541.253 338.321C542.88 337.774 544.686 337.038 544.817 335.018C544.842 334.488 544.748 333.959 544.543 333.47C544.337 332.981 544.025 332.544 543.629 332.191C543.295 331.865 542.942 331.559 542.572 331.276C542.406 331.146 542.283 330.97 542.22 330.77C542.156 330.569 542.154 330.354 542.214 330.153C542.275 329.952 542.394 329.773 542.558 329.641C542.721 329.508 542.92 329.428 543.13 329.411C544.099 329.352 545.063 329.233 546.017 329.054C548.242 328.695 550.333 327.752 552.076 326.322C553.336 325.193 554.296 323.768 554.867 322.176C555.354 320.822 555.497 319.123 554.463 318.113C553.827 317.58 553.053 317.238 552.23 317.127C551.501 316.976 550.777 316.846 550.056 316.735C549.848 316.704 549.655 316.606 549.508 316.455C549.361 316.304 549.268 316.109 549.242 315.9C549.217 315.691 549.26 315.479 549.366 315.298C549.473 315.116 549.636 314.974 549.83 314.893L552.895 313.622C553.773 313.333 554.568 312.836 555.212 312.173C555.612 311.556 555.873 310.858 555.975 310.13C556.078 309.401 556.02 308.659 555.806 307.956C555.426 306.043 554.772 304.19 554.321 302.301C553.786 300.413 553.717 298.424 554.119 296.503C548.379 295.88 542.575 296.282 536.976 297.691C535.291 298.046 533.697 298.746 532.295 299.746C530.383 301.267 529.919 303.56 530.098 306.043C530.101 306.144 530.07 306.243 530.01 306.324C529.951 306.405 529.866 306.464 529.769 306.492C529.672 306.519 529.568 306.513 529.475 306.475C529.382 306.436 529.304 306.368 529.254 306.28L527.306 302.716C527.01 302.205 526.535 301.822 525.973 301.642C525.411 301.462 524.802 301.498 524.264 301.742C522.548 302.614 521.028 303.826 519.798 305.306C519.112 306.084 518.589 306.992 518.26 307.975C517.932 308.959 517.804 309.999 517.885 311.032C518.116 313.872 518.593 316.686 519.311 319.444C519.341 319.594 519.327 319.751 519.27 319.894C519.213 320.036 519.114 320.159 518.988 320.246C518.861 320.334 518.712 320.382 518.558 320.385C518.404 320.388 518.253 320.346 518.123 320.263L518.027 320.192C517.502 319.79 516.845 319.599 516.186 319.657C514.464 319.871 514.012 321.618 513.905 323.114C513.86 325.394 514.083 327.671 514.57 329.898Z"
        fill="#52BE79" />
    <path opacity="0.2"
        d="M514.57 329.898C515 331.785 515.805 333.567 516.938 335.136C518.071 336.706 519.508 338.031 521.164 339.034C524.268 340.502 527.719 341.078 531.131 340.697C534.588 340.316 537.987 339.518 541.253 338.321C542.88 337.774 544.686 337.038 544.817 335.018C544.842 334.488 544.748 333.959 544.543 333.47C544.337 332.981 544.025 332.544 543.629 332.191C543.295 331.865 542.942 331.559 542.572 331.276C542.406 331.146 542.283 330.97 542.22 330.77C542.156 330.569 542.154 330.354 542.214 330.153C542.275 329.952 542.394 329.773 542.558 329.641C542.721 329.508 542.92 329.428 543.13 329.411C544.099 329.352 545.063 329.233 546.017 329.054C548.242 328.695 550.333 327.752 552.076 326.322C553.336 325.193 554.296 323.768 554.867 322.176C555.354 320.822 555.497 319.123 554.463 318.113C553.827 317.58 553.053 317.238 552.23 317.127C551.501 316.976 550.777 316.846 550.056 316.735C549.848 316.704 549.655 316.606 549.508 316.455C549.361 316.304 549.268 316.109 549.242 315.9C549.217 315.691 549.26 315.479 549.366 315.298C549.473 315.116 549.636 314.974 549.83 314.893L552.895 313.622C553.773 313.333 554.568 312.836 555.212 312.173C555.612 311.556 555.873 310.858 555.975 310.13C556.078 309.401 556.02 308.659 555.806 307.956C555.426 306.043 554.772 304.19 554.321 302.301C553.786 300.413 553.717 298.424 554.119 296.503C548.379 295.88 542.575 296.282 536.976 297.691C535.291 298.046 533.697 298.746 532.295 299.746C530.383 301.267 529.919 303.56 530.098 306.043C530.101 306.144 530.07 306.243 530.01 306.324C529.951 306.405 529.866 306.464 529.769 306.492C529.672 306.519 529.568 306.513 529.475 306.475C529.382 306.436 529.304 306.368 529.254 306.28L527.306 302.716C527.01 302.205 526.535 301.822 525.973 301.642C525.411 301.462 524.802 301.498 524.264 301.742C522.548 302.614 521.028 303.826 519.798 305.306C519.112 306.084 518.589 306.992 518.26 307.975C517.932 308.959 517.804 309.999 517.885 311.032C518.116 313.872 518.593 316.686 519.311 319.444C519.341 319.594 519.327 319.751 519.27 319.894C519.213 320.036 519.114 320.159 518.988 320.246C518.861 320.334 518.712 320.382 518.558 320.385C518.404 320.388 518.253 320.346 518.123 320.263L518.027 320.192C517.502 319.79 516.845 319.599 516.186 319.657C514.464 319.871 514.012 321.618 513.905 323.114C513.86 325.394 514.083 327.671 514.57 329.898Z"
        fill="black" />
    <path opacity="0.2"
        d="M514.57 329.898C515 331.785 515.805 333.567 516.938 335.136C518.071 336.706 519.508 338.031 521.164 339.034C524.268 340.502 527.719 341.078 531.131 340.697C534.588 340.316 537.987 339.518 541.253 338.321C542.88 337.774 544.686 337.038 544.817 335.018C544.842 334.488 544.748 333.959 544.543 333.47C544.337 332.981 544.025 332.544 543.629 332.191C543.295 331.865 542.942 331.559 542.572 331.276C542.406 331.146 542.283 330.97 542.22 330.77C542.156 330.569 542.154 330.354 542.214 330.153C542.275 329.952 542.394 329.773 542.558 329.641C542.721 329.508 542.92 329.428 543.13 329.411C544.099 329.352 545.063 329.233 546.017 329.054C548.242 328.695 550.333 327.752 552.076 326.322C553.336 325.193 554.296 323.768 554.867 322.176C555.354 320.822 555.497 319.123 554.463 318.113C553.827 317.58 553.053 317.238 552.23 317.127C551.501 316.976 550.777 316.846 550.056 316.735C549.848 316.704 549.655 316.606 549.508 316.455C549.361 316.304 549.268 316.109 549.242 315.9C549.217 315.691 549.26 315.479 549.366 315.298C549.473 315.116 549.636 314.974 549.83 314.893L552.895 313.622C553.773 313.333 554.568 312.836 555.212 312.173C555.612 311.556 555.873 310.858 555.975 310.13C556.078 309.401 556.02 308.659 555.806 307.956C555.426 306.043 554.772 304.19 554.321 302.301C553.786 300.413 553.717 298.424 554.119 296.503C548.379 295.88 542.575 296.282 536.976 297.691C535.291 298.046 533.697 298.746 532.295 299.746C530.383 301.267 529.919 303.56 530.098 306.043C530.101 306.144 530.07 306.243 530.01 306.324C529.951 306.405 529.866 306.464 529.769 306.492C529.672 306.519 529.568 306.513 529.475 306.475C529.382 306.436 529.304 306.368 529.254 306.28L527.306 302.716C527.01 302.205 526.535 301.822 525.973 301.642C525.411 301.462 524.802 301.498 524.264 301.742C522.548 302.614 521.028 303.826 519.798 305.306C519.112 306.084 518.589 306.992 518.26 307.975C517.932 308.959 517.804 309.999 517.885 311.032C518.116 313.872 518.593 316.686 519.311 319.444C519.341 319.594 519.327 319.751 519.27 319.894C519.213 320.036 519.114 320.159 518.988 320.246C518.861 320.334 518.712 320.382 518.558 320.385C518.404 320.388 518.253 320.346 518.123 320.263L518.027 320.192C517.502 319.79 516.845 319.599 516.186 319.657C514.464 319.871 514.012 321.618 513.905 323.114C513.86 325.394 514.083 327.671 514.57 329.898Z"
        fill="white" />
    <path
        d="M523.659 338.581C524.74 333.984 526.288 329.51 528.28 325.228C528.275 325.16 528.286 325.093 528.313 325.03C528.34 324.968 528.381 324.914 528.434 324.871L528.755 324.17C528.194 318.836 526.647 313.651 524.193 308.881C524.163 308.828 524.143 308.769 524.135 308.709C524.127 308.648 524.132 308.586 524.148 308.527C524.164 308.468 524.191 308.413 524.228 308.365C524.266 308.316 524.312 308.276 524.365 308.245C524.418 308.215 524.477 308.195 524.538 308.187C524.598 308.18 524.66 308.184 524.719 308.2C524.778 308.216 524.833 308.243 524.882 308.281C524.93 308.318 524.971 308.365 525.001 308.418C527.312 312.875 528.836 317.698 529.503 322.674C533.412 314.845 539.637 305.697 549.248 299.009C549.35 298.959 549.466 298.948 549.576 298.977C549.686 299.005 549.782 299.072 549.846 299.166C549.911 299.259 549.94 299.372 549.928 299.485C549.917 299.598 549.865 299.703 549.783 299.781C539.875 306.671 533.614 316.235 529.812 324.17C534.928 321.853 540.61 321.081 546.159 321.949C546.282 321.975 546.389 322.048 546.458 322.152C546.527 322.257 546.552 322.384 546.528 322.507C546.509 322.598 546.464 322.681 546.398 322.746C546.333 322.812 546.25 322.857 546.159 322.876H545.981C545.886 322.876 536.917 321.224 529.159 325.56C527.188 329.809 525.656 334.247 524.585 338.807C524.566 338.897 524.521 338.98 524.456 339.046C524.391 339.111 524.307 339.156 524.217 339.175H524.039C523.974 339.162 523.912 339.137 523.858 339.1C523.803 339.063 523.757 339.015 523.721 338.959C523.686 338.904 523.662 338.842 523.651 338.777C523.64 338.712 523.643 338.645 523.659 338.581Z"
        fill="#F0F0F0" />
    <path
        d="M309.426 309.099C307.355 310.154 305.063 310.704 302.738 310.704C300.413 310.704 298.121 310.154 296.05 309.099C294.196 308.03 293.258 306.628 293.258 305.227V310.703C293.258 312.105 294.196 313.507 296.05 314.576C298.121 315.631 300.413 316.181 302.738 316.181C305.063 316.181 307.355 315.631 309.426 314.576C310.185 314.229 310.84 313.689 311.324 313.009C311.807 312.329 312.104 311.534 312.183 310.703V305.227C312.104 306.057 311.807 306.853 311.324 307.532C310.84 308.212 310.185 308.753 309.426 309.099Z"
        fill="#E0E0E0" />
    <path
        d="M296.05 309.101C298.122 310.156 300.413 310.706 302.738 310.706C305.063 310.706 307.355 310.156 309.427 309.101C310.237 308.828 310.942 308.307 311.441 307.613C311.94 306.918 312.209 306.084 312.209 305.228C312.209 304.373 311.94 303.539 311.441 302.844C310.942 302.149 310.237 301.629 309.427 301.355C307.356 300.295 305.064 299.742 302.738 299.742C300.412 299.742 298.12 300.295 296.05 301.355C295.288 301.697 294.631 302.236 294.149 302.917C293.666 303.598 293.375 304.396 293.305 305.228C293.258 306.63 294.196 308.032 296.05 309.101Z"
        fill="#F0F0F0" />
    <path
        d="M300.041 53.9688V304.637C300.063 304.872 300.147 305.098 300.285 305.29C300.423 305.482 300.609 305.634 300.825 305.73C301.412 306.028 302.061 306.184 302.72 306.184C303.379 306.184 304.028 306.028 304.615 305.73C304.831 305.634 305.017 305.482 305.155 305.29C305.293 305.098 305.377 304.872 305.399 304.637V53.9688H300.041Z"
        fill="#E0E0E0" />
    <path
        d="M301.467 51.6467C302.066 52.0346 302.564 52.5607 302.917 53.181C303.271 53.8012 303.47 54.4974 303.499 55.2107C303.499 56.5057 302.572 57.0165 301.455 56.3987C300.867 56.0147 300.377 55.4971 300.026 54.8881C299.675 54.2792 299.473 53.596 299.436 52.8941C299.436 51.5161 300.35 50.9933 301.467 51.6467Z"
        fill="#E0E0E0" />
    <path
        d="M323.647 43.3465C323.653 43.3111 323.653 43.275 323.647 43.2396V43.1445C323.647 43.1445 323.647 43.0733 323.647 43.0495C323.647 43.0257 323.647 42.9782 323.647 42.9426C323.647 42.9426 323.647 42.8713 323.647 42.8356C323.652 42.8002 323.652 42.7642 323.647 42.7287V42.6337C323.654 42.5944 323.654 42.5542 323.647 42.5149V42.4436V42.3486V42.2416V42.1704V42.0753V42.004V41.909L323.587 41.8021V41.7189L323.528 41.612V41.5526C323.502 41.5301 323.481 41.5016 323.469 41.4694L323.385 41.3388L323.255 41.1606L323.16 41.0418L323.088 40.9467L323.005 40.8517L322.934 40.7685L322.839 40.6854L322.744 40.6141H322.649H322.566L322.471 40.5547H322.399H322.316H322.233H322.15H321.603H321.485H321.378L321.223 40.626L301.027 52.3515L301.194 52.2802H301.312H301.693H301.859H302.037L302.227 52.3634L302.429 52.4703L302.631 52.601L302.821 52.7317L302.999 52.8742C303.058 52.9267 303.113 52.9822 303.166 53.0406C303.225 53.1049 303.28 53.1723 303.332 53.2425L303.498 53.4564L303.641 53.6583L303.712 53.789L303.784 53.8959L303.879 54.0741C303.919 54.151 303.955 54.2304 303.985 54.3117L304.081 54.5493C304.081 54.6325 304.14 54.7156 304.164 54.7869L304.235 55.0127C304.239 55.0918 304.239 55.1711 304.235 55.2502V55.4878C304.235 55.571 304.235 55.6542 304.235 55.7254C304.229 55.8006 304.229 55.876 304.235 55.9512C304.241 56.0144 304.241 56.0781 304.235 56.1412C304.235 56.1412 304.235 56.26 304.235 56.3194C304.24 56.3669 304.24 56.4146 304.235 56.462C304.212 56.512 304.184 56.5597 304.152 56.6046C304.131 56.6414 304.102 56.6738 304.069 56.6996C304.069 56.6996 304.069 56.759 303.985 56.7709L303.867 56.854L324.063 45.1285L324.181 45.0453L324.253 44.9622L324.324 44.8552L324.395 44.7127V44.6177V44.5107V43.8336C324.401 43.7982 324.401 43.7621 324.395 43.7266V43.6316C324.395 43.6316 324.395 43.6316 324.395 43.5366V43.4415L323.647 43.3465Z"
        fill="#E6E6E6" />
    <path d="M86.7241 173.148V375.773L300.231 252.72V49.4531L86.7241 173.148Z" fill="#52BE79" />
    <path opacity="0.4" d="M86.7241 173.148V375.773L300.231 252.72V49.4531L86.7241 173.148Z" fill="white" />
    <path
        d="M91.0247 170.703C92.2691 171.513 93.3042 172.606 94.0455 173.892C94.7867 175.178 95.213 176.622 95.2896 178.104C95.2896 180.825 93.3532 181.918 90.989 180.552C89.7462 179.743 88.7121 178.652 87.9709 177.368C87.2297 176.084 86.8025 174.643 86.7241 173.162C86.7241 170.442 88.6487 169.337 91.0247 170.703Z"
        fill="#52BE79" />
    <path
        d="M309.664 53.9788V53.7769C309.664 53.7769 309.664 53.7056 309.664 53.6818C309.664 53.6818 309.664 53.6818 309.664 53.6106C309.664 53.3967 309.664 53.3967 309.664 53.1829L309.664 52.9809C309.657 52.9058 309.657 52.8303 309.664 52.7552C309.664 52.7552 309.664 52.7552 309.664 52.6839C309.669 52.6485 309.669 52.6124 309.664 52.577C309.648 52.5007 309.628 52.4254 309.604 52.3513C309.608 52.2959 309.608 52.2403 309.604 52.185V52.1256L309.533 51.9117C309.513 51.834 309.485 51.7584 309.45 51.686V51.6147C309.45 51.6147 309.45 51.5197 309.45 51.484L309.367 51.2702L309.296 51.1276V50.9613C309.269 50.8879 309.237 50.8165 309.201 50.7475L309.094 50.5218L308.999 50.3436L308.88 50.1178L308.405 49.8921L308.286 49.702L308.119 49.4288L307.846 49.0368L307.656 48.7873L307.49 48.5853L307.324 48.3834L307.157 48.2052C307.121 48.1626 307.081 48.1229 307.038 48.0864L306.86 47.8963L306.765 47.8131L306.575 47.6468L306.492 47.5755L306.302 47.433L306.171 47.326L305.993 47.2072L305.815 47.1003L305.684 47.0172L305.506 46.934L305.399 46.8746H305.328L305.161 46.8033L304.983 46.732H304.864H304.686L304.128 46.3281H304.033H303.855H303.237H302.987H302.928L302.69 46.3875C302.579 46.4292 302.472 46.4809 302.37 46.542L87.9712 170.403L88.3038 170.248L88.5652 170.177C88.6718 170.165 88.7793 170.165 88.8859 170.177H89.3136H89.67L90.0502 170.284C90.1927 170.329 90.3317 170.385 90.466 170.45L90.8937 170.664L91.3214 170.937L91.7134 171.223L92.0817 171.543C92.209 171.649 92.3281 171.764 92.4381 171.888L92.7945 172.304C92.9133 172.446 93.0321 172.601 93.139 172.755C93.2474 172.891 93.3467 173.034 93.436 173.183L93.6142 173.456L93.7567 173.682C93.7525 173.721 93.7525 173.761 93.7567 173.801L93.9706 174.193C94.0537 174.359 94.1369 174.525 94.2082 174.692C94.2795 174.858 94.3389 175.024 94.3983 175.19C94.4695 175.369 94.5171 175.535 94.5765 175.701L94.7071 176.188C94.7071 176.355 94.7784 176.533 94.8022 176.699C94.8022 176.877 94.8022 177.044 94.8022 177.21C94.8022 177.376 94.8022 177.543 94.8022 177.709C94.8022 177.875 94.8022 178.03 94.8022 178.172C94.8097 178.303 94.8097 178.434 94.8022 178.564C94.8022 178.683 94.8022 178.802 94.7071 178.921V178.98C94.6709 179.086 94.6272 179.189 94.5765 179.289C94.5282 179.396 94.4726 179.499 94.4101 179.598C94.3507 179.669 94.3032 179.752 94.2438 179.812L94.1725 179.883L94.0181 180.049L93.9468 180.109L93.6974 180.275L308.428 56.9251L308.666 56.7469L308.737 56.6875L308.904 56.533L308.963 56.4618C309.025 56.3916 309.081 56.3161 309.129 56.236L309.296 55.939C309.33 55.8749 309.358 55.8072 309.379 55.7371V55.642V55.5708C309.379 55.4995 309.379 55.4163 309.379 55.345C309.38 55.3173 309.38 55.2896 309.379 55.2619C309.374 55.2344 309.374 55.2062 309.379 55.1787C309.385 55.1116 309.385 55.0439 309.379 54.9768C309.385 54.9374 309.385 54.8973 309.379 54.858V54.6441C309.384 54.5769 309.384 54.5094 309.379 54.4422C309.385 54.371 309.385 54.2995 309.379 54.2283C309.488 54.1624 309.584 54.078 309.664 53.9788Z"
        fill="#52BE79" />
    <path opacity="0.2"
        d="M309.664 53.9788V53.7769C309.664 53.7769 309.664 53.7056 309.664 53.6818C309.664 53.6818 309.664 53.6818 309.664 53.6106C309.664 53.3967 309.664 53.3967 309.664 53.1829L309.664 52.9809C309.657 52.9058 309.657 52.8303 309.664 52.7552C309.664 52.7552 309.664 52.7552 309.664 52.6839C309.669 52.6485 309.669 52.6124 309.664 52.577C309.648 52.5007 309.628 52.4254 309.604 52.3513C309.608 52.2959 309.608 52.2403 309.604 52.185V52.1256L309.533 51.9117C309.513 51.834 309.485 51.7584 309.45 51.686V51.6147C309.45 51.6147 309.45 51.5197 309.45 51.484L309.367 51.2702L309.296 51.1276V50.9613C309.269 50.8879 309.237 50.8165 309.201 50.7475L309.094 50.5218L308.999 50.3436L308.88 50.1178L308.405 49.8921L308.286 49.702L308.119 49.4288L307.846 49.0368L307.656 48.7873L307.49 48.5853L307.324 48.3834L307.157 48.2052C307.121 48.1626 307.081 48.1229 307.038 48.0864L306.86 47.8963L306.765 47.8131L306.575 47.6468L306.492 47.5755L306.302 47.433L306.171 47.326L305.993 47.2072L305.815 47.1003L305.684 47.0172L305.506 46.934L305.399 46.8746H305.328L305.161 46.8033L304.983 46.732H304.864H304.686L304.128 46.3281H304.033H303.855H303.237H302.987H302.928L302.69 46.3875C302.579 46.4292 302.472 46.4809 302.37 46.542L87.9712 170.403L88.3038 170.248L88.5652 170.177C88.6718 170.165 88.7793 170.165 88.8859 170.177H89.3136H89.67L90.0502 170.284C90.1927 170.329 90.3317 170.385 90.466 170.45L90.8937 170.664L91.3214 170.937L91.7134 171.223L92.0817 171.543C92.209 171.649 92.3281 171.764 92.4381 171.888L92.7945 172.304C92.9133 172.446 93.0321 172.601 93.139 172.755C93.2474 172.891 93.3467 173.034 93.436 173.183L93.6142 173.456L93.7567 173.682C93.7525 173.721 93.7525 173.761 93.7567 173.801L93.9706 174.193C94.0537 174.359 94.1369 174.525 94.2082 174.692C94.2795 174.858 94.3389 175.024 94.3983 175.19C94.4695 175.369 94.5171 175.535 94.5765 175.701L94.7071 176.188C94.7071 176.355 94.7784 176.533 94.8022 176.699C94.8022 176.877 94.8022 177.044 94.8022 177.21C94.8022 177.376 94.8022 177.543 94.8022 177.709C94.8022 177.875 94.8022 178.03 94.8022 178.172C94.8097 178.303 94.8097 178.434 94.8022 178.564C94.8022 178.683 94.8022 178.802 94.7071 178.921V178.98C94.6709 179.086 94.6272 179.189 94.5765 179.289C94.5282 179.396 94.4726 179.499 94.4101 179.598C94.3507 179.669 94.3032 179.752 94.2438 179.812L94.1725 179.883L94.0181 180.049L93.9468 180.109L93.6974 180.275L308.428 56.9251L308.666 56.7469L308.737 56.6875L308.904 56.533L308.963 56.4618C309.025 56.3916 309.081 56.3161 309.129 56.236L309.296 55.939C309.33 55.8749 309.358 55.8072 309.379 55.7371V55.642V55.5708C309.379 55.4995 309.379 55.4163 309.379 55.345C309.38 55.3173 309.38 55.2896 309.379 55.2619C309.374 55.2344 309.374 55.2062 309.379 55.1787C309.385 55.1116 309.385 55.0439 309.379 54.9768C309.385 54.9374 309.385 54.8973 309.379 54.858V54.6441C309.384 54.5769 309.384 54.5094 309.379 54.4422C309.385 54.371 309.385 54.2995 309.379 54.2283C309.488 54.1624 309.584 54.078 309.664 53.9788Z"
        fill="white" />
    <path
        d="M93.4359 433.732C91.3641 434.787 89.0723 435.337 86.7475 435.337C84.4227 435.337 82.1308 434.787 80.059 433.732C79.2845 433.397 78.6132 432.862 78.1142 432.181C77.6152 431.5 77.3064 430.699 77.2197 429.859V435.336C77.3031 436.172 77.6065 436.97 78.099 437.651C78.5915 438.331 79.2555 438.869 80.0234 439.209C82.0952 440.264 84.387 440.813 86.7118 440.813C89.0366 440.813 91.3285 440.264 93.4003 439.209C94.1778 438.879 94.8513 438.345 95.3492 437.663C95.8471 436.981 96.1507 436.177 96.2277 435.336V429.859C96.154 430.696 95.8557 431.498 95.3643 432.18C94.8729 432.861 94.2067 433.398 93.4359 433.732Z"
        fill="#E0E0E0" />
    <path
        d="M80.0592 433.737C82.1309 434.792 84.4228 435.342 86.7476 435.342C89.0724 435.342 91.3642 434.792 93.436 433.737C94.2068 433.403 94.873 432.866 95.3644 432.185C95.8558 431.503 96.1541 430.702 96.2278 429.865C96.2278 428.463 95.2893 427.061 93.436 425.992C91.3651 424.934 89.0729 424.383 86.7476 424.383C84.4223 424.383 82.1301 424.934 80.0592 425.992C79.2498 426.268 78.5472 426.79 78.0497 427.486C77.5522 428.182 77.2847 429.015 77.2847 429.87C77.2847 430.726 77.5522 431.559 78.0497 432.255C78.5472 432.95 79.2498 433.473 80.0592 433.749V433.737Z"
        fill="#F0F0F0" />
    <path
        d="M84.0391 178.602V429.27C84.0655 429.505 84.1528 429.73 84.2924 429.921C84.4319 430.113 84.6189 430.265 84.835 430.363C85.4221 430.661 86.0713 430.816 86.7299 430.816C87.3884 430.816 88.0377 430.661 88.6247 430.363C88.84 430.267 89.0254 430.115 89.1614 429.922C89.2973 429.73 89.3787 429.504 89.3969 429.27V178.602H84.0391Z"
        fill="#E0E0E0" />
    <path
        d="M70.4721 185.134C71.062 185.517 71.5527 186.034 71.9038 186.643C72.2549 187.252 72.4564 187.936 72.4917 188.639C72.4917 189.934 71.5769 190.444 70.4602 189.827C69.8622 189.437 69.3658 188.911 69.0124 188.291C68.659 187.671 68.4589 186.976 68.4287 186.263C68.4406 185.003 69.3435 184.481 70.4721 185.134Z"
        fill="#E0E0E0" />
    <path
        d="M92.6637 176.831C92.6579 176.796 92.6579 176.76 92.6637 176.724V176.629C92.6586 176.598 92.6586 176.566 92.6637 176.534C92.6637 176.534 92.6637 176.463 92.6637 176.427C92.6637 176.427 92.6637 176.368 92.6637 176.332C92.6637 176.297 92.6637 176.261 92.6637 176.225V176.118C92.6581 176.083 92.6581 176.047 92.6637 176.011V175.94V175.845V175.738V175.667V175.572V175.501V175.406V175.299V175.204C92.6579 175.172 92.6579 175.14 92.6637 175.109V175.049V174.966L92.5805 174.835L92.4498 174.657L92.3548 174.538L92.2835 174.443L91.4757 174.158L91.3925 174.075V174.016L91.3094 173.932L91.2143 173.861L91.1312 173.802H91.0599H90.9767L90.6441 173.445H90.5609H90.4778H90.3946H90.3352H89.7887H89.6699H89.5511L89.3967 173.517L69.2007 185.242L69.3551 185.171H69.4858H69.6878C69.7391 185.165 69.7909 185.165 69.8422 185.171H70.0085H70.1986L70.3887 185.254L70.5906 185.361L70.7926 185.492L70.9708 185.622L71.149 185.765L71.3272 185.931C71.3862 185.996 71.4417 186.063 71.4935 186.133L71.6598 186.347L71.8024 186.549C71.8369 186.588 71.865 186.632 71.8856 186.68L71.9568 186.787V186.846L72.0638 187.024L72.1707 187.262C72.1972 187.343 72.229 187.422 72.2657 187.499C72.2657 187.583 72.2657 187.666 72.3489 187.737C72.3543 187.812 72.3543 187.888 72.3489 187.963C72.3489 188.046 72.3489 188.129 72.3489 188.2C72.3553 188.279 72.3553 188.359 72.3489 188.438C72.3545 188.517 72.3545 188.596 72.3489 188.675C72.3551 188.751 72.3551 188.826 72.3489 188.901C72.3554 188.964 72.3554 189.028 72.3489 189.091V189.269C72.3536 189.317 72.3536 189.365 72.3489 189.412L72.2657 189.555L72.1826 189.65C72.1826 189.65 72.1826 189.709 72.1113 189.721L71.9925 189.804L92.1885 178.079L92.3073 177.995L92.3904 177.912L92.4617 177.805C92.4938 177.76 92.5216 177.713 92.5449 177.663V177.568C92.5505 177.548 92.5505 177.528 92.5449 177.508C92.5504 177.473 92.5504 177.437 92.5449 177.401V177.306C92.5449 177.306 92.5449 177.235 92.5449 177.199V177.009C92.5507 176.978 92.5507 176.946 92.5449 176.914L92.6637 176.831Z"
        fill="#E6E6E6" />
    <path d="M144.603 304.837L144.568 295.273L125.667 306.191L125.69 315.755L144.603 304.837Z" fill="#52BE79" />
    <path d="M144.544 286.016L125.643 296.933L125.666 306.188L144.567 295.27L144.544 286.016Z" fill="#52BE79" />
    <path d="M125.69 315.759L125.667 306.195L125.69 315.759Z" fill="#52BE79" />
    <path d="M168.458 236.953L149.557 247.859L149.628 274.435L168.529 263.529L168.458 236.953Z" fill="#52BE79" />
    <path d="M149.712 301.892L168.613 290.974L168.53 263.531L149.628 274.437L149.712 301.892Z" fill="#52BE79" />
    <path d="M173.531 218.426L173.733 288.019L173.626 252.652L192.539 241.746L192.444 207.508L173.531 218.426Z"
        fill="#52BE79" />
    <path d="M216.549 221.75L197.636 232.668L197.695 253.066L216.596 242.16L216.549 221.75Z" fill="#52BE79" />
    <path d="M173.733 288.015L192.634 277.097L192.539 241.742L173.626 252.648L173.733 288.015Z" fill="#52BE79" />
    <path d="M245.797 246.41L264.698 235.493L264.555 184.516L245.654 195.433L245.797 246.41Z" fill="#52BE79" />
    <path d="M221.776 260.277L240.677 249.371L240.57 211.094L221.657 222.011L221.776 260.277Z" fill="#52BE79" />
    <path d="M197.754 274.137L216.655 263.231L216.596 242.156L197.695 253.062L197.754 274.137Z" fill="#52BE79" />
    <path opacity="0.2" d="M144.603 304.837L144.568 295.273L125.667 306.191L125.69 315.755L144.603 304.837Z"
        fill="black" />
    <path opacity="0.2" d="M149.712 301.892L168.613 290.974L168.53 263.531L149.628 274.437L149.712 301.892Z"
        fill="black" />
    <path opacity="0.2" d="M173.733 288.015L192.634 277.097L192.539 241.742L173.626 252.648L173.733 288.015Z"
        fill="black" />
    <path opacity="0.2" d="M245.797 246.41L264.698 235.493L264.555 184.516L245.654 195.433L245.797 246.41Z"
        fill="black" />
    <path opacity="0.2" d="M221.776 260.277L240.677 249.371L240.57 211.094L221.657 222.011L221.776 260.277Z"
        fill="black" />
    <path opacity="0.2" d="M197.754 274.137L216.655 263.231L216.596 242.156L197.695 253.062L197.754 274.137Z"
        fill="black" />
    <path d="M245.655 195.431L264.556 184.514L264.413 135.164L245.512 146.07L245.655 195.431Z" fill="#52BE79" />
    <path d="M245.654 195.438L245.797 246.415L245.654 195.438Z" fill="#52BE79" />
    <path d="M221.562 184.953L221.776 260.272L221.657 222.006L240.57 211.089L240.463 174.047L221.562 184.953Z"
        fill="#52BE79" />
    <path
        d="M207.413 193.76L255.123 111.135L260.837 114.39L264.283 90.5469L245.393 105.587L250.87 108.711L207.389 184.019L179.305 168.004L125.548 266.003L179.329 177.758L207.413 193.76Z"
        fill="#52BE79" />
    <path opacity="0.2"
        d="M207.413 193.76L255.123 111.135L260.837 114.39L264.283 90.5469L245.393 105.587L250.87 108.711L207.389 184.019L179.305 168.004L125.548 266.003L179.329 177.758L207.413 193.76Z"
        fill="black" />
    <path
        d="M289.385 233.383L289.373 230.282L116.531 330.062L116.139 188.203L113.43 189.759L113.834 331.63L101.063 338.996L101.075 342.097L113.846 334.731L113.882 349.439L116.59 347.882L116.543 333.175L289.385 233.383Z"
        fill="#52BE79" />
    <path opacity="0.8"
        d="M289.385 233.383L289.373 230.282L116.531 330.062L116.139 188.203L113.43 189.759L113.834 331.63L101.063 338.996L101.075 342.097L113.846 334.731L113.882 349.439L116.59 347.882L116.543 333.175L289.385 233.383Z"
        fill="white" />
    <path
        d="M442.363 284.062L442.209 345.019C442.241 345.572 442.401 346.111 442.678 346.591C442.954 347.072 443.339 347.481 443.801 347.787L522.981 393.501V395.307L524.918 394.119H524.977C525.119 393.998 525.23 393.847 525.302 393.675C525.374 393.504 525.405 393.318 525.393 393.133L525.559 329.765L523.563 331.024L442.363 284.062Z"
        fill="#52BE79" />
    <path opacity="0.3"
        d="M442.363 284.062L442.209 345.019C442.241 345.572 442.401 346.111 442.678 346.591C442.954 347.072 443.339 347.481 443.801 347.787L522.981 393.501V395.307L524.918 394.119H524.977C525.119 393.998 525.23 393.847 525.302 393.675C525.374 393.504 525.405 393.318 525.393 393.133L525.559 329.765L523.563 331.024L442.363 284.062Z"
        fill="white" />
    <path
        d="M523.978 324.476L443.978 278.287C443.804 278.166 443.597 278.102 443.384 278.102C443.172 278.102 442.965 278.166 442.79 278.287L440.89 279.475L442.41 280.33V284.096L523.61 330.975L525.606 329.715V327.268C525.574 326.707 525.41 326.162 525.127 325.677C524.844 325.192 524.45 324.78 523.978 324.476Z"
        fill="#52BE79" />
    <path
        d="M523.563 330.937L523.397 394.305C523.397 395.327 522.672 395.731 521.793 395.22L441.805 349.042C441.344 348.738 440.96 348.33 440.684 347.852C440.408 347.373 440.247 346.837 440.213 346.286L440.379 282.906L523.563 330.937Z"
        fill="#52BE79" />
    <g opacity="0.5">
        <path
            d="M523.563 330.937L523.397 394.305C523.397 395.327 522.672 395.731 521.793 395.22L441.805 349.042C441.344 348.738 440.96 348.33 440.684 347.852C440.408 347.373 440.247 346.837 440.213 346.286L440.379 282.906L523.563 330.937Z"
            fill="white" />
    </g>
    <path
        d="M442.672 281.293C442.875 281.421 443.044 281.596 443.166 281.802C443.288 282.009 443.359 282.241 443.373 282.481C443.373 282.921 443.052 283.111 442.672 282.885C442.471 282.755 442.303 282.58 442.182 282.374C442.06 282.167 441.988 281.936 441.971 281.697C441.936 281.245 442.292 281.067 442.672 281.293Z"
        fill="#F5F5F5" />
    <path
        d="M444.704 282.455C444.905 282.584 445.074 282.759 445.196 282.966C445.317 283.172 445.389 283.404 445.405 283.643C445.405 284.082 445.084 284.261 444.704 284.047C444.503 283.917 444.335 283.742 444.213 283.535C444.092 283.329 444.02 283.098 444.003 282.859C444.003 282.419 444.312 282.229 444.704 282.455Z"
        fill="#F5F5F5" />
    <path
        d="M446.687 283.629C446.889 283.759 447.057 283.934 447.179 284.14C447.301 284.346 447.372 284.578 447.388 284.817C447.388 285.257 447.079 285.435 446.687 285.209C446.484 285.081 446.315 284.907 446.193 284.7C446.071 284.493 446 284.261 445.986 284.021C446.034 283.582 446.355 283.403 446.687 283.629Z"
        fill="#F5F5F5" />
    <path
        d="M521.983 325.739C522.444 326.044 522.828 326.451 523.104 326.929C523.38 327.408 523.541 327.944 523.575 328.495V330.942L440.415 282.912V280.464C440.415 279.454 441.14 279.051 442.019 279.549L521.983 325.739ZM444.704 284.076C445.084 284.29 445.405 284.076 445.405 283.672C445.389 283.433 445.317 283.201 445.195 282.995C445.074 282.788 444.905 282.613 444.704 282.484C444.324 282.258 444.003 282.484 444.003 282.888C444.02 283.127 444.092 283.358 444.213 283.564C444.335 283.771 444.503 283.946 444.704 284.076ZM446.735 285.264C447.127 285.489 447.436 285.264 447.436 284.872C447.42 284.633 447.349 284.401 447.227 284.194C447.105 283.988 446.937 283.813 446.735 283.684C446.355 283.458 446.034 283.684 446.034 284.088C446.048 284.327 446.119 284.56 446.241 284.766C446.363 284.973 446.532 285.148 446.735 285.276M442.672 282.9C443.052 283.125 443.373 282.9 443.373 282.496C443.359 282.256 443.288 282.024 443.166 281.817C443.045 281.61 442.875 281.436 442.672 281.308C442.292 281.082 441.971 281.308 441.971 281.7C441.988 281.939 442.06 282.17 442.182 282.376C442.303 282.583 442.471 282.758 442.672 282.888"
        fill="#52BE79" />
    <g opacity="0.2">
        <path
            d="M521.983 325.739C522.444 326.044 522.828 326.451 523.104 326.929C523.38 327.408 523.541 327.944 523.575 328.495V330.942L440.415 282.912V280.464C440.415 279.454 441.14 279.051 442.019 279.549L521.983 325.739ZM444.704 284.076C445.084 284.29 445.405 284.076 445.405 283.672C445.389 283.433 445.317 283.201 445.195 282.995C445.074 282.788 444.905 282.613 444.704 282.484C444.324 282.258 444.003 282.484 444.003 282.888C444.02 283.127 444.092 283.358 444.213 283.564C444.335 283.771 444.503 283.946 444.704 284.076ZM446.735 285.264C447.127 285.489 447.436 285.264 447.436 284.872C447.42 284.633 447.349 284.401 447.227 284.194C447.105 283.988 446.937 283.813 446.735 283.684C446.355 283.458 446.034 283.684 446.034 284.088C446.048 284.327 446.119 284.56 446.241 284.766C446.363 284.973 446.532 285.148 446.735 285.276M442.672 282.9C443.052 283.125 443.373 282.9 443.373 282.496C443.359 282.256 443.288 282.024 443.166 281.817C443.045 281.61 442.875 281.436 442.672 281.308C442.292 281.082 441.971 281.308 441.971 281.7C441.988 281.939 442.06 282.17 442.182 282.376C442.303 282.583 442.471 282.758 442.672 282.888"
            fill="white" />
    </g>
    <path opacity="0.5"
        d="M523.979 324.476L443.979 278.287C443.805 278.166 443.597 278.102 443.385 278.102C443.173 278.102 442.966 278.166 442.791 278.287L440.902 279.475C441.081 279.391 441.279 279.357 441.475 279.376C441.672 279.395 441.859 279.466 442.019 279.582L522.019 325.771C522.48 326.076 522.863 326.483 523.14 326.962C523.416 327.44 523.577 327.976 523.611 328.527V330.975L525.607 329.715V327.268C525.575 326.707 525.41 326.162 525.128 325.677C524.845 325.192 524.451 324.78 523.979 324.476Z"
        fill="white" />
    <g opacity="0.5">
        <path
            d="M447.757 341.383L516.15 380.872L516.233 332.722C513.952 331.772 510.982 332.806 508.844 334.053C506.794 335.426 504.841 336.938 502.999 338.579C501.142 340.244 498.795 341.262 496.31 341.478C492.806 341.549 489.8 339.102 486.426 338.092C481.496 336.643 476.257 338.413 471.362 340.017C466.468 341.62 461.051 343.094 456.31 341.074C454.939 340.334 453.513 339.698 452.046 339.173C451.194 339.089 450.336 339.253 449.575 339.645C448.814 340.037 448.183 340.641 447.757 341.383Z"
            fill="white" />
    </g>
    <path d="M463.308 325.518L463.296 327.3L449.052 319.079L449.064 317.297L463.308 325.518Z" fill="white" />
    <path d="M449.063 314.281V316.063L467.299 326.601V324.807L449.063 314.281Z" fill="white" />
    <path d="M472.158 320.552L472.146 322.334L449.087 309.016V307.234L472.158 320.552Z" fill="white" />
    <path d="M482.862 323.714V325.508L449.087 306.001L449.099 304.219L482.862 323.714Z" fill="white" />
    <path d="M482.874 320.714V322.496L449.1 303.001L449.112 301.219L482.874 320.714Z" fill="white" />
    <path d="M467.3 307.295L467.288 310.075L449.111 299.573L449.123 296.805L467.3 307.295Z" fill="white" />
    <path
        d="M497.724 324.586L504.329 329.35L502.452 335.622L500.979 332.165L454.837 338.2L499.197 328.031L497.724 324.586Z"
        fill="#52BE79" />
    <path opacity="0.1"
        d="M523.396 307.365C523.409 307.55 523.378 307.736 523.306 307.907C523.233 308.078 523.122 308.23 522.98 308.351L524.917 307.163H524.976C525.118 307.042 525.229 306.89 525.302 306.719C525.374 306.548 525.405 306.362 525.392 306.177L525.558 242.797L523.563 244.068L523.396 307.365Z"
        fill="black" />
    <path
        d="M442.363 197.102L442.209 258.07C442.243 258.621 442.404 259.157 442.68 259.635C442.956 260.114 443.34 260.521 443.801 260.826L522.981 306.504V308.322L524.918 307.134H524.977C525.119 307.014 525.23 306.862 525.302 306.691C525.374 306.519 525.405 306.334 525.393 306.148L525.559 242.768L523.563 244.039L442.363 197.102Z"
        fill="#52BE79" />
    <path opacity="0.3"
        d="M442.363 197.102L442.209 258.07C442.243 258.621 442.404 259.157 442.68 259.635C442.956 260.114 443.34 260.521 443.801 260.826L522.981 306.504V308.322L524.918 307.134H524.977C525.119 307.014 525.23 306.862 525.302 306.691C525.374 306.519 525.405 306.334 525.393 306.148L525.559 242.768L523.563 244.039L442.363 197.102Z"
        fill="white" />
    <path
        d="M523.978 237.519L443.978 191.341C443.804 191.221 443.597 191.156 443.384 191.156C443.172 191.156 442.965 191.221 442.79 191.341L440.89 192.529L442.41 193.397V197.151L523.61 244.041L525.606 242.77V240.323C525.576 239.76 525.412 239.212 525.129 238.725C524.846 238.238 524.452 237.824 523.978 237.519Z"
        fill="#52BE79" />
    <path
        d="M523.563 243.992L523.397 307.36C523.397 308.381 522.672 308.785 521.793 308.274L441.805 262.097C441.343 261.791 440.958 261.382 440.682 260.901C440.405 260.421 440.245 259.882 440.213 259.329L440.379 195.961L523.563 243.992Z"
        fill="#52BE79" />
    <g opacity="0.5">
        <path
            d="M523.563 243.992L523.397 307.36C523.397 308.381 522.672 308.785 521.793 308.274L441.805 262.097C441.343 261.791 440.958 261.382 440.682 260.901C440.405 260.421 440.245 259.882 440.213 259.329L440.379 195.961L523.563 243.992Z"
            fill="white" />
    </g>
    <path
        d="M443.163 195.95C443.435 195.791 443.434 195.281 443.16 194.811C442.887 194.34 442.444 194.086 442.172 194.245C441.899 194.403 441.901 194.913 442.174 195.384C442.448 195.855 442.891 196.108 443.163 195.95Z"
        fill="#F5F5F5" />
    <path
        d="M444.704 195.512C444.905 195.641 445.074 195.816 445.196 196.023C445.317 196.229 445.389 196.461 445.405 196.7C445.405 197.14 445.084 197.318 444.704 197.092C444.502 196.963 444.333 196.789 444.211 196.582C444.089 196.376 444.018 196.143 444.003 195.904C444.003 195.464 444.312 195.286 444.704 195.512Z"
        fill="#F5F5F5" />
    <path
        d="M446.687 196.684C446.889 196.812 447.058 196.987 447.18 197.194C447.302 197.4 447.373 197.632 447.388 197.872C447.388 198.323 447.079 198.501 446.687 198.276C446.486 198.146 446.317 197.971 446.196 197.765C446.074 197.559 446.002 197.327 445.986 197.088C446.034 196.636 446.355 196.458 446.687 196.684Z"
        fill="#F5F5F5" />
    <path
        d="M521.983 238.791C522.448 239.091 522.834 239.498 523.111 239.977C523.388 240.456 523.547 240.995 523.575 241.547V243.994L440.415 195.964V193.516C440.415 192.507 441.14 192.091 442.019 192.602L521.983 238.791ZM444.704 197.116C445.084 197.342 445.405 197.116 445.405 196.724C445.389 196.485 445.317 196.253 445.195 196.047C445.074 195.84 444.905 195.665 444.704 195.536C444.324 195.31 444.003 195.536 444.003 195.94C444.018 196.179 444.089 196.411 444.211 196.618C444.333 196.824 444.502 196.999 444.704 197.128M446.735 198.316C447.127 198.542 447.436 198.316 447.436 197.912C447.421 197.673 447.35 197.44 447.228 197.234C447.106 197.027 446.937 196.853 446.735 196.724C446.355 196.498 446.034 196.724 446.034 197.116C446.05 197.355 446.122 197.587 446.244 197.793C446.365 198 446.534 198.175 446.735 198.304M442.672 195.928C443.052 196.154 443.373 195.928 443.373 195.536C443.357 195.297 443.286 195.065 443.164 194.859C443.042 194.652 442.874 194.477 442.672 194.348C442.292 194.134 441.971 194.348 441.971 194.752C441.985 194.991 442.056 195.224 442.178 195.431C442.3 195.637 442.469 195.812 442.672 195.94"
        fill="#52BE79" />
    <g opacity="0.2">
        <path
            d="M521.983 238.791C522.448 239.091 522.834 239.498 523.111 239.977C523.388 240.456 523.547 240.995 523.575 241.547V243.994L440.415 195.964V193.516C440.415 192.507 441.14 192.091 442.019 192.602L521.983 238.791ZM444.704 197.116C445.084 197.342 445.405 197.116 445.405 196.724C445.389 196.485 445.317 196.253 445.195 196.047C445.074 195.84 444.905 195.665 444.704 195.536C444.324 195.31 444.003 195.536 444.003 195.94C444.018 196.179 444.089 196.411 444.211 196.618C444.333 196.824 444.502 196.999 444.704 197.128M446.735 198.316C447.127 198.542 447.436 198.316 447.436 197.912C447.421 197.673 447.35 197.44 447.228 197.234C447.106 197.027 446.937 196.853 446.735 196.724C446.355 196.498 446.034 196.724 446.034 197.116C446.05 197.355 446.122 197.587 446.244 197.793C446.365 198 446.534 198.175 446.735 198.304M442.672 195.928C443.052 196.154 443.373 195.928 443.373 195.536C443.357 195.297 443.286 195.065 443.164 194.859C443.042 194.652 442.874 194.477 442.672 194.348C442.292 194.134 441.971 194.348 441.971 194.752C441.985 194.991 442.056 195.224 442.178 195.431C442.3 195.637 442.469 195.812 442.672 195.94"
            fill="white" />
    </g>
    <path opacity="0.5"
        d="M523.979 237.519L443.979 191.341C443.805 191.221 443.597 191.156 443.385 191.156C443.173 191.156 442.966 191.221 442.791 191.341L440.902 192.529C441.084 192.456 441.281 192.428 441.476 192.449C441.67 192.469 441.857 192.538 442.019 192.648L521.983 238.79C522.448 239.091 522.835 239.497 523.111 239.976C523.388 240.456 523.547 240.994 523.575 241.546V243.994L525.571 242.722V240.275C525.537 239.724 525.376 239.188 525.1 238.709C524.824 238.231 524.44 237.824 523.979 237.519Z"
        fill="white" />
    <path
        d="M458.781 250.872L458.722 257.905L453.649 254.97L453.625 263.524L458.698 266.447L453.625 263.524L453.708 247.938L458.781 250.872Z"
        fill="#52BE79" />
    <path
        d="M466.432 245.563L466.349 259.546L461.276 256.611L461.24 267.921L466.325 270.856L461.24 267.921L461.359 242.641L466.432 245.563Z"
        fill="#52BE79" />
    <path
        d="M474.023 262.239L473.964 266.183L468.915 263.273L468.855 272.313L473.94 275.248L468.855 272.313L468.95 259.305L474.023 262.239Z"
        fill="#52BE79" />
    <path
        d="M481.639 256.309L481.579 271.765L476.494 268.831L476.471 276.707L481.555 279.642L476.471 276.707L476.554 253.375L481.639 256.309Z"
        fill="#52BE79" />
    <path
        d="M451.154 251.989L451.095 255.066L446.022 252.132L445.998 259.117L451.083 262.051L445.998 259.117L446.069 249.055L451.154 251.989Z"
        fill="#52BE79" />
    <path
        d="M489.23 265.962L489.182 278.911L484.11 275.976L484.098 281.12L489.17 284.043L484.098 281.12L484.145 263.039L489.23 265.962Z"
        fill="#52BE79" />
    <path
        d="M496.857 267.075L496.809 282.365L491.737 279.442L491.713 285.513L496.798 288.447L491.713 285.513L491.772 264.141L496.857 267.075Z"
        fill="#52BE79" />
    <path
        d="M504.496 263.786L504.437 284.576L499.352 281.653L499.328 289.91L504.413 292.844L499.328 289.91L499.411 260.852L504.496 263.786Z"
        fill="#52BE79" />
    <path
        d="M512.135 256.239L512.063 287.056L506.979 284.121L506.955 294.303L512.028 297.237L506.955 294.303L507.05 253.305L512.135 256.239Z"
        fill="#52BE79" />
    <path
        d="M519.726 250.762L519.667 294.065L514.594 291.131L514.57 298.71L519.655 301.633L514.57 298.71L514.642 247.828L519.726 250.762Z"
        fill="#52BE79" />
    <path d="M473.964 266.184L473.94 275.248L468.855 272.314L468.915 263.273L473.964 266.184Z" fill="#52BE79" />
    <path d="M481.579 271.77L481.555 279.647L476.471 276.712L476.494 268.836L481.579 271.77Z" fill="#52BE79" />
    <path d="M451.095 255.067L451.083 262.053L445.998 259.118L446.022 252.133L451.095 255.067Z" fill="#52BE79" />
    <path d="M489.182 278.911L489.17 284.043L484.098 281.121L484.11 275.977L489.182 278.911Z" fill="#52BE79" />
    <path d="M504.437 284.579L504.413 292.847L499.328 289.913L499.352 281.656L504.437 284.579Z" fill="#52BE79" />
    <path d="M512.063 287.059L512.028 297.241L506.955 294.306L506.979 284.125L512.063 287.059Z" fill="#52BE79" />
    <path d="M458.722 257.903L458.698 266.445L453.625 263.522L453.649 254.969L458.722 257.903Z" fill="#52BE79" />
    <path d="M466.349 259.544L466.325 270.854L461.24 267.919L461.276 256.609L466.349 259.544Z" fill="#52BE79" />
    <path d="M496.809 282.368L496.798 288.45L491.713 285.516L491.737 279.445L496.809 282.368Z" fill="#52BE79" />
    <path d="M519.667 294.067L519.655 301.635L514.57 298.712L514.594 291.133L519.667 294.067Z" fill="#52BE79" />
    <g opacity="0.2">
        <path d="M473.964 269.52L473.94 275.246L468.855 272.312L468.915 266.609L473.964 269.52Z" fill="black" />
    </g>
    <path opacity="0.2" d="M481.579 271.77L481.555 279.647L476.471 276.712L476.494 268.836L481.579 271.77Z"
        fill="black" />
    <path opacity="0.2" d="M451.095 257.786L451.083 262.051L445.998 259.116L446.022 254.852L451.095 257.786Z"
        fill="black" />
    <path opacity="0.2" d="M489.182 278.911L489.17 284.043L484.098 281.121L484.11 275.977L489.182 278.911Z"
        fill="black" />
    <path opacity="0.2" d="M504.437 276.2L504.413 292.844L499.328 289.91L499.352 273.266L504.437 276.2Z" fill="black" />
    <path opacity="0.2" d="M512.063 270.723L512.028 297.24L506.955 294.305L506.979 267.789L512.063 270.723Z"
        fill="black" />
    <path opacity="0.2" d="M458.722 257.903L458.698 266.445L453.625 263.522L453.649 254.969L458.722 257.903Z"
        fill="black" />
    <path opacity="0.2" d="M466.349 259.544L466.325 270.854L461.24 267.919L461.276 256.609L466.349 259.544Z"
        fill="black" />
    <path opacity="0.2" d="M496.809 282.368L496.798 288.45L491.713 285.516L491.737 279.445L496.809 282.368Z"
        fill="black" />
    <path opacity="0.2" d="M519.667 263.895L519.655 301.638L514.57 298.716L514.594 260.961L519.667 263.895Z"
        fill="black" />
    <path d="M466.444 239.825L466.432 244.031L461.359 241.096L461.371 236.891L466.444 239.825Z" fill="#52BE79" />
    <path d="M451.155 248.45V250.458L446.082 247.523V245.516L451.155 248.45Z" fill="#52BE79" />
    <path d="M489.23 263.356V264.425L484.157 261.491V260.422L489.23 263.356Z" fill="#52BE79" />
    <path d="M481.65 252.325L481.638 254.784L476.554 251.85L476.566 249.391L481.65 252.325Z" fill="#52BE79" />
    <path d="M474.035 257.645V260.698L468.95 257.776L468.962 254.711L474.035 257.645Z" fill="#52BE79" />
    <path d="M458.794 246.536V249.34L453.709 246.405L453.721 243.602L458.794 246.536Z" fill="#52BE79" />
    <path d="M504.507 259.579L504.496 262.24L499.423 259.306V256.656L504.507 259.579Z" fill="#52BE79" />
    <path d="M519.738 246.915L519.726 249.219L514.653 246.285V243.992L519.738 246.915Z" fill="#52BE79" />
    <path d="M496.869 263.989L496.857 265.533L491.772 262.599L491.784 261.055L496.869 263.989Z" fill="#52BE79" />
    <path d="M512.146 251.075L512.134 254.71L507.062 251.776L507.073 248.141L512.146 251.075Z" fill="#52BE79" />
    <g opacity="0.8">
        <path d="M466.444 239.825L466.432 244.031L461.359 241.096L461.371 236.891L466.444 239.825Z" fill="white" />
        <path d="M451.155 248.45V250.458L446.082 247.523V245.516L451.155 248.45Z" fill="white" />
        <path d="M489.23 263.356V264.425L484.157 261.491V260.422L489.23 263.356Z" fill="white" />
        <path d="M481.651 252.325L481.639 254.784L476.555 251.85L476.567 249.391L481.651 252.325Z" fill="white" />
        <path d="M474.036 257.645V260.698L468.951 257.776L468.963 254.711L474.036 257.645Z" fill="white" />
        <path d="M458.794 246.536V249.34L453.709 246.405L453.721 243.602L458.794 246.536Z" fill="white" />
        <path d="M504.507 259.579L504.496 262.24L499.423 259.306V256.656L504.507 259.579Z" fill="white" />
        <path d="M519.738 246.915L519.726 249.219L514.653 246.285V243.992L519.738 246.915Z" fill="white" />
        <path d="M496.869 263.989L496.857 265.533L491.772 262.599L491.784 261.055L496.869 263.989Z" fill="white" />
        <path d="M512.147 251.075L512.135 254.71L507.062 251.776L507.074 248.141L512.147 251.075Z" fill="white" />
    </g>
    <path d="M312.729 321.203L297.879 329.769V415.78L312.729 424.345L327.579 415.78V329.769L312.729 321.203Z"
        fill="#52BE79" />
    <path opacity="0.1" d="M312.729 338.343V424.342L297.879 415.777V329.766L312.729 338.343Z" fill="black" />
    <path opacity="0.2" d="M312.729 338.343V424.342L327.579 415.777V329.766L312.729 338.343Z" fill="black" />
    <path d="M291.048 353.586L276.21 362.163V429.012L291.048 437.578L305.898 429.012V362.163L291.048 353.586Z"
        fill="#52BE79" />
    <path opacity="0.5" d="M276.21 362.163L291.048 353.586L305.898 362.163L291.048 370.729L276.21 362.163Z"
        fill="white" />
    <path opacity="0.4" d="M291.048 370.73V437.578L276.21 429.013V362.164L291.048 370.73Z" fill="white" />
    <path opacity="0.3" d="M291.048 370.73V437.578L305.898 429.013V362.164L291.048 370.73Z" fill="white" />
    <path d="M268.429 401.586L253.579 410.163V441.978L268.429 450.543L283.267 441.978V410.163L268.429 401.586Z"
        fill="#52BE79" />
    <path opacity="0.1" d="M268.429 418.73V450.544L253.579 441.979V410.164L268.429 418.73Z" fill="black" />
    <path opacity="0.2" d="M268.429 418.73V450.544L283.267 441.979V410.164L268.429 418.73Z" fill="black" />
    <path d="M245.797 393.016L230.959 401.581V454.934L245.797 463.5L260.647 454.934V401.581L245.797 393.016Z"
        fill="#52BE79" />
    <path opacity="0.5" d="M230.959 401.581L245.797 393.016L260.647 401.581L245.797 410.158L230.959 401.581Z"
        fill="white" />
    <path opacity="0.4" d="M245.797 410.163V463.504L230.959 454.939V401.586L245.797 410.163Z" fill="white" />
    <path opacity="0.3" d="M245.797 410.163V463.504L260.647 454.939V401.586L245.797 410.163Z" fill="white" />
    <path
        d="M332.759 370.656L336.323 386.1L330.24 385.981C325.488 397.861 306.041 440.57 260.528 466.849C273.905 458.782 287.175 446.593 298.544 431.933C309.361 417.919 318.085 402.408 324.443 385.886L318.253 385.768L332.759 370.656Z"
        fill="#455A64" />
    <path
        d="M411.713 115.533C411.214 114.648 410.488 113.91 409.611 113.395L380.707 96.763C378.176 95.3137 372.177 97.2858 372.177 101.349V122.02C372.176 123.014 372.438 123.99 372.937 124.85C373.436 125.709 374.153 126.422 375.016 126.914L397.327 139.662L393.466 137.464L395.319 142.703C395.346 142.777 395.4 142.838 395.471 142.874C395.542 142.909 395.623 142.916 395.699 142.893C396.02 142.727 397.481 141.943 398.301 141.396H398.36H398.432L398.883 140.66L403.908 143.523C404.742 144.042 405.697 144.332 406.679 144.364C407.66 144.395 408.633 144.166 409.497 143.701C410.362 143.235 411.088 142.55 411.603 141.713C412.117 140.876 412.401 139.919 412.426 138.937V118.29C412.428 117.325 412.183 116.376 411.713 115.533Z"
        fill="#52BE79" />
    <path opacity="0.2"
        d="M398.443 141.375H398.372H398.313C397.493 141.922 396.032 142.706 395.711 142.872C395.787 142.852 395.855 142.805 395.901 142.741L397.683 139.843L397.338 139.641L398.907 140.544L398.443 141.375Z"
        fill="white" />
    <path opacity="0.4"
        d="M406.094 118.716C405.737 117.983 405.221 117.338 404.585 116.827C404.367 116.657 404.137 116.502 403.896 116.364L374.992 99.7915C374.706 99.6304 374.383 99.5467 374.055 99.5485C373.727 99.5504 373.404 99.6378 373.12 99.8021C372.836 99.9664 372.6 100.202 372.434 100.485C372.269 100.769 372.18 101.091 372.177 101.419C372.177 97.3561 378.176 95.384 380.707 96.8333L409.611 113.465C410.488 113.98 411.214 114.718 411.713 115.604L406.094 118.716Z"
        fill="white" />
    <path opacity="0.2"
        d="M406.736 141.846V125.214C406.736 124.988 406.736 120.771 406.736 120.557C406.647 119.906 406.446 119.275 406.142 118.692L411.761 115.508C412.234 116.349 412.484 117.298 412.486 118.264V138.864C412.464 139.847 412.182 140.807 411.669 141.646C411.155 142.485 410.429 143.172 409.563 143.638C408.697 144.104 407.723 144.333 406.74 144.299C405.757 144.266 404.8 143.973 403.968 143.45C404.25 143.602 404.567 143.679 404.888 143.675C405.209 143.67 405.523 143.583 405.8 143.422C406.078 143.261 406.31 143.032 406.474 142.756C406.637 142.48 406.728 142.167 406.736 141.846Z"
        fill="white" />
    <path
        d="M388.453 113.109L395.699 127.045L391.601 124.68L391.577 131.488L385.245 127.829L385.257 121.021L381.158 118.657L388.453 113.109Z"
        fill="white" />
    <path
        d="M375.741 200.059C373.945 200.29 372.249 201.014 370.84 202.151C369.43 203.287 368.364 204.792 367.757 206.498L358.455 232.515L338.01 219.993C336.769 219.07 335.827 217.801 335.301 216.346L334.351 213.744C333.698 211.965 332.537 210.416 331.013 209.289C328.729 207.578 326.673 205.582 324.894 203.349C324.32 203.976 323.98 204.782 323.932 205.631C323.885 206.48 324.132 207.319 324.633 208.006C325.375 208.999 326.189 209.936 327.068 210.81L324.871 210.965C323.282 211.077 321.698 210.686 320.344 209.848L314.761 206.438C314.601 206.339 314.418 206.284 314.23 206.279C314.042 206.274 313.856 206.319 313.692 206.41C313.527 206.501 313.39 206.634 313.294 206.796C313.198 206.957 313.146 207.141 313.145 207.329C313.221 210.09 313.768 212.818 314.761 215.396C315.207 216.625 315.913 217.744 316.832 218.674C317.751 219.605 318.86 220.327 320.083 220.789C323.053 221.977 325.928 222.904 327.579 223.462C328.518 223.774 329.401 224.235 330.193 224.828L331.844 226.016L354.024 247.614C355.146 248.536 356.462 249.193 357.873 249.537C359.284 249.88 360.755 249.9 362.175 249.597C363.595 249.293 364.929 248.673 366.076 247.783C367.224 246.892 368.156 245.755 368.803 244.454L376.05 229.937L380.279 199.477L375.741 200.059Z"
        fill="#FFA8A7" />
    <path opacity="0.2" d="M358.456 232.512L364.431 236.991L360.119 227.867L358.456 232.512Z" fill="black" />
    <path
        d="M380.279 199.477L375.527 199.964C373.437 200.176 371.45 200.975 369.793 202.268C368.137 203.56 366.88 205.294 366.166 207.27L359.465 225.719C362.827 233.94 374.553 234.891 374.553 234.891L378.568 227.834L380.279 199.477Z"
        fill="#455A64" />
    <path opacity="0.4"
        d="M380.279 199.477L375.527 199.964C373.437 200.176 371.45 200.975 369.793 202.268C368.137 203.56 366.88 205.294 366.166 207.27L359.465 225.719C362.827 233.94 374.553 234.891 374.553 234.891L378.568 227.834L380.279 199.477Z"
        fill="white" />
    <path
        d="M360.166 397.648C361.144 398.578 362.302 399.299 363.569 399.765C364.836 400.231 366.184 400.432 367.532 400.357C370.228 400.177 372.868 399.509 375.325 398.385C377.82 397.363 380.956 394.488 383.641 394.547C386.279 394.524 388.913 394.346 391.529 394.013C391.624 390.415 391.249 386.821 390.413 383.321L377.784 383C374.387 387.645 367.781 391.518 362.78 392.979C362.011 393.194 361.315 393.615 360.768 394.198C360.222 394.78 359.845 395.501 359.679 396.282V396.365C359.785 396.812 359.948 397.244 360.166 397.648Z"
        fill="#455A64" />
    <path
        d="M383.641 394.542C380.956 394.483 377.82 397.358 375.325 398.38C372.868 399.504 370.227 400.172 367.532 400.352C366.184 400.427 364.835 400.226 363.568 399.76C362.302 399.294 361.144 398.574 360.166 397.643C359.964 397.236 359.817 396.805 359.726 396.36V396.277C359.607 396.829 359.607 397.4 359.726 397.952C359.817 398.397 359.964 398.828 360.166 399.235C361.142 400.168 362.3 400.89 363.567 401.356C364.834 401.822 366.184 402.022 367.532 401.944C370.227 401.768 372.867 401.104 375.325 399.983C377.82 398.95 380.956 396.087 383.641 396.134C386.237 396.159 388.833 396.012 391.41 395.695C391.41 395.125 391.505 394.566 391.529 394.008C388.912 394.341 386.278 394.519 383.641 394.542Z"
        fill="#263238" />
    <path
        d="M419.162 398.821C419.171 400.102 419.047 401.38 418.794 402.635C418.388 404.872 417.138 406.867 415.301 408.206C413.61 409.167 411.699 409.675 409.753 409.68C408.044 409.853 406.318 409.676 404.68 409.157C403.454 408.717 402.409 407.881 401.71 406.781C401.718 406.8 401.718 406.821 401.71 406.84C401.948 407.668 402.384 408.424 402.98 409.045C403.576 409.666 404.315 410.133 405.132 410.404C406.767 410.933 408.495 411.115 410.205 410.939C412.151 410.933 414.063 410.421 415.753 409.454C417.579 408.112 418.825 406.123 419.233 403.894C419.496 402.64 419.624 401.362 419.614 400.081C419.618 399.204 419.801 398.338 420.153 397.535C420.504 396.732 421.016 396.009 421.657 395.412C421.978 395.115 422.275 394.806 422.548 394.497C422.746 394.27 422.896 394.007 422.99 393.721C423.084 393.435 423.119 393.133 423.094 392.834C423.083 392.599 423.059 392.365 423.023 392.133C422.56 392.667 421.479 393.962 421.205 394.212C420.572 394.803 420.065 395.516 419.714 396.308C419.363 397.1 419.175 397.955 419.162 398.821Z"
        fill="#263238" />
    <path
        d="M409.539 385.531C409.955 388.149 409.617 390.832 408.565 393.265C407.503 395.682 406.124 397.947 404.467 400.001C403.652 400.969 402.936 402.016 402.328 403.126C401.737 404.214 401.52 405.466 401.71 406.69C402.409 407.789 403.454 408.625 404.68 409.066C406.318 409.584 408.044 409.762 409.753 409.588C411.699 409.584 413.61 409.076 415.301 408.115C417.138 406.775 418.388 404.78 418.794 402.543C419.047 401.288 419.171 400.01 419.162 398.73C419.169 397.853 419.354 396.986 419.708 396.183C420.061 395.38 420.575 394.658 421.217 394.061C421.491 393.812 422.572 392.517 423.035 391.982C422.781 390.072 422.143 388.233 421.158 386.577L409.539 385.531Z"
        fill="#455A64" />
    <path
        d="M372.379 261.266L373.424 333.021L376.81 383.249C385.387 388.667 391.589 384.235 391.589 384.235C394.844 360.475 395.284 345.804 393.513 335.908L395.141 297.179L400.012 337.381L408.221 386.659C417.012 392.361 423.225 386.659 423.225 386.659C423.225 368.423 424.853 348.025 419.828 334.874C421.974 310.576 421.176 286.108 417.452 262.002L372.379 261.266Z"
        fill="#263238" />
    <path opacity="0.3"
        d="M393.347 282.388L395.141 297.178L394.416 315.319L391.113 285.5C383.463 282.506 382.465 278.289 382.465 278.289C385.693 280.543 389.434 281.952 393.347 282.388Z"
        fill="black" />
    <path
        d="M388.678 198.586L380.279 199.477C373.412 205.536 369.86 218.247 371.345 232.289C372.249 241.92 372.594 251.595 372.379 261.265C390.995 274.856 414.505 264.959 417.463 262.001L416.074 244.787C415.924 242.846 416.246 240.898 417.012 239.109C418.77 235.034 421.918 226.991 422.334 220.766C422.59 215.217 421.42 209.696 418.937 204.728L406.748 199.406L388.678 198.586Z"
        fill="#455A64" />
    <g opacity="0.5">
        <path
            d="M388.678 198.586L380.279 199.477C373.412 205.536 369.86 218.247 371.345 232.289C372.249 241.92 372.594 251.595 372.379 261.265C390.995 274.856 414.505 264.959 417.463 262.001L416.074 244.787C415.924 242.846 416.246 240.898 417.012 239.109C418.77 235.034 421.918 226.991 422.334 220.766C422.59 215.217 421.42 209.696 418.937 204.728L406.748 199.406L388.678 198.586Z"
            fill="white" />
    </g>
    <path
        d="M386.338 210.82C382.029 221.225 379.688 232.339 379.436 243.597L382.893 251.022L388.298 243.894C387.883 233.013 388.101 222.116 388.951 211.26L386.338 210.82Z"
        fill="#455A64" />
    <path
        d="M386.1 204.727C385.951 206.762 386.046 208.808 386.385 210.821C387.195 211.22 388.101 211.384 388.999 211.296C390.65 209.836 392.065 208.129 393.193 206.235L388.999 204.727H386.1Z"
        fill="#455A64" />
    <path
        d="M388.951 204.724C392.515 206.055 395.782 212.482 395.782 212.482C405.286 204.427 406.747 199.414 406.747 199.414C405.514 197.535 403.958 195.89 402.15 194.555L388.951 204.724Z"
        fill="#455A64" />
    <path
        d="M388.951 204.729C386.195 204.801 383.76 208.638 383.76 208.638C383.32 201.914 388.951 196.758 388.951 196.758V204.729Z"
        fill="#455A64" />
    <g opacity="0.35">
        <path
            d="M388.951 204.724C392.515 206.055 395.782 212.482 395.782 212.482C405.286 204.427 406.747 199.414 406.747 199.414C405.514 197.535 403.958 195.89 402.15 194.555L388.951 204.724Z"
            fill="white" />
        <path
            d="M388.951 204.721C386.195 204.793 383.76 208.63 383.76 208.63C383.32 201.906 388.951 196.75 388.951 196.75V204.721Z"
            fill="white" />
    </g>
    <path
        d="M406.748 167.425C405.538 166.009 403.844 165.095 401.996 164.859L377.048 167.235C374.161 173.425 376.466 177.512 376.466 177.512C376.074 186.956 375.753 192.956 379.851 194.951C382.736 196.124 385.867 196.565 388.963 196.234C391.86 196.054 394.689 195.286 397.279 193.977L397.41 193.906C398.311 193.417 399.096 192.739 399.711 191.919C400.326 191.099 400.757 190.156 400.974 189.154C401.4 187.313 401.69 185.442 401.841 183.558C401.879 182.49 401.994 181.426 402.186 180.375C402.377 179.319 402.863 178.339 403.588 177.547C403.95 177.161 404.402 176.87 404.903 176.7C405.405 176.53 405.94 176.486 406.463 176.573C406.644 176.62 406.82 176.687 406.985 176.775C407.698 172.534 407.912 168.899 406.748 167.425Z"
        fill="#263238" />
    <path
        d="M397.6 168.149C397.182 169.912 397.315 171.762 397.98 173.447C398.636 175.124 399.164 176.847 399.56 178.603C399.889 180.366 399.652 182.187 398.883 183.807C398.494 184.601 397.937 185.3 397.249 185.856C396.562 186.413 395.761 186.812 394.903 187.026C392.219 187.608 389.593 186.016 386.908 185.494C384.322 185.032 381.655 185.508 379.388 186.836C379.195 186.952 378.976 187.015 378.751 187.02C378.527 187.026 378.305 186.972 378.107 186.866C377.909 186.759 377.743 186.603 377.624 186.412C377.505 186.222 377.437 186.003 377.428 185.779C377.107 180.35 377.119 171.832 377.903 167.828L397.6 168.149Z"
        fill="#FFA8A7" />
    <path
        d="M402.328 186.242C402.328 186.242 402.328 188.452 402.221 191.077C403.358 190.12 404.185 188.846 404.597 187.418C403.715 187.34 402.9 186.918 402.328 186.242Z"
        fill="#37474F" />
    <path d="M386.112 177.781L381.562 183.389L385.744 184.886L386.112 177.781Z" fill="#F28F8F" />
    <path
        d="M389.557 187.703L385.993 188.796C386.214 189.215 386.566 189.55 386.995 189.749C387.424 189.949 387.907 190.002 388.369 189.901C388.789 189.726 389.136 189.413 389.353 189.013C389.569 188.612 389.641 188.15 389.557 187.703Z"
        fill="#F28F8F" />
    <path opacity="0.3"
        d="M389.557 187.703L385.993 188.796C386.214 189.215 386.566 189.55 386.995 189.749C387.424 189.949 387.907 190.002 388.369 189.901C388.789 189.726 389.136 189.413 389.353 189.013C389.569 188.612 389.641 188.15 389.557 187.703Z"
        fill="black" />
    <path
        d="M387.288 189.797C387.667 189.945 388.083 189.97 388.476 189.868C388.813 189.749 389.107 189.531 389.319 189.243C389.531 188.955 389.651 188.61 389.664 188.252C389.196 188.177 388.716 188.269 388.31 188.514C388.06 188.645 387.84 188.826 387.664 189.047C387.488 189.268 387.36 189.523 387.288 189.797Z"
        fill="#F28F8F" />
    <path
        d="M392.314 179.016C392.297 179.264 392.207 179.501 392.056 179.698C391.905 179.895 391.698 180.043 391.463 180.123C391.228 180.203 390.975 180.212 390.735 180.148C390.495 180.085 390.279 179.952 390.114 179.766C389.95 179.58 389.844 179.349 389.81 179.103C389.776 178.857 389.815 178.607 389.923 178.383C390.032 178.159 390.203 177.973 390.417 177.847C390.631 177.72 390.878 177.66 391.126 177.674C391.461 177.695 391.774 177.848 391.996 178.1C392.219 178.351 392.333 178.681 392.314 179.016Z"
        fill="#263238" />
    <path
        d="M381.847 178.03C381.829 178.362 381.68 178.673 381.433 178.896C381.186 179.118 380.86 179.234 380.528 179.218C380.212 179.175 379.923 179.016 379.719 178.77C379.516 178.525 379.412 178.211 379.428 177.893C379.444 177.574 379.58 177.273 379.808 177.05C380.036 176.826 380.34 176.697 380.659 176.688C380.826 176.697 380.989 176.739 381.139 176.811C381.289 176.884 381.423 176.985 381.534 177.11C381.644 177.235 381.729 177.381 381.783 177.539C381.836 177.697 381.858 177.864 381.847 178.03Z"
        fill="#263238" />
    <path
        d="M380.897 172.927L378.022 174.721C377.919 174.367 377.926 173.989 378.043 173.639C378.16 173.289 378.38 172.983 378.675 172.761C379.023 172.575 379.417 172.492 379.81 172.521C380.204 172.551 380.58 172.692 380.897 172.927Z"
        fill="#263238" />
    <path
        d="M391.601 173.349L394.262 175.44C394.4 175.099 394.434 174.725 394.357 174.365C394.281 174.005 394.099 173.676 393.834 173.42C393.506 173.2 393.123 173.076 392.728 173.064C392.333 173.051 391.942 173.15 391.601 173.349Z"
        fill="#263238" />
    <path
        d="M408.672 178.567C408.339 177.768 407.727 177.118 406.949 176.737C406.784 176.65 406.608 176.582 406.427 176.535C405.904 176.449 405.369 176.493 404.867 176.662C404.366 176.832 403.914 177.123 403.552 177.51C402.827 178.301 402.341 179.281 402.15 180.337C401.958 181.389 401.843 182.453 401.805 183.521C401.652 185.449 401.354 187.363 400.914 189.247C400.687 190.231 400.252 191.155 399.637 191.957C399.022 192.758 398.242 193.418 397.35 193.892H397.232C394.641 195.201 391.812 195.969 388.916 196.149V204.667L400.724 197.682C401.137 197.435 401.481 197.087 401.724 196.672C401.966 196.257 402.101 195.787 402.114 195.306C402.114 193.94 402.174 192.443 402.209 191.053C402.269 188.427 402.316 186.218 402.316 186.218C402.875 186.887 403.671 187.313 404.538 187.406C404.929 187.493 405.335 187.493 405.726 187.406C406.287 187.226 406.806 186.935 407.251 186.549C407.696 186.163 408.059 185.691 408.316 185.16C408.842 184.091 409.125 182.919 409.147 181.727C409.238 180.651 409.075 179.569 408.672 178.567Z"
        fill="#FFA8A7" />
    <path opacity="0.2"
        d="M398.966 193.788C399.66 192.875 400.154 191.827 400.416 190.711C399.774 192.066 398.717 193.182 397.398 193.895H397.279C394.689 195.204 391.86 195.972 388.963 196.152V198.397C390.648 198.249 392.308 197.894 393.905 197.34C395.892 196.654 397.646 195.423 398.966 193.788Z"
        fill="black" />
    <path
        d="M403.516 165.558C400.582 168.171 395.925 169.359 392.028 169.858C388.112 170.286 384.15 169.951 380.362 168.872C378.731 168.6 377.249 167.758 376.18 166.496C375.671 165.665 375.371 164.724 375.305 163.752C375.238 162.78 375.408 161.806 375.798 160.914C376.189 160.021 376.79 159.236 377.549 158.626C378.309 158.016 379.204 157.598 380.16 157.408C383.855 156.731 387.395 159.606 391.137 159.38C392.768 159.162 394.364 158.739 395.889 158.121C397.402 157.508 399.079 157.432 400.641 157.907C401.284 158.186 401.86 158.6 402.329 159.12C402.799 159.641 403.151 160.256 403.362 160.925C403.851 162.423 403.905 164.03 403.516 165.558Z"
        fill="#263238" />
    <path
        d="M364.93 261.644L356.4 226.634C356.266 226.093 356.025 225.585 355.69 225.14C355.355 224.695 354.934 224.322 354.452 224.044L333.068 211.724C332.944 211.656 332.805 211.619 332.664 211.618C332.239 211.61 331.823 211.736 331.475 211.98C331.127 212.223 330.865 212.57 330.727 212.972C330.647 213.142 330.626 213.335 330.668 213.518L339.245 248.529C339.378 249.071 339.619 249.581 339.954 250.028C340.289 250.476 340.71 250.85 341.194 251.13L362.578 263.438C362.75 263.538 362.953 263.572 363.148 263.533C363.529 263.46 363.888 263.3 364.198 263.065C364.507 262.83 364.757 262.527 364.93 262.179C364.935 262.155 364.935 262.131 364.93 262.108C364.974 261.956 364.974 261.795 364.93 261.644Z"
        fill="#52BE79" />
    <path opacity="0.3"
        d="M363.754 262.548L355.212 227.514C355.077 226.972 354.835 226.463 354.5 226.017C354.166 225.57 353.745 225.194 353.264 224.912L331.88 212.605C331.779 212.544 331.667 212.505 331.55 212.491C331.434 212.476 331.315 212.487 331.203 212.522C331.091 212.556 330.987 212.615 330.899 212.692C330.811 212.77 330.74 212.866 330.692 212.973C330.611 213.143 330.591 213.336 330.632 213.519L339.21 248.53C339.342 249.072 339.583 249.582 339.918 250.029C340.253 250.476 340.675 250.851 341.158 251.131L362.542 263.439C362.682 263.51 362.839 263.539 362.995 263.524C363.151 263.51 363.3 263.451 363.424 263.355C363.548 263.26 363.643 263.131 363.697 262.984C363.751 262.837 363.762 262.678 363.73 262.524L363.754 262.548Z"
        fill="black" />
    <path
        d="M415.717 203.289C410.965 208.172 405.357 224.234 403.017 231.504L397.849 245.998C390.4 246.378 389.64 247.4 383.522 248.469C381.574 248.813 377.13 249.764 374.184 250.096C373.642 250.127 373.099 250.127 372.557 250.096C370.074 249.764 368.137 247.221 361.152 246.437L362.269 250.916C357.814 251.819 352.432 245.606 350.151 246.615C347.87 247.625 351.078 249.93 351.078 249.93C350.875 250.817 350.943 251.744 351.274 252.591C351.604 253.438 352.181 254.167 352.931 254.682C352.931 257.486 355.509 259.862 361.995 261.394C365.417 262.083 369.123 260.741 372.272 260.741H374.826L403.338 261.37C404.992 261.37 406.613 260.91 408.021 260.041C409.429 259.173 410.567 257.93 411.309 256.452C413.685 251.605 417.249 244.572 418.128 242.398C430.579 212.567 429.545 206.247 415.717 203.289Z"
        fill="#FFA8A7" />
    <path opacity="0.2"
        d="M397.85 246C400.843 245.986 403.827 246.337 406.736 247.045C404.724 244.724 402.203 242.899 399.37 241.711L397.85 246Z"
        fill="black" />
    <path
        d="M415.717 203.289C405.108 214.219 400.416 235.223 400.416 235.223C409.658 245.214 419.792 240.794 419.792 240.794C419.792 240.794 424.972 229.972 426.825 220.86C429.355 206.996 424.116 204.94 415.717 203.289Z"
        fill="#455A64" />
    <path opacity="0.4"
        d="M415.717 203.289C405.108 214.219 400.416 235.223 400.416 235.223C409.658 245.214 419.792 240.794 419.792 240.794C419.792 240.794 424.972 229.972 426.825 220.86C429.355 206.996 424.116 204.94 415.717 203.289Z"
        fill="white" />
    <path d="M376.905 254.337H373.115V249.811L376.905 249.336V254.337Z" fill="#37474F" />
    <path d="M376.905 261.205H373.115V256.678L376.905 256.203V261.205Z" fill="#37474F" />
    <path
        d="M378.972 256.607C378.972 254.944 377.226 253.602 375.076 253.602C372.925 253.602 371.167 254.944 371.167 256.607V257.581H371.405C371.795 258.202 372.337 258.714 372.979 259.069C373.621 259.423 374.342 259.61 375.076 259.61C375.809 259.61 376.53 259.423 377.173 259.069C377.815 258.714 378.356 258.202 378.746 257.581H378.972V256.607Z"
        fill="#263238" />
    <path
        d="M378.972 257.615C378.972 259.278 377.226 260.633 375.076 260.633C372.925 260.633 371.167 259.278 371.167 257.615C371.167 255.952 372.913 254.609 375.076 254.609C377.238 254.609 378.972 255.964 378.972 257.615Z"
        fill="#455A64" />
    <path
        d="M375.016 259.414C374.387 259.475 373.757 259.309 373.24 258.945C372.723 258.581 372.354 258.043 372.201 257.43C372.195 257.493 372.195 257.557 372.201 257.62C372.369 258.246 372.739 258.799 373.253 259.193C373.768 259.588 374.398 259.801 375.046 259.801C375.694 259.801 376.324 259.588 376.838 259.193C377.353 258.799 377.723 258.246 377.891 257.62C377.897 257.557 377.897 257.493 377.891 257.43C377.736 258.054 377.359 258.6 376.829 258.966C376.3 259.331 375.655 259.49 375.016 259.414Z"
        fill="#263238" />
    <path
        d="M375.016 259.407C375.382 259.278 375.706 259.051 375.952 258.75C376.198 258.45 376.356 258.087 376.409 257.702C376.463 257.318 376.409 256.926 376.255 256.57C376.1 256.213 375.85 255.907 375.533 255.683C375.215 255.459 374.843 255.327 374.455 255.302C374.068 255.276 373.681 255.357 373.336 255.537C372.992 255.717 372.704 255.988 372.503 256.32C372.303 256.653 372.198 257.034 372.2 257.423C372.354 258.036 372.723 258.574 373.239 258.938C373.756 259.302 374.387 259.468 375.016 259.407Z"
        fill="#37474F" />
    <path
        d="M183.997 320.552C177.535 315.396 172.189 325.067 168.292 335.854C165.916 342.388 163.54 348.779 161.936 352.783C161.439 354.074 161.279 355.47 161.472 356.841C161.666 358.211 162.206 359.509 163.041 360.612L174.529 375.889L179.661 364.793L173.294 355.147L179.78 343.267L183.997 320.552Z"
        fill="#455A64" />
    <path opacity="0.2"
        d="M175.016 351.992L179.768 343.284L181.99 331.297L174.588 335.692C173.562 338.299 173.071 341.085 173.145 343.886C173.218 346.686 173.855 349.443 175.016 351.992Z"
        fill="black" />
    <path opacity="0.2"
        d="M171.512 371.849L174.529 375.864L179.661 364.768L176.097 359.398C175.386 361.752 174.468 364.038 173.353 366.229C172.488 368.01 171.868 369.901 171.512 371.849Z"
        fill="black" />
    <path
        d="M200.629 516.305C200.903 515.343 201.128 514.369 201.318 513.383C202.55 515.424 204.243 517.149 206.26 518.42C208.007 519.466 209.89 520.266 211.856 520.796C215.334 521.783 218.932 522.287 222.548 522.293C223.747 522.418 224.949 522.082 225.91 521.354C226.227 521.029 226.449 520.625 226.554 520.183C226.658 519.742 226.641 519.28 226.504 518.848C226.368 518.468 226.144 518.126 225.851 517.85C226.243 517.957 226.647 518.052 227.039 518.135C228.46 518.332 229.835 518.778 231.102 519.453C231.717 519.802 232.211 520.33 232.519 520.967C232.826 521.603 232.933 522.319 232.824 523.017C232.571 523.618 232.192 524.157 231.712 524.597C231.233 525.038 230.664 525.37 230.044 525.572C225.457 527.593 220.288 527.863 215.515 526.332C212.569 525.382 209.729 523.73 206.641 523.813C204.87 523.813 202.934 524.443 201.461 523.481C200.941 523.089 200.524 522.575 200.249 521.985C199.973 521.394 199.847 520.746 199.881 520.095C199.961 518.804 200.212 517.53 200.629 516.305Z"
        fill="#37474F" />
    <path
        d="M176.869 497.161C177.287 497.973 177.875 498.686 178.592 499.251C179.203 499.721 179.913 500.047 180.668 500.203C181.423 500.359 182.204 500.343 182.952 500.154C184.375 499.632 185.642 498.757 186.635 497.612L190.496 493.846C191.505 492.872 192.598 491.696 192.503 490.282C192.383 489.557 192.029 488.892 191.494 488.388C190.96 487.884 190.276 487.569 189.545 487.49C188.68 487.375 187.801 487.428 186.955 487.645L187.336 487.36C188.324 486.66 189.383 486.067 190.496 485.589C191.675 484.972 193.034 484.791 194.333 485.079C195.1 485.378 195.76 485.899 196.228 486.577C196.696 487.255 196.951 488.057 196.958 488.88C196.949 490.54 196.361 492.145 195.295 493.418C194.248 494.693 193.104 495.884 191.874 496.982C190.274 498.526 188.8 500.194 187.466 501.972C186.544 503.336 185.498 504.613 184.342 505.785C183.169 506.963 181.584 507.636 179.922 507.662C179.232 507.647 178.56 507.443 177.978 507.072C177.395 506.702 176.926 506.178 176.62 505.56C176.328 504.734 176.231 503.852 176.335 502.982C176.411 501.033 176.59 499.09 176.869 497.161Z"
        fill="#37474F" />
    <path
        d="M226.469 518.816C226.332 518.437 226.108 518.095 225.815 517.818C220.558 516.545 215.567 514.354 211.072 511.344C211.761 495.234 217.606 453.405 217.606 453.405C217.606 453.405 219.638 417.67 216.929 383.384L172.7 378.977C171.512 383.004 168.708 398.163 177.309 438.056C170.181 458.085 175.159 469.3 177.309 493.892H177.392C177.392 494.082 177.309 494.272 177.273 494.462C177.107 495.329 177 496.208 176.87 497.088C177.287 497.9 177.875 498.613 178.592 499.178C179.198 499.66 179.905 499.999 180.66 500.167C181.415 500.336 182.199 500.331 182.952 500.153C184.375 499.63 185.642 498.756 186.635 497.61L190.496 493.844C191.506 492.87 192.599 491.694 192.504 490.28C192.383 489.556 192.029 488.89 191.495 488.386C190.96 487.882 190.276 487.567 189.545 487.488C188.68 487.373 187.801 487.426 186.956 487.643C186.54 487.964 186.148 488.273 185.768 488.558L193.205 443.639L194.951 411.385L199.323 451.575C193.205 469.015 202.174 478.685 202.174 506.568C202.1 508.856 201.83 511.133 201.366 513.375C202.598 515.416 204.291 517.141 206.308 518.412C208.055 519.459 209.938 520.258 211.904 520.788C215.382 521.775 218.98 522.279 222.596 522.285C223.795 522.41 224.997 522.074 225.958 521.346C226.264 521.011 226.474 520.598 226.564 520.152C226.654 519.706 226.621 519.244 226.469 518.816Z"
        fill="#FFA8A7" />
    <path opacity="0.2"
        d="M226.469 518.816C226.332 518.437 226.108 518.095 225.815 517.818C220.558 516.545 215.567 514.354 211.072 511.344C211.761 495.234 217.606 453.405 217.606 453.405C217.606 453.405 219.638 417.67 216.929 383.384L172.7 378.977C171.512 383.004 168.708 398.163 177.309 438.056C170.181 458.085 175.159 469.3 177.309 493.892H177.392C177.392 494.082 177.309 494.272 177.273 494.462C177.107 495.329 177 496.208 176.87 497.088C177.287 497.9 177.875 498.613 178.592 499.178C179.198 499.66 179.905 499.999 180.66 500.167C181.415 500.336 182.199 500.331 182.952 500.153C184.375 499.63 185.642 498.756 186.635 497.61L190.496 493.844C191.506 492.87 192.599 491.694 192.504 490.28C192.383 489.556 192.029 488.89 191.495 488.386C190.96 487.882 190.276 487.567 189.545 487.488C188.68 487.373 187.801 487.426 186.956 487.643C186.54 487.964 186.148 488.273 185.768 488.558L193.205 443.639L194.951 411.385L199.323 451.575C193.205 469.015 202.174 478.685 202.174 506.568C202.1 508.856 201.83 511.133 201.366 513.375C202.598 515.416 204.291 517.141 206.308 518.412C208.055 519.459 209.938 520.258 211.904 520.788C215.382 521.775 218.98 522.279 222.596 522.285C223.795 522.41 224.997 522.074 225.958 521.346C226.264 521.011 226.474 520.598 226.564 520.152C226.654 519.706 226.621 519.244 226.469 518.816Z"
        fill="black" />
    <path opacity="0.2"
        d="M218.283 431.664C218.461 418.394 218.283 400.705 216.929 383.384L172.699 378.977C171.63 382.766 169.052 396.405 175.895 431.249C181.019 435.038 187.12 437.284 193.478 437.723L194.903 411.456L197.79 438.08C205.171 438.482 212.449 436.204 218.283 431.664Z"
        fill="black" />
    <path
        d="M216.952 381.994L172.699 378.977C168.399 391.165 169.266 405.718 172.699 426.651C178.045 433.292 197.861 438.614 209.599 432.104L211 417.646L212.652 432.437C216.216 431.118 219.376 429.966 220.112 424.726C220.017 410.428 218.961 396.151 216.952 381.994Z"
        fill="#52BE79" />
    <path d="M209.884 297.977L212.973 303.762L210.276 305.615C210.062 303.144 210.038 300.448 209.884 297.977Z"
        fill="#F28F8F" />
    <path opacity="0.3"
        d="M209.884 297.977L212.973 303.762L210.276 305.615C210.062 303.144 210.038 300.448 209.884 297.977Z"
        fill="black" />
    <path
        d="M245.833 371.846C249.288 373.539 253.01 374.624 256.834 375.053C260.676 375.475 264.559 374.804 268.037 373.117C271.534 371.328 274.197 368.247 275.462 364.528C274.911 363.937 274.177 363.551 273.378 363.432C272.58 363.313 271.764 363.469 271.066 363.874C267.707 365.745 263.747 366.218 260.041 365.193C261.208 364.003 262.251 362.697 263.154 361.296C263.605 360.607 264.009 359.704 263.558 359.015C263.353 358.76 263.072 358.576 262.756 358.491C262.44 358.406 262.105 358.423 261.8 358.54C261.193 358.79 260.638 359.148 260.16 359.597C257.359 361.855 254.054 363.404 250.526 364.112C249.076 366.559 247.27 369.47 245.833 371.846Z"
        fill="#FFA8A7" />
    <path
        d="M205.381 323.793C199.608 322.011 182.809 318.34 178.556 322.177C174.838 325.539 172.426 337.099 177.44 351.937C178.895 356.172 178.682 360.802 176.846 364.886C174.67 369.566 172.97 374.454 171.773 379.475C185.328 393.232 209.088 391.105 218.034 385.248C217.915 374.247 216.966 363.27 215.194 352.412L205.381 323.793Z"
        fill="#455A64" />
    <path
        d="M207.413 289.562C209.36 292.564 210.554 295.992 210.894 299.554C211.238 303.107 211.289 306.683 211.048 310.246C211.128 311.628 210.789 313.003 210.074 314.19C209.519 314.787 208.837 315.252 208.078 315.55C207.32 315.848 206.503 315.972 205.69 315.912C204.063 315.912 202.578 315.912 200.808 315.912L200.463 323.278C194.642 326.509 188.108 324.252 186.409 321.959L186.706 314.748C195.747 316.447 200.63 313.346 201.473 307.751C200.558 307.92 199.616 307.886 198.715 307.652C197.814 307.418 196.975 306.99 196.258 306.396C195.613 305.757 195.123 304.977 194.826 304.118C194.53 303.26 194.434 302.344 194.547 301.442C194.619 300.631 194.943 299.862 195.474 299.245C195.955 298.783 196.557 298.466 197.21 298.329C197.864 298.193 198.542 298.242 199.168 298.472C200.421 298.958 201.458 299.877 202.091 301.062C202.713 302.245 203.169 303.509 203.445 304.816C203.977 304.386 204.365 303.806 204.561 303.15C204.756 302.495 204.748 301.796 204.538 301.145C204.289 300.48 203.813 299.839 203.908 299.138C204.003 298.437 204.835 297.855 205.215 297.154C205.511 296.53 205.562 295.818 205.358 295.158C205.14 294.511 204.845 293.893 204.479 293.317C205.288 291.942 206.275 290.68 207.413 289.562Z"
        fill="#FFA8A7" />
    <path opacity="0.2"
        d="M207.413 289.562C209.36 292.564 210.554 295.992 210.894 299.554C211.238 303.107 211.289 306.683 211.048 310.246C211.128 311.628 210.789 313.003 210.074 314.19C209.519 314.787 208.837 315.252 208.078 315.55C207.32 315.848 206.503 315.972 205.69 315.912C204.063 315.912 202.578 315.912 200.808 315.912L200.463 323.278C194.642 326.509 188.108 324.252 186.409 321.959L186.706 314.748C195.747 316.447 200.63 313.346 201.473 307.751C200.558 307.92 199.616 307.886 198.715 307.652C197.814 307.418 196.975 306.99 196.258 306.396C195.613 305.757 195.123 304.977 194.826 304.118C194.53 303.26 194.434 302.344 194.547 301.442C194.619 300.631 194.943 299.862 195.474 299.245C195.955 298.783 196.557 298.466 197.21 298.329C197.864 298.193 198.542 298.242 199.168 298.472C200.421 298.958 201.458 299.877 202.091 301.062C202.713 302.245 203.169 303.509 203.445 304.816C203.977 304.386 204.365 303.806 204.561 303.15C204.756 302.495 204.748 301.796 204.538 301.145C204.289 300.48 203.813 299.839 203.908 299.138C204.003 298.437 204.835 297.855 205.215 297.154C205.511 296.53 205.562 295.818 205.358 295.158C205.14 294.511 204.845 293.893 204.479 293.317C205.288 291.942 206.275 290.68 207.413 289.562Z"
        fill="black" />
    <path opacity="0.2"
        d="M217.012 366.356C216.204 358.183 215.194 352.409 215.194 352.409L207.627 330.336L204.775 334.268C206.498 344.699 210.597 357.589 217.012 366.356Z"
        fill="black" />
    <path opacity="0.2"
        d="M245.833 371.846C249.288 373.539 253.01 374.624 256.834 375.053C260.676 375.475 264.559 374.804 268.037 373.117C271.534 371.328 274.197 368.247 275.462 364.528C274.911 363.937 274.177 363.551 273.378 363.432C272.58 363.313 271.764 363.469 271.066 363.874C267.707 365.745 263.747 366.218 260.041 365.193C261.208 364.003 262.251 362.697 263.154 361.296C263.605 360.607 264.009 359.704 263.558 359.015C263.353 358.76 263.072 358.576 262.756 358.491C262.44 358.406 262.105 358.423 261.8 358.54C261.193 358.79 260.638 359.148 260.16 359.597C257.359 361.855 254.054 363.404 250.526 364.112C249.076 366.559 247.27 369.47 245.833 371.846Z"
        fill="black" />
    <path
        d="M205.381 323.793C216.073 319.159 217.261 329.293 223.083 340.068C226.647 346.994 231.078 353.671 231.078 353.671C237.198 357.569 243.82 360.615 250.763 362.723C253.08 368.842 247.71 374.841 247.71 374.841L224.876 364.886C221.004 363.194 217.742 360.358 215.527 356.76C207.306 343.43 201.283 333.986 205.381 323.793Z"
        fill="#455A64" />
    <path
        d="M206.641 293.118C209.017 290.457 211.535 287.582 212.058 284.042C212.348 282.032 211.958 279.983 210.952 278.219C209.945 276.455 208.379 275.078 206.501 274.304C204.624 273.531 202.542 273.407 200.585 273.95C198.628 274.494 196.909 275.675 195.699 277.306C189.949 274.728 181.717 276.379 177.749 281.285C173.781 286.192 173.46 293.474 174.185 299.949C174.909 306.424 176.228 313.017 174.589 319.349C173.116 325.004 169.278 330.136 169.421 335.981C169.521 337.974 170.028 339.925 170.911 341.715C171.793 343.505 173.033 345.095 174.553 346.388C177.618 348.953 181.361 350.575 185.328 351.057C188.844 351.619 192.445 351.246 195.771 349.976C199.104 348.673 201.821 346.156 203.374 342.931C205.203 338.868 204.657 334.163 203.647 329.863C202.637 325.562 201.271 321.202 201.39 316.795C201.687 308.633 207.164 301.196 206.641 293.118Z"
        fill="#263238" />
</svg>