<svg width="16" height="21" viewBox="0 0 16 21" fill="none" xmlns="http://www.w3.org/2000/svg">
    <path
        d="M16 10.2665C16 11.0047 15.3547 11.636 14.6 11.636H11.4797C11.9903 12.1688 12.053 13.1912 11.2828 13.853C11.7293 14.5664 11.3499 15.5098 10.7688 15.8004C11.0492 17.336 10.0829 18.0273 8.5 18.0273C8.41419 18.0273 8.08512 18.021 8 18.0212C6.06341 18.0265 5.59706 17.0505 4.13341 16.8239C3.76862 16.7674 3.5 16.4523 3.5 16.0832V10.723L3.50006 10.723C3.50041 10.149 3.83153 9.60144 4.38956 9.35281C5.29225 8.94675 7.37122 7.82038 7.75 6.93647C7.99366 6.36791 8.41825 6.02759 9 6.02734C10.0694 6.02691 10.8047 7.12416 10.3787 8.11822C10.2667 8.37944 10.119 8.63916 9.93644 8.89691H14.6C15.3328 8.89691 16 9.53887 16 10.2665ZM3 10.2773V16.2773C3 16.6916 2.66422 17.0273 2.25 17.0273H0.75C0.335781 17.0273 0 16.6916 0 16.2773V10.2773C0 9.86313 0.335781 9.52734 0.75 9.52734H2.25C2.66422 9.52734 3 9.86313 3 10.2773ZM2.125 15.5273C2.125 15.1822 1.84519 14.9023 1.5 14.9023C1.15481 14.9023 0.875 15.1822 0.875 15.5273C0.875 15.8725 1.15481 16.1523 1.5 16.1523C1.84519 16.1523 2.125 15.8725 2.125 15.5273Z"
        fill="#2B6997" />
</svg>