<svg width="24" height="24" viewBox="0 0 24 24" fill="none" xmlns="http://www.w3.org/2000/svg">
    <path
        d="M6.85705 2.44351C8.00005 3.27651 8.89005 4.41351 9.65004 5.50151L10.092 6.14551L10.509 6.76051C10.7176 7.06524 10.8068 7.43605 10.7596 7.8023C10.7124 8.16855 10.5321 8.50463 10.253 8.74651L8.30205 10.1955C8.20779 10.2636 8.14144 10.3635 8.11532 10.4768C8.08921 10.5901 8.1051 10.709 8.16005 10.8115C8.60205 11.6145 9.38805 12.8105 10.288 13.7105C11.189 14.6105 12.441 15.4485 13.3 15.9405C13.4077 16.001 13.5345 16.0179 13.6543 15.9877C13.7741 15.9576 13.8778 15.8827 13.944 15.7785L15.214 13.8455C15.4475 13.5354 15.792 13.3276 16.1752 13.2657C16.5585 13.2038 16.9508 13.2926 17.27 13.5135L17.933 13.9725C19.172 14.8325 20.503 15.8095 21.521 17.1125C21.6825 17.3203 21.7852 17.5676 21.8184 17.8287C21.8517 18.0897 21.8143 18.3549 21.71 18.5965C20.873 20.5495 18.755 22.2125 16.552 22.1315L16.252 22.1145L16.019 22.0945L15.761 22.0645L15.48 22.0265L15.175 21.9765C15.1216 21.9669 15.0683 21.9569 15.015 21.9465L14.679 21.8745C14.6203 21.8616 14.5616 21.8483 14.503 21.8345L14.137 21.7405L13.752 21.6305L13.35 21.5005C11.504 20.8745 9.16105 19.6445 6.75705 17.2405C4.35405 14.8375 3.12405 12.4945 2.49805 10.6485L2.36805 10.2465L2.25805 9.86151L2.16405 9.49551L2.08605 9.14951C2.06352 9.04114 2.04251 8.93246 2.02305 8.82351L1.97305 8.51851L1.93305 8.23751L1.90405 7.97951L1.88405 7.74651L1.86805 7.44651C1.78705 5.25051 3.46805 3.11751 5.41205 2.28451C5.64602 2.18347 5.90225 2.14501 6.15558 2.17288C6.40891 2.20076 6.65063 2.29402 6.85705 2.44351ZM14.992 6.03851L15.108 6.05151C15.836 6.1799 16.5045 6.53545 17.0179 7.06718C17.5314 7.59892 17.8632 8.27955 17.966 9.01151C18.0027 9.26469 17.9409 9.52229 17.7934 9.73131C17.646 9.94033 17.424 10.0849 17.1732 10.1352C16.9223 10.1856 16.6618 10.1379 16.445 10.002C16.2283 9.86603 16.0719 9.65222 16.008 9.40451L15.985 9.28951C15.9448 9.00261 15.8224 8.7335 15.6325 8.51469C15.4426 8.29589 15.1934 8.13675 14.915 8.05651L14.76 8.02151C14.5089 7.977 14.2843 7.83824 14.1321 7.63361C13.98 7.42898 13.9117 7.17394 13.9413 6.92065C13.971 6.66736 14.0963 6.43496 14.2916 6.27099C14.4869 6.10701 14.7375 6.02385 14.992 6.03851ZM15 2.99851C16.5913 2.99851 18.1175 3.63065 19.2427 4.75587C20.3679 5.88108 21 7.40721 21 8.99851C20.9998 9.25339 20.9022 9.49854 20.7272 9.68388C20.5522 9.86921 20.3131 9.98074 20.0587 9.99568C19.8042 10.0106 19.5537 9.92783 19.3582 9.76424C19.1628 9.60065 19.0371 9.3686 19.007 9.11551L19 8.99851C19.0004 7.98293 18.6143 7.00527 17.92 6.26403C17.2258 5.5228 16.2755 5.07355 15.262 5.00751L15 4.99851C14.7348 4.99851 14.4805 4.89315 14.2929 4.70561C14.1054 4.51808 14 4.26372 14 3.99851C14 3.73329 14.1054 3.47894 14.2929 3.2914C14.4805 3.10386 14.7348 2.99851 15 2.99851Z"
        fill="#146DFA" />
</svg>