<svg
                        xmlns="http://www.w3.org/2000/svg"
                        width="28"
                        height="29"
                        viewBox="0 0 28 29"
                        fill="none"
                      >
                        <g clip-path="url(#clip0_2795_12355)">
                          <path
                            d="M15.7506 25.871C21.3638 25.0265 25.6673 20.1831 25.6673 14.3346C25.6673 7.89131 20.4439 2.66797 14.0006 2.66797C7.55732 2.66797 2.33398 7.89131 2.33398 14.3346C2.33398 20.1831 6.63751 25.0265 12.2506 25.871V17.8346H10.5006C9.53415 17.8346 8.75065 17.0511 8.75065 16.0846C8.75065 15.1182 9.53415 14.3346 10.5006 14.3346H12.2506V12.0013C12.2506 9.74613 14.0788 7.91797 16.334 7.91797H16.9173C17.8838 7.91797 18.6673 8.70147 18.6673 9.66797C18.6673 10.6345 17.8838 11.418 16.9173 11.418H16.334C16.0119 11.418 15.7506 11.6791 15.7506 12.0013V14.3346H17.5006C18.4671 14.3346 19.2506 15.1182 19.2506 16.0846C19.2506 17.0511 18.4671 17.8346 17.5006 17.8346H15.7506V25.871Z"
                            fill="#146DFA"
                          />
                        </g>
                        <defs>
                          <clipPath id="clip0_2795_12355">
                            <rect
                              width="28"
                              height="28"
                              fill="white"
                              transform="translate(0 0.333984)"
                            />
                          </clipPath>
                        </defs>
                      </svg>