<svg width="36" height="37" viewBox="0 0 36 37" fill="none" xmlns="http://www.w3.org/2000/svg">
<g id="heart">
<path id="Vector" d="M31.2592 7.52125C30.4931 6.75476 29.5834 6.14672 28.5822 5.73188C27.581 5.31704 26.5079 5.10352 25.4242 5.10352C24.3405 5.10352 23.2674 5.31704 22.2662 5.73188C21.265 6.14672 20.3553 6.75476 19.5892 7.52125L17.9992 9.11125L16.4092 7.52125C14.8617 5.97372 12.7628 5.10432 10.5742 5.10432C8.38565 5.10432 6.28674 5.97372 4.7392 7.52125C3.19166 9.06879 2.32227 11.1677 2.32227 13.3563C2.32227 15.5448 3.19166 17.6437 4.7392 19.1913L6.3292 20.7813L17.9992 32.4513L29.6692 20.7813L31.2592 19.1913C32.0257 18.4251 32.6337 17.5155 33.0486 16.5143C33.4634 15.5131 33.6769 14.44 33.6769 13.3563C33.6769 12.2725 33.4634 11.1994 33.0486 10.1982C32.6337 9.19703 32.0257 8.28739 31.2592 7.52125Z" stroke="#146DFA" stroke-width="2" stroke-linecap="round" stroke-linejoin="round"/>
</g>
</svg>
