<svg width="1439" height="3026" viewBox="0 0 1439 3026" fill="none" xmlns="http://www.w3.org/2000/svg">
<path d="M332.931 559.595C315.137 555.976 297.855 550.706 282.339 541.299C226.212 507.273 166.303 454.351 104 474.997L0 514.432V2842.89L603.655 3017.76C669.002 3036.69 739.491 3021.1 790.763 2976.39L1112.31 2695.94C1169.35 2646.19 1253.91 2644.7 1312.66 2692.41C1363.51 2733.69 1439.5 2697.51 1439.5 2632.01V754.627V0.88501L1347.62 259.698C1326.71 318.601 1262.58 350.02 1203.22 330.448C1152.67 313.781 1097.28 333.98 1069.33 379.281L1042.11 423.395C984.991 515.957 859.639 537.445 774.956 469.191L769.813 465.046C698.696 407.725 596.529 410.345 528.443 471.236L475.349 518.719C437.073 552.95 383.251 569.829 332.931 559.595Z" fill="url(#paint0_linear_2672_9913)" fill-opacity="0.3"/>
<defs>
<linearGradient id="paint0_linear_2672_9913" x1="729.507" y1="4201.49" x2="2291.12" y2="3140.93" gradientUnits="userSpaceOnUse">
<stop offset="0.161458" stop-color="#39D05E"/>
<stop offset="1" stop-color="#4690C7"/>
</linearGradient>
</defs>
</svg>
