<svg width="28" height="28" viewBox="0 0 28 28" fill="none" xmlns="http://www.w3.org/2000/svg">
    <g clip-path="url(#clip0_5012_4411)">
        <path
            d="M15.7497 25.539C21.3629 24.6945 25.6663 19.8511 25.6663 14.0026C25.6663 7.55928 20.4429 2.33594 13.9997 2.33594C7.55635 2.33594 2.33301 7.55928 2.33301 14.0026C2.33301 19.8511 6.63654 24.6945 12.2497 25.539V17.5026H10.4997C9.53317 17.5026 8.74967 16.7191 8.74967 15.7526C8.74967 14.7861 9.53317 14.0026 10.4997 14.0026H12.2497V11.6693C12.2497 9.4141 14.0778 7.58594 16.333 7.58594H16.9163C17.8828 7.58594 18.6663 8.36943 18.6663 9.33594C18.6663 10.3024 17.8828 11.0859 16.9163 11.0859H16.333C16.0109 11.0859 15.7497 11.3471 15.7497 11.6693V14.0026H17.4997C18.4661 14.0026 19.2497 14.7861 19.2497 15.7526C19.2497 16.7191 18.4661 17.5026 17.4997 17.5026H15.7497V25.539Z"
            fill="#3C4043" />
    </g>
    <defs>
        <clipPath id="clip0_5012_4411">
            <rect width="28" height="28" fill="white" />
        </clipPath>
    </defs>
</svg>