<svg width="28" height="29" viewBox="0 0 28 29" fill="none" xmlns="http://www.w3.org/2000/svg">
    <g clip-path="url(#clip0_2614_15671)">
        <path
            d="M15.7497 25.8749C21.3629 25.0305 25.6663 20.187 25.6663 14.3385C25.6663 7.89522 20.4429 2.67188 13.9997 2.67188C7.55635 2.67188 2.33301 7.89522 2.33301 14.3385C2.33301 20.187 6.63654 25.0305 12.2497 25.8749V17.8385H10.4997C9.53317 17.8385 8.74967 17.055 8.74967 16.0885C8.74967 15.1221 9.53317 14.3385 10.4997 14.3385H12.2497V12.0052C12.2497 9.75004 14.0778 7.92187 16.333 7.92187H16.9163C17.8828 7.92187 18.6663 8.70537 18.6663 9.67187C18.6663 10.6384 17.8828 11.4219 16.9163 11.4219H16.333C16.0109 11.4219 15.7497 11.683 15.7497 12.0052V14.3385H17.4997C18.4661 14.3385 19.2497 15.1221 19.2497 16.0885C19.2497 17.055 18.4661 17.8385 17.4997 17.8385H15.7497V25.8749Z"
            fill="#146DFA" />
    </g>
    <defs>
        <clipPath id="clip0_2614_15671">
            <rect width="28" height="28" fill="white" transform="translate(0 0.335938)" />
        </clipPath>
    </defs>
</svg>