<svg width="144" height="145" viewBox="0 0 144 145" fill="none" xmlns="http://www.w3.org/2000/svg">
    <path
        d="M115.715 78.2585C91.3043 64.1638 51.8541 64.1638 27.5872 78.2585C3.3203 92.3533 3.46142 115.203 27.8752 129.298C52.2889 143.393 91.7363 143.393 116.003 129.298C140.27 115.203 140.129 92.3504 115.715 78.2585Z"
        fill="#F5F5F5" />
    <path
        d="M24.3126 116.76L53.8182 99.7389C54.2666 99.48 54.7751 99.3438 55.2928 99.3438C55.8105 99.3438 56.319 99.48 56.7674 99.7389L59.6992 101.435C59.848 101.522 59.9715 101.646 60.0573 101.795C60.1431 101.945 60.1883 102.114 60.1883 102.286C60.1883 102.458 60.1431 102.628 60.0573 102.777C59.9715 102.926 59.848 103.051 59.6992 103.137L30.1994 120.184C29.7485 120.446 29.2363 120.584 28.7147 120.584C28.1931 120.584 27.6809 120.446 27.2301 120.184L24.304 118.456C24.1562 118.369 24.0339 118.244 23.9492 118.095C23.8645 117.946 23.8204 117.777 23.8213 117.605C23.8222 117.434 23.868 117.265 23.9542 117.117C24.0404 116.969 24.164 116.845 24.3126 116.76Z"
        fill="#E6E6E6" />
    <path
        d="M121.248 116.76L91.7421 99.7389C91.2938 99.48 90.7852 99.3438 90.2676 99.3438C89.7499 99.3438 89.2413 99.48 88.793 99.7389L85.8612 101.435C85.7124 101.522 85.5889 101.646 85.5031 101.795C85.4172 101.945 85.3721 102.114 85.3721 102.286C85.3721 102.458 85.4172 102.628 85.5031 102.777C85.5889 102.926 85.7124 103.051 85.8612 103.137L115.373 120.184C115.823 120.446 116.335 120.585 116.856 120.585C117.377 120.585 117.889 120.446 118.339 120.184L121.265 118.456C121.412 118.368 121.534 118.243 121.618 118.093C121.702 117.944 121.745 117.774 121.743 117.603C121.742 117.431 121.695 117.263 121.608 117.115C121.521 116.967 121.397 116.845 121.248 116.76Z"
        fill="#E6E6E6" />
    <path
        d="M126.815 108.924C124.969 107.859 121.985 107.859 120.153 108.924C118.322 109.99 118.327 111.718 120.173 112.783C122.02 113.849 125.003 113.849 126.835 112.783C128.667 111.718 128.661 109.99 126.815 108.924Z"
        fill="#E6E6E6" />
    <path
        d="M27.6477 117.635C25.8016 116.57 22.818 116.57 20.9863 117.635C19.1546 118.701 19.1604 120.429 21.0064 121.494C22.8525 122.56 25.8362 122.56 27.6679 121.494C29.4996 120.429 29.4794 118.701 27.6477 117.635Z"
        fill="#E6E6E6" />
    <path
        d="M52.9783 14.1865L54.8647 13.1094L54.9828 54.3107L54.977 54.3135L39.7821 62.991L39.7764 60.831L39.6641 21.7868L52.9783 14.1865Z"
        fill="#F0F0F0" />
    <path opacity="0.1"
        d="M53.0899 53.2307L52.9775 14.1865L54.8639 13.1094L54.982 54.3107L54.9763 54.3135L53.0841 53.2335L53.0899 53.2307Z"
        fill="black" />
    <path opacity="0.2" d="M39.7764 60.8318L53.0848 53.2344L54.977 54.3144L39.7821 62.9918L39.7764 60.8318Z"
        fill="black" />
    <path
        d="M32.1873 26.0586L34.0737 24.9844L34.1918 66.1857L34.186 66.1885L18.9911 74.8631L18.9854 72.706L18.873 33.6618L32.1873 26.0586Z"
        fill="#F0F0F0" />
    <path opacity="0.1"
        d="M32.2998 65.1057L32.1875 26.0586L34.0739 24.9844L34.192 66.1857L34.1862 66.1885L32.2941 65.1085L32.2998 65.1057Z"
        fill="black" />
    <path opacity="0.2" d="M18.9854 72.699L32.2938 65.1016L34.186 66.1816L18.9911 74.8561L18.9854 72.699Z"
        fill="black" />
    <path
        d="M91.2963 31.8482C91.1955 31.7387 91.0947 31.6293 90.9939 31.5141L90.9305 31.4392C90.7664 31.2491 90.608 31.0562 90.4525 30.8632C90.4352 30.843 90.4208 30.82 90.4035 30.797C90.2796 30.6386 90.1587 30.4744 90.0435 30.3102L89.9916 30.2382C89.8803 30.077 89.7708 29.9128 89.6633 29.7458L89.5856 29.6277C89.4992 29.4933 89.4156 29.355 89.335 29.213L89.2803 29.1266C89.1881 28.9691 89.0989 28.8078 89.0125 28.6427L88.9491 28.5218C88.88 28.3922 88.8166 28.2626 88.7533 28.133L88.687 28.0034C88.6092 27.8363 88.5315 27.6722 88.4595 27.5051C88.4595 27.4792 88.4393 27.4562 88.4307 27.4331C88.3644 27.2834 88.304 27.1451 88.2435 26.981L88.1916 26.8456C88.1254 26.6642 88.0592 26.4856 87.9987 26.3042C87.9987 26.3042 87.9987 26.2754 87.9987 26.261C87.9382 26.0738 87.8806 25.8866 87.8288 25.7022L87.7971 25.5928C87.7395 25.3768 87.6848 25.1608 87.6387 24.9448C87.6387 24.8987 87.6185 24.8498 87.607 24.8037C87.5955 24.7576 87.5753 24.6338 87.5609 24.5502C87.5465 24.4667 87.5408 24.4408 87.5321 24.389V24.3717C87.5177 24.2853 87.5033 24.1989 87.4918 24.1096C87.4803 24.0203 87.4918 24.0059 87.4688 23.9541C87.4457 23.7698 87.4284 23.5826 87.414 23.3982C87.414 23.3579 87.414 23.3205 87.414 23.2802C87.414 23.093 87.3939 22.9029 87.3968 22.7042C87.3968 22.5755 87.3968 22.4488 87.3968 22.324C87.3968 22.2779 87.3968 22.2347 87.3968 22.1858L87.414 21.9611L87.4313 21.8229C87.4313 21.7509 87.4313 21.6818 87.4573 21.6126C87.4832 21.5435 87.4716 21.5176 87.4803 21.4686C87.4889 21.4197 87.5004 21.3419 87.5148 21.2786C87.5292 21.2152 87.535 21.1835 87.5465 21.1346C87.5581 21.0856 87.5724 21.0165 87.5868 20.9618C87.6012 20.907 87.6128 20.8667 87.6272 20.8206C87.6416 20.7746 87.6588 20.7112 87.6761 20.6594C87.6934 20.6075 87.7078 20.5672 87.7222 20.524C87.7366 20.4808 87.7568 20.4203 87.7769 20.3714L87.8316 20.2418C87.8518 20.1957 87.872 20.1467 87.895 20.1006C87.918 20.0546 87.9353 20.02 87.9555 19.9797C87.9756 19.9394 87.9987 19.8875 88.0246 19.8443C88.0505 19.8011 88.0678 19.7694 88.0908 19.732C88.1139 19.6946 88.1398 19.6485 88.1686 19.6053L88.2406 19.5016C88.2694 19.4613 88.2953 19.421 88.3241 19.3835C88.3529 19.3461 88.3788 19.3202 88.4048 19.2856C88.4307 19.251 88.4624 19.2136 88.494 19.179C88.5257 19.1445 88.5517 19.1186 88.5805 19.0898L88.6726 18.9918L88.7676 18.9083C88.7993 18.8795 88.831 18.8478 88.8656 18.8219C88.9001 18.796 88.9318 18.7701 88.9664 18.7442L89.07 18.6664L89.1737 18.6002C89.4925 18.3993 89.8446 18.2569 90.2134 18.1797C89.5136 18.9659 89.1017 20.164 89.0988 21.7019C89.0988 21.8891 89.0988 22.0763 89.1161 22.2779V22.396C89.1161 22.5803 89.1449 22.7646 89.1708 22.9518C89.1708 23.0037 89.1852 23.0555 89.191 23.1102C89.1968 23.165 89.2169 23.283 89.2313 23.3694C89.2457 23.4558 89.2515 23.4875 89.263 23.548C89.2745 23.6085 89.2947 23.715 89.312 23.8014C89.3292 23.8878 89.3321 23.8965 89.3408 23.9426C89.3897 24.1586 89.4416 24.3746 89.502 24.5906C89.502 24.628 89.5222 24.6626 89.5308 24.7C89.5827 24.8843 89.6403 25.0715 89.7008 25.2587C89.7069 25.2727 89.7117 25.2871 89.7152 25.3019C89.7757 25.4834 89.8419 25.6619 89.9081 25.8405L89.9628 25.9787C90.0204 26.1285 90.0838 26.2811 90.1472 26.4309C90.1472 26.4539 90.1673 26.477 90.176 26.5029C90.2508 26.6699 90.3257 26.8341 90.4064 27.0011C90.4265 27.0443 90.4467 27.0875 90.4697 27.1307C90.5331 27.2603 90.5993 27.3928 90.6656 27.5224C90.6886 27.5598 90.7088 27.6002 90.7289 27.6405C90.8153 27.8018 90.9046 27.963 90.9996 28.1243L91.0515 28.2136C91.1321 28.3518 91.2185 28.5016 91.3049 28.6254C91.328 28.6658 91.3539 28.7061 91.3798 28.7435C91.4873 28.9106 91.5968 29.0747 91.7081 29.236L91.76 29.308C91.878 29.4722 91.9961 29.6363 92.12 29.7976L92.1689 29.861C92.3244 30.0597 92.4828 30.2526 92.647 30.437C92.67 30.4629 92.6902 30.4888 92.7133 30.5118C92.8112 30.627 92.9072 30.7394 93.0013 30.8488L93.0185 30.869C93.128 30.9842 93.2403 31.0965 93.3497 31.2088L93.4217 31.2779C93.5686 31.419 93.7097 31.5659 93.8653 31.6898L93.9056 31.7272C94.0611 31.8654 94.2195 31.995 94.3808 32.1189C94.4102 32.1445 94.441 32.1685 94.4729 32.1909C94.6284 32.3118 94.7868 32.4299 94.9481 32.5394L95.0345 32.597C95.2045 32.7093 95.3744 32.8158 95.5472 32.9166C95.72 33.0174 95.8352 33.0693 95.959 33.1384L96.0771 33.196L96.3853 33.3371L96.4947 33.3832C96.5897 33.4235 96.6876 33.4581 96.7827 33.4926L96.8547 33.5186C96.9728 33.5589 97.0908 33.5963 97.206 33.628L97.4076 33.677L97.5027 33.7C97.6006 33.7202 97.6985 33.7403 97.7907 33.7547C97.9376 33.7778 98.0787 33.7893 98.2227 33.7979H98.3091C98.4387 33.7979 98.5625 33.7979 98.6864 33.7979H98.7497C98.8496 33.7979 98.9456 33.7864 99.0377 33.7634H99.127L99.222 33.7403C98.991 34.0027 98.7186 34.2255 98.4156 34.3998L98.3811 34.4171H98.3609C98.2833 34.4605 98.2035 34.4999 98.1219 34.5352L98.0384 34.5698C97.9527 34.6052 97.8653 34.636 97.7763 34.6619H97.7302C97.6261 34.6926 97.5203 34.7176 97.4134 34.7368H97.3299C97.2349 34.7368 97.1398 34.7627 97.0419 34.7714H96.967C96.846 34.7714 96.7222 34.7714 96.5955 34.7714H96.5177H96.3133L96.0771 34.7426L95.9273 34.7138L95.7862 34.6878L95.6969 34.6648H95.671L95.4896 34.6187C95.3744 34.587 95.2592 34.5525 95.144 34.5122L95.072 34.4862C94.9769 34.4517 94.8819 34.4171 94.784 34.3768L94.6774 34.3307C94.5737 34.2875 94.47 34.2386 94.3664 34.1896L94.3001 34.155L94.2483 34.132C94.1129 34.0629 93.9776 33.9909 93.8393 33.9102C93.7011 33.8296 93.4966 33.7029 93.3267 33.5906L93.3036 33.5733L93.2403 33.533C93.079 33.4235 92.9206 33.3054 92.7622 33.1845C92.7418 33.1707 92.7225 33.1553 92.7046 33.1384L92.6729 33.1125C92.5116 32.9886 92.3533 32.859 92.1977 32.7208L92.1718 32.6978C92.1718 32.6978 92.1718 32.6978 92.1574 32.6978C92.0076 32.5653 91.8694 32.427 91.7139 32.2859L91.6419 32.2168C91.5296 32.1074 91.4201 31.9922 91.3107 31.877L91.2963 31.8482Z"
        fill="#EBEBEB" />
    <path d="M99.1328 28.3047V28.705L100.259 29.3559V28.9556L99.1328 28.3047Z" fill="white" />
    <path d="M90.0175 19.8828L89.8447 20.1276L90.8182 21.3372L90.9939 21.0924L90.0175 19.8828Z" fill="white" />
    <path
        d="M101.212 29.7087C101.212 33.83 98.2826 35.4889 94.697 33.4182C91.1114 31.3474 88.2141 26.3305 88.2256 22.2121C88.2371 18.0937 91.1546 16.429 94.7517 18.4998C98.3488 20.5705 101.223 25.5874 101.212 29.7087ZM91.7853 25.7286C91.8112 25.8154 91.8674 25.89 91.9437 25.9388C91.9648 25.9519 91.9883 25.9608 92.0128 25.9647L94.7719 26.1807C94.7911 26.1863 94.8116 26.185 94.83 26.1772C94.8484 26.1693 94.8635 26.1553 94.8727 26.1375L96.6784 23.0818C96.6955 23.0274 96.6973 22.9693 96.6835 22.914C96.6698 22.8586 96.6412 22.8081 96.6007 22.7679C96.5794 22.742 96.5541 22.7197 96.5258 22.7017C96.4624 22.6671 96.3991 22.67 96.3703 22.7247L94.5933 25.7343L91.8717 25.5183C91.7853 25.5183 91.7421 25.6076 91.7795 25.7286M97.0816 23.03L97.6576 22.2322L97.3696 21.8607L96.7936 22.6556L97.0816 23.03ZM97.3178 33.0841L97.6058 33.0582L97.0557 31.6038L96.7677 31.6297L97.3293 33.0697M89.9968 26.5954L90.976 26.5119L90.8061 26.0655L89.8269 26.149L89.9968 26.5954ZM99.4231 32.0358L99.5959 31.791L98.6195 30.5785L98.4467 30.8233L99.4231 32.0358ZM90.017 19.885L89.8442 20.1298L90.8176 21.3394L90.9933 21.0946L90.017 19.885ZM98.6339 25.8438L99.6131 25.7602L99.4403 25.3167L98.4611 25.4002L98.6339 25.8438ZM92.1136 18.8338L91.8256 18.8598L92.3872 20.2998L92.6752 20.2738L92.0992 18.8338M92.0675 30.0658L92.6435 29.271L92.3555 28.8994L91.7795 29.6943L92.0675 30.0658ZM90.2906 23.6204V23.2114L89.1616 22.5606V22.9638L90.2877 23.6146M100.241 28.9599L99.1149 28.309V28.7094L100.241 29.3602V28.957M94.5127 32.2258L94.8583 32.4246V31.1286L94.5127 30.9298V32.2258ZM94.8928 19.6921L94.5472 19.4934V20.7894L94.8928 20.991V19.6921Z"
        fill="#E0E0E0" />
    <path d="M94.5644 19.4922L94.5615 20.7882L94.9071 20.9869L94.91 19.6909L94.5644 19.4922Z" fill="white" />
    <path d="M97.3554 21.8594L96.7881 22.6543L97.0876 23.0287L97.655 22.2309L97.3554 21.8594Z" fill="white" />
    <path d="M99.4411 25.3281L98.4619 25.4116L98.6347 25.8552L99.6139 25.7716L99.4411 25.3281Z" fill="white" />
    <path d="M98.6201 30.5781L98.4473 30.8229L99.4236 32.0354L99.5964 31.7906L98.6201 30.5781Z" fill="white" />
    <path d="M97.0651 31.6094L96.7627 31.6353L97.3243 33.0839L97.6238 33.058L97.0651 31.6094Z" fill="white" />
    <path d="M94.5331 30.9297L94.5303 32.2257L94.8759 32.4244L94.8788 31.1284L94.5331 30.9297Z" fill="white" />
    <path d="M92.3525 28.8906L91.7852 29.6855L92.0818 30.057L92.6492 29.2621L92.3525 28.8906Z" fill="white" />
    <path d="M90.8063 26.0625L89.8271 26.146L90 26.5924L90.9763 26.5089L90.8063 26.0625Z" fill="white" />
    <path d="M89.1797 22.5625V22.9628L90.3058 23.6137L90.3087 23.2134L89.1797 22.5625Z" fill="white" />
    <path d="M92.114 18.8359L91.8145 18.8619L92.3761 20.3105L92.6756 20.2846L92.114 18.8359Z" fill="white" />
    <path
        d="M94.7206 25.7575C94.6991 25.746 94.6757 25.7382 94.6515 25.7345H94.5939L91.8723 25.5156C91.7859 25.5156 91.7427 25.6049 91.7801 25.7259C91.806 25.8127 91.8622 25.8873 91.9386 25.9361C91.9596 25.9492 91.9831 25.9581 92.0077 25.962L94.7667 26.178H94.7811C94.8704 26.178 94.9107 26.0916 94.8733 25.9678C94.8472 25.8827 94.7935 25.8087 94.7206 25.7575Z"
        fill="white" />
    <path
        d="M96.5262 22.7024C96.4629 22.6678 96.3995 22.6707 96.3707 22.7254L94.5938 25.735H94.6513C94.6755 25.7387 94.6989 25.7465 94.7205 25.758C94.7955 25.8083 94.8513 25.8823 94.8789 25.9683C94.9163 26.0921 94.8789 26.1872 94.7867 26.1785H94.7723C94.7915 26.1841 94.8121 26.1828 94.8304 26.175C94.8488 26.1671 94.8639 26.1531 94.8731 26.1353L96.6789 23.0796C96.6959 23.0252 96.6977 22.9671 96.684 22.9118C96.6703 22.8564 96.6416 22.8059 96.6011 22.7657C96.5796 22.7408 96.5543 22.7195 96.5262 22.7024Z"
        fill="#F5F5F5" />
    <path
        d="M99.1643 34.7848C99.1988 34.7589 99.2363 34.7358 99.2708 34.707L99.3774 34.612C99.412 34.5803 99.4465 34.5544 99.4782 34.5227L99.579 34.4161L99.674 34.3182L99.7691 34.203L99.8555 34.0965C99.8872 34.0561 99.9131 34.0158 99.9448 33.9726C99.9764 33.9294 99.9995 33.8977 100.025 33.8574C100.051 33.8171 100.08 33.7681 100.106 33.7221L100.181 33.5982C100.207 33.5521 100.23 33.5032 100.253 33.4542C100.276 33.4053 100.299 33.3678 100.319 33.3246C100.339 33.2814 100.365 33.2209 100.388 33.1691C100.411 33.1173 100.429 33.0769 100.446 33.0309L100.506 32.8638L100.558 32.7198C100.575 32.6622 100.593 32.6046 100.607 32.5441C100.622 32.4837 100.639 32.4433 100.653 32.3915C100.668 32.3397 100.682 32.2705 100.694 32.2072C100.705 32.1438 100.719 32.1035 100.731 32.0488C100.743 31.9941 100.754 31.9163 100.766 31.8472C100.777 31.7781 100.786 31.7435 100.794 31.6888C100.803 31.6341 100.812 31.5333 100.82 31.4584C100.829 31.3835 100.835 31.3605 100.84 31.3115L100.858 31.0465C100.858 31.0033 100.858 30.963 100.858 30.9198C100.858 30.7845 100.858 30.6491 100.858 30.5109C100.858 30.3093 100.858 30.1048 100.838 29.9003C100.839 29.8879 100.839 29.8753 100.838 29.8629C100.823 29.6325 100.803 29.4049 100.774 29.1717C100.774 29.1457 100.774 29.1198 100.774 29.0939C100.757 28.9701 100.74 28.8462 100.719 28.7195L100.685 28.5294L100.633 28.2414C100.633 28.227 100.633 28.2126 100.633 28.1982C100.525 27.6833 100.388 27.1747 100.224 26.6747C99.9963 25.9956 99.7231 25.3327 99.4062 24.6904L99.386 24.6472C99.2075 24.2843 99.0174 23.9243 98.81 23.5729C98.7928 23.5413 98.7726 23.5096 98.7524 23.4779C98.6603 23.3205 98.5643 23.1649 98.4644 23.0113C98.4414 22.9768 98.4212 22.9393 98.3953 22.9019C98.1304 22.4901 97.851 22.0926 97.5515 21.7096C97.2635 21.3352 96.9524 20.9723 96.6328 20.6325C96.5118 20.5029 96.388 20.3761 96.2612 20.2494L96.2008 20.1918C96.0395 20.0334 95.8724 19.8779 95.7054 19.7281L95.6852 19.7109C95.5096 19.5553 95.331 19.4229 95.1496 19.2645L95.0516 19.1896C94.8817 19.0571 94.7089 18.9333 94.5332 18.8123H94.5131C94.4036 18.7374 94.2913 18.6654 94.179 18.5963C94.0667 18.5272 93.986 18.4753 93.891 18.4206C93.7412 18.3342 93.603 18.2536 93.4475 18.1816H93.4331C93.0085 17.9652 92.5638 17.7906 92.1054 17.6603L91.9816 17.6286L91.7886 17.5825L91.6561 17.5595L91.4776 17.5249H91.4603H91.3307L91.1003 17.5019H91.0081C90.8412 17.4918 90.6739 17.4918 90.507 17.5019H90.4379C90.3313 17.5019 90.2276 17.5221 90.1268 17.5393C89.9803 17.5632 89.8351 17.5949 89.692 17.6344H89.6689H89.6401C89.5451 17.6632 89.45 17.6977 89.3521 17.7323L89.3089 17.7496C89.1796 17.8034 89.0536 17.865 88.9316 17.9339L90.6596 16.9345L90.6971 16.9115L90.7432 16.8885C90.8267 16.8424 90.9131 16.8021 91.0024 16.7617L91.0513 16.7387H91.0916C91.1953 16.6984 91.299 16.6581 91.4084 16.6264H91.4228C91.538 16.5918 91.6561 16.5659 91.7742 16.5429C91.7876 16.5442 91.8011 16.5442 91.8145 16.5429H91.8721C91.9758 16.5256 92.0824 16.5141 92.1889 16.5054H92.2408H92.258C92.3933 16.4982 92.5289 16.4982 92.6641 16.5054C92.6775 16.504 92.691 16.504 92.7044 16.5054H92.8369H92.9291L93.2171 16.54C93.3208 16.54 93.4244 16.5745 93.531 16.5976L93.6318 16.6235C93.7009 16.6235 93.7672 16.6523 93.8334 16.6725H93.8536C93.9774 16.707 94.1041 16.7445 94.2308 16.7877L94.3086 16.8165C94.4123 16.8539 94.516 16.8913 94.6196 16.9345L94.66 16.9518L94.7377 16.9864C94.8472 17.0325 94.9595 17.0843 95.0718 17.139L95.1985 17.1995C95.3454 17.2744 95.4865 17.3521 95.642 17.4385C95.7976 17.5249 96.0136 17.6632 96.195 17.787L96.29 17.8475C96.4628 17.9685 96.6356 18.0923 96.8056 18.2248L96.9035 18.2997C97.0763 18.4379 97.2491 18.5877 97.4161 18.7259L97.4593 18.7633C97.6235 18.9073 97.7819 19.0513 97.9403 19.2097L97.9864 19.2558L98.018 19.2846C98.1361 19.4056 98.2571 19.5265 98.3752 19.6533L98.3924 19.6734C98.5048 19.7915 98.6142 19.9125 98.7236 20.0392L98.7553 20.0737C98.7669 20.0898 98.7794 20.1052 98.7928 20.1198C98.9684 20.3243 99.1412 20.5317 99.3083 20.7477L99.3227 20.7649L99.3601 20.8168C99.4926 20.9896 99.6251 21.1653 99.7518 21.3467L99.7892 21.3985L99.8065 21.4245C99.9304 21.6001 100.048 21.7758 100.164 21.9544C100.164 21.9717 100.187 21.9889 100.195 22.0062L100.244 22.084C100.336 22.2309 100.429 22.372 100.515 22.5275L100.558 22.5995L100.575 22.6254L100.863 23.1467C100.87 23.1617 100.878 23.1761 100.887 23.1899L100.93 23.2763C101.005 23.4174 101.074 23.5643 101.143 23.6997L101.189 23.7861C101.189 23.8033 101.189 23.8235 101.212 23.8408C101.298 24.0193 101.382 24.1979 101.46 24.3793C101.461 24.385 101.461 24.3909 101.46 24.3966C101.469 24.4143 101.476 24.4326 101.483 24.4513C101.555 24.6155 101.621 24.7797 101.687 24.9467C101.687 24.9726 101.707 24.9985 101.719 25.0245C101.73 25.0504 101.733 25.0705 101.742 25.0936C101.817 25.2865 101.886 25.4824 101.952 25.6696C101.954 25.6801 101.954 25.6908 101.952 25.7013C102.018 25.9029 102.079 26.1045 102.136 26.3089C102.146 26.3333 102.154 26.3584 102.159 26.3838C102.16 26.3972 102.16 26.4107 102.159 26.4241C102.223 26.6603 102.28 26.8936 102.332 27.1269C102.336 27.1482 102.341 27.1693 102.347 27.1902L102.364 27.2795C102.383 27.3717 102.4 27.4677 102.416 27.5675L102.45 27.7576C102.468 27.8526 102.479 27.9477 102.494 28.0456C102.494 28.0888 102.508 28.132 102.514 28.1781C102.519 28.2241 102.514 28.2011 102.514 28.2126C102.54 28.4142 102.56 28.6158 102.574 28.8145C102.574 28.8577 102.574 28.8981 102.574 28.9413C102.574 29.1457 102.594 29.3502 102.594 29.5518C102.594 31.7637 101.808 33.3217 100.547 34.0533L98.8187 35.0526L98.9281 34.9835C98.9656 34.9605 99.003 34.9374 99.0376 34.9115C99.0832 34.8728 99.1256 34.8304 99.1643 34.7848Z"
        fill="#EBEBEB" />
    <path
        d="M86.8408 22.4089C86.8408 26.8614 89.9599 32.2873 93.8363 34.5251C95.8523 35.6771 97.6552 35.7577 98.9397 34.9456C98.9771 34.9225 99.0146 34.8995 99.0491 34.8736C99.0894 34.8473 99.1279 34.8185 99.1643 34.7872C99.1989 34.7612 99.2363 34.7382 99.2709 34.7094L99.3775 34.6144C99.412 34.5827 99.4466 34.5568 99.4783 34.5251L99.5791 34.4185L99.6741 34.3206L99.7691 34.2054L99.8555 34.0988C99.8872 34.0585 99.9131 34.0182 99.9448 33.975C99.9765 33.9318 99.9995 33.9001 100.025 33.8598C100.051 33.8195 100.08 33.7705 100.106 33.7244L100.181 33.6006C100.207 33.5545 100.23 33.5056 100.253 33.4566C100.276 33.4076 100.299 33.3702 100.319 33.327C100.339 33.2838 100.365 33.2233 100.388 33.1715C100.411 33.1196 100.429 33.0793 100.446 33.0332L100.506 32.8662L100.558 32.7222C100.576 32.6646 100.593 32.607 100.607 32.5465C100.622 32.486 100.639 32.4457 100.653 32.3939C100.668 32.342 100.682 32.2729 100.694 32.2096C100.705 32.1462 100.72 32.1059 100.731 32.0512C100.743 31.9964 100.754 31.9187 100.766 31.8496C100.777 31.7804 100.786 31.7459 100.794 31.6912C100.803 31.6364 100.812 31.5356 100.82 31.4608C100.829 31.3859 100.835 31.3628 100.841 31.3139L100.858 31.0489C100.858 31.0057 100.858 30.9654 100.858 30.9222C100.858 30.7868 100.858 30.6515 100.858 30.5132C100.858 30.3116 100.858 30.1072 100.838 29.9027V29.8768C100.823 29.6464 100.803 29.4188 100.774 29.1856C100.774 29.1596 100.774 29.1337 100.774 29.1078C100.757 28.984 100.74 28.8601 100.72 28.7334L100.685 28.5433L100.633 28.2553C100.633 28.238 100.633 28.2236 100.633 28.2092C100.525 27.6914 100.388 27.1799 100.224 26.6771C99.9964 25.998 99.7231 25.3351 99.4063 24.6928L99.3861 24.6496C99.2075 24.2867 99.0175 23.9267 98.8101 23.5753C98.7928 23.5436 98.7727 23.512 98.7525 23.4803C98.6603 23.3228 98.5643 23.1673 98.4645 23.0137C98.4415 22.9792 98.4213 22.9417 98.3954 22.9043C98.1304 22.4924 97.8511 22.095 97.5515 21.712C97.2635 21.3376 96.9525 20.9747 96.6328 20.6348C96.5119 20.5052 96.388 20.3785 96.2613 20.2518L96.2008 20.1942C96.0395 20.0358 95.8725 19.8803 95.7055 19.7305L95.6853 19.7132C95.5096 19.5577 95.3311 19.4252 95.1496 19.2668L95.0517 19.192C94.8818 19.0595 94.709 18.9356 94.5333 18.8147H94.5131C94.4037 18.7398 94.2914 18.6678 94.1791 18.5987C94.0667 18.5296 93.9861 18.4777 93.8911 18.423C93.7413 18.3366 93.6031 18.256 93.4475 18.184H93.4331C93.0085 17.9676 92.5639 17.793 92.1055 17.6627L91.9787 17.631L91.7858 17.5849C91.7397 17.5849 91.6936 17.5676 91.6475 17.559L91.469 17.5244L91.3221 17.5072L91.0917 17.4841H91.0024C90.8355 17.474 90.6682 17.474 90.5013 17.4841H90.4207C90.3141 17.4841 90.2104 17.5043 90.1096 17.5216C89.9631 17.5454 89.8179 17.5772 89.6747 17.6166L89.6229 17.6339C89.5279 17.6627 89.4328 17.6972 89.3349 17.7318L89.2859 17.752C89.1566 17.8058 89.0306 17.8674 88.9087 17.9363C87.6328 18.6448 86.8466 20.1884 86.8408 22.4089ZM91.3106 31.8726L91.2904 31.8496C91.1896 31.7401 91.0888 31.6307 90.988 31.5155L90.9247 31.4406C90.7605 31.2505 90.6021 31.0576 90.4466 30.8646C90.4293 30.8444 90.4149 30.8214 90.3976 30.7984C90.2738 30.64 90.1528 30.4758 90.0376 30.3116L89.9858 30.2396C89.8744 30.0784 89.765 29.9142 89.6575 29.7472L89.5797 29.6291C89.4933 29.4947 89.4098 29.3564 89.3291 29.2144L89.2744 29.128C89.1823 28.9705 89.093 28.8092 89.0066 28.6441L88.9432 28.5232C88.8741 28.3936 88.8107 28.264 88.7474 28.1344L88.6811 28.0048C88.6034 27.8377 88.5256 27.6736 88.4536 27.5065C88.4536 27.4806 88.4335 27.4576 88.4248 27.4345C88.3586 27.2848 88.2981 27.1465 88.2376 26.9824L88.1858 26.847C88.1195 26.6656 88.0533 26.487 87.9928 26.3056C87.9928 26.3056 87.9928 26.2768 87.9928 26.2624C87.9323 26.0752 87.8747 25.888 87.8229 25.7036L87.7912 25.5942C87.7336 25.3782 87.6789 25.1622 87.6328 24.9462C87.6328 24.9001 87.6127 24.8512 87.6011 24.8051C87.5896 24.759 87.5695 24.6352 87.5551 24.5516C87.5407 24.4681 87.5349 24.4422 87.5263 24.3904C87.509 24.2953 87.4946 24.2032 87.4831 24.1024C87.4715 24.0016 87.4831 23.9987 87.46 23.9468C87.437 23.7625 87.4197 23.5753 87.4053 23.391C87.4053 23.3507 87.4053 23.3132 87.4053 23.2729C87.4053 23.0857 87.3851 22.8956 87.388 22.6969C87.388 22.5683 87.388 22.4416 87.388 22.3168C87.388 22.2707 87.388 22.2275 87.388 22.1785L87.4053 21.9539L87.4226 21.8156C87.4226 21.7436 87.4226 21.6745 87.4485 21.6054C87.4744 21.5363 87.4629 21.5104 87.4715 21.4614C87.4802 21.4124 87.4917 21.3347 87.5061 21.2713C87.5205 21.208 87.5263 21.1763 87.5378 21.1273C87.5493 21.0784 87.5637 21.0092 87.5781 20.9545C87.5925 20.8998 87.604 20.8595 87.6184 20.8134C87.6328 20.7673 87.6501 20.704 87.6674 20.6521C87.6847 20.6003 87.6991 20.56 87.7135 20.5168C87.7279 20.4736 87.748 20.4131 87.7682 20.3641L87.8229 20.2345C87.8431 20.1884 87.8632 20.1395 87.8863 20.0934C87.9093 20.0473 87.9266 20.0128 87.9467 19.9724C87.9669 19.9321 87.9899 19.8803 88.0159 19.8371C88.0418 19.7939 88.0591 19.7622 88.0821 19.7248C88.1051 19.6873 88.1311 19.6412 88.1599 19.598L88.2319 19.4944C88.2607 19.454 88.2866 19.4137 88.3154 19.3763C88.3442 19.3388 88.3701 19.3129 88.396 19.2784C88.4219 19.2438 88.4536 19.2064 88.4853 19.1718C88.517 19.1372 88.5429 19.1113 88.5717 19.0825L88.6639 18.9846L88.7589 18.9011C88.7906 18.8723 88.8223 18.8406 88.8568 18.8147C88.8914 18.7888 88.9231 18.7628 88.9576 18.7369L89.0613 18.6592L89.165 18.5929C89.4838 18.392 89.8358 18.2496 90.2047 18.1724C91.2501 17.9507 92.5087 18.1955 93.8824 18.9846C97.468 21.0524 100.368 26.0723 100.357 30.1936C100.357 31.7286 99.9419 32.9238 99.245 33.71C99.014 33.9724 98.7416 34.1952 98.4386 34.3696L98.404 34.3868C98.3176 34.4329 98.2312 34.4761 98.1391 34.5164L98.0555 34.551C97.9699 34.5864 97.8824 34.6172 97.7935 34.6432H97.7474C97.6413 34.6739 97.5336 34.6989 97.4248 34.718H97.3413C97.2463 34.718 97.1512 34.744 97.0533 34.7526H96.9784C96.8546 34.7526 96.7307 34.7526 96.6011 34.7526H96.5234H96.316L96.0799 34.7238L95.9301 34.695L95.789 34.6691L95.6738 34.6403L95.4923 34.5942C95.2525 34.5278 95.0169 34.447 94.7867 34.3523L94.6802 34.3062C94.5563 34.2515 94.4296 34.1939 94.3029 34.1305L94.2511 34.1075C94.1157 34.0384 93.9803 33.9664 93.8421 33.8857C93.7039 33.8051 93.4994 33.6784 93.3295 33.566L93.3064 33.5488C93.1048 33.4134 92.9032 33.2608 92.7074 33.1139L92.6757 33.088C92.5058 32.9555 92.3387 32.8201 92.1746 32.6732C92.1746 32.6732 92.1746 32.6732 92.1602 32.6732C92.0104 32.5408 91.8722 32.4025 91.7167 32.2614L91.6447 32.1923C91.5295 32.103 91.42 31.9878 91.3106 31.8726Z"
        fill="white" />
    <path
        d="M63.4691 56.6057L73.336 50.9436C74.2 50.4483 76.2476 51.1193 76.2476 52.5075C76.2474 52.395 76.2177 52.2845 76.1614 52.1871C76.105 52.0897 76.0241 52.0088 75.9267 51.9526C75.8293 51.8963 75.7188 51.8666 75.6063 51.8664C75.4938 51.8662 75.3833 51.8956 75.2857 51.9516L65.416 57.6137C65.0925 57.8031 64.8321 58.0835 64.6672 58.4201L62.752 57.3315C62.9206 57.0289 63.1685 56.778 63.4691 56.6057Z"
        fill="#77CEFF" />
    <path
        d="M64.6666 58.4168C64.526 58.6833 64.451 58.9795 64.4478 59.2808V64.9515C64.448 65.064 64.4777 65.1745 64.534 65.2718C64.5904 65.3692 64.6713 65.4501 64.7687 65.5064C64.8661 65.5627 64.9766 65.5924 65.089 65.5925C65.2015 65.5927 65.3121 65.5633 65.4097 65.5073C65.1251 65.6869 64.7979 65.7877 64.4616 65.7994C64.1253 65.8111 63.7919 65.7333 63.4955 65.5739C63.1991 65.4146 62.9503 65.1794 62.7745 64.8925C62.5988 64.6055 62.5024 64.277 62.4951 63.9406V58.2728C62.4954 57.9415 62.5817 57.616 62.7457 57.3281L64.6666 58.4168Z"
        fill="#77CEFF" />
    <path opacity="0.4"
        d="M63.4691 56.6057L73.336 50.9436C74.2 50.4483 76.2476 51.1193 76.2476 52.5075C76.2474 52.395 76.2177 52.2845 76.1614 52.1871C76.105 52.0897 76.0241 52.0088 75.9267 51.9526C75.8293 51.8963 75.7188 51.8666 75.6063 51.8664C75.4938 51.8662 75.3833 51.8956 75.2857 51.9516L65.416 57.6137C65.0925 57.8031 64.8321 58.0835 64.6672 58.4201L62.752 57.3315C62.9206 57.0289 63.1685 56.778 63.4691 56.6057Z"
        fill="white" />
    <path opacity="0.2"
        d="M64.6666 58.4168C64.526 58.6833 64.451 58.9795 64.4478 59.2808V64.9515C64.448 65.064 64.4777 65.1745 64.534 65.2718C64.5904 65.3692 64.6713 65.4501 64.7687 65.5064C64.8661 65.5627 64.9766 65.5924 65.089 65.5925C65.2015 65.5927 65.3121 65.5633 65.4097 65.5073C65.1251 65.6869 64.7979 65.7877 64.4616 65.7994C64.1253 65.8111 63.7919 65.7333 63.4955 65.5739C63.1991 65.4146 62.9503 65.1794 62.7745 64.8925C62.5988 64.6055 62.5024 64.277 62.4951 63.9406V58.2728C62.4954 57.9415 62.5817 57.616 62.7457 57.3281L64.6666 58.4168Z"
        fill="white" />
    <path
        d="M75.2857 51.9524L65.4159 57.6145C65.1222 57.7834 64.8781 58.0267 64.7082 58.32C64.5383 58.6132 64.4487 58.946 64.4482 59.2849V64.9556C64.4484 65.0681 64.4782 65.1786 64.5345 65.2759C64.5908 65.3733 64.6718 65.4542 64.7692 65.5105C64.8666 65.5668 64.977 65.5965 65.0895 65.5967C65.202 65.5968 65.3126 65.5674 65.4102 65.5114L75.277 59.8753C75.5718 59.7065 75.8167 59.4629 75.9871 59.169C76.1576 58.8752 76.2474 58.5417 76.2476 58.202V52.5082C76.2474 52.3957 76.2176 52.2853 76.1613 52.1879C76.105 52.0905 76.0241 52.0096 75.9267 51.9533C75.8293 51.8971 75.7188 51.8674 75.6063 51.8672C75.4938 51.867 75.3833 51.8964 75.2857 51.9524Z"
        fill="#77CEFF" />
    <path
        d="M62.0747 63.0196L64.445 63.4632V60.4219L61.9912 62.7432C61.9693 62.7637 61.9537 62.79 61.9459 62.819C61.9381 62.848 61.9386 62.8785 61.9473 62.9073C61.956 62.936 61.9725 62.9617 61.995 62.9816C62.0175 63.0014 62.0451 63.0146 62.0747 63.0196Z"
        fill="#77CEFF" />
    <path
        d="M73.5869 56.0446C73.3234 56.2153 73.104 56.446 72.9468 56.7178C72.7896 56.9896 72.6991 57.2949 72.6826 57.6084C72.6826 58.1844 73.0916 58.412 73.5956 58.124C73.8577 57.9529 74.0757 57.7224 74.2319 57.4511C74.388 57.1799 74.4779 56.8756 74.4941 56.563C74.4941 55.987 74.0852 55.7595 73.5869 56.0446Z"
        fill="white" />
    <path
        d="M70.378 57.898C70.1139 58.0682 69.8942 58.2988 69.7369 58.5707C69.5796 58.8426 69.4894 59.1481 69.4736 59.4619C69.4736 60.0379 69.8826 60.2654 70.3837 59.9745C70.6467 59.8041 70.8655 59.5738 71.0222 59.3025C71.1789 59.0311 71.269 58.7265 71.2852 58.4135C71.2852 57.8375 70.8762 57.61 70.378 57.898Z"
        fill="white" />
    <path
        d="M67.17 59.7508C66.9073 59.9216 66.6888 60.152 66.5321 60.4232C66.3754 60.6945 66.2851 60.999 66.2686 61.3118C66.2686 61.8878 66.6746 62.1182 67.1758 61.8273C67.4389 61.6571 67.6578 61.4269 67.8146 61.1555C67.9713 60.8841 68.0613 60.5794 68.0772 60.2664C68.0743 59.6904 67.6798 59.46 67.17 59.7508Z"
        fill="white" />
    <path
        d="M64.4453 60.4271L62.4956 59.3125L60.0447 61.6568C60.0259 61.6742 60.0115 61.6958 60.0025 61.7198C59.9936 61.7439 59.9904 61.7696 59.9932 61.7951C59.996 61.8206 60.0047 61.845 60.0186 61.8665C60.0326 61.888 60.0514 61.906 60.0735 61.9189L62.0146 63.0047L64.4453 60.4271Z"
        fill="#77CEFF" />
    <path opacity="0.2"
        d="M64.4453 60.4271L62.4956 59.3125L60.0447 61.6568C60.0259 61.6742 60.0115 61.6958 60.0025 61.7198C59.9936 61.7439 59.9904 61.7696 59.9932 61.7951C59.996 61.8206 60.0047 61.845 60.0186 61.8665C60.0326 61.888 60.0514 61.906 60.0735 61.9189L62.0146 63.0047L64.4453 60.4271Z"
        fill="white" />
    <path
        d="M110.189 38.1156C110.451 38.2849 110.669 38.5138 110.825 38.7836C110.982 39.0534 111.073 39.3564 111.09 39.6679C111.09 40.2439 110.681 40.4657 110.183 40.1777C109.922 40.0083 109.705 39.7796 109.55 39.5103C109.395 39.2409 109.306 38.9387 109.29 38.6282C109.29 38.0551 109.696 37.8305 110.189 38.1156Z"
        fill="white" />
    <path
        d="M113.374 39.9517C113.636 40.1207 113.854 40.3496 114.011 40.6195C114.167 40.8894 114.257 41.1926 114.273 41.5041C114.273 42.0801 113.867 42.3018 113.368 42.0138C113.108 41.8445 112.891 41.6157 112.736 41.3464C112.581 41.0771 112.491 40.7748 112.476 40.4644C112.476 39.897 112.896 39.6637 113.374 39.9517Z"
        fill="white" />
    <path
        d="M116.553 43.8591C116.292 43.6898 116.075 43.4611 115.919 43.1918C115.764 42.9226 115.674 42.6203 115.657 42.3097C115.657 41.7337 116.06 41.5091 116.559 41.7971C116.82 41.9653 117.037 42.1933 117.192 42.4623C117.347 42.7313 117.436 43.0334 117.451 43.3436C117.451 43.9167 117.051 44.1443 116.553 43.8591Z"
        fill="white" />
    <path
        d="M107.551 34.6043V40.2548C107.551 40.5915 107.64 40.9221 107.809 41.2133C107.978 41.5046 108.221 41.7462 108.513 41.9137L116.07 46.2337L114.765 45.4878L115.39 47.2648C115.4 47.2903 115.419 47.3111 115.444 47.3229C115.468 47.3347 115.497 47.3366 115.523 47.3281C115.632 47.2705 116.125 47.0056 116.404 46.8212H116.424C116.434 46.8162 116.443 46.8093 116.45 46.8011L116.603 46.5505L118.305 47.524C118.587 47.6981 118.91 47.7947 119.242 47.8042C119.574 47.8138 119.902 47.7358 120.194 47.5781C120.486 47.4205 120.731 47.1888 120.905 46.9062C121.079 46.6237 121.175 46.3004 121.185 45.9688V40.3268C121.183 39.9985 121.097 39.6762 120.934 39.3908C120.767 39.0903 120.521 38.8412 120.223 38.6708L110.431 33.052C109.581 32.5595 107.551 33.2276 107.551 34.6043ZM115.658 42.3083C115.658 41.7323 116.061 41.5076 116.559 41.7956C116.821 41.9638 117.038 42.1919 117.193 42.4609C117.348 42.7299 117.437 43.032 117.452 43.3422C117.452 43.9182 117.052 44.1428 116.554 43.8577C116.293 43.6883 116.076 43.4597 115.92 43.1904C115.764 42.9211 115.675 42.6189 115.658 42.3083ZM112.49 40.468C112.49 39.892 112.896 39.6702 113.389 39.9553C113.651 40.1243 113.869 40.3532 114.025 40.6231C114.181 40.893 114.271 41.1962 114.287 41.5076C114.287 42.0836 113.881 42.3054 113.383 42.0174C113.119 41.8497 112.9 41.6217 112.742 41.3522C112.584 41.0828 112.493 40.7797 112.476 40.468H112.49ZM109.305 38.6305C109.305 38.0545 109.711 37.8328 110.203 38.1179C110.465 38.2872 110.683 38.5162 110.84 38.7859C110.997 39.0557 111.087 39.3587 111.105 39.6702C111.105 40.2462 110.696 40.468 110.198 40.18C109.934 40.0122 109.715 39.7842 109.557 39.5148C109.399 39.2454 109.308 38.9423 109.29 38.6305H109.305Z"
        fill="#77CEFF" />
    <path opacity="0.2"
        d="M116.45 46.7861C116.443 46.7944 116.434 46.8012 116.424 46.8063H116.404C116.116 46.9906 115.632 47.2556 115.522 47.3132C115.535 47.3107 115.547 47.3056 115.557 47.2981C115.568 47.2907 115.577 47.2811 115.583 47.27L116.191 46.2879L116.07 46.2188L116.602 46.524L116.45 46.7861Z"
        fill="white" />
    <path opacity="0.4"
        d="M119.041 40.468C118.919 40.2208 118.745 40.0028 118.531 39.8286C118.458 39.7709 118.381 39.718 118.301 39.6702L108.509 34.0542C108.412 33.9987 108.303 33.9696 108.191 33.9698C108.08 33.9699 107.971 33.9993 107.874 34.055C107.778 34.1106 107.697 34.1907 107.641 34.2871C107.586 34.3835 107.556 34.4929 107.556 34.6043C107.556 33.2276 109.586 32.5595 110.436 33.052L120.228 38.6708C120.526 38.8412 120.772 39.0903 120.939 39.3908L119.041 40.468Z"
        fill="white" />
    <path opacity="0.2"
        d="M119.257 46.9564V41.3289C119.262 41.2541 119.262 41.179 119.257 41.1042C119.227 40.883 119.159 40.6687 119.056 40.4706L120.957 39.3906C121.119 39.6759 121.205 39.9983 121.207 40.3266V45.9541C121.198 46.2858 121.101 46.6091 120.927 46.8916C120.753 47.1741 120.508 47.4059 120.216 47.5635C119.924 47.7211 119.596 47.7991 119.264 47.7896C118.933 47.7801 118.61 47.6835 118.327 47.5093C118.423 47.5594 118.531 47.584 118.639 47.581C118.747 47.5779 118.853 47.5473 118.946 47.4919C119.039 47.4365 119.117 47.3582 119.171 47.2645C119.226 47.1708 119.255 47.0648 119.257 46.9564Z"
        fill="white" />
    <path
        d="M127.962 102.805L123.495 102.934L119.025 102.805C118.835 105.82 119.423 108.896 120.235 110.399C120.427 110.785 120.737 111.099 121.119 111.298C122.438 112.058 124.575 112.058 125.88 111.298C126.269 111.096 126.58 110.771 126.764 110.373C127.585 108.864 128.161 105.806 127.962 102.805Z"
        fill="white" />
    <path
        d="M126.642 100.969C128.393 101.98 128.405 103.619 126.665 104.63C124.926 105.64 122.095 105.64 120.343 104.63C118.592 103.619 118.584 101.98 120.323 100.969C122.063 99.9582 124.894 99.9582 126.642 100.969Z"
        fill="#EBEBEB" />
    <path
        d="M125.951 101.373C127.316 102.162 127.325 103.441 125.969 104.227C124.612 105.013 122.403 105.016 121.038 104.227C119.673 103.438 119.664 102.162 121.021 101.373C122.377 100.584 124.586 100.584 125.951 101.373Z"
        fill="#E0E0E0" />
    <g opacity="0.15">
        <path
            d="M125.951 101.373C127.316 102.162 127.325 103.441 125.969 104.227C124.612 105.013 122.403 105.016 121.038 104.227C119.673 103.438 119.664 102.162 121.021 101.373C122.377 100.584 124.586 100.584 125.951 101.373Z"
            fill="black" />
    </g>
    <path
        d="M130.841 83.7344C120.761 87.032 120.681 93.7683 122.95 98.5664C123.526 99.5369 125.254 100.058 126.763 94.0909L124.128 94.4307L127.21 92.8669L128.01 90.4736L125.441 90.6665L128.702 89.2928C129.3 87.3979 130.015 85.5416 130.841 83.7344Z"
        fill="#77CEFF" />
    <path opacity="0.2"
        d="M130.841 83.7344C120.761 87.032 120.681 93.7683 122.95 98.5664C123.526 99.5369 125.254 100.058 126.763 94.0909L124.128 94.4307L127.21 92.8669L128.01 90.4736L125.441 90.6665L128.702 89.2928C129.3 87.3979 130.015 85.5416 130.841 83.7344Z"
        fill="black" />
    <path opacity="0.2"
        d="M130.841 83.7344C120.761 87.032 120.681 93.7683 122.95 98.5664C123.526 99.5369 125.254 100.058 126.763 94.0909L124.128 94.4307L127.21 92.8669L128.01 90.4736L125.441 90.6665L128.702 89.2928C129.3 87.3979 130.015 85.5416 130.841 83.7344Z"
        fill="white" />
    <path
        d="M127.993 85.4219C122.682 89.4539 122.204 94.0619 123.705 98.8974C123.172 94.6494 122.599 90.3611 127.993 85.4219Z"
        fill="white" />
    <path
        d="M113.786 90.5781C123.711 91.9749 124.914 98.2332 123.598 103.08C123.227 104.08 121.7 104.851 119.304 99.5464L121.824 99.4226L118.694 98.4808L117.542 96.3842L119.967 96.1336L116.701 95.3992C115.829 93.7337 114.856 92.1236 113.786 90.5781Z"
        fill="#77CEFF" />
    <path opacity="0.2"
        d="M113.786 90.5781C123.711 91.9749 124.914 98.2332 123.598 103.08C123.227 104.08 121.7 104.851 119.304 99.5464L121.824 99.4226L118.694 98.4808L117.542 96.3842L119.967 96.1336L116.701 95.3992C115.829 93.7337 114.856 92.1236 113.786 90.5781Z"
        fill="white" />
    <path opacity="0.1"
        d="M113.786 90.5781C123.711 91.9749 124.914 98.2332 123.598 103.08C123.227 104.08 121.7 104.851 119.304 99.5464L121.824 99.4226L118.694 98.4808L117.542 96.3842L119.967 96.1336L116.701 95.3992C115.829 93.7337 114.856 92.1236 113.786 90.5781Z"
        fill="black" />
    <path
        d="M116.718 91.6719C122.334 94.5519 123.546 98.7682 122.95 103.509C122.74 99.4652 122.561 95.3698 116.718 91.6719Z"
        fill="white" />
    <path
        d="M133.748 92.9219C124.644 93.0716 122.858 98.5782 123.504 103.091C123.725 104.036 125.016 104.903 127.769 100.39L125.511 99.9952L128.449 99.4969L129.713 97.7344L127.556 97.239L130.58 96.951C131.551 95.5433 132.609 94.1976 133.748 92.9219Z"
        fill="#77CEFF" />
    <path
        d="M130.98 93.5781C125.597 95.5394 124.03 99.2085 124.036 103.549C124.681 99.9285 125.3 96.2565 130.98 93.5781Z"
        fill="white" />
    <path opacity="0.2"
        d="M133.748 92.9219C124.644 93.0716 122.858 98.5782 123.504 103.091C123.725 104.036 125.016 104.903 127.769 100.39L125.511 99.9952L128.449 99.4969L129.713 97.7344L127.556 97.239L130.58 96.951C131.551 95.5433 132.609 94.1976 133.748 92.9219Z"
        fill="white" />
    <path
        d="M89.2051 41.997C89.398 41.3145 90.7804 40.0213 92.1571 40.0473C92.2888 40.0521 92.419 40.0773 92.543 40.1221L119.275 55.3314C119.666 55.5575 119.99 55.8815 120.217 56.2714C120.444 56.6613 120.565 57.1037 120.568 57.5548V115.377C120.568 116.848 118.869 118.257 117.274 117.577C117.238 117.565 117.203 117.55 117.17 117.534L90.4319 102.296C90.04 102.072 89.7141 101.749 89.4875 101.359C89.2609 100.969 89.1416 100.526 89.1417 100.075V42.2764C89.1399 42.1795 89.1617 42.0836 89.2051 41.997Z"
        fill="#37474F" />
    <path
        d="M116.836 63.6671C116.836 63.4414 116.776 63.2197 116.663 63.0245C116.55 62.8293 116.387 62.6675 116.191 62.5554L91.3712 48.4434C91.2739 48.3879 91.1638 48.3589 91.0518 48.3594C90.9398 48.3598 90.8299 48.3897 90.7331 48.446C90.6363 48.5023 90.5559 48.583 90.5001 48.6801C90.4443 48.7772 90.415 48.8872 90.415 48.9992V95.6149C90.4155 95.8405 90.4753 96.0621 90.5886 96.2572C90.7018 96.4524 90.8645 96.6143 91.0602 96.7266L115.88 110.87C115.977 110.926 116.087 110.955 116.199 110.954C116.311 110.954 116.421 110.924 116.518 110.868C116.615 110.811 116.695 110.731 116.751 110.634C116.807 110.536 116.836 110.426 116.836 110.314V63.6671Z"
        fill="#77CEFF" />
    <path opacity="0.3"
        d="M116.836 63.6671C116.836 63.4414 116.776 63.2197 116.663 63.0245C116.55 62.8293 116.387 62.6675 116.191 62.5554L91.3712 48.4434C91.2739 48.3879 91.1638 48.3589 91.0518 48.3594C90.9398 48.3598 90.8299 48.3897 90.7331 48.446C90.6363 48.5023 90.5559 48.583 90.5001 48.6801C90.4443 48.7772 90.415 48.8872 90.415 48.9992V95.6149C90.4155 95.8405 90.4753 96.0621 90.5886 96.2572C90.7018 96.4524 90.8645 96.6143 91.0602 96.7266L115.88 110.87C115.977 110.926 116.087 110.955 116.199 110.954C116.311 110.954 116.421 110.924 116.518 110.868C116.615 110.811 116.695 110.731 116.751 110.634C116.807 110.536 116.836 110.426 116.836 110.314V63.6671Z"
        fill="white" />
    <path
        d="M120.565 57.5529V115.375C120.565 116.846 118.866 118.255 117.271 117.575C117.367 117.612 117.472 117.625 117.574 117.612C117.677 117.6 117.776 117.563 117.861 117.504C117.946 117.445 118.015 117.366 118.063 117.274C118.111 117.182 118.135 117.08 118.135 116.976V59.1513C118.133 58.6477 117.983 58.1557 117.703 57.7372L120.32 56.4297C120.485 56.781 120.569 57.1649 120.565 57.5529Z"
        fill="#263238" />
    <path
        d="M92.16 40.0473C92.2917 40.0521 92.4219 40.0773 92.5459 40.1221L119.278 55.3314C119.723 55.5866 120.082 55.97 120.306 56.4316L117.688 57.7391C117.469 57.4046 117.172 57.1272 116.824 56.9298L90.095 41.7205C90.0186 41.6779 89.9342 41.6516 89.847 41.6431C89.7599 41.6346 89.672 41.6442 89.5888 41.6712C89.5055 41.6982 89.4287 41.7421 89.3632 41.8002C89.2977 41.8582 89.2449 41.9292 89.208 42.0085C89.3952 41.3145 90.7776 40.0213 92.16 40.0473Z"
        fill="#455A64" />
    <path
        d="M100.331 51.2668C100.144 51.1573 99.9883 51.2409 99.9883 51.4569C99.9962 51.5727 100.031 51.6851 100.09 51.7851C100.149 51.8851 100.231 51.9699 100.328 52.0329L105.573 55.0626C105.76 55.1692 105.912 55.0799 105.912 54.8639C105.905 54.7483 105.87 54.6361 105.812 54.5361C105.753 54.4361 105.673 54.3512 105.575 54.2879L100.331 51.2668Z"
        fill="#263238" />
    <path
        d="M106.923 55.0787C106.733 54.9692 106.583 55.0556 106.583 55.2716C106.591 55.3872 106.625 55.4993 106.684 55.5992C106.742 55.6992 106.823 55.7842 106.92 55.8476C107.107 55.9542 107.263 55.8678 107.263 55.6518C107.254 55.5365 107.219 55.4246 107.16 55.3252C107.101 55.2257 107.02 55.1413 106.923 55.0787Z"
        fill="#263238" />
    <path
        d="M103.564 50.8292C103.19 50.6103 102.888 50.7831 102.885 51.2151C102.897 51.4506 102.964 51.68 103.081 51.8846C103.198 52.0893 103.362 52.2635 103.559 52.3931C103.936 52.6091 104.247 52.4334 104.247 52.0014C104.234 51.766 104.165 51.537 104.047 51.3332C103.928 51.1295 103.763 50.9568 103.564 50.8292Z"
        fill="#263238" />
    <path
        d="M103.562 105.26C102.799 104.82 102.183 105.171 102.18 106.049C102.204 106.529 102.341 106.997 102.579 107.413C102.818 107.83 103.152 108.185 103.553 108.448C104.317 108.889 104.95 108.529 104.953 107.651C104.926 107.171 104.786 106.704 104.544 106.289C104.302 105.874 103.966 105.521 103.562 105.26Z"
        fill="#263238" />
    <path
        d="M101.105 74.9369L100.212 74.4386C99.3646 73.9651 98.3889 73.7727 97.4252 73.8891C96.4615 74.0056 95.5596 74.4249 94.8494 75.0866L87.3845 82.0246C87.3845 82.0246 84.5592 76.878 84.0408 75.1846C83.8766 74.6489 84.1906 74.0729 84.3461 73.5343C84.5392 73.006 84.6005 72.4386 84.5246 71.8812C84.3988 71.1586 84.4563 70.4159 84.6917 69.7212C84.7099 69.6617 84.7135 69.5986 84.702 69.5374C84.6906 69.4762 84.6645 69.4187 84.6261 69.3697C84.5876 69.3208 84.5378 69.2818 84.481 69.2563C84.4243 69.2307 84.3621 69.2193 84.3 69.223H84.2194C84.0181 69.2333 83.8262 69.3115 83.675 69.4447C83.5362 69.5933 83.4371 69.7746 83.387 69.9718C83.2315 70.4632 83.1245 70.9686 83.0674 71.4809C82.6363 70.5021 82.4287 69.4395 82.4597 68.3705C82.5107 67.9636 82.5039 67.5515 82.4395 67.1465C82.4052 66.9442 82.3129 66.7563 82.1738 66.6055C82.0348 66.4547 81.8549 66.3475 81.6562 66.2969C81.4498 66.5882 81.2994 66.9154 81.2126 67.2617C81.0932 67.2116 80.9645 67.1872 80.8349 67.1902C80.7054 67.1932 80.578 67.2234 80.461 67.279C80.3563 67.3432 80.267 67.4297 80.1993 67.5322C80.1317 67.6347 80.0873 67.7507 80.0693 67.8722C79.4702 67.9154 78.9547 68.4482 78.7099 68.9954C78.4932 69.5591 78.4152 70.1665 78.4824 70.7666C78.6074 72.7401 79.3083 74.6335 80.4984 76.2127C81.4632 79.8847 82.3243 84.0233 83.6981 87.2402C83.8585 87.6073 84.0975 87.9347 84.3981 88.1994C84.6986 88.4642 85.0536 88.6599 85.4379 88.7727C85.8223 88.8855 86.2267 88.9128 86.6227 88.8525C87.0187 88.7923 87.3967 88.646 87.7301 88.4239C91.0792 86.1906 94.3119 83.7874 97.4155 81.2239L101.105 74.9369Z"
        fill="#FFA8A7" />
    <path
        d="M101.105 74.9403L100.212 74.442C99.365 73.9685 98.3892 73.776 97.4255 73.8925C96.4618 74.0089 95.5599 74.4282 94.8498 75.09L88.9717 80.562C89.5477 83.5515 92.3672 85.6279 92.3672 85.6279L97.4475 81.2331L101.105 74.9403Z"
        fill="#77CEFF" />
    <path opacity="0.2"
        d="M101.105 74.9403L100.212 74.442C99.365 73.9685 98.3892 73.776 97.4255 73.8925C96.4618 74.0089 95.5599 74.4282 94.8498 75.09L88.9717 80.562C89.5477 83.5515 92.3672 85.6279 92.3672 85.6279L97.4475 81.2331L101.105 74.9403Z"
        fill="black" />
    <path
        d="M88.1277 85.4529C88.1536 83.964 87.8397 83.1172 87.376 82.0113L87.7677 81.6484C88.1277 82.1208 88.8419 83.3678 88.1277 85.4529Z"
        fill="#F28F8F" />
    <path
        d="M82.3677 75.3004C81.9718 74.8703 81.7573 74.3039 81.7691 73.7195C81.7809 73.1351 82.0181 72.5778 82.431 72.1641C82.1356 72.2883 81.8806 72.4923 81.6944 72.7533C81.5083 73.0142 81.3983 73.3217 81.377 73.6415C81.3802 73.981 81.4737 74.3135 81.6478 74.605C81.8219 74.8965 82.0703 75.1365 82.3677 75.3004Z"
        fill="#F28F8F" />
    <path
        d="M95.2041 96.0938L111.2 96.3558C111.2 96.3558 112.113 101.338 112.372 108.872L95.2473 99.1149L95.2041 96.0938Z"
        fill="#455A64" />
    <g opacity="0.2">
        <path
            d="M95.2041 96.0938L111.2 96.3558C111.2 96.3558 112.113 101.338 112.372 108.872L95.2473 99.1149L95.2041 96.0938Z"
            fill="white" />
    </g>
    <path
        d="M100.987 73.8594L99.4637 74.0207C98.9074 74.0783 98.3711 74.2597 97.8942 74.5518C97.4172 74.8438 97.0117 75.239 96.7076 75.7083C95.1437 78.1218 94.4036 81.8168 94.8356 85.8171C95.3597 90.7995 94.7175 98.1061 94.7175 98.1061C101.327 102.933 111.324 100.738 112.372 99.6901L111.695 92.0293C111.587 90.9874 111.568 89.938 111.64 88.893C111.813 87.3263 112.792 83.9365 112.931 81.7247C113.019 79.7569 112.603 77.7991 111.724 76.0367L105.929 73.8594H100.987Z"
        fill="#77CEFF" />
    <g opacity="0.3">
        <path
            d="M100.987 73.8594L99.4637 74.0207C98.9074 74.0783 98.3711 74.2597 97.8942 74.5518C97.4172 74.8438 97.0117 75.239 96.7076 75.7083C95.1437 78.1218 94.4036 81.8168 94.8356 85.8171C95.3597 90.7995 94.7175 98.1061 94.7175 98.1061C101.327 102.933 111.324 100.738 112.372 99.6901L111.695 92.0293C111.587 90.9874 111.568 89.938 111.64 88.893C111.813 87.3263 112.792 83.9365 112.931 81.7247C113.019 79.7569 112.603 77.7991 111.724 76.0367L105.929 73.8594H100.987Z"
            fill="black" />
    </g>
    <path
        d="M105.952 70.0156V73.9699C105.954 74.2288 105.902 74.4854 105.798 74.7226C105.695 74.9599 105.542 75.1725 105.35 75.3465C104.304 76.2692 102.935 76.7403 101.543 76.6569C101.263 76.6609 100.988 76.5762 100.759 76.415C100.62 76.2783 100.522 76.1048 100.477 75.9146C100.432 75.7244 100.442 75.5254 100.506 75.3407C100.563 75.1547 100.648 74.9781 100.756 74.8166C100.979 74.4826 101.1 74.0916 101.105 73.6905V70.0156H105.952Z"
        fill="#FFA8A7" />
    <path
        d="M105.665 70.0415L101.105 70.0156V73.3766C102.134 73.1779 103.136 72.9129 103.985 72.3196C104.778 71.7634 105.368 70.9635 105.665 70.0415Z"
        fill="#FF9192" />
    <path
        d="M96.8398 63.3301C96.3313 63.3485 95.8275 63.2259 95.3843 62.9758C94.9411 62.7258 94.5757 62.358 94.3285 61.9132C94.2957 61.8496 94.2815 61.7781 94.2875 61.7068C94.2935 61.6355 94.3195 61.5674 94.3626 61.5103C94.4056 61.4531 94.4638 61.4093 94.5306 61.3837C94.5975 61.3582 94.6701 61.3521 94.7403 61.366C95.092 61.4264 95.4514 61.4264 95.803 61.366C95.399 60.8382 95.1036 60.2356 94.934 59.5929C94.7645 58.9503 94.7241 58.2804 94.8152 57.622C94.8264 57.5487 94.8546 57.4791 94.8975 57.4187C94.9404 57.3583 94.9969 57.3088 95.0624 57.2741C95.1279 57.2394 95.2006 57.2205 95.2746 57.2189C95.3487 57.2173 95.4222 57.233 95.4891 57.2649C96.9471 57.9895 98.5699 58.3182 100.195 58.2181C101.059 58.1548 101.923 57.9733 102.787 57.9071C103.652 57.8013 104.53 57.9348 105.324 58.293C106.096 58.6876 106.712 59.4709 106.712 60.3378C106.812 60.1973 106.94 60.0802 107.09 59.9946C107.239 59.909 107.405 59.8571 107.576 59.8425C107.754 59.8192 107.934 59.8328 108.106 59.8823C108.278 59.9319 108.438 60.0163 108.576 60.1305C108.078 60.4041 107.588 60.6805 107.087 60.9541C107.599 60.7727 108.239 61.173 108.501 61.654C108.716 62.1549 108.81 62.6997 108.775 63.2437C108.806 63.9671 108.775 64.6918 108.679 65.4095C108.581 66.1297 108.299 66.8123 107.859 67.3909C107.47 67.8637 106.953 68.2138 106.37 68.3989C105.574 68.6197 104.73 68.5926 103.951 68.3212C103.177 68.05 102.44 67.6823 101.759 67.2268C100.004 66.0803 98.3575 64.776 96.8398 63.3301Z"
        fill="#263238" />
    <path
        d="M96.7305 61.8799C96.2323 64.8733 96.5629 67.9459 97.6866 70.7647C97.9458 71.4156 98.2828 72.0895 98.8933 72.438C99.5039 72.7865 100.333 72.726 101.048 72.6165C102.227 72.4825 103.378 72.1586 104.455 71.6575C105.538 71.1455 106.381 70.2357 106.81 69.1173C107.196 69.1969 107.596 69.1627 107.963 69.0191C108.33 68.8754 108.647 68.6284 108.875 68.3081C109.326 67.6447 109.56 66.8577 109.544 66.0559C109.544 65.5461 109.449 64.9442 108.991 64.7196C108.533 64.4949 108.055 64.7426 107.686 65.0422C107.079 65.5356 106.635 66.2012 106.413 66.9516C106.076 65.7103 105.549 64.5094 105.215 63.2681C105.082 62.7785 104.927 62.2457 104.492 61.9749C103.971 61.6409 103.291 61.8309 102.689 61.9749C100.727 62.4522 98.676 62.4195 96.7305 61.8799Z"
        fill="#FFA8A7" />
    <path d="M100.354 65.6562L98.8994 68.1014L100.633 68.4268L100.354 65.6562Z" fill="#F28F8F" />
    <path
        d="M102.303 69.2734L100.987 69.907C101.1 70.0564 101.258 70.1653 101.438 70.2172C101.617 70.2691 101.809 70.2614 101.984 70.195C102.135 70.1017 102.249 69.959 102.308 69.7911C102.366 69.6232 102.364 69.4404 102.303 69.2734Z"
        fill="#F28F8F" />
    <path opacity="0.3"
        d="M102.303 69.2734L100.987 69.907C101.1 70.0564 101.258 70.1653 101.438 70.2172C101.617 70.2691 101.809 70.2614 101.984 70.195C102.135 70.1017 102.249 69.959 102.308 69.7911C102.366 69.6232 102.364 69.4404 102.303 69.2734Z"
        fill="black" />
    <path
        d="M101.525 70.2374C101.679 70.2686 101.838 70.2535 101.983 70.1942C102.104 70.1265 102.202 70.0243 102.265 69.9007C102.327 69.7771 102.352 69.6376 102.335 69.5001C102.131 69.4972 101.935 69.5719 101.784 69.7088C101.634 69.8457 101.541 70.0347 101.525 70.2374Z"
        fill="#F28F8F" />
    <path
        d="M102.862 65.7532C102.872 65.8513 102.852 65.9501 102.806 66.0371C102.76 66.1241 102.689 66.1954 102.602 66.2419C102.515 66.2884 102.416 66.3081 102.318 66.2985C102.22 66.2889 102.127 66.2504 102.05 66.1879C101.974 66.1254 101.918 66.0417 101.89 65.9474C101.861 65.853 101.861 65.7523 101.89 65.658C101.918 65.5636 101.974 65.4799 102.05 65.4174C102.127 65.3549 102.22 65.3164 102.318 65.3068C102.449 65.2947 102.58 65.3348 102.682 65.4183C102.783 65.5019 102.848 65.6222 102.862 65.7532Z"
        fill="#263238" />
    <path
        d="M98.689 66.0084C98.6994 66.1066 98.6804 66.2056 98.6344 66.2929C98.5884 66.3802 98.5175 66.4519 98.4307 66.4989C98.3439 66.5459 98.2452 66.566 98.1469 66.5568C98.0486 66.5475 97.9553 66.5093 97.8788 66.447C97.8023 66.3847 97.746 66.301 97.7171 66.2066C97.6883 66.1123 97.688 66.0114 97.7165 65.9169C97.745 65.8225 97.8009 65.7385 97.8771 65.6759C97.9534 65.6132 98.0465 65.5746 98.1447 65.5649C98.2756 65.552 98.4063 65.5914 98.5083 65.6745C98.6102 65.7576 98.6752 65.8776 98.689 66.0084Z"
        fill="#263238" />
    <path
        d="M98.009 64.0884L96.9895 64.9524C96.9271 64.8217 96.9066 64.6749 96.9308 64.5321C96.955 64.3893 97.0228 64.2575 97.1248 64.1546C97.2511 64.0617 97.401 64.0062 97.5574 63.9945C97.7138 63.9828 97.8702 64.0153 98.009 64.0884Z"
        fill="#263238" />
    <path
        d="M102.24 63.5995L103.412 64.2475C103.447 64.1074 103.439 63.9599 103.387 63.825C103.336 63.69 103.244 63.5742 103.124 63.493C102.982 63.4265 102.823 63.4013 102.667 63.4201C102.511 63.439 102.363 63.5011 102.24 63.5995Z"
        fill="#263238" />
    <path
        d="M112.403 88.9561L113.932 94.5519L108 99.5257C107.577 99.8791 107.038 100.065 106.488 100.047C105.882 100.007 105.273 100.043 104.676 100.154C104.209 100.257 103.757 100.41 103.294 100.516C102.969 100.599 102.635 100.641 102.3 100.64C102.23 100.636 102.16 100.649 102.097 100.68C102.034 100.711 101.98 100.758 101.941 100.817C101.902 100.875 101.879 100.943 101.874 101.013C101.869 101.083 101.883 101.153 101.914 101.216C101.962 101.318 102.03 101.409 102.113 101.484C102.362 101.678 102.662 101.795 102.977 101.821C103.471 101.89 103.973 101.864 104.457 101.743C103.97 102.289 103.336 102.683 102.631 102.878C101.963 103.103 101.266 103.229 100.601 103.454C100.347 103.522 100.119 103.667 99.9499 103.869C99.8698 103.973 99.8336 104.104 99.8493 104.234C99.8649 104.365 99.931 104.484 100.033 104.566C100.321 104.741 100.704 104.482 101.016 104.606C100.978 104.785 100.978 104.969 101.016 105.147C101.068 105.331 101.186 105.488 101.347 105.591C101.428 105.64 101.52 105.668 101.615 105.671C101.71 105.674 101.804 105.652 101.888 105.608C102.029 105.826 102.213 106.014 102.428 106.159C102.644 106.304 102.886 106.405 103.141 106.455C103.65 106.556 104.175 106.55 104.682 106.438C106.796 106.046 108.138 104.206 109.794 102.838C110.021 102.648 115.865 99.3817 118.857 97.7286C119.352 97.4524 119.742 97.0199 119.965 96.4988C120.188 95.9777 120.232 95.3974 120.09 94.8486L118.183 87.4297L112.403 88.9561Z"
        fill="#FFA8A7" />
    <path
        d="M117.576 94.4237C116.937 94.1357 114.886 93.8765 113.933 94.5447L113.774 93.9687C114.379 93.6486 115.067 93.5206 115.746 93.6019C116.426 93.6833 117.064 93.97 117.576 94.4237Z"
        fill="#F28F8F" />
    <path
        d="M111.666 76.0078L112.504 76.2468C113.357 76.4886 114.138 76.9338 114.781 77.5444C115.423 78.1549 115.908 78.9125 116.193 79.7518L118.875 87.6401C116.458 90.1774 112.115 89.3998 112.115 89.3998L111.251 85.388C108.224 80.1032 111.009 76.8689 111.666 76.0078Z"
        fill="#77CEFF" />
    <path opacity="0.2"
        d="M111.666 76.0078L112.504 76.2468C113.357 76.4886 114.138 76.9338 114.781 77.5444C115.423 78.1549 115.908 78.9125 116.193 79.7518L118.875 87.6401C116.458 90.1774 112.115 89.3998 112.115 89.3998L111.251 85.388C108.224 80.1032 111.009 76.8689 111.666 76.0078Z"
        fill="black" />
    <path
        d="M56.3672 41.997C56.1713 41.3145 54.7889 40.0213 53.4123 40.0473C53.2805 40.0521 53.1503 40.0773 53.0264 40.1221L26.3 55.3314C25.9096 55.5575 25.585 55.8815 25.3582 56.2714C25.1314 56.6613 25.0103 57.1037 25.0068 57.5548V115.377C25.0068 116.848 26.7032 118.257 28.2987 117.577C28.3335 117.565 28.3672 117.551 28.3995 117.534L55.1345 102.301C55.5265 102.078 55.8523 101.755 56.0789 101.365C56.3056 100.975 56.4249 100.532 56.4248 100.081V42.2764C56.4269 42.1801 56.4072 42.0846 56.3672 41.997Z"
        fill="#37474F" />
    <path
        d="M28.7363 63.6671C28.7359 63.4412 28.7953 63.2194 28.9087 63.024C29.022 62.8287 29.1852 62.667 29.3815 62.5554L54.2013 48.4434C54.2986 48.3879 54.4087 48.3589 54.5207 48.3594C54.6327 48.3598 54.7426 48.3897 54.8394 48.446C54.9362 48.5023 55.0166 48.583 55.0724 48.6801C55.1282 48.7772 55.1575 48.8872 55.1575 48.9992V95.6149C55.157 95.8405 55.0972 96.0621 54.9839 96.2572C54.8707 96.4524 54.708 96.6143 54.5123 96.7266L29.6896 110.87C29.5924 110.925 29.4826 110.953 29.371 110.953C29.2594 110.952 29.15 110.922 29.0536 110.866C28.9573 110.809 28.8773 110.729 28.8216 110.632C28.7659 110.536 28.7365 110.426 28.7363 110.314V63.6671Z"
        fill="#77CEFF" />
    <path opacity="0.2"
        d="M28.7363 63.6671C28.7359 63.4412 28.7953 63.2194 28.9087 63.024C29.022 62.8287 29.1852 62.667 29.3815 62.5554L54.2013 48.4434C54.2986 48.3879 54.4087 48.3589 54.5207 48.3594C54.6327 48.3598 54.7426 48.3897 54.8394 48.446C54.9362 48.5023 55.0166 48.583 55.0724 48.6801C55.1282 48.7772 55.1575 48.8872 55.1575 48.9992V95.6149C55.157 95.8405 55.0972 96.0621 54.9839 96.2572C54.8707 96.4524 54.708 96.6143 54.5123 96.7266L29.6896 110.87C29.5924 110.925 29.4826 110.953 29.371 110.953C29.2594 110.952 29.15 110.922 29.0536 110.866C28.9573 110.809 28.8773 110.729 28.8216 110.632C28.7659 110.536 28.7365 110.426 28.7363 110.314V63.6671Z"
        fill="black" />
    <path
        d="M25.0072 57.5529V115.375C25.0072 116.846 26.7035 118.255 28.299 117.575C28.2023 117.612 28.0979 117.625 27.9951 117.612C27.8922 117.6 27.794 117.563 27.7088 117.504C27.6237 117.445 27.5542 117.366 27.5065 117.274C27.4588 117.182 27.4343 117.08 27.435 116.976V59.1513C27.4353 58.6475 27.5857 58.1551 27.867 57.7372L25.2491 56.4297C25.0836 56.7807 25.0009 57.1649 25.0072 57.5529Z"
        fill="#263238" />
    <path
        d="M53.4158 40.0473C53.2841 40.0521 53.1539 40.0773 53.0299 40.1221L26.3006 55.3314C25.8553 55.5866 25.497 55.97 25.2725 56.4316L27.8904 57.7391C28.1106 57.4051 28.4067 57.1278 28.7544 56.9298L55.4865 41.7205C55.563 41.6779 55.6474 41.6516 55.7345 41.6431C55.8217 41.6346 55.9096 41.6442 55.9928 41.6712C56.0761 41.6982 56.1529 41.7421 56.2184 41.8002C56.2839 41.8582 56.3367 41.9292 56.3736 42.0085C56.1749 41.3145 54.7925 40.0213 53.4158 40.0473Z"
        fill="#455A64" />
    <path
        d="M45.2425 51.2668C45.4297 51.1573 45.5852 51.2409 45.5852 51.4569C45.5768 51.5729 45.5414 51.6854 45.4819 51.7853C45.4224 51.8853 45.3405 51.9701 45.2425 52.0329L39.998 55.0626C39.8108 55.1692 39.6611 55.0799 39.6582 54.8639C39.6657 54.748 39.7003 54.6354 39.7594 54.5353C39.8184 54.4353 39.9002 54.3505 39.998 54.2879L45.2425 51.2668Z"
        fill="#263238" />
    <path
        d="M38.6494 55.0787C38.8366 54.9692 38.9892 55.0556 38.9892 55.2716C38.981 55.3871 38.9463 55.499 38.8879 55.5989C38.8294 55.6988 38.7488 55.7839 38.6522 55.8476C38.465 55.9542 38.3095 55.8678 38.3066 55.6518C38.3162 55.5364 38.352 55.4248 38.4114 55.3254C38.4708 55.2261 38.5522 55.1417 38.6494 55.0787Z"
        fill="#263238" />
    <path
        d="M42.0078 50.8292C42.3822 50.6103 42.6846 50.7831 42.6846 51.2151C42.6731 51.4507 42.6061 51.6803 42.489 51.885C42.3718 52.0897 42.2079 52.2638 42.0106 52.3931C41.6362 52.6091 41.3252 52.4334 41.3252 52.0014C41.3378 51.7659 41.4063 51.5367 41.5249 51.3329C41.6436 51.1291 41.8091 50.9564 42.0078 50.8292Z"
        fill="#263238" />
    <path
        d="M42.0082 105.26C42.7743 104.82 43.3906 105.171 43.3906 106.049C43.3672 106.529 43.2306 106.997 42.9918 107.414C42.753 107.831 42.4189 108.185 42.0169 108.448C41.2537 108.889 40.6201 108.529 40.6172 107.651C40.6457 107.171 40.7864 106.705 41.028 106.29C41.2696 105.875 41.6054 105.522 42.0082 105.26Z"
        fill="#263238" />
    <path
        d="M50.5677 97.625L34.1891 97.841C34.1891 97.841 33.8637 101.769 33.6592 108.606L50.6512 98.9152C50.6051 98.1031 50.5677 97.625 50.5677 97.625Z"
        fill="#77CEFF" />
    <path opacity="0.5"
        d="M50.5677 97.625L34.1891 97.841C34.1891 97.841 33.8637 101.769 33.6592 108.606L50.6512 98.9152C50.6051 98.1031 50.5677 97.625 50.5677 97.625Z"
        fill="black" />
    <path
        d="M58.4846 80.0841L60.3595 81.7661L65.5435 76.199C66.0457 75.6589 66.3999 74.9982 66.5716 74.281L66.8596 73.0454C66.9374 72.723 67.0616 72.4135 67.2283 72.1267C67.4817 71.6918 67.7524 71.2627 67.9857 70.8192C68.0427 70.6771 68.1436 70.5571 68.2737 70.4765C68.3576 70.4456 68.4489 70.4406 68.5356 70.4621C68.6224 70.4837 68.7007 70.5308 68.7604 70.5974C68.8747 70.7365 68.9332 70.913 68.9246 71.0928C68.9144 71.2707 68.8825 71.4468 68.8295 71.6169L68.6135 72.4176C68.579 72.5266 68.5615 72.6402 68.5617 72.7545C68.5627 72.8112 68.577 72.8668 68.6036 72.9168C68.6301 72.9669 68.668 73.0099 68.7143 73.0425C68.9361 73.1779 72.1387 70.2057 72.6743 68.8435C72.8183 68.4777 73.9646 68.6909 73.2705 70.1769C73.392 70.2795 73.4883 70.4088 73.5517 70.5547C73.6152 70.7005 73.6441 70.859 73.6363 71.0179C73.6593 71.4211 73.6795 71.8272 73.7025 72.2304C73.7406 72.6281 73.7251 73.0291 73.6564 73.4227C73.501 73.9993 73.204 74.5279 72.7924 74.9606C72.0713 75.7666 71.1814 76.4038 70.186 76.8269C69.4356 77.1556 68.7951 77.6923 68.3399 78.3734L63.3748 85.8614C63.1013 86.2742 62.7447 86.6253 62.3277 86.8923C61.9106 87.1593 61.4425 87.3362 60.9532 87.4119C60.4638 87.4875 59.9641 87.4601 59.4859 87.3315C59.0078 87.2029 58.5618 86.9759 58.1764 86.665L55.5527 84.5424L58.4846 80.0841Z"
        fill="#7D4A4A" />
    <path
        d="M49.4932 73.1048C52.042 72.958 52.7072 74.2914 54.32 75.7919C55.9328 77.2924 58.9568 80.2098 58.9568 80.2098C58.8399 81.2213 58.4695 82.1869 57.88 83.0171C57.2904 83.8473 56.5008 84.5152 55.5844 84.9589L49.9741 80.8204L49.4932 73.1048Z"
        fill="#F0F0F0" />
    <path
        d="M33.7682 98.8193C33.7682 98.8193 43.2722 102.295 50.982 97.9553C50.982 97.9553 50.5126 92.4257 50.3743 89.2058C50.2361 85.986 51.3478 79.7594 51.5263 78.0948C51.7049 76.4301 51.4687 73.5386 49.5103 73.1009C45.8642 72.329 39.0098 73.1009 39.0098 73.1009L34.9202 77.6225C33.1807 86.4641 33.4745 95.7377 33.7682 98.8193Z"
        fill="white" />
    <path
        d="M52.4942 65.8876C53.2758 65.3249 53.8192 64.4907 54.0179 63.5483C54.2166 62.6059 54.0563 61.6233 53.5684 60.7929C54.0069 60.5987 54.3656 60.2603 54.5851 59.8339C54.6783 59.6285 54.7074 59.3997 54.6685 59.1775C54.6297 58.9553 54.5246 58.7501 54.3672 58.5886C54.2097 58.427 54.0071 58.3168 53.786 58.2723C53.5649 58.2278 53.3355 58.2511 53.1278 58.3391C53.2433 58.006 53.244 57.6438 53.1297 57.3103C53.0154 56.9767 52.7927 56.691 52.4971 56.4988C52.1971 56.3331 51.8489 56.2764 51.5119 56.3384C51.1748 56.4004 50.8696 56.5771 50.6481 56.8387C50.6559 56.6217 50.5929 56.408 50.4688 56.2299C50.3447 56.0517 50.166 55.9187 49.9598 55.8508C49.5355 55.7364 49.0855 55.7637 48.6782 55.9286C48.2663 56.0726 47.8775 56.2771 47.4599 56.4067C46.7454 56.5895 46.0115 56.6862 45.274 56.6947C44.5331 56.7064 43.8071 56.9044 43.163 57.2707C42.5467 57.671 42.011 58.6041 42.3335 59.4105C42.2304 59.2767 42.1001 59.1661 41.9511 59.0862C41.8022 59.0063 41.6381 58.9588 41.4695 58.9468C41.3008 58.9415 41.1328 58.9728 40.9773 59.0384C40.8217 59.104 40.6821 59.2024 40.5681 59.327C41.0289 59.615 41.4724 59.9203 41.9332 60.191C41.4695 59.9836 40.7812 60.3091 40.5307 60.7526C40.3153 61.2144 40.2297 61.7261 40.283 62.2329C40.3416 64.1562 40.6802 66.0607 41.2881 67.8863C41.602 68.831 42.0571 69.8332 42.9527 70.271L52.4942 65.8876Z"
        fill="#263238" />
    <path
        d="M47.6181 70.437L47.4165 72.6978C47.4072 72.8729 47.4514 73.0467 47.5432 73.1961C47.6683 73.4323 47.7164 73.7017 47.6807 73.9667C47.6451 74.2316 47.5275 74.4787 47.3445 74.6735C47.0527 74.8926 46.6985 75.0127 46.3336 75.0162C45.6432 75.0542 44.9527 74.9455 44.3073 74.6973C43.662 74.4491 43.0766 74.067 42.5896 73.5762C42.4928 73.4725 42.4175 73.3507 42.3681 73.2177C42.3187 73.0847 42.2961 72.9433 42.3016 72.8015L42.4485 67.0703L47.6181 70.437Z"
        fill="#7D4A4A" />
    <path
        d="M42.9121 67.3672L47.6237 70.4401L47.4452 72.4561C46.3479 72.1998 45.2477 71.8801 44.3809 71.1803C43.832 70.722 43.4091 70.1314 43.1521 69.4642C42.8951 68.797 42.8125 68.0752 42.9121 67.3672Z"
        fill="#663333" />
    <path
        d="M52.7532 61.2276C53.0985 63.8497 52.9263 66.514 52.2463 69.0698C52.1166 69.6333 51.9071 70.1754 51.6242 70.6797C51.3398 71.1881 50.8923 71.5858 50.3542 71.8087C49.6889 72.0564 48.9487 71.9354 48.2489 71.8087C46.9702 71.5812 45.6569 71.345 44.5481 70.6711C43.4393 69.9972 42.5551 68.7847 42.6646 67.5031C42.3484 67.699 41.988 67.8123 41.6166 67.8324C41.2451 67.8525 40.8746 67.7789 40.5391 67.6183C40.2129 67.4373 39.9368 67.1781 39.7357 66.8639C39.5346 66.5496 39.4148 66.1903 39.3871 65.8183C39.3353 65.0954 39.7558 64.2861 40.4671 64.1421C40.6875 64.1108 40.912 64.127 41.1256 64.1896C41.3392 64.2522 41.5369 64.3597 41.7055 64.505C42.0399 64.7983 42.3309 65.1377 42.5695 65.513C42.6783 65.6945 42.8246 65.8506 42.9986 65.9709C43.0856 66.0317 43.1892 66.0642 43.2953 66.0642C43.4014 66.0642 43.5049 66.0317 43.5919 65.9709C43.666 65.8826 43.7196 65.7789 43.749 65.6674C43.7783 65.5559 43.7827 65.4392 43.7618 65.3258L43.687 63.6842C43.6822 63.5583 43.7139 63.4337 43.7782 63.3254C43.8426 63.217 43.9369 63.1296 44.0498 63.0737C44.3886 62.8891 44.6494 62.5884 44.7842 62.2269C44.9038 61.9103 44.9738 61.5771 44.9916 61.2391C44.9969 61.1758 45.017 61.1147 45.0503 61.0606C45.0836 61.0065 45.129 60.9609 45.1831 60.9276C45.2372 60.8943 45.2983 60.8741 45.3616 60.8687C45.4248 60.8632 45.4885 60.8727 45.5474 60.8964C47.7362 61.7719 50.4838 61.8122 52.7532 61.2276Z"
        fill="#7D4A4A" />
    <path d="M49.1445 65.2109L50.6191 67.6964L48.8623 68.0247L49.1445 65.2109Z" fill="#663333" />
    <path
        d="M47.1656 68.8828L48.5019 69.5308C48.3884 69.6839 48.2274 69.7952 48.044 69.8473C47.8607 69.8994 47.6652 69.8894 47.4882 69.8188C47.3353 69.7234 47.2198 69.5784 47.1611 69.408C47.1023 69.2376 47.1039 69.0522 47.1656 68.8828Z"
        fill="#663333" />
    <path opacity="0.4"
        d="M47.1656 68.8828L48.5019 69.5308C48.3884 69.6839 48.2274 69.7952 48.044 69.8473C47.8607 69.8994 47.6652 69.8894 47.4882 69.8188C47.3353 69.7234 47.2198 69.5784 47.1611 69.408C47.1023 69.2376 47.1039 69.0522 47.1656 68.8828Z"
        fill="black" />
    <path
        d="M47.9521 69.8633C47.7967 69.896 47.635 69.881 47.4884 69.8201C47.3657 69.7518 47.2662 69.6484 47.2025 69.5232C47.1389 69.3981 47.1141 69.2567 47.1313 69.1174C47.3375 69.1131 47.5376 69.1881 47.6903 69.3268C47.8429 69.4656 47.9366 69.6576 47.9521 69.8633Z"
        fill="#663333" />
    <path
        d="M46.5981 65.2985C46.5884 65.3977 46.6082 65.4974 46.6552 65.5853C46.7021 65.6731 46.774 65.7451 46.8618 65.7921C46.9496 65.8391 47.0494 65.859 47.1485 65.8494C47.2476 65.8397 47.3416 65.801 47.4187 65.7379C47.4958 65.6749 47.5525 65.5904 47.5817 65.4952C47.6108 65.3999 47.6111 65.2982 47.5824 65.2028C47.5538 65.1074 47.4975 65.0227 47.4208 64.9592C47.344 64.8958 47.2501 64.8565 47.1511 64.8464C47.085 64.8396 47.0183 64.846 46.9548 64.865C46.8912 64.8841 46.832 64.9156 46.7807 64.9576C46.7293 64.9996 46.6867 65.0513 46.6554 65.1099C46.6241 65.1684 46.6046 65.2325 46.5981 65.2985Z"
        fill="#263238" />
    <path
        d="M50.8354 65.5876C50.8257 65.6867 50.8455 65.7865 50.8925 65.8743C50.9394 65.9622 51.0113 66.0341 51.0991 66.0811C51.1869 66.1281 51.2867 66.1481 51.3858 66.1384C51.4849 66.1288 51.579 66.09 51.6561 66.027C51.7331 65.9639 51.7898 65.8795 51.819 65.7842C51.8481 65.689 51.8484 65.5873 51.8197 65.4919C51.7911 65.3965 51.7348 65.3117 51.6581 65.2483C51.5813 65.1849 51.4874 65.1456 51.3884 65.1354C51.3224 65.1287 51.2556 65.135 51.1921 65.1541C51.1285 65.1732 51.0693 65.2046 51.018 65.2466C50.9666 65.2887 50.924 65.3404 50.8927 65.3989C50.8614 65.4574 50.8419 65.5215 50.8354 65.5876Z"
        fill="#263238" />
    <path
        d="M51.5264 63.6167L52.5632 64.5008C52.6248 64.3673 52.6445 64.2183 52.6198 64.0733C52.5952 63.9284 52.5272 63.7943 52.4249 63.6887C52.2963 63.5951 52.1443 63.5389 51.9858 63.5262C51.8272 63.5135 51.6683 63.5448 51.5264 63.6167Z"
        fill="#263238" />
    <path
        d="M47.2324 63.1255L46.04 63.785C46.0046 63.6432 46.0132 63.4939 46.0646 63.3571C46.1161 63.2203 46.2079 63.1023 46.328 63.019C46.4738 62.9508 46.6356 62.9246 46.7954 62.9434C46.9551 62.9623 47.1065 63.0253 47.2324 63.1255Z"
        fill="#263238" />
    <path
        d="M43.5828 84.9609L46.1431 90.8073L54.3021 97.5177C54.7234 97.8724 55.2608 98.0591 55.8113 98.0419C56.418 98.0008 57.0275 98.0356 57.6257 98.1456C58.0893 98.2521 58.5415 98.4048 59.0052 98.5113C59.3314 98.5912 59.6658 98.6328 60.0017 98.6352C60.0699 98.6318 60.1378 98.646 60.199 98.6763C60.2602 98.7066 60.3127 98.752 60.3513 98.8083C60.39 98.8646 60.4136 98.9298 60.42 98.9978C60.4263 99.0658 60.4152 99.1343 60.3876 99.1968C60.3378 99.2979 60.2694 99.3888 60.186 99.4646C59.9373 99.6598 59.637 99.778 59.322 99.8045C58.827 99.8706 58.3241 99.8442 57.8388 99.7267C58.2679 100.285 58.9908 100.637 59.6647 100.861C60.3386 101.086 61.0298 101.21 61.6807 101.437C61.9358 101.504 62.1635 101.649 62.3316 101.852C62.4111 101.956 62.4472 102.086 62.4322 102.216C62.4171 102.345 62.3521 102.464 62.2509 102.546C61.9629 102.725 61.577 102.463 61.266 102.587C61.3049 102.766 61.3049 102.951 61.266 103.131C61.2133 103.313 61.0955 103.47 60.9348 103.571C60.8545 103.621 60.7626 103.649 60.6682 103.653C60.5737 103.656 60.48 103.635 60.3962 103.592C60.2536 103.809 60.0691 103.996 59.8535 104.141C59.638 104.287 59.3956 104.388 59.1405 104.438C58.6309 104.537 58.1066 104.53 57.5997 104.418C55.4858 104.029 54.1437 102.189 52.4906 100.818C52.2516 100.622 45.8407 97.0915 42.9405 95.4989C42.0309 94.9988 41.3029 94.2235 40.8612 93.2841L37.7393 86.6601L43.5828 84.9609Z"
        fill="#7D4A4A" />
    <path
        d="M38.9924 73.1094C41.7371 76.3523 42.7624 81.9222 44.1764 85.4934C42.5953 88.4943 38.1774 88.2006 38.1774 88.2006C34.1396 79.7967 32.4318 73.4492 38.9924 73.1094Z"
        fill="#F0F0F0" />
    <path
        d="M60.3594 81.7647C59.8151 83.0837 60.2528 84.8434 60.2528 84.8434C59.899 84.3243 59.6732 83.7286 59.5941 83.1053C59.515 82.4821 59.5848 81.8489 59.7978 81.2578L60.3594 81.7647Z"
        fill="#663333" />
    <path
        d="M68.9967 73.4297C69.2289 73.8678 69.2914 74.3762 69.1724 74.8575C69.0534 75.3389 68.7612 75.7595 68.3516 76.039C68.6446 76.0206 68.9253 75.9143 69.157 75.734C69.3887 75.5536 69.5607 75.3076 69.6504 75.0281C69.7056 74.727 69.6734 74.4165 69.5575 74.1332C69.4416 73.8499 69.247 73.6058 68.9967 73.4297Z"
        fill="#663333" />
    <path
        d="M28.7831 111.508L24.3133 111.64L19.8435 111.508C19.6535 114.526 20.241 117.602 21.0531 119.105C21.2454 119.491 21.5549 119.807 21.9373 120.007C23.2563 120.767 25.3933 120.767 26.6979 120.007C27.0869 119.805 27.3979 119.48 27.5821 119.082C28.3914 117.57 28.9731 114.512 28.7831 111.508Z"
        fill="white" />
    <path
        d="M27.4616 109.68C29.2127 110.691 29.2242 112.33 27.4847 113.341C25.7451 114.351 22.9141 114.351 21.1487 113.341C19.3832 112.33 19.389 110.691 21.1285 109.68C22.868 108.669 25.7135 108.669 27.4616 109.68Z"
        fill="#EBEBEB" />
    <path
        d="M26.7843 110.084C28.1495 110.873 28.1581 112.149 26.8016 112.938C25.4451 113.727 23.2362 113.727 21.8711 112.938C20.5059 112.149 20.4973 110.873 21.8538 110.084C23.2103 109.295 25.4048 109.295 26.7843 110.084Z"
        fill="#E0E0E0" />
    <g opacity="0.15">
        <path
            d="M26.7843 110.084C28.1495 110.873 28.1581 112.149 26.8016 112.938C25.4451 113.727 23.2362 113.727 21.8711 112.938C20.5059 112.149 20.4973 110.873 21.8538 110.084C23.2103 109.295 25.4048 109.295 26.7843 110.084Z"
            fill="black" />
    </g>
    <path
        d="M22.0355 102.365C21.3069 101.463 20.463 100.654 19.7978 99.7038C19.3427 99.0558 18.9626 98.2638 19.1526 97.4977C19.2583 97.1441 19.4612 96.8272 19.7383 96.5833C20.0153 96.3394 20.3552 96.1782 20.7194 96.1182C21.4528 96.01 22.2003 96.1762 22.8189 96.5847C23.4298 96.995 23.9665 97.5063 24.4058 98.0967C26.923 101.285 28.1125 105.322 27.7264 109.366C27.7168 109.829 27.5727 110.28 27.3117 110.662C27.151 110.85 26.9397 110.989 26.7029 111.061C26.4661 111.133 26.2136 111.135 25.9754 111.068C24.7571 110.708 24.9184 109.052 24.7197 108.096C24.2907 106.003 23.3707 104.042 22.0355 102.374V102.365Z"
        fill="#77CEFF" />
    <path opacity="0.2"
        d="M22.0355 102.365C21.3069 101.463 20.463 100.654 19.7978 99.7038C19.3427 99.0558 18.9626 98.2638 19.1526 97.4977C19.2583 97.1441 19.4612 96.8272 19.7383 96.5833C20.0153 96.3394 20.3552 96.1782 20.7194 96.1182C21.4528 96.01 22.2003 96.1762 22.8189 96.5847C23.4298 96.995 23.9665 97.5063 24.4058 98.0967C26.923 101.285 28.1125 105.322 27.7264 109.366C27.7168 109.829 27.5727 110.28 27.3117 110.662C27.151 110.85 26.9397 110.989 26.7029 111.061C26.4661 111.133 26.2136 111.135 25.9754 111.068C24.7571 110.708 24.9184 109.052 24.7197 108.096C24.2907 106.003 23.3707 104.042 22.0355 102.374V102.365Z"
        fill="white" />
    <path
        d="M26.0497 109.837C26.026 109.832 26.0046 109.82 25.9889 109.802C25.9732 109.783 25.9642 109.76 25.9633 109.736C25.8798 107.783 25.2433 101.113 20.6468 97.329C20.6278 97.3087 20.6172 97.282 20.6172 97.2541C20.6172 97.2263 20.6278 97.1995 20.6468 97.1793C20.6648 97.1575 20.6906 97.1438 20.7187 97.1411C20.7468 97.1384 20.7748 97.147 20.7966 97.1649C25.4622 101.004 26.1044 107.752 26.1908 109.727C26.1916 109.756 26.1816 109.783 26.1629 109.804C26.1441 109.825 26.118 109.838 26.09 109.84L26.0497 109.837Z"
        fill="#F0F0F0" />
    <path
        d="M26.7211 110.043C26.6244 110.47 26.4425 110.874 26.1862 111.23C25.9299 111.586 25.6044 111.886 25.2292 112.113C24.5263 112.447 23.7444 112.577 22.9713 112.491C22.1844 112.403 21.4108 112.221 20.6673 111.949C20.2987 111.822 19.8897 111.661 19.8494 111.2C19.8431 111.081 19.8634 110.961 19.9087 110.85C19.954 110.739 20.0232 110.639 20.1115 110.558C20.1855 110.485 20.2644 110.416 20.3476 110.354C20.3857 110.325 20.414 110.285 20.429 110.24C20.4439 110.194 20.4447 110.145 20.4313 110.099C20.4179 110.054 20.3909 110.013 20.3538 109.983C20.3168 109.952 20.2714 109.934 20.2238 109.93C20.0046 109.915 19.7864 109.888 19.57 109.85C19.0657 109.766 18.5922 109.551 18.1963 109.228C17.9115 108.972 17.6956 108.649 17.5684 108.289C17.496 108.142 17.466 107.978 17.4818 107.815C17.4975 107.652 17.5585 107.497 17.6577 107.367C17.8027 107.248 17.9784 107.172 18.1646 107.148C18.3287 107.111 18.4929 107.082 18.6571 107.056C18.704 107.049 18.7473 107.026 18.7804 106.992C18.8134 106.958 18.8345 106.914 18.8403 106.867C18.8462 106.82 18.8365 106.772 18.8128 106.731C18.7891 106.689 18.7526 106.657 18.7089 106.638L18.0148 106.35C17.8159 106.285 17.6353 106.174 17.4878 106.025C17.3979 105.885 17.3394 105.727 17.3166 105.562C17.2937 105.396 17.3069 105.228 17.3553 105.069C17.4388 104.634 17.5886 104.205 17.6923 103.787C17.8124 103.36 17.8282 102.909 17.7383 102.474C19.0375 102.329 20.3522 102.417 21.6206 102.733C22.0024 102.812 22.3635 102.97 22.6804 103.197C22.88 103.374 23.0307 103.599 23.118 103.852C23.2052 104.104 23.2261 104.374 23.1787 104.637C23.1775 104.66 23.1841 104.683 23.1976 104.701C23.2111 104.72 23.2306 104.733 23.2528 104.739C23.275 104.745 23.2986 104.744 23.3197 104.735C23.3408 104.725 23.3581 104.709 23.3687 104.689L23.8123 103.871C23.8776 103.754 23.9851 103.666 24.113 103.625C24.2409 103.584 24.3796 103.594 24.5006 103.652C24.8886 103.846 25.2327 104.117 25.5115 104.45C25.6672 104.626 25.7859 104.831 25.8606 105.053C25.9353 105.276 25.9645 105.512 25.9463 105.746C25.8943 106.383 25.7893 107.015 25.6324 107.635C25.6193 107.672 25.6192 107.713 25.6321 107.75C25.645 107.788 25.6702 107.82 25.7035 107.841C25.7368 107.862 25.7764 107.872 25.8158 107.868C25.8551 107.864 25.892 107.847 25.9204 107.819H25.9435C26.0629 107.729 26.2117 107.685 26.3611 107.698C26.7527 107.747 26.8535 108.145 26.8795 108.482C26.8909 109.007 26.8377 109.531 26.7211 110.043Z"
        fill="#77CEFF" />
    <path opacity="0.2"
        d="M26.7211 110.043C26.6244 110.47 26.4425 110.874 26.1862 111.23C25.9299 111.586 25.6044 111.886 25.2292 112.113C24.5263 112.447 23.7444 112.577 22.9713 112.491C22.1844 112.403 21.4108 112.221 20.6673 111.949C20.2987 111.822 19.8897 111.661 19.8494 111.2C19.8431 111.081 19.8634 110.961 19.9087 110.85C19.954 110.739 20.0232 110.639 20.1115 110.558C20.1855 110.485 20.2644 110.416 20.3476 110.354C20.3857 110.325 20.414 110.285 20.429 110.24C20.4439 110.194 20.4447 110.145 20.4313 110.099C20.4179 110.054 20.3909 110.013 20.3538 109.983C20.3168 109.952 20.2714 109.934 20.2238 109.93C20.0046 109.915 19.7864 109.888 19.57 109.85C19.0657 109.766 18.5922 109.551 18.1963 109.228C17.9115 108.972 17.6956 108.649 17.5684 108.289C17.496 108.142 17.466 107.978 17.4818 107.815C17.4975 107.652 17.5585 107.497 17.6577 107.367C17.8027 107.248 17.9784 107.172 18.1646 107.148C18.3287 107.111 18.4929 107.082 18.6571 107.056C18.704 107.049 18.7473 107.026 18.7804 106.992C18.8134 106.958 18.8345 106.914 18.8403 106.867C18.8462 106.82 18.8365 106.772 18.8128 106.731C18.7891 106.689 18.7526 106.657 18.7089 106.638L18.0148 106.35C17.8159 106.285 17.6353 106.174 17.4878 106.025C17.3979 105.885 17.3394 105.727 17.3166 105.562C17.2937 105.396 17.3069 105.228 17.3553 105.069C17.4388 104.634 17.5886 104.205 17.6923 103.787C17.8124 103.36 17.8282 102.909 17.7383 102.474C19.0375 102.329 20.3522 102.417 21.6206 102.733C22.0024 102.812 22.3635 102.97 22.6804 103.197C22.88 103.374 23.0307 103.599 23.118 103.852C23.2052 104.104 23.2261 104.374 23.1787 104.637C23.1775 104.66 23.1841 104.683 23.1976 104.701C23.2111 104.72 23.2306 104.733 23.2528 104.739C23.275 104.745 23.2986 104.744 23.3197 104.735C23.3408 104.725 23.3581 104.709 23.3687 104.689L23.8123 103.871C23.8776 103.754 23.9851 103.666 24.113 103.625C24.2409 103.584 24.3796 103.594 24.5006 103.652C24.8886 103.846 25.2327 104.117 25.5115 104.45C25.6672 104.626 25.7859 104.831 25.8606 105.053C25.9353 105.276 25.9645 105.512 25.9463 105.746C25.8943 106.383 25.7893 107.015 25.6324 107.635C25.6193 107.672 25.6192 107.713 25.6321 107.75C25.645 107.788 25.6702 107.82 25.7035 107.841C25.7368 107.862 25.7764 107.872 25.8158 107.868C25.8551 107.864 25.892 107.847 25.9204 107.819H25.9435C26.0629 107.729 26.2117 107.685 26.3611 107.698C26.7527 107.747 26.8535 108.145 26.8795 108.482C26.8909 109.007 26.8377 109.531 26.7211 110.043Z"
        fill="black" />
    <path opacity="0.2"
        d="M26.7211 110.043C26.6244 110.47 26.4425 110.874 26.1862 111.23C25.9299 111.586 25.6044 111.886 25.2292 112.113C24.5263 112.447 23.7444 112.577 22.9713 112.491C22.1844 112.403 21.4108 112.221 20.6673 111.949C20.2987 111.822 19.8897 111.661 19.8494 111.2C19.8431 111.081 19.8634 110.961 19.9087 110.85C19.954 110.739 20.0232 110.639 20.1115 110.558C20.1855 110.485 20.2644 110.416 20.3476 110.354C20.3857 110.325 20.414 110.285 20.429 110.24C20.4439 110.194 20.4447 110.145 20.4313 110.099C20.4179 110.054 20.3909 110.013 20.3538 109.983C20.3168 109.952 20.2714 109.934 20.2238 109.93C20.0046 109.915 19.7864 109.888 19.57 109.85C19.0657 109.766 18.5922 109.551 18.1963 109.228C17.9115 108.972 17.6956 108.649 17.5684 108.289C17.496 108.142 17.466 107.978 17.4818 107.815C17.4975 107.652 17.5585 107.497 17.6577 107.367C17.8027 107.248 17.9784 107.172 18.1646 107.148C18.3287 107.111 18.4929 107.082 18.6571 107.056C18.704 107.049 18.7473 107.026 18.7804 106.992C18.8134 106.958 18.8345 106.914 18.8403 106.867C18.8462 106.82 18.8365 106.772 18.8128 106.731C18.7891 106.689 18.7526 106.657 18.7089 106.638L18.0148 106.35C17.8159 106.285 17.6353 106.174 17.4878 106.025C17.3979 105.885 17.3394 105.727 17.3166 105.562C17.2937 105.396 17.3069 105.228 17.3553 105.069C17.4388 104.634 17.5886 104.205 17.6923 103.787C17.8124 103.36 17.8282 102.909 17.7383 102.474C19.0375 102.329 20.3522 102.417 21.6206 102.733C22.0024 102.812 22.3635 102.97 22.6804 103.197C22.88 103.374 23.0307 103.599 23.118 103.852C23.2052 104.104 23.2261 104.374 23.1787 104.637C23.1775 104.66 23.1841 104.683 23.1976 104.701C23.2111 104.72 23.2306 104.733 23.2528 104.739C23.275 104.745 23.2986 104.744 23.3197 104.735C23.3408 104.725 23.3581 104.709 23.3687 104.689L23.8123 103.871C23.8776 103.754 23.9851 103.666 24.113 103.625C24.2409 103.584 24.3796 103.594 24.5006 103.652C24.8886 103.846 25.2327 104.117 25.5115 104.45C25.6672 104.626 25.7859 104.831 25.8606 105.053C25.9353 105.276 25.9645 105.512 25.9463 105.746C25.8943 106.383 25.7893 107.015 25.6324 107.635C25.6193 107.672 25.6192 107.713 25.6321 107.75C25.645 107.788 25.6702 107.82 25.7035 107.841C25.7368 107.862 25.7764 107.872 25.8158 107.868C25.8551 107.864 25.892 107.847 25.9204 107.819H25.9435C26.0629 107.729 26.2117 107.685 26.3611 107.698C26.7527 107.747 26.8535 108.145 26.8795 108.482C26.8909 109.007 26.8377 109.531 26.7211 110.043Z"
        fill="white" />
    <path
        d="M24.6616 112.013C24.4196 110.97 24.0692 109.956 23.6162 108.986C23.6158 108.971 23.6122 108.956 23.6058 108.942C23.5993 108.928 23.5902 108.916 23.5788 108.906C23.5557 108.854 23.5298 108.802 23.5068 108.747C23.6344 107.541 23.985 106.369 24.5407 105.291C24.5478 105.279 24.5523 105.266 24.5542 105.252C24.556 105.238 24.5549 105.224 24.5512 105.211C24.5474 105.197 24.541 105.185 24.5322 105.174C24.5235 105.163 24.5127 105.154 24.5003 105.147C24.4762 105.133 24.4476 105.13 24.4207 105.137C24.3938 105.144 24.3707 105.161 24.3563 105.185C23.8325 106.189 23.4848 107.276 23.3282 108.399C22.3113 106.266 20.7779 104.422 18.8671 103.033C18.8438 103.018 18.8158 103.012 18.7885 103.017C18.7613 103.022 18.7369 103.037 18.7202 103.059C18.7119 103.071 18.7061 103.084 18.7029 103.097C18.6997 103.111 18.6993 103.126 18.7018 103.139C18.7042 103.153 18.7093 103.167 18.7169 103.179C18.7246 103.191 18.7345 103.201 18.7461 103.209C20.9925 104.77 22.4095 106.939 23.2706 108.736C22.1112 108.211 20.8239 108.037 19.5669 108.235C19.5532 108.237 19.5401 108.242 19.5284 108.25C19.5167 108.257 19.5066 108.267 19.4988 108.279C19.491 108.29 19.4856 108.303 19.483 108.317C19.4803 108.331 19.4805 108.345 19.4834 108.358C19.487 108.379 19.4969 108.399 19.5118 108.414C19.5267 108.43 19.5459 108.44 19.5669 108.445H19.6072C19.6274 108.445 21.6607 108.07 23.4175 109.052C23.8644 110.014 24.2118 111.018 24.4543 112.051C24.458 112.071 24.468 112.09 24.483 112.105C24.4979 112.12 24.517 112.13 24.5378 112.134H24.5781C24.5916 112.132 24.6044 112.127 24.6159 112.119C24.6273 112.112 24.6372 112.102 24.645 112.091C24.6528 112.08 24.6582 112.067 24.6611 112.054C24.6639 112.04 24.6641 112.026 24.6616 112.013Z"
        fill="#F0F0F0" />
</svg>