<svg
              xmlns="http://www.w3.org/2000/svg"
              width="24"
              height="24"
              viewBox="0 0 24 24"
              fill="none"
            >
              <path
                d="M17.111 13.5749C17.5015 13.9654 18.1347 13.9654 18.5252 13.5749L21.0001 11.1C23.148 8.95214 23.148 5.46974 21.0001 3.32185C18.8522 1.17397 15.3698 1.17397 13.2219 3.32185L10.747 5.79673C10.3565 6.18725 10.3565 6.82042 10.747 7.21094C11.1376 7.60146 11.7707 7.60146 12.1613 7.21094L14.6361 4.73607C16.003 3.36923 18.219 3.36923 19.5859 4.73607C20.9527 6.1029 20.9527 8.31898 19.5859 9.68581L17.111 12.1607C16.7205 12.5512 16.7205 13.1844 17.111 13.5749Z"
                fill="#3C4043"
                stroke="#3C4043"
              />
              <path
                d="M5.79673 10.748C6.18725 10.3575 6.82042 10.3575 7.21094 10.748C7.60147 11.1385 7.60147 11.7717 7.21094 12.1622L4.73606 14.6371C3.36922 16.0039 3.36922 18.22 4.73606 19.5868C6.10289 20.9537 8.31898 20.9537 9.68582 19.5868L12.1607 17.1119C12.5512 16.7214 13.1843 16.7214 13.5749 17.1119C13.9654 17.5025 13.9654 18.1356 13.5749 18.5262L11.1 21.001C8.95214 23.1489 5.46974 23.1489 3.32186 21.001C1.17396 18.8531 1.17396 15.3707 3.32186 13.2229L5.79673 10.748Z"
                fill="#3C4043"
                stroke="#3C4043"
              />
              <path
                d="M8.97941 15.3424C8.58889 14.9519 8.58889 14.3187 8.97941 13.9282L13.9291 8.97844C14.3196 8.58791 14.9528 8.58791 15.3433 8.97844C15.7339 9.36896 15.7339 10.0021 15.3433 10.3926L10.3936 15.3424C10.0031 15.7329 9.36994 15.7329 8.97941 15.3424Z"
                fill="#3C4043"
                stroke="#3C4043"
              />
            </svg>