  <svg
              xmlns="http://www.w3.org/2000/svg"
              width="28"
              height="28"
              viewBox="0 0 28 28"
              fill="none"
            >
              <g clip-path="url(#clip0_3191_8302)">
                <path
                  d="M15.7497 25.537C21.3629 24.6926 25.6663 19.8491 25.6663 14.0006C25.6663 7.55733 20.4429 2.33398 13.9997 2.33398C7.55635 2.33398 2.33301 7.55733 2.33301 14.0006C2.33301 19.8491 6.63654 24.6926 12.2497 25.537V17.5006H10.4997C9.53317 17.5006 8.74967 16.7171 8.74967 15.7506C8.74967 14.7842 9.53317 14.0006 10.4997 14.0006H12.2497V11.6673C12.2497 9.41215 14.0778 7.58398 16.333 7.58398H16.9163C17.8828 7.58398 18.6663 8.36748 18.6663 9.33398C18.6663 10.3005 17.8828 11.084 16.9163 11.084H16.333C16.0109 11.084 15.7497 11.3452 15.7497 11.6673V14.0006H17.4997C18.4661 14.0006 19.2497 14.7842 19.2497 15.7506C19.2497 16.7171 18.4661 17.5006 17.4997 17.5006H15.7497V25.537Z"
                  fill="#3C4043"
                />
              </g>
              <defs>
                <clipPath id="clip0_3191_8302">
                  <rect width="28" height="28" fill="white" />
                </clipPath>
              </defs>
            </svg>