<svg
      fill="none"
      height="48"
      viewBox="0 0 48 48"
      width="48"
      xmlns="http://www.w3.org/2000/svg"
    >
      <path
        className="path"
        clipRule="evenodd"
        d="M10.5015 22.5058L21 22.4998C21.5025 22.4998 21.969 22.2493 22.248 21.8323L22.5 21.4528V25.4983C22.5 26.1058 22.8645 26.6518 23.4255 26.8843C23.9865 27.1168 24.6315 26.9893 25.0605 26.5603L29.1165 22.5043L37.491 22.5583C38.3175 22.5628 38.994 21.8953 39 21.0673C39.006 20.2393 38.337 19.5628 37.509 19.5583L28.509 19.4998C28.1085 19.4968 27.723 19.6558 27.4395 19.9393L25.5 21.8773L25.5015 16.4998C25.5015 15.8383 25.0695 15.2548 24.4365 15.0643C23.8035 14.8723 23.121 15.1168 22.7535 15.6673L20.1975 19.4998L10.4985 19.5058C9.6705 19.5058 9 20.1793 9 21.0073C9 21.8353 9.6735 22.5058 10.5015 22.5058Z"
        fill="#146DFA"
        fillRule="evenodd"
      />
      <path
        className="path"
        clipRule="evenodd"
        d="M22.515 38.9955V41.9895L16.5015 41.982C15.6735 41.9805 15.0015 42.651 15 43.479C14.9985 44.307 15.6705 44.9805 16.4985 44.982L31.4985 45C32.3265 45.0015 32.9985 44.3295 33 43.5015C33.0015 42.6735 32.3295 42.0015 31.5015 42L25.515 41.9925V38.9955H40.5C41.694 38.9955 42.8385 38.5215 43.6815 37.6785C44.526 36.834 45 35.6895 45 34.4955V13.5C45 12.306 44.526 11.1615 43.6815 10.3185C42.8385 9.474 41.694 9 40.5 9H7.5C6.306 9 5.1615 9.474 4.3185 10.3185C3.474 11.1615 3 12.306 3 13.5C3 18.6945 3 29.3025 3 34.4955C3 35.6895 3.474 36.834 4.3185 37.6785C5.1615 38.5215 6.306 38.9955 7.5 38.9955H22.515ZM42 33V34.4955C42 34.8945 41.8425 35.2755 41.5605 35.5575C41.28 35.838 40.8975 35.9955 40.5 35.9955H7.5C7.1025 35.9955 6.72 35.838 6.4395 35.5575C6.1575 35.2755 6 34.8945 6 34.4955V33H42ZM42 30H6V13.5C6 13.1025 6.1575 12.72 6.4395 12.4395C6.72 12.1575 7.1025 12 7.5 12H40.5C40.8975 12 41.28 12.1575 41.5605 12.4395C41.8425 12.72 42 13.1025 42 13.5V30Z"
        fill="#146DFA"
        fillRule="evenodd"
      />
    </svg>