 <svg
                        xmlns="http://www.w3.org/2000/svg"
                        width="24"
                        height="25"
                        viewBox="0 0 24 25"
                        fill="none"
                      >
                        <path
                          d="M17.11 13.9089C17.5005 14.2994 18.1337 14.2994 18.5242 13.9089L20.9991 11.434C23.147 9.28612 23.147 5.80372 20.9991 3.65583C18.8512 1.50795 15.3688 1.50795 13.2209 3.65583L10.746 6.13071C10.3555 6.52123 10.3555 7.1544 10.746 7.54492C11.1366 7.93544 11.7697 7.93544 12.1603 7.54492L14.6351 5.07005C16.002 3.70321 18.218 3.70321 19.5849 5.07005C20.9517 6.43688 20.9517 8.65296 19.5849 10.0198L17.11 12.4947C16.7195 12.8852 16.7195 13.5184 17.11 13.9089Z"
                          fill="#146DFA"
                          stroke="#146DFA"
                        />
                        <path
                          d="M5.79673 11.0819C6.18725 10.6914 6.82042 10.6914 7.21094 11.0819C7.60147 11.4724 7.60147 12.1056 7.21094 12.4961L4.73606 14.971C3.36922 16.3378 3.36922 18.5539 4.73606 19.9207C6.10289 21.2876 8.31898 21.2876 9.68582 19.9207L12.1607 17.4458C12.5512 17.0553 13.1843 17.0553 13.5749 17.4458C13.9654 17.8364 13.9654 18.4695 13.5749 18.8601L11.1 21.3349C8.95214 23.4828 5.46974 23.4828 3.32186 21.3349C1.17396 19.187 1.17396 15.7046 3.32186 13.5568L5.79673 11.0819Z"
                          fill="#146DFA"
                          stroke="#146DFA"
                        />
                        <path
                          d="M8.97844 15.6764C8.58792 15.2859 8.58792 14.6527 8.97844 14.2622L13.9282 9.31243C14.3187 8.9219 14.9519 8.9219 15.3424 9.31243C15.733 9.70295 15.733 10.3361 15.3424 10.7266L10.3927 15.6764C10.0022 16.0669 9.36897 16.0669 8.97844 15.6764Z"
                          fill="#146DFA"
                          stroke="#146DFA"
                        />
                      </svg>