 <svg
              xmlns="http://www.w3.org/2000/svg"
              width="28"
              height="28"
              viewBox="0 0 28 28"
              fill="none"
            >
              <g clip-path="url(#clip0_3191_8314)">
                <path
                  fill-rule="evenodd"
                  clip-rule="evenodd"
                  d="M21 3.5C22.9331 3.5 24.5 5.06701 24.5 7V21C24.5 22.9331 22.9331 24.5 21 24.5H7C5.06701 24.5 3.5 22.9331 3.5 21V7C3.5 5.06701 5.06701 3.5 7 3.5H21ZM9.33333 11.6667C8.68901 11.6667 8.16667 12.189 8.16667 12.8333V18.6667C8.16667 19.311 8.68901 19.8333 9.33333 19.8333C9.97766 19.8333 10.5 19.311 10.5 18.6667V12.8333C10.5 12.189 9.97766 11.6667 9.33333 11.6667ZM12.8333 10.5C12.189 10.5 11.6667 11.0223 11.6667 11.6667V18.6667C11.6667 19.311 12.189 19.8333 12.8333 19.8333C13.4777 19.8333 14 19.311 14 18.6667V14.3964C14.3557 13.9947 14.9575 13.5241 15.6255 13.2384C16.0138 13.0723 16.5979 13.0059 17.0043 13.1336C17.182 13.1895 17.2833 13.268 17.346 13.3526C17.4068 13.435 17.5 13.6158 17.5 14V18.6667C17.5 19.3109 18.0223 19.8333 18.6667 19.8333C19.311 19.8333 19.8333 19.3109 19.8333 18.6667V14C19.8333 13.2174 19.6348 12.5232 19.2218 11.9649C18.8104 11.4089 18.2555 11.0811 17.704 10.9077C16.6521 10.5769 15.4862 10.7601 14.7078 11.0931C14.4608 11.1987 14.2174 11.3217 13.9815 11.4582C13.8831 10.9133 13.4065 10.5 12.8333 10.5ZM9.33333 8.16667C8.68901 8.16667 8.16667 8.68901 8.16667 9.33333C8.16667 9.97766 8.68901 10.5 9.33333 10.5C9.97766 10.5 10.5 9.97766 10.5 9.33333C10.5 8.68901 9.97766 8.16667 9.33333 8.16667Z"
                  fill="#3C4043"
                />
              </g>
              <defs>
                <clipPath id="clip0_3191_8314">
                  <rect width="28" height="28" fill="white" />
                </clipPath>
              </defs>
            </svg>