  <svg
                        xmlns="http://www.w3.org/2000/svg"
                        width="28"
                        height="29"
                        viewBox="0 0 28 29"
                        fill="none"
                      >
                        <g clip-path="url(#clip0_2795_12367)">
                          <path
                            fill-rule="evenodd"
                            clip-rule="evenodd"
                            d="M21 3.83398C22.9331 3.83398 24.5 5.40099 24.5 7.33398V21.334C24.5 23.267 22.9331 24.834 21 24.834H7C5.06701 24.834 3.5 23.267 3.5 21.334V7.33398C3.5 5.40099 5.06701 3.83398 7 3.83398H21ZM9.33333 12.0007C8.68901 12.0007 8.16667 12.523 8.16667 13.1673V19.0007C8.16667 19.645 8.68901 20.1673 9.33333 20.1673C9.97766 20.1673 10.5 19.645 10.5 19.0007V13.1673C10.5 12.523 9.97766 12.0007 9.33333 12.0007ZM12.8333 10.834C12.189 10.834 11.6667 11.3563 11.6667 12.0007V19.0007C11.6667 19.645 12.189 20.1673 12.8333 20.1673C13.4777 20.1673 14 19.645 14 19.0007V14.7304C14.3557 14.3287 14.9575 13.8581 15.6255 13.5724C16.0138 13.4063 16.5979 13.3399 17.0043 13.4676C17.182 13.5235 17.2833 13.602 17.346 13.6866C17.4068 13.769 17.5 13.9498 17.5 14.334V19.0007C17.5 19.6449 18.0223 20.1673 18.6667 20.1673C19.311 20.1673 19.8333 19.6449 19.8333 19.0007V14.334C19.8333 13.5514 19.6348 12.8572 19.2218 12.2989C18.8104 11.7429 18.2555 11.4151 17.704 11.2417C16.6521 10.9109 15.4862 11.0941 14.7078 11.4271C14.4608 11.5327 14.2174 11.6557 13.9815 11.7921C13.8831 11.2473 13.4065 10.834 12.8333 10.834ZM9.33333 8.50065C8.68901 8.50065 8.16667 9.02299 8.16667 9.66732C8.16667 10.3116 8.68901 10.834 9.33333 10.834C9.97766 10.834 10.5 10.3116 10.5 9.66732C10.5 9.02299 9.97766 8.50065 9.33333 8.50065Z"
                            fill="#146DFA"
                          />
                        </g>
                        <defs>
                          <clipPath id="clip0_2795_12367">
                            <rect
                              width="28"
                              height="28"
                              fill="white"
                              transform="translate(0 0.333984)"
                            />
                          </clipPath>
                        </defs>
                      </svg>