 <svg
                        xmlns="http://www.w3.org/2000/svg"
                        width="28"
                        height="29"
                        viewBox="0 0 28 29"
                        fill="none"
                      >
                        <g clip-path="url(#clip0_2795_12361)">
                          <path
                            d="M23.0447 5.76893C23.469 5.28401 23.4198 4.54696 22.9349 4.12267C22.45 3.69836 21.7129 3.7475 21.2886 4.23242L15.3261 11.0467L10.2667 4.30067C10.0463 4.0069 9.70055 3.83398 9.33333 3.83398H4.66667C4.22477 3.83398 3.8208 4.08368 3.62318 4.47892C3.42555 4.87416 3.4682 5.34715 3.73334 5.70067L11.2428 15.7133L4.95532 22.8991C4.53103 23.3839 4.58017 24.121 5.06508 24.5454C5.54998 24.9697 6.28704 24.9206 6.71134 24.4356L12.6738 17.6213L17.7333 24.3673C17.9537 24.6611 18.2994 24.834 18.6667 24.834H23.3333C23.7753 24.834 24.1792 24.5843 24.3768 24.1891C24.5744 23.7938 24.5318 23.3208 24.2667 22.9673L16.7572 12.9546L23.0447 5.76893Z"
                            fill="#146DFA"
                          />
                        </g>
                        <defs>
                          <clipPath id="clip0_2795_12361">
                            <rect
                              width="28"
                              height="28"
                              fill="white"
                              transform="translate(0 0.333984)"
                            />
                          </clipPath>
                        </defs>
                      </svg>