<svg
              xmlns="http://www.w3.org/2000/svg"
              width="28"
              height="28"
              viewBox="0 0 28 28"
              fill="none"
            >
              <g clip-path="url(#clip0_3191_8308)">
                <path
                  d="M23.0447 5.43494C23.469 4.95003 23.4198 4.21298 22.9349 3.78868C22.45 3.36438 21.7129 3.41352 21.2886 3.89843L15.3261 10.7127L10.2667 3.96668C10.0463 3.67291 9.70055 3.5 9.33333 3.5H4.66667C4.22477 3.5 3.8208 3.74969 3.62318 4.14494C3.42555 4.54018 3.4682 5.01317 3.73334 5.36668L11.2428 15.3794L4.95532 22.5651C4.53103 23.05 4.58017 23.7871 5.06508 24.2114C5.54998 24.6357 6.28704 24.5866 6.71134 24.1016L12.6738 17.2873L17.7333 24.0333C17.9537 24.3271 18.2994 24.5001 18.6667 24.5001H23.3333C23.7753 24.5001 24.1792 24.2503 24.3768 23.8551C24.5744 23.4598 24.5318 22.9868 24.2667 22.6333L16.7572 12.6207L23.0447 5.43494Z"
                  fill="#3C4043"
                />
              </g>
              <defs>
                <clipPath id="clip0_3191_8308">
                  <rect width="28" height="28" fill="white" />
                </clipPath>
              </defs>
            </svg>