<svg width="400" height="400" viewBox="0 0 400 400" fill="none" xmlns="http://www.w3.org/2000/svg">
    <path
        d="M78.2 330.278C145.464 365.422 254.536 365.422 321.8 330.278C389.064 295.134 389.072 238.158 321.8 203.014C254.528 167.87 145.464 167.87 78.2 203.014C10.936 238.158 10.928 295.134 78.2 330.278Z"
        fill="#F5F5F5" />
    <path
        d="M252.568 321.391C272.852 321.391 289.296 313.554 289.296 303.887C289.296 294.22 272.852 286.383 252.568 286.383C232.284 286.383 215.84 294.22 215.84 303.887C215.84 313.554 232.284 321.391 252.568 321.391Z"
        fill="#EBEBEB" />
    <path
        d="M317.632 281.469C333.281 281.469 345.968 275.423 345.968 267.965C345.968 260.507 333.281 254.461 317.632 254.461C301.982 254.461 289.296 260.507 289.296 267.965C289.296 275.423 301.982 281.469 317.632 281.469Z"
        fill="#EBEBEB" />
    <path
        d="M115.672 264.185C114.072 255.737 108.216 243.697 101.072 236.985C94.1996 230.537 83.9996 228.289 79.9356 231.265C75.8716 234.241 78.5356 240.673 86.4236 248.513C95.3276 257.353 112.424 281.881 115.672 295.777V264.185Z"
        fill="#77CEFF" />
    <g opacity="0.2">
        <path
            d="M115.672 264.185C114.072 255.737 108.216 243.697 101.072 236.985C94.1996 230.537 83.9996 228.289 79.9356 231.265C75.8716 234.241 78.5356 240.673 86.4236 248.513C95.3276 257.353 112.424 281.881 115.672 295.777V264.185Z"
            fill="black" />
    </g>
    <path
        d="M115.671 284.512C115.571 284.511 115.475 284.473 115.401 284.405C115.328 284.337 115.281 284.244 115.271 284.144C113.255 262.864 98.3755 238.944 84.0715 233.96C83.9716 233.924 83.8899 233.85 83.8435 233.755C83.7972 233.659 83.79 233.549 83.8235 233.448C83.8598 233.349 83.9335 233.267 84.0291 233.22C84.1248 233.174 84.2347 233.167 84.3355 233.2C99.1675 238.36 114.007 262.136 116.088 284.072C116.097 284.178 116.064 284.283 115.997 284.365C115.93 284.448 115.833 284.5 115.728 284.512H115.671Z"
        fill="white" />
    <path
        d="M115.672 305.992C115.672 305.992 112.904 308.2 103.672 307.336C94.4396 306.472 89.6796 299.872 89.6796 297.04C89.6796 294.208 98.1676 293.72 100.008 286.696C98.136 288.702 95.6461 290.023 92.9356 290.448C88.1356 291.352 84.2796 289.816 83.1836 281.072C85.5494 281.418 87.9629 281.218 90.2396 280.488C94.0396 279.264 94.9436 277.176 93.9516 276.728C92.9596 276.28 87.6636 276.728 84.2716 275.44C80.8796 274.152 83.4716 256.488 85.6956 255.232C87.9196 253.976 98.4396 256.936 100.488 258.52C102.312 259.928 104.872 262.368 103.688 267.528C105.09 266.217 106.183 264.61 106.888 262.824C107.88 260.424 108.6 260.984 110.088 261.904C110.981 262.408 111.757 263.097 112.362 263.925C112.968 264.752 113.39 265.7 113.6 266.704C113.96 268.944 113.376 276.672 110.224 279.184C110.224 279.184 113.248 279.568 115.72 274.464C115.72 274.464 120.52 276.4 121.608 279.536C122.696 282.672 123.88 298.024 115.672 305.992Z"
        fill="#77CEFF" />
    <path
        d="M116.487 307.737C116.39 307.736 116.296 307.7 116.222 307.635C116.149 307.571 116.101 307.482 116.087 307.385C113.975 290.097 100.831 267.385 87.9435 258.857C87.8544 258.798 87.7925 258.705 87.7715 258.6C87.7505 258.495 87.7721 258.386 87.8315 258.297C87.8909 258.208 87.9833 258.146 88.0883 258.125C88.1933 258.104 88.3024 258.126 88.3915 258.185C101.439 266.865 114.791 289.809 116.879 307.289C116.893 307.394 116.865 307.5 116.8 307.584C116.736 307.668 116.64 307.723 116.535 307.737H116.487Z"
        fill="white" />
    <path
        d="M117.296 310.155C116.819 309.824 116.426 309.386 116.148 308.877C115.87 308.367 115.715 307.799 115.696 307.219V116.091C115.729 115.489 115.903 114.904 116.205 114.383C116.507 113.861 116.927 113.419 117.432 113.091L237.432 43.7947C237.934 43.4801 238.512 43.3082 239.103 43.2974C239.695 43.2867 240.279 43.4375 240.792 43.7337C241.304 44.0299 241.726 44.4602 242.013 44.9784C242.299 45.4966 242.438 46.0831 242.416 46.6747L120.656 310.091C120.141 310.365 119.568 310.514 118.984 310.525C118.4 310.536 117.822 310.409 117.296 310.155Z"
        fill="#E0E0E0" />
    <path
        d="M118.92 119.721L167.664 87.8253L164.416 85.9453L117.408 113.089C116.903 113.417 116.482 113.86 116.18 114.381C115.879 114.903 115.705 115.488 115.672 116.089V117.841L118.92 119.721Z"
        fill="#37474F" />
    <path opacity="0.2"
        d="M118.92 119.721L167.664 87.8253L164.416 85.9453L117.408 113.089C116.903 113.417 116.482 113.86 116.18 114.381C115.879 114.903 115.705 115.488 115.672 116.089V117.841L118.92 119.721Z"
        fill="#37474F" />
    <path
        d="M135.2 125.35L116.176 114.406C115.866 114.922 115.692 115.509 115.672 116.11V307.206C115.651 307.797 115.792 308.383 116.079 308.9C116.366 309.417 116.788 309.846 117.3 310.141C117.813 310.436 118.396 310.586 118.987 310.575C119.578 310.564 120.155 310.392 120.656 310.078L135.2 301.718V125.35Z"
        fill="#263238" />
    <path opacity="0.4"
        d="M135.2 125.35L116.176 114.406C115.866 114.922 115.692 115.509 115.672 116.11V307.206C115.651 307.797 115.792 308.383 116.079 308.9C116.366 309.417 116.788 309.846 117.3 310.141C117.813 310.436 118.396 310.586 118.987 310.575C119.578 310.564 120.155 310.392 120.656 310.078L135.2 301.718V125.35Z"
        fill="#263238" />
    <path
        d="M120.656 310.09L240.656 240.794C241.161 240.466 241.582 240.023 241.883 239.502C242.185 238.98 242.359 238.395 242.392 237.794V46.6738C242.392 45.5698 241.592 45.1218 240.656 45.6738L120.656 114.97C120.151 115.298 119.73 115.741 119.429 116.262C119.127 116.783 118.953 117.368 118.92 117.97V309.09C118.92 310.194 119.696 310.642 120.656 310.09Z"
        fill="#455A64" />
    <path opacity="0.1"
        d="M120.656 310.09L240.656 240.794C241.161 240.466 241.582 240.023 241.883 239.502C242.185 238.98 242.359 238.395 242.392 237.794V46.6738C242.392 45.5698 241.592 45.1218 240.656 45.6738L120.656 114.97C120.151 115.298 119.73 115.741 119.429 116.262C119.127 116.783 118.953 117.368 118.92 117.97V309.09C118.92 310.194 119.696 310.642 120.656 310.09Z"
        fill="#455A64" />
    <path
        d="M128.888 162.117L157.688 145.477C159.6 144.373 161.152 145.157 161.152 147.229C161.066 148.392 160.708 149.519 160.106 150.518C159.505 151.518 158.676 152.361 157.688 152.981L128.888 169.621C126.968 170.725 125.424 169.941 125.424 167.869C125.507 166.705 125.865 165.577 126.467 164.578C127.069 163.578 127.898 162.735 128.888 162.117Z"
        fill="#77CEFF" />
    <path
        d="M128.888 173.922L147.952 162.914C149.864 161.81 151.416 162.594 151.416 164.666C151.33 165.83 150.972 166.957 150.37 167.956C149.769 168.955 148.94 169.799 147.952 170.418L128.888 181.426C126.968 182.53 125.424 181.746 125.424 179.674C125.507 178.511 125.865 177.383 126.467 176.383C127.069 175.384 127.898 174.541 128.888 173.922Z"
        fill="#77CEFF" />
    <path
        d="M126.808 194.129L130.536 191.977C131.336 191.537 131.92 191.897 131.92 192.777V197.081C131.894 197.561 131.755 198.029 131.515 198.446C131.274 198.863 130.939 199.218 130.536 199.481L126.808 201.601C126.008 202.049 125.424 201.689 125.424 200.801V196.497C125.455 196.022 125.597 195.561 125.837 195.15C126.077 194.739 126.409 194.389 126.808 194.129Z"
        fill="#77CEFF" />
    <path opacity="0.2"
        d="M126.808 194.129L130.536 191.977C131.336 191.537 131.92 191.897 131.92 192.777V197.081C131.894 197.561 131.755 198.029 131.515 198.446C131.274 198.863 130.939 199.218 130.536 199.481L126.808 201.601C126.008 202.049 125.424 201.689 125.424 200.801V196.497C125.455 196.022 125.597 195.561 125.837 195.15C126.077 194.739 126.409 194.389 126.808 194.129Z"
        fill="black" />
    <path
        d="M126.808 209.149L130.536 206.997C131.336 206.549 131.92 206.909 131.92 207.797V212.101C131.892 212.582 131.752 213.049 131.512 213.465C131.272 213.882 130.937 214.237 130.536 214.501L126.808 216.653C126.008 217.093 125.424 216.733 125.424 215.853V211.549C125.449 211.068 125.587 210.6 125.827 210.183C126.068 209.766 126.404 209.412 126.808 209.149Z"
        fill="#77CEFF" />
    <g opacity="0.2">
        <path
            d="M126.808 209.149L130.536 206.997C131.336 206.549 131.92 206.909 131.92 207.797V212.101C131.892 212.582 131.752 213.049 131.512 213.465C131.272 213.882 130.937 214.237 130.536 214.501L126.808 216.653C126.008 217.093 125.424 216.733 125.424 215.853V211.549C125.449 211.068 125.587 210.6 125.827 210.183C126.068 209.766 126.404 209.412 126.808 209.149Z"
            fill="black" />
    </g>
    <path
        d="M136.904 205.196L159.432 192.18C160.392 191.628 161.168 192.02 161.168 193.06C161.124 193.641 160.945 194.204 160.643 194.703C160.341 195.202 159.927 195.623 159.432 195.932L136.904 208.948C135.944 209.5 135.168 209.108 135.168 208.068C135.211 207.486 135.391 206.923 135.693 206.424C135.994 205.925 136.409 205.504 136.904 205.196Z"
        fill="#77CEFF" />
    <path opacity="0.2"
        d="M136.904 205.196L159.432 192.18C160.392 191.628 161.168 192.02 161.168 193.06C161.124 193.641 160.945 194.204 160.643 194.703C160.341 195.202 159.927 195.623 159.432 195.932L136.904 208.948C135.944 209.5 135.168 209.108 135.168 208.068C135.211 207.486 135.391 206.923 135.693 206.424C135.994 205.925 136.409 205.504 136.904 205.196Z"
        fill="black" />
    <path
        d="M126.808 224.157L130.536 222.005C131.336 221.557 131.92 221.917 131.92 222.805V227.109C131.893 227.59 131.753 228.057 131.513 228.474C131.273 228.89 130.938 229.245 130.536 229.509L126.808 231.661C126.008 232.101 125.424 231.741 125.424 230.861V226.557C125.449 226.076 125.587 225.608 125.827 225.191C126.068 224.774 126.404 224.42 126.808 224.157Z"
        fill="#E0E0E0" />
    <path
        d="M136.904 220.203L159.432 207.203C160.392 206.651 161.168 207.043 161.168 208.083C161.126 208.665 160.946 209.228 160.645 209.728C160.343 210.227 159.927 210.647 159.432 210.955L136.904 223.971C135.944 224.523 135.168 224.131 135.168 223.091C135.209 222.507 135.388 221.941 135.689 221.439C135.991 220.937 136.407 220.513 136.904 220.203Z"
        fill="#F0F0F0" />
    <path
        d="M126.808 239.204L130.536 237.052C131.336 236.604 131.92 236.964 131.92 237.852V242.156C131.893 242.636 131.753 243.104 131.513 243.521C131.273 243.937 130.938 244.292 130.536 244.556L126.808 246.708C126.008 247.148 125.424 246.788 125.424 245.908V241.604C125.449 241.123 125.587 240.655 125.827 240.238C126.068 239.821 126.404 239.466 126.808 239.204Z"
        fill="#E0E0E0" />
    <path
        d="M136.904 235.254L159.432 222.246C160.392 221.686 161.168 222.086 161.168 223.118C161.126 223.701 160.946 224.265 160.645 224.766C160.343 225.266 159.928 225.688 159.432 225.998L136.904 239.006C135.944 239.558 135.168 239.166 135.168 238.126C135.211 237.545 135.391 236.982 135.693 236.483C135.994 235.984 136.409 235.563 136.904 235.254Z"
        fill="#F0F0F0" />
    <path
        d="M126.808 254.212L130.536 252.06C131.336 251.612 131.92 251.972 131.92 252.86V257.164C131.893 257.644 131.753 258.112 131.513 258.528C131.273 258.945 130.938 259.3 130.536 259.564L126.808 261.716C126.008 262.156 125.424 261.796 125.424 260.916V256.612C125.449 256.131 125.587 255.663 125.827 255.246C126.068 254.828 126.404 254.474 126.808 254.212Z"
        fill="#E0E0E0" />
    <path
        d="M136.904 250.262L159.432 237.254C160.392 236.694 161.168 237.094 161.168 238.126C161.126 238.709 160.946 239.273 160.645 239.774C160.343 240.274 159.928 240.696 159.432 241.006L136.904 254.014C135.944 254.566 135.168 254.174 135.168 253.134C135.211 252.552 135.391 251.989 135.693 251.49C135.994 250.991 136.409 250.571 136.904 250.262Z"
        fill="#F0F0F0" />
    <path
        d="M127.152 268.975L143.152 259.719C144.112 259.167 144.888 259.559 144.888 260.599C144.844 261.18 144.665 261.743 144.363 262.242C144.061 262.741 143.646 263.162 143.152 263.471L127.152 272.727C126.2 273.279 125.424 272.887 125.424 271.855C125.466 271.273 125.644 270.709 125.944 270.209C126.244 269.708 126.658 269.286 127.152 268.975Z"
        fill="#77CEFF" />
    <path
        d="M127.152 276.484L159.432 257.852C160.392 257.3 161.168 257.692 161.168 258.724C161.126 259.307 160.946 259.871 160.645 260.372C160.343 260.872 159.927 261.294 159.432 261.604L127.152 280.236C126.2 280.788 125.424 280.396 125.424 279.364C125.466 278.782 125.644 278.218 125.944 277.718C126.244 277.217 126.658 276.795 127.152 276.484Z"
        fill="#77CEFF" />
    <path opacity="0.8"
        d="M127.152 276.484L159.432 257.852C160.392 257.3 161.168 257.692 161.168 258.724C161.126 259.307 160.946 259.871 160.645 260.372C160.343 260.872 159.927 261.294 159.432 261.604L127.152 280.236C126.2 280.788 125.424 280.396 125.424 279.364C125.466 278.782 125.644 278.218 125.944 277.718C126.244 277.217 126.658 276.795 127.152 276.484Z"
        fill="white" />
    <path
        d="M127.152 276.485L149.688 263.477C150.64 262.925 151.416 263.317 151.416 264.357C151.373 264.937 151.194 265.499 150.894 265.998C150.593 266.497 150.18 266.918 149.688 267.229L127.152 280.237C126.2 280.789 125.424 280.397 125.424 279.365C125.466 278.783 125.644 278.219 125.944 277.719C126.244 277.218 126.658 276.796 127.152 276.485Z"
        fill="#77CEFF" />
    <path
        d="M127.152 284.006L143.152 274.75C144.112 274.198 144.888 274.59 144.888 275.63C144.844 276.211 144.665 276.774 144.363 277.273C144.061 277.772 143.646 278.193 143.152 278.502L127.152 287.758C126.2 288.31 125.424 287.918 125.424 286.886C125.466 286.304 125.644 285.74 125.944 285.24C126.244 284.74 126.658 284.317 127.152 284.006Z"
        fill="#77CEFF" />
    <path
        d="M136.904 190.18L159.432 177.172C160.392 176.62 161.168 177.012 161.168 178.052C161.124 178.633 160.945 179.196 160.643 179.695C160.341 180.194 159.927 180.615 159.432 180.924L136.904 193.932C135.944 194.484 135.168 194.092 135.168 193.06C135.21 192.477 135.389 191.913 135.691 191.412C135.993 190.912 136.408 190.489 136.904 190.18Z"
        fill="#77CEFF" />
    <path opacity="0.2"
        d="M136.904 190.18L159.432 177.172C160.392 176.62 161.168 177.012 161.168 178.052C161.124 178.633 160.945 179.196 160.643 179.695C160.341 180.194 159.927 180.615 159.432 180.924L136.904 193.932C135.944 194.484 135.168 194.092 135.168 193.06C135.21 192.477 135.389 191.913 135.691 191.412C135.993 190.912 136.408 190.489 136.904 190.18Z"
        fill="black" />
    <path
        d="M127.152 284.006L143.152 274.75C144.112 274.198 144.888 274.59 144.888 275.63C144.844 276.211 144.665 276.774 144.363 277.273C144.061 277.772 143.646 278.193 143.152 278.502L127.152 287.758C126.2 288.31 125.424 287.918 125.424 286.886C125.466 286.304 125.644 285.74 125.944 285.24C126.244 284.74 126.658 284.317 127.152 284.006Z"
        fill="#77CEFF" />
    <path
        d="M127.152 291.484L159.432 272.852C160.392 272.3 161.168 272.692 161.168 273.724C161.126 274.307 160.946 274.871 160.645 275.372C160.343 275.872 159.927 276.294 159.432 276.604L127.152 295.204C126.2 295.764 125.424 295.364 125.424 294.332C125.471 293.755 125.651 293.198 125.951 292.704C126.251 292.209 126.662 291.792 127.152 291.484Z"
        fill="#77CEFF" />
    <path opacity="0.8"
        d="M127.152 291.484L159.432 272.852C160.392 272.3 161.168 272.692 161.168 273.724C161.126 274.307 160.946 274.871 160.645 275.372C160.343 275.872 159.927 276.294 159.432 276.604L127.152 295.204C126.2 295.764 125.424 295.364 125.424 294.332C125.471 293.755 125.651 293.198 125.951 292.704C126.251 292.209 126.662 291.792 127.152 291.484Z"
        fill="white" />
    <path
        d="M127.152 291.48L156.184 274.68C157.144 274.128 157.92 274.52 157.92 275.56C157.876 276.141 157.697 276.704 157.395 277.203C157.093 277.702 156.678 278.123 156.184 278.432L127.152 295.232C126.2 295.792 125.424 295.392 125.424 294.36C125.466 293.778 125.644 293.214 125.944 292.714C126.244 292.213 126.658 291.791 127.152 291.48Z"
        fill="#77CEFF" />
    <path
        d="M240.672 45.676L167.664 87.828V282.948L240.672 240.804C241.177 240.476 241.598 240.033 241.899 239.512C242.201 238.991 242.375 238.405 242.408 237.804V46.676C242.4 45.604 241.6 45.124 240.672 45.676Z"
        fill="#EBEBEB" />
    <path opacity="0.6"
        d="M240.672 45.676L167.664 87.828V282.948L240.672 240.804C241.177 240.476 241.598 240.033 241.899 239.512C242.201 238.991 242.375 238.405 242.408 237.804V46.676C242.4 45.604 241.6 45.124 240.672 45.676Z"
        fill="#FAFAFA" />
    <path d="M167.664 95.3297V110.338L161.168 117.842H167.664V132.85L235.904 93.4497V55.9297L167.664 95.3297Z"
        fill="#77CEFF" />
    <g opacity="0.6">
        <path
            d="M176.592 95.8503L204.24 79.8503C205.576 79.0503 206.64 79.7063 206.64 81.2503C206.596 82.0892 206.356 82.9061 205.939 83.6355C205.523 84.3649 204.941 84.9864 204.24 85.4503L176.592 101.41C175.248 102.21 174.192 101.554 174.192 100.01C174.241 99.1779 174.483 98.3683 174.9 97.646C175.316 96.9237 175.896 96.3088 176.592 95.8503Z"
            fill="white" />
    </g>
    <path
        d="M175.032 108.004L228.544 77.1076C229.024 76.8356 229.408 77.0276 229.408 77.5476C229.387 77.8387 229.298 78.1207 229.148 78.3709C228.998 78.6211 228.791 78.8324 228.544 78.9876L175.032 109.844C174.552 110.116 174.168 109.924 174.168 109.404C174.195 109.12 174.287 108.845 174.436 108.603C174.586 108.36 174.79 108.155 175.032 108.004Z"
        fill="#77CEFF" />
    <path
        d="M175.032 108.004L228.544 77.1076C229.024 76.8356 229.408 77.0276 229.408 77.5476C229.387 77.8387 229.298 78.1207 229.148 78.3709C228.998 78.6211 228.791 78.8324 228.544 78.9876L175.032 109.844C174.552 110.116 174.168 109.924 174.168 109.404C174.195 109.12 174.287 108.845 174.436 108.603C174.586 108.36 174.79 108.155 175.032 108.004Z"
        fill="#77CEFF" />
    <path opacity="0.6"
        d="M175.032 108.004L228.544 77.1076C229.024 76.8356 229.408 77.0276 229.408 77.5476C229.387 77.8387 229.298 78.1207 229.148 78.3709C228.998 78.6211 228.791 78.8324 228.544 78.9876L175.032 109.844C174.552 110.116 174.168 109.924 174.168 109.404C174.195 109.12 174.287 108.845 174.436 108.603C174.586 108.36 174.79 108.155 175.032 108.004Z"
        fill="white" />
    <path
        d="M175.032 113.601L228.544 82.7049C229.024 82.4249 229.408 82.6249 229.408 83.1449C229.387 83.4349 229.298 83.7158 229.148 83.9648C228.998 84.2137 228.791 84.4235 228.544 84.5769L175.032 115.473C174.552 115.753 174.168 115.553 174.168 115.033C174.189 114.743 174.278 114.462 174.428 114.213C174.578 113.964 174.785 113.754 175.032 113.601Z"
        fill="#77CEFF" />
    <path opacity="0.6"
        d="M175.032 113.601L228.544 82.7049C229.024 82.4249 229.408 82.6249 229.408 83.1449C229.387 83.4349 229.298 83.7158 229.148 83.9648C228.998 84.2137 228.791 84.4235 228.544 84.5769L175.032 115.473C174.552 115.753 174.168 115.553 174.168 115.033C174.189 114.743 174.278 114.462 174.428 114.213C174.578 113.964 174.785 113.754 175.032 113.601Z"
        fill="white" />
    <path opacity="0.6"
        d="M175.032 119.199L228.544 88.3029C229.024 88.0309 229.408 88.2229 229.408 88.7429C229.387 89.034 229.298 89.3161 229.148 89.5663C228.998 89.8164 228.791 90.0277 228.544 90.1829L175.032 121.079C174.552 121.351 174.168 121.159 174.168 120.639C174.189 120.348 174.278 120.066 174.428 119.816C174.578 119.565 174.785 119.354 175.032 119.199Z"
        fill="white" />
    <path
        d="M177.047 134.962L180.799 132.802C181.599 132.354 182.183 132.714 182.183 133.602V137.906C182.157 138.387 182.018 138.854 181.777 139.271C181.537 139.688 181.202 140.042 180.799 140.306L177.071 142.458C176.271 142.898 175.688 142.538 175.688 141.658V137.362C175.71 136.883 175.844 136.416 176.08 135.999C176.317 135.582 176.648 135.227 177.047 134.962Z"
        fill="#77CEFF" />
    <path opacity="0.2"
        d="M177.047 134.962L180.799 132.802C181.599 132.354 182.183 132.714 182.183 133.602V137.906C182.157 138.387 182.018 138.854 181.777 139.271C181.537 139.688 181.202 140.042 180.799 140.306L177.071 142.458C176.271 142.898 175.688 142.538 175.688 141.658V137.362C175.71 136.883 175.844 136.416 176.08 135.999C176.317 135.582 176.648 135.227 177.047 134.962Z"
        fill="white" />
    <path
        d="M187.144 131.008L209.672 117.992C210.632 117.44 211.408 117.832 211.408 118.872C211.365 119.454 211.185 120.017 210.883 120.516C210.582 121.015 210.167 121.435 209.672 121.744L187.144 134.76C186.184 135.312 185.408 134.92 185.408 133.88C185.452 133.299 185.632 132.736 185.933 132.237C186.235 131.738 186.65 131.317 187.144 131.008Z"
        fill="#77CEFF" />
    <path opacity="0.8"
        d="M187.144 131.008L209.672 117.992C210.632 117.44 211.408 117.832 211.408 118.872C211.365 119.454 211.185 120.017 210.883 120.516C210.582 121.015 210.167 121.435 209.672 121.744L187.144 134.76C186.184 135.312 185.408 134.92 185.408 133.88C185.452 133.299 185.632 132.736 185.933 132.237C186.235 131.738 186.65 131.317 187.144 131.008Z"
        fill="white" />
    <path
        d="M176.528 148.404L233.328 115.604C233.808 115.324 234.192 115.524 234.192 116.036C234.172 116.327 234.083 116.609 233.933 116.859C233.783 117.11 233.576 117.321 233.328 117.476L176.528 150.276C176.048 150.556 175.664 150.356 175.664 149.836C175.685 149.546 175.774 149.265 175.924 149.016C176.074 148.767 176.281 148.557 176.528 148.404Z"
        fill="#77CEFF" />
    <path
        d="M176.528 154.025L233.328 121.225C233.808 120.953 234.192 121.145 234.192 121.665C234.171 121.956 234.082 122.238 233.932 122.488C233.782 122.738 233.575 122.95 233.328 123.105L176.528 155.905C176.048 156.177 175.664 155.985 175.664 155.465C175.685 155.174 175.774 154.892 175.924 154.642C176.074 154.391 176.281 154.18 176.528 154.025Z"
        fill="#77CEFF" />
    <path
        d="M176.528 159.661L233.328 126.861C233.808 126.581 234.192 126.781 234.192 127.293C234.172 127.585 234.083 127.867 233.933 128.117C233.783 128.367 233.576 128.579 233.328 128.733L176.528 161.533C176.048 161.813 175.664 161.613 175.664 161.101C175.684 160.81 175.773 160.528 175.923 160.278C176.073 160.027 176.281 159.816 176.528 159.661Z"
        fill="#77CEFF" />
    <path
        d="M176.528 165.298L233.328 132.498C233.808 132.226 234.192 132.418 234.192 132.938C234.171 133.229 234.082 133.511 233.932 133.762C233.782 134.012 233.575 134.223 233.328 134.378L176.528 167.178C176.048 167.45 175.664 167.258 175.664 166.738C175.685 166.447 175.774 166.165 175.924 165.915C176.074 165.665 176.281 165.453 176.528 165.298Z"
        fill="#77CEFF" />
    <path
        d="M176.528 148.404L233.328 115.604C233.808 115.324 234.192 115.524 234.192 116.036C234.172 116.327 234.083 116.609 233.933 116.859C233.783 117.11 233.576 117.321 233.328 117.476L176.528 150.276C176.048 150.556 175.664 150.356 175.664 149.836C175.685 149.546 175.774 149.265 175.924 149.016C176.074 148.767 176.281 148.557 176.528 148.404Z"
        fill="#E0E0E0" />
    <path
        d="M176.528 154.025L233.328 121.225C233.808 120.953 234.192 121.145 234.192 121.665C234.171 121.956 234.082 122.238 233.932 122.488C233.782 122.738 233.575 122.95 233.328 123.105L176.528 155.905C176.048 156.177 175.664 155.985 175.664 155.465C175.685 155.174 175.774 154.892 175.924 154.642C176.074 154.391 176.281 154.18 176.528 154.025Z"
        fill="#E0E0E0" />
    <path
        d="M176.528 159.661L233.328 126.861C233.808 126.581 234.192 126.781 234.192 127.293C234.172 127.585 234.083 127.867 233.933 128.117C233.783 128.367 233.576 128.579 233.328 128.733L176.528 161.533C176.048 161.813 175.664 161.613 175.664 161.101C175.684 160.81 175.773 160.528 175.923 160.278C176.073 160.027 176.281 159.816 176.528 159.661Z"
        fill="#E0E0E0" />
    <path
        d="M176.528 165.298L233.328 132.498C233.808 132.226 234.192 132.418 234.192 132.938C234.171 133.229 234.082 133.511 233.932 133.762C233.782 134.012 233.575 134.223 233.328 134.378L176.528 167.178C176.048 167.45 175.664 167.258 175.664 166.738C175.685 166.447 175.774 166.165 175.924 165.915C176.074 165.665 176.281 165.453 176.528 165.298Z"
        fill="#E0E0E0" />
    <path opacity="0.8"
        d="M176.528 148.404L233.328 115.604C233.808 115.324 234.192 115.524 234.192 116.036C234.172 116.327 234.083 116.609 233.933 116.859C233.783 117.11 233.576 117.321 233.328 117.476L176.528 150.276C176.048 150.556 175.664 150.356 175.664 149.836C175.685 149.546 175.774 149.265 175.924 149.016C176.074 148.767 176.281 148.557 176.528 148.404Z"
        fill="#E0E0E0" />
    <path opacity="0.8"
        d="M176.528 154.025L233.328 121.225C233.808 120.953 234.192 121.145 234.192 121.665C234.171 121.956 234.082 122.238 233.932 122.488C233.782 122.738 233.575 122.95 233.328 123.105L176.528 155.905C176.048 156.177 175.664 155.985 175.664 155.465C175.685 155.174 175.774 154.892 175.924 154.642C176.074 154.391 176.281 154.18 176.528 154.025Z"
        fill="#E0E0E0" />
    <path opacity="0.8"
        d="M176.528 159.661L233.328 126.861C233.808 126.581 234.192 126.781 234.192 127.293C234.172 127.585 234.083 127.867 233.933 128.117C233.783 128.367 233.576 128.579 233.328 128.733L176.528 161.533C176.048 161.813 175.664 161.613 175.664 161.101C175.684 160.81 175.773 160.528 175.923 160.278C176.073 160.027 176.281 159.816 176.528 159.661Z"
        fill="#E0E0E0" />
    <path opacity="0.8"
        d="M176.528 165.298L233.328 132.498C233.808 132.226 234.192 132.418 234.192 132.938C234.171 133.229 234.082 133.511 233.932 133.762C233.782 134.012 233.575 134.223 233.328 134.378L176.528 167.178C176.048 167.45 175.664 167.258 175.664 166.738C175.685 166.447 175.774 166.165 175.924 165.915C176.074 165.665 176.281 165.453 176.528 165.298Z"
        fill="#E0E0E0" />
    <path
        d="M176.528 189.2L233.328 156.4C233.808 156.12 234.192 156.32 234.192 156.832C234.172 157.124 234.083 157.406 233.933 157.656C233.783 157.907 233.576 158.118 233.328 158.272L176.528 191.072C176.048 191.352 175.664 191.152 175.664 190.632C175.685 190.342 175.774 190.062 175.924 189.813C176.074 189.564 176.281 189.354 176.528 189.2Z"
        fill="#E0E0E0" />
    <path
        d="M176.528 194.829L233.328 162.03C233.808 161.758 234.192 161.95 234.192 162.47C234.171 162.761 234.082 163.043 233.932 163.293C233.782 163.543 233.575 163.754 233.328 163.91L176.528 196.71C176.048 196.982 175.664 196.79 175.664 196.27C175.685 195.978 175.774 195.696 175.924 195.446C176.074 195.196 176.281 194.985 176.528 194.829Z"
        fill="#E0E0E0" />
    <path
        d="M176.528 200.458L233.328 167.658C233.808 167.378 234.192 167.578 234.192 168.09C234.172 168.381 234.083 168.664 233.933 168.914C233.783 169.164 233.576 169.376 233.328 169.53L176.528 202.33C176.048 202.61 175.664 202.41 175.664 201.898C175.684 201.607 175.773 201.325 175.923 201.074C176.073 200.824 176.281 200.613 176.528 200.458Z"
        fill="#E0E0E0" />
    <path
        d="M176.528 206.095L233.328 173.295C233.808 173.023 234.192 173.215 234.192 173.735C234.171 174.026 234.082 174.308 233.932 174.558C233.782 174.809 233.575 175.02 233.328 175.175L176.528 207.975C176.048 208.247 175.664 208.055 175.664 207.535C175.685 207.244 175.774 206.962 175.924 206.712C176.074 206.462 176.281 206.25 176.528 206.095Z"
        fill="#E0E0E0" />
    <path opacity="0.8"
        d="M176.528 189.2L233.328 156.4C233.808 156.12 234.192 156.32 234.192 156.832C234.172 157.124 234.083 157.406 233.933 157.656C233.783 157.907 233.576 158.118 233.328 158.272L176.528 191.072C176.048 191.352 175.664 191.152 175.664 190.632C175.685 190.342 175.774 190.062 175.924 189.813C176.074 189.564 176.281 189.354 176.528 189.2Z"
        fill="#E0E0E0" />
    <path opacity="0.8"
        d="M176.528 194.829L233.328 162.03C233.808 161.758 234.192 161.95 234.192 162.47C234.171 162.761 234.082 163.043 233.932 163.293C233.782 163.543 233.575 163.754 233.328 163.91L176.528 196.71C176.048 196.982 175.664 196.79 175.664 196.27C175.685 195.978 175.774 195.696 175.924 195.446C176.074 195.196 176.281 194.985 176.528 194.829Z"
        fill="#E0E0E0" />
    <path opacity="0.8"
        d="M176.528 200.458L233.328 167.658C233.808 167.378 234.192 167.578 234.192 168.09C234.172 168.381 234.083 168.664 233.933 168.914C233.783 169.164 233.576 169.376 233.328 169.53L176.528 202.33C176.048 202.61 175.664 202.41 175.664 201.898C175.684 201.607 175.773 201.325 175.923 201.074C176.073 200.824 176.281 200.613 176.528 200.458Z"
        fill="#E0E0E0" />
    <path opacity="0.8"
        d="M176.528 206.095L233.328 173.295C233.808 173.023 234.192 173.215 234.192 173.735C234.171 174.026 234.082 174.308 233.932 174.558C233.782 174.809 233.575 175.02 233.328 175.175L176.528 207.975C176.048 208.247 175.664 208.055 175.664 207.535C175.685 207.244 175.774 206.962 175.924 206.712C176.074 206.462 176.281 206.25 176.528 206.095Z"
        fill="#E0E0E0" />
    <path
        d="M176.528 230.802L233.328 198.002C233.808 197.722 234.192 197.922 234.192 198.434C234.172 198.725 234.083 199.008 233.933 199.258C233.783 199.508 233.576 199.719 233.328 199.874L176.528 232.674C176.048 232.954 175.664 232.754 175.664 232.234C175.685 231.944 175.774 231.663 175.924 231.414C176.074 231.165 176.281 230.955 176.528 230.802Z"
        fill="#E0E0E0" />
    <path
        d="M176.528 236.423L233.328 203.623C233.808 203.351 234.192 203.543 234.192 204.063C234.171 204.354 234.082 204.636 233.932 204.887C233.782 205.137 233.575 205.348 233.328 205.503L176.528 238.303C176.048 238.575 175.664 238.383 175.664 237.863C175.685 237.572 175.774 237.29 175.924 237.04C176.074 236.79 176.281 236.578 176.528 236.423Z"
        fill="#E0E0E0" />
    <path
        d="M176.528 242.06L233.328 209.26C233.808 208.98 234.192 209.18 234.192 209.692C234.172 209.983 234.083 210.265 233.933 210.516C233.783 210.766 233.576 210.977 233.328 211.132L176.528 243.932C176.048 244.212 175.664 244.012 175.664 243.5C175.684 243.209 175.773 242.926 175.923 242.676C176.073 242.426 176.281 242.215 176.528 242.06Z"
        fill="#E0E0E0" />
    <path
        d="M176.528 247.697L233.328 214.897C233.808 214.625 234.192 214.817 234.192 215.337C234.171 215.628 234.082 215.91 233.932 216.16C233.782 216.41 233.575 216.621 233.328 216.777L176.528 249.577C176.048 249.849 175.664 249.657 175.664 249.137C175.685 248.846 175.774 248.564 175.924 248.313C176.074 248.063 176.281 247.852 176.528 247.697Z"
        fill="#E0E0E0" />
    <path opacity="0.8"
        d="M176.528 230.802L233.328 198.002C233.808 197.722 234.192 197.922 234.192 198.434C234.172 198.725 234.083 199.008 233.933 199.258C233.783 199.508 233.576 199.719 233.328 199.874L176.528 232.674C176.048 232.954 175.664 232.754 175.664 232.234C175.685 231.944 175.774 231.663 175.924 231.414C176.074 231.165 176.281 230.955 176.528 230.802Z"
        fill="#E0E0E0" />
    <path opacity="0.8"
        d="M176.528 236.423L233.328 203.623C233.808 203.351 234.192 203.543 234.192 204.063C234.171 204.354 234.082 204.636 233.932 204.887C233.782 205.137 233.575 205.348 233.328 205.503L176.528 238.303C176.048 238.575 175.664 238.383 175.664 237.863C175.685 237.572 175.774 237.29 175.924 237.04C176.074 236.79 176.281 236.578 176.528 236.423Z"
        fill="#E0E0E0" />
    <path opacity="0.8"
        d="M176.528 242.06L233.328 209.26C233.808 208.98 234.192 209.18 234.192 209.692C234.172 209.983 234.083 210.265 233.933 210.516C233.783 210.766 233.576 210.977 233.328 211.132L176.528 243.932C176.048 244.212 175.664 244.012 175.664 243.5C175.684 243.209 175.773 242.926 175.923 242.676C176.073 242.426 176.281 242.215 176.528 242.06Z"
        fill="#E0E0E0" />
    <path opacity="0.8"
        d="M176.528 247.697L233.328 214.897C233.808 214.625 234.192 214.817 234.192 215.337C234.171 215.628 234.082 215.91 233.932 216.16C233.782 216.41 233.575 216.621 233.328 216.777L176.528 249.577C176.048 249.849 175.664 249.657 175.664 249.137C175.685 248.846 175.774 248.564 175.924 248.313C176.074 248.063 176.281 247.852 176.528 247.697Z"
        fill="#E0E0E0" />
    <path
        d="M177.047 176.238L180.799 174.086C181.599 173.646 182.183 174.006 182.183 174.886V179.206C182.159 179.687 182.02 180.155 181.78 180.573C181.539 180.99 181.203 181.344 180.799 181.606L177.071 183.758C176.271 184.198 175.688 183.846 175.688 182.958V178.654C175.708 178.173 175.841 177.703 176.078 177.283C176.314 176.863 176.646 176.505 177.047 176.238Z"
        fill="#77CEFF" />
    <path opacity="0.2"
        d="M177.047 176.238L180.799 174.086C181.599 173.646 182.183 174.006 182.183 174.886V179.206C182.159 179.687 182.02 180.155 181.78 180.573C181.539 180.99 181.203 181.344 180.799 181.606L177.071 183.758C176.271 184.198 175.688 183.846 175.688 182.958V178.654C175.708 178.173 175.841 177.703 176.078 177.283C176.314 176.863 176.646 176.505 177.047 176.238Z"
        fill="white" />
    <path
        d="M187.144 172.282L209.672 159.274C210.632 158.722 211.408 159.114 211.408 160.146C211.366 160.729 211.187 161.293 210.885 161.794C210.583 162.294 210.168 162.716 209.672 163.026L187.144 176.002C186.184 176.554 185.408 176.162 185.408 175.13C185.455 174.552 185.637 173.994 185.938 173.5C186.24 173.005 186.653 172.588 187.144 172.282Z"
        fill="#77CEFF" />
    <path opacity="0.8"
        d="M187.144 172.282L209.672 159.274C210.632 158.722 211.408 159.114 211.408 160.146C211.366 160.729 211.187 161.293 210.885 161.794C210.583 162.294 210.168 162.716 209.672 163.026L187.144 176.002C186.184 176.554 185.408 176.162 185.408 175.13C185.455 174.552 185.637 173.994 185.938 173.5C186.24 173.005 186.653 172.588 187.144 172.282Z"
        fill="white" />
    <path
        d="M177.047 217.517L180.799 215.365C181.599 214.917 182.183 215.277 182.183 216.165V220.469C182.158 220.949 182.02 221.417 181.779 221.834C181.539 222.252 181.203 222.606 180.799 222.869L177.071 225.021C176.271 225.461 175.688 225.101 175.688 224.221V219.917C175.71 219.438 175.844 218.971 176.08 218.554C176.317 218.137 176.648 217.782 177.047 217.517Z"
        fill="#77CEFF" />
    <path opacity="0.2"
        d="M177.047 217.517L180.799 215.365C181.599 214.917 182.183 215.277 182.183 216.165V220.469C182.158 220.949 182.02 221.417 181.779 221.834C181.539 222.252 181.203 222.606 180.799 222.869L177.071 225.021C176.271 225.461 175.688 225.101 175.688 224.221V219.917C175.71 219.438 175.844 218.971 176.08 218.554C176.317 218.137 176.648 217.782 177.047 217.517Z"
        fill="white" />
    <path
        d="M187.144 213.602L209.672 200.586C210.632 200.034 211.408 200.426 211.408 201.466C211.365 202.049 211.186 202.613 210.884 203.113C210.583 203.614 210.167 204.036 209.672 204.346L187.144 217.354C186.184 217.906 185.408 217.514 185.408 216.474C185.452 215.893 185.632 215.33 185.933 214.831C186.235 214.332 186.65 213.911 187.144 213.602Z"
        fill="#77CEFF" />
    <path opacity="0.8"
        d="M187.144 213.602L209.672 200.586C210.632 200.034 211.408 200.426 211.408 201.466C211.365 202.049 211.186 202.613 210.884 203.113C210.583 203.614 210.167 204.036 209.672 204.346L187.144 217.354C186.184 217.906 185.408 217.514 185.408 216.474C185.452 215.893 185.632 215.33 185.933 214.831C186.235 214.332 186.65 213.911 187.144 213.602Z"
        fill="white" />
    <path
        d="M182.352 253.848L186.08 251.696C186.88 251.256 187.472 251.616 187.472 252.496V256.8C187.446 257.281 187.306 257.75 187.064 258.167C186.822 258.584 186.485 258.938 186.08 259.2L182.352 261.352C181.592 261.8 180.968 261.44 180.968 260.552V256.248C180.996 255.767 181.135 255.3 181.376 254.884C181.616 254.467 181.95 254.112 182.352 253.848Z"
        fill="#77CEFF" />
    <path
        d="M176.528 268.472L191.912 259.592C192.392 259.32 192.776 259.512 192.776 260.032C192.755 260.323 192.666 260.605 192.516 260.855C192.366 261.106 192.159 261.317 191.912 261.472L176.528 270.352C176.048 270.624 175.664 270.432 175.664 269.912C175.685 269.621 175.774 269.339 175.924 269.089C176.074 268.839 176.281 268.627 176.528 268.472Z"
        fill="#E0E0E0" />
    <path
        d="M203.048 241.902L206.776 239.75C207.536 239.31 208.16 239.67 208.16 240.55V244.854C208.134 245.335 207.995 245.803 207.755 246.22C207.515 246.637 207.179 246.991 206.776 247.254L203.048 249.406C202.248 249.846 201.656 249.494 201.656 248.606V244.302C201.683 243.821 201.823 243.353 202.065 242.936C202.307 242.519 202.644 242.165 203.048 241.902Z"
        fill="#77CEFF" />
    <path
        d="M197.216 256.522L212.6 247.642C213.08 247.362 213.464 247.562 213.464 248.082C213.443 248.372 213.354 248.653 213.204 248.902C213.053 249.151 212.846 249.361 212.6 249.514L197.216 258.402C196.736 258.682 196.352 258.482 196.352 257.97C196.37 257.678 196.459 257.394 196.609 257.142C196.759 256.89 196.967 256.678 197.216 256.522Z"
        fill="#E0E0E0" />
    <path
        d="M223.736 229.946L227.464 227.794C228.224 227.346 228.848 227.706 228.848 228.594V232.898C228.82 233.379 228.681 233.846 228.441 234.263C228.2 234.679 227.866 235.034 227.464 235.298L223.736 237.45C222.936 237.89 222.352 237.53 222.352 236.65V232.346C222.376 231.865 222.515 231.397 222.755 230.98C222.996 230.563 223.332 230.209 223.736 229.946Z"
        fill="#77CEFF" />
    <path opacity="0.2"
        d="M182.352 253.848L186.08 251.696C186.88 251.256 187.472 251.616 187.472 252.496V256.8C187.446 257.281 187.306 257.75 187.064 258.167C186.822 258.584 186.485 258.938 186.08 259.2L182.352 261.352C181.592 261.8 180.968 261.44 180.968 260.552V256.248C180.996 255.767 181.135 255.3 181.376 254.884C181.616 254.467 181.95 254.112 182.352 253.848Z"
        fill="white" />
    <path opacity="0.2"
        d="M203.048 241.902L206.776 239.75C207.536 239.31 208.16 239.67 208.16 240.55V244.854C208.134 245.335 207.995 245.803 207.755 246.22C207.515 246.637 207.179 246.991 206.776 247.254L203.048 249.406C202.248 249.846 201.656 249.494 201.656 248.606V244.302C201.683 243.821 201.823 243.353 202.065 242.936C202.307 242.519 202.644 242.165 203.048 241.902Z"
        fill="white" />
    <path opacity="0.2"
        d="M223.736 229.946L227.464 227.794C228.224 227.346 228.848 227.706 228.848 228.594V232.898C228.82 233.379 228.681 233.846 228.441 234.263C228.2 234.679 227.866 235.034 227.464 235.298L223.736 237.45C222.936 237.89 222.352 237.53 222.352 236.65V232.346C222.376 231.865 222.515 231.397 222.755 230.98C222.996 230.563 223.332 230.209 223.736 229.946Z"
        fill="white" />
    <path
        d="M217.904 244.57L233.288 235.69C233.768 235.41 234.152 235.61 234.152 236.122C234.132 236.413 234.043 236.695 233.893 236.945C233.743 237.196 233.536 237.407 233.288 237.562L217.904 246.442C217.432 246.722 217.04 246.522 217.04 246.002C217.063 245.712 217.152 245.432 217.302 245.183C217.452 244.935 217.658 244.724 217.904 244.57Z"
        fill="#E0E0E0" />
    <mask id="mask0_2614_15286" style="mask-type:luminance" maskUnits="userSpaceOnUse" x="125" y="108" width="33"
        height="44">
        <path
            d="M141.672 111.088C132.696 116.144 125.424 128.744 125.424 139.224C125.424 149.704 132.696 154.008 141.672 148.824C150.648 143.64 157.92 131.048 157.92 120.68C157.92 110.312 150.64 106.024 141.672 111.088Z"
            fill="white" />
    </mask>
    <g mask="url(#mask0_2614_15286)">
        <path
            d="M141.672 111.088C132.696 116.144 125.424 128.744 125.424 139.224C125.424 149.704 132.696 154.008 141.672 148.824C150.648 143.64 157.92 131.048 157.92 120.68C157.92 110.312 150.64 106.024 141.672 111.088Z"
            fill="#FAFAFA" />
        <path
            d="M149.544 143.387L136.536 146.875C136.312 146.948 136.073 146.964 135.841 146.922C135.61 146.879 135.392 146.78 135.209 146.632C135.025 146.484 134.881 146.293 134.79 146.076C134.699 145.858 134.664 145.622 134.688 145.387V123.243C134.734 121.41 135.346 119.637 136.44 118.166C137.535 116.694 139.057 115.598 140.8 115.027L145.248 113.835C148.632 112.931 151.376 115.139 151.376 118.763V140.915C151.361 141.466 151.178 141.998 150.85 142.44C150.522 142.883 150.066 143.213 149.544 143.387Z"
            fill="#37474F" />
        <path
            d="M150.168 149.112L148.8 143.072C148.8 143.072 148.8 134.92 147.64 134.168C146.48 133.416 146.144 133.272 146.144 133.272C147.632 132.76 150.768 132.376 151.744 135.24C152.68 137.944 154.08 144.608 154.744 147.888L150.168 149.112Z"
            fill="#F28F8F" />
        <path
            d="M150.056 149.145L145.416 133.345C147.472 132.545 150.112 131.881 151.392 134.001C152.544 135.905 154.384 145.881 154.744 147.889L150.056 149.145Z"
            fill="#77CEFF" />
        <g opacity="0.4">
            <path
                d="M150.056 149.145L145.416 133.345C147.472 132.545 150.112 131.881 151.392 134.001C152.544 135.905 154.384 145.881 154.744 147.889L150.056 149.145Z"
                fill="black" />
        </g>
        <path
            d="M150.68 148.976L146.12 150.2C146.304 148.89 146.735 147.628 147.392 146.48C148.305 145.165 149.618 144.18 151.136 143.672C150.808 145.42 150.655 147.197 150.68 148.976Z"
            fill="#77CEFF" />
        <path
            d="M150.68 148.976L146.12 150.2C146.304 148.89 146.735 147.628 147.392 146.48C148.305 145.165 149.618 144.18 151.136 143.672C150.808 145.42 150.655 147.197 150.68 148.976Z"
            fill="#77CEFF" />
        <g opacity="0.7">
            <path
                d="M150.68 148.976L146.12 150.2C146.304 148.89 146.735 147.628 147.392 146.48C148.305 145.165 149.618 144.18 151.136 143.672C150.808 145.42 150.655 147.197 150.68 148.976Z"
                fill="black" />
        </g>
        <path
            d="M149.704 149.243L136.904 152.659L135.496 148.299C135.496 148.299 139.232 139.555 134.616 137.307C135.2 136.867 140.12 134.947 140.12 134.947L145.408 133.347C146.416 133.075 150.488 134.883 151.52 138.891C151.888 140.307 151.76 141.579 149.688 148.955C149.712 149.051 149.704 149.147 149.704 149.243Z"
            fill="#77CEFF" />
        <path
            d="M148.648 116.555C149.528 116.875 150.616 118.955 150.512 123.971C150.424 128.227 149.144 129.571 148.504 130.083C147.545 130.563 146.488 130.812 145.416 130.811V133.347C145.416 133.347 147.08 134.947 146.976 136.163C146.872 137.379 144.576 138.243 143.024 137.523C141.89 136.884 140.91 136.004 140.152 134.947V129.107C140.035 129.241 139.893 129.351 139.733 129.43C139.573 129.51 139.399 129.556 139.221 129.567C139.043 129.578 138.865 129.554 138.696 129.496C138.528 129.437 138.373 129.346 138.24 129.227C137.99 129.056 137.777 128.836 137.614 128.581C137.45 128.327 137.339 128.042 137.288 127.743C137.236 127.445 137.245 127.139 137.314 126.844C137.383 126.55 137.51 126.272 137.688 126.027C138.488 124.979 139.888 124.827 140.432 125.875C141.109 124.231 142.321 122.864 143.872 121.995C146.4 120.459 147.776 119.091 148.648 116.555Z"
            fill="#FFA8A7" />
        <path
            d="M146.111 124.085C146.115 124.237 146.071 124.386 145.987 124.512C145.902 124.638 145.781 124.735 145.639 124.789C145.579 124.81 145.515 124.816 145.452 124.806C145.389 124.797 145.329 124.772 145.278 124.734C145.227 124.696 145.186 124.647 145.158 124.589C145.13 124.532 145.117 124.469 145.119 124.405C145.116 124.254 145.159 124.105 145.244 123.978C145.328 123.852 145.45 123.756 145.591 123.701C145.652 123.68 145.716 123.675 145.779 123.684C145.842 123.694 145.901 123.719 145.952 123.756C146.004 123.794 146.045 123.844 146.073 123.901C146.1 123.958 146.114 124.022 146.111 124.085Z"
            fill="#37474F" />
        <path
            d="M146.24 127.641L147.392 127.721C147.359 127.896 147.267 128.056 147.132 128.173C146.997 128.29 146.827 128.359 146.648 128.369C146.328 128.345 146.144 128.001 146.24 127.641Z"
            fill="#F28F8F" />
        <path
            d="M150.176 121.371L149.176 120.899C149.235 120.745 149.35 120.617 149.498 120.542C149.645 120.467 149.816 120.449 149.976 120.491C150.047 120.535 150.109 120.593 150.158 120.662C150.207 120.73 150.242 120.807 150.261 120.889C150.279 120.971 150.281 121.056 150.267 121.139C150.252 121.222 150.221 121.301 150.176 121.371Z"
            fill="#37474F" />
        <path
            d="M144.672 123.239L145.672 122.223C145.619 122.169 145.555 122.127 145.484 122.099C145.414 122.072 145.338 122.059 145.263 122.063C145.187 122.067 145.113 122.087 145.046 122.121C144.978 122.155 144.919 122.204 144.872 122.263C144.733 122.379 144.638 122.539 144.601 122.716C144.565 122.893 144.59 123.077 144.672 123.239Z"
            fill="#37474F" />
        <path
            d="M149.944 122.679C149.948 122.831 149.905 122.981 149.821 123.107C149.736 123.233 149.614 123.33 149.472 123.383C149.411 123.404 149.346 123.41 149.282 123.4C149.219 123.39 149.159 123.365 149.107 123.326C149.056 123.287 149.015 123.236 148.988 123.178C148.961 123.12 148.948 123.056 148.952 122.991C148.949 122.84 148.993 122.691 149.078 122.566C149.162 122.44 149.283 122.343 149.424 122.287C149.485 122.266 149.55 122.26 149.613 122.27C149.677 122.28 149.737 122.306 149.788 122.345C149.84 122.383 149.881 122.434 149.908 122.493C149.935 122.551 149.947 122.615 149.944 122.679Z"
            fill="#37474F" />
        <path d="M147.607 123L147.679 126.176L149.255 125.232L147.607 123Z" fill="#F28F8F" />
        <path
            d="M145.416 130.811C144.152 130.971 141.544 130.867 141.136 129.875C141.284 130.362 141.609 130.776 142.048 131.035C142.848 131.547 145.416 131.659 145.416 131.659V130.811Z"
            fill="#F28F8F" />
        <path d="M136.975 152.646L136.439 150.742L137.847 152.414L136.975 152.646Z" fill="#77CEFF" />
        <path
            d="M135.927 152.929C135.353 150.192 134.575 147.502 133.599 144.881C132.255 141.193 133.759 138.009 134.663 137.305C135.567 136.601 140.167 134.945 140.167 134.945C141.831 139.681 142.287 146.025 142.327 151.217L135.927 152.929Z"
            fill="#77CEFF" />
        <path opacity="0.4"
            d="M135.927 152.929C135.353 150.192 134.575 147.502 133.599 144.881C132.255 141.193 133.759 138.009 134.663 137.305C135.567 136.601 140.167 134.945 140.167 134.945C141.831 139.681 142.287 146.025 142.327 151.217L135.927 152.929Z"
            fill="black" />
        <path
            d="M133.656 153.537L129.088 154.761C128.96 154.675 128.839 154.578 128.728 154.473C128.728 154.473 130.888 146.137 131.576 143.369C132.264 140.601 132.792 138.697 134.648 137.305C137.984 139.473 136.44 145.497 136.44 145.497L133.656 153.537Z"
            fill="#77CEFF" />
        <path opacity="0.4"
            d="M133.656 153.537L129.088 154.761C128.96 154.675 128.839 154.578 128.728 154.473C128.728 154.473 130.888 146.137 131.576 143.369C132.264 140.601 132.792 138.697 134.648 137.305C137.984 139.473 136.44 145.497 136.44 145.497L133.656 153.537Z"
            fill="black" />
    </g>
    <path
        d="M67.1434 100.263V84.4151C67.0954 81.3431 69.0954 78.2631 73.1514 75.9271C81.1514 71.2951 94.1594 71.2951 102.175 75.9271C106.231 78.2631 108.231 81.3431 108.183 84.4151V100.207C108.183 103.263 106.215 108.727 102.175 111.055C94.1754 115.687 81.1674 115.687 73.1514 111.055C69.1514 108.751 67.1514 103.327 67.1434 100.295V100.263Z"
        fill="#EBEBEB" />
    <path d="M87.6638 64.75L121.528 84.302L87.6638 103.854L53.7998 84.302L87.6638 64.75Z" fill="#F5F5F5" />
    <path
        d="M70.7197 94.0685L87.3997 84.5486C87.4685 84.5092 87.5444 84.4837 87.6231 84.4736C87.7017 84.4636 87.7816 84.4691 87.8581 84.4899C87.9346 84.5107 88.0063 84.5464 88.069 84.5949C88.1318 84.6434 88.1843 84.7037 88.2237 84.7726C88.2631 84.8414 88.2886 84.9173 88.2986 84.9959C88.3087 85.0746 88.3032 85.1544 88.2824 85.2309C88.2616 85.3075 88.2259 85.3791 88.1774 85.4419C88.1289 85.5046 88.0685 85.5572 87.9997 85.5966L71.9117 94.7565L70.7197 94.0685Z"
        fill="#E0E0E0" />
    <path d="M121.528 84.3047V85.7047L87.6641 105.249V103.857L121.528 84.3047Z" fill="#E6E6E6" />
    <path d="M53.7998 84.3047V85.7047L87.6638 105.249V103.857L53.7998 84.3047Z" fill="#F0F0F0" />
    <path
        d="M69.8799 94.9821L70.9119 95.5741C71.0679 95.3193 71.2852 95.1076 71.5439 94.9581L71.9039 94.7501L70.7279 94.0781C70.3805 94.3115 70.0906 94.6206 69.8799 94.9821Z"
        fill="#E0E0E0" />
    <path d="M108.224 93.3828L87.6642 107.343L67.1602 93.4148L87.6642 105.247L108.224 93.3828Z" fill="#E0E0E0" />
    <path
        d="M68.5595 111.445C68.8465 111.593 69.1646 111.671 69.4875 111.671C69.8104 111.671 70.1286 111.593 70.4155 111.445L71.9435 121.309C71.9435 123.173 67.1035 123.173 67.1035 121.309L68.5595 111.445Z"
        fill="#F5F5F5" />
    <path d="M68.4719 117.078L68.1679 122.486C68.0681 122.456 67.9716 122.416 67.8799 122.366L68.4719 117.078Z"
        fill="#EBEBEB" />
    <path d="M70.7601 122.527L70.1201 113.727L71.0721 122.399C70.9707 122.447 70.8666 122.49 70.7601 122.527Z"
        fill="#EBEBEB" />
    <path d="M69.6722 122.703H69.3682L69.5282 115.719L69.6722 122.703Z" fill="#EBEBEB" />
    <path
        d="M69.4802 112.268C69.8348 112.259 70.1782 112.142 70.4642 111.932C70.5858 111.842 70.6684 111.709 70.6952 111.561C70.722 111.412 70.6908 111.259 70.6082 111.132C70.5209 111.007 70.3885 110.922 70.2391 110.894C70.0897 110.865 69.9351 110.896 69.8082 110.98C69.7321 111.054 69.6302 111.095 69.5242 111.095C69.4182 111.095 69.3163 111.054 69.2402 110.98C69.178 110.925 69.1049 110.883 69.0256 110.857C68.9464 110.832 68.8626 110.823 68.7798 110.831C68.6969 110.84 68.6167 110.865 68.5443 110.907C68.4719 110.948 68.4089 111.004 68.3593 111.071C68.3097 111.138 68.2745 111.214 68.2561 111.295C68.2377 111.377 68.2363 111.461 68.2522 111.543C68.2681 111.624 68.3009 111.702 68.3484 111.77C68.3959 111.839 68.4571 111.897 68.5282 111.94C68.8035 112.146 69.1364 112.261 69.4802 112.268Z"
        fill="#E0E0E0" />
    <path
        d="M69.5193 110.737C69.5977 110.738 69.6756 110.723 69.7483 110.694C69.8211 110.665 69.8873 110.621 69.9431 110.566C69.9989 110.511 70.0433 110.446 70.0735 110.373C70.1038 110.301 70.1193 110.223 70.1193 110.145V96.1608C70.1201 95.8464 70.2032 95.5377 70.3604 95.2654C70.5177 94.9931 70.7434 94.7667 71.0153 94.6088L87.9993 84.9288C88.1342 84.8516 88.2333 84.7244 88.2752 84.5747C88.3171 84.425 88.2985 84.2649 88.2233 84.1288C88.1858 84.0613 88.1353 84.0018 88.0747 83.9539C88.0141 83.906 87.9445 83.8706 87.8701 83.8498C87.7957 83.8289 87.7179 83.8231 87.6412 83.8325C87.5645 83.842 87.4904 83.8665 87.4233 83.9048L70.3993 93.6008C69.9455 93.8628 69.5685 94.2394 69.306 94.6929C69.0434 95.1464 68.9046 95.6608 68.9033 96.1848V110.169C68.9064 110.247 68.9248 110.323 68.9574 110.394C68.9901 110.464 69.0363 110.528 69.0935 110.581C69.1508 110.633 69.2178 110.674 69.2909 110.701C69.3639 110.728 69.4416 110.74 69.5193 110.737Z"
        fill="#FAFAFA" />
    <path
        d="M70.832 110.14C70.8336 109.88 70.758 109.626 70.6148 109.409C70.4716 109.192 70.2672 109.023 70.0276 108.922C69.788 108.822 69.524 108.795 69.269 108.845C69.0139 108.894 68.7794 109.019 68.5951 109.202C68.4108 109.385 68.2851 109.619 68.2338 109.873C68.1825 110.128 68.208 110.392 68.3071 110.633C68.4062 110.873 68.5743 111.078 68.7902 111.223C69.0062 111.367 69.2602 111.444 69.52 111.444C69.6919 111.445 69.8623 111.412 70.0215 111.347C70.1806 111.282 70.3253 111.186 70.4472 111.065C70.5692 110.944 70.6659 110.8 70.732 110.641C70.798 110.482 70.832 110.312 70.832 110.14Z"
        fill="#F5F5F5" />
    <path
        d="M68.2242 110.212C68.2788 110.347 68.362 110.469 68.4681 110.569C68.5741 110.67 68.7005 110.746 68.8387 110.793C68.9768 110.84 69.1235 110.857 69.2687 110.842C69.4139 110.827 69.5543 110.782 69.6802 110.708C69.8409 110.611 69.9738 110.474 70.0661 110.311C70.1583 110.148 70.2068 109.963 70.2068 109.776C70.2068 109.588 70.1583 109.404 70.0661 109.241C69.9738 109.077 69.8409 108.941 69.6802 108.844C69.9249 108.878 70.155 108.98 70.3437 109.14C70.5324 109.299 70.6719 109.509 70.746 109.745C70.82 109.98 70.8256 110.232 70.7621 110.471C70.6986 110.71 70.5685 110.925 70.3871 111.093C70.2057 111.261 69.9803 111.373 69.7373 111.418C69.4943 111.463 69.2437 111.437 69.0145 111.345C68.7854 111.253 68.5872 111.097 68.443 110.896C68.2988 110.696 68.2146 110.458 68.2002 110.212H68.2242Z"
        fill="#EBEBEB" />
    <path d="M301.287 102.428L295.104 98.8684L298.504 98.1484L301.887 100.508L301.287 102.428Z" fill="#E0E0E0" />
    <path
        d="M290.464 70.5613C290.464 60.9613 284.584 56.5053 277.36 60.6733L266.688 66.8333C259.488 71.0013 253.592 82.2333 253.592 91.8653C253.592 92.2573 253.592 92.6653 253.592 93.0093C253.592 93.2253 253.592 93.4093 253.592 93.6173C253.592 93.8253 253.632 93.9933 253.648 94.1773C253.664 94.3613 253.696 94.6013 253.728 94.8093C253.889 95.9461 254.173 97.062 254.576 98.1373C254.744 98.5373 254.92 98.9373 255.112 99.2733C255.201 99.4588 255.302 99.6379 255.416 99.8093L255.52 99.9773C255.698 100.264 255.904 100.532 256.136 100.777C256.264 100.921 256.384 101.073 256.52 101.209L256.936 101.609C257.08 101.721 257.216 101.857 257.368 101.969C257.511 102.085 257.664 102.189 257.824 102.281L258.296 102.553C258.907 102.883 259.57 103.108 260.256 103.217C260.308 103.204 260.363 103.204 260.416 103.217C260.6 103.217 260.768 103.257 260.952 103.257C261.146 103.273 261.341 103.273 261.536 103.257C262.05 103.263 262.563 103.206 263.064 103.089C263.363 103.03 263.66 102.955 263.952 102.865C264.887 102.579 265.784 102.181 266.624 101.681L277.296 95.5213C278.027 95.0966 278.728 94.6207 279.392 94.0973C279.392 93.9693 279.392 93.8573 279.392 93.7373C279.392 93.6173 279.392 93.3613 279.392 93.2173C279.392 92.8973 279.392 92.5693 279.392 92.2413C279.368 84.0573 284.296 74.4013 290.464 70.5613Z"
        fill="#E0E0E0" />
    <path
        d="M292.263 63.6383L286.063 60.0703C286.103 60.0703 286.695 64.3823 286.695 64.3823L291.295 64.9263L292.263 63.6383Z"
        fill="#E0E0E0" />
    <path d="M263.616 105.572L257.888 102.324L261.336 100.844L263.616 105.572Z" fill="#E0E0E0" />
    <path
        d="M266.688 101.775C266.647 104.146 265.885 106.448 264.504 108.375C264.248 108.711 264.64 109.007 264.928 108.855C266.235 108.177 267.394 107.244 268.336 106.111C270.145 103.973 271.411 101.429 272.024 98.6953L266.688 101.775Z"
        fill="#E0E0E0" />
    <path
        d="M264.567 108.838L270.767 112.406C270.767 112.406 274.247 109.47 274.247 103.526L267.519 103.07C267.519 103.07 267.359 106.942 264.567 108.838Z"
        fill="#E0E0E0" />
    <path
        d="M281.08 91.3512C281.08 91.6498 281.08 91.9378 281.08 92.2151C281.08 92.3751 281.08 92.5112 281.08 92.6632C281.08 92.8152 281.08 92.9432 281.128 93.0872C281.176 93.2311 281.128 93.4071 281.184 93.5672C281.277 94.2758 281.443 94.9729 281.68 95.6471C281.714 95.77 281.757 95.8903 281.808 96.0072C281.866 96.1679 281.933 96.3254 282.008 96.4791C282.07 96.6278 282.143 96.7721 282.224 96.9111C282.287 97.0505 282.362 97.1843 282.448 97.3111L282.528 97.4392C282.669 97.6595 282.824 97.8706 282.992 98.0711C283.079 98.1878 283.176 98.2974 283.28 98.3991L283.584 98.6952C283.688 98.7924 283.797 98.8833 283.912 98.9671C284.022 99.0518 284.137 99.1293 284.256 99.1992C284.376 99.2711 284.488 99.3432 284.616 99.4072L284.984 99.5832L285.368 99.7192C285.602 99.79 285.84 99.8488 286.08 99.8952H286.2C286.333 99.9073 286.467 99.9073 286.6 99.8952C286.744 99.9114 286.889 99.9114 287.032 99.8952C287.376 99.895 287.719 99.8602 288.056 99.7911C288.326 99.7454 288.593 99.6839 288.856 99.6072C289.558 99.3919 290.232 99.0938 290.864 98.7192L298.864 94.0952C299.578 93.6833 300.25 93.2038 300.872 92.6632C301.096 92.4712 301.32 92.2631 301.544 92.0551C301.947 91.6795 302.329 91.2815 302.688 90.8632L303.2 90.3992C303.336 90.2392 303.464 90.0711 303.6 89.9031C303.633 89.845 303.674 89.7913 303.72 89.7432C304.253 89.0388 304.744 88.3043 305.192 87.5431C305.312 87.3432 305.424 87.1352 305.544 86.9272C305.664 86.7192 305.776 86.5112 305.888 86.2952C306 86.0792 306.104 85.8631 306.216 85.6551L306.52 84.9992C306.624 84.7831 306.72 84.5512 306.816 84.3432C306.984 83.9592 307.136 83.5432 307.272 83.1752C307.272 83.1032 307.328 83.0311 307.352 82.9591C307.44 82.7351 307.512 82.5112 307.584 82.2872C307.728 81.8552 307.856 81.4232 307.984 80.9752C308.266 79.9237 308.477 78.8547 308.616 77.7752C308.616 77.5912 308.656 77.4152 308.68 77.2312C308.704 77.0472 308.68 76.9191 308.72 76.7591C308.76 76.5991 308.72 76.4392 308.72 76.2792C308.72 75.9805 308.72 75.6845 308.72 75.3912C308.72 68.1912 304.312 64.8232 298.888 67.9512L290.888 72.5832C285.488 75.6952 281.08 84.1192 281.08 91.3512Z"
        fill="#E0E0E0" />
    <path d="M311.608 71.0282L305.456 67.4922L303.136 69.1322L310.312 73.4762L311.608 71.0282Z" fill="#E0E0E0" />
    <path d="M290.488 102.758L284.304 99.198L289.152 97.75L290.488 102.758Z" fill="#E0E0E0" />
    <path
        d="M297.703 94.875C297.703 96.155 299.303 97.899 301.135 98.227C301.383 98.275 301.319 98.819 301.023 99.027C299.932 99.62 298.672 99.8285 297.447 99.619C296.652 99.5953 295.877 99.3605 295.203 98.9388C294.528 98.5171 293.977 97.9235 293.607 97.219L297.703 94.875Z"
        fill="#77CEFF" />
    <path
        d="M283.552 64.2336L272.872 70.4016C265.672 74.5696 259.784 85.8016 259.784 95.4256C259.784 95.8256 259.784 96.2256 259.784 96.5776C259.784 96.7936 259.784 96.9776 259.784 97.1856C259.784 97.3936 259.824 97.5536 259.848 97.7376C259.872 97.9216 259.896 98.1776 259.928 98.3776C260.073 99.5102 260.341 100.624 260.728 101.698C260.896 102.106 261.072 102.498 261.264 102.842C261.352 103.025 261.454 103.201 261.568 103.37C261.602 103.428 261.639 103.484 261.68 103.538C261.854 103.84 262.058 104.124 262.288 104.386C262.416 104.53 262.544 104.69 262.68 104.818L263.088 105.218C263.232 105.33 263.376 105.466 263.52 105.578C263.665 105.692 263.817 105.796 263.976 105.89L264.456 106.162C265.065 106.49 265.725 106.715 266.408 106.826C266.46 106.808 266.516 106.808 266.568 106.826C266.752 106.826 266.928 106.826 267.104 106.826C267.299 106.837 267.494 106.837 267.688 106.826C268.202 106.828 268.715 106.771 269.216 106.658C269.516 106.598 269.812 106.523 270.104 106.434C271.037 106.145 271.933 105.75 272.776 105.258C272.737 107.627 271.972 109.928 270.584 111.85C270.328 112.194 270.72 112.49 271.016 112.338C272.325 111.658 273.484 110.722 274.424 109.586C276.229 107.447 277.494 104.907 278.112 102.178L277.312 102.618L283.416 99.0976C284.007 98.7572 284.576 98.3805 285.12 97.9696C285.073 97.7665 285.038 97.5608 285.016 97.3536C285.016 97.2176 284.968 97.0176 284.952 96.8096C284.923 96.6322 284.904 96.4532 284.896 96.2736V96.1776C284.888 96.0444 284.888 95.9108 284.896 95.7776C284.896 95.4736 284.896 95.1536 284.896 94.8336C284.896 86.7376 289.696 77.6096 295.872 74.0336L296.552 73.6336C296.488 64.3776 290.672 60.1216 283.552 64.2336Z"
        fill="#F0F0F0" />
    <path
        d="M305.112 71.4958L297.112 76.1198C291.696 79.2558 287.28 87.6798 287.28 94.9118C287.28 95.2078 287.28 95.4958 287.28 95.7758C287.28 96.0558 287.28 96.0718 287.28 96.2238C287.28 96.3758 287.28 96.5038 287.32 96.6478C287.333 96.8061 287.355 96.9637 287.384 97.1198C287.472 97.8319 287.639 98.5322 287.88 99.2078C287.911 99.3317 287.954 99.4523 288.008 99.5678C288.062 99.7263 288.127 99.8813 288.2 100.032C288.264 100.182 288.336 100.329 288.416 100.472C288.482 100.611 288.56 100.745 288.648 100.872C288.667 100.917 288.691 100.96 288.72 101C288.872 101.224 289.024 101.432 289.184 101.632C289.277 101.747 289.376 101.856 289.48 101.96L289.784 102.256C289.888 102.353 289.997 102.444 290.112 102.528C290.218 102.614 290.33 102.692 290.448 102.76C290.568 102.832 290.68 102.904 290.808 102.968L291.176 103.144L291.56 103.28C291.794 103.351 292.032 103.409 292.272 103.456H292.392C292.525 103.468 292.659 103.468 292.792 103.456C292.938 103.476 293.086 103.476 293.232 103.456C293.576 103.458 293.919 103.426 294.256 103.36C294.526 103.313 294.793 103.252 295.056 103.176C295.76 102.964 296.434 102.665 297.064 102.288L299.768 100.736C300.143 101.433 300.696 102.018 301.371 102.433C302.045 102.847 302.817 103.076 303.608 103.096C304.834 103.302 306.093 103.091 307.184 102.496C307.472 102.312 307.544 101.768 307.288 101.696C305.456 101.368 303.864 99.6238 303.864 98.3438L305.08 97.6398C305.793 97.226 306.465 96.7466 307.088 96.2078C307.312 96.0158 307.536 95.8078 307.752 95.5998C308.158 95.2242 308.543 94.8263 308.904 94.4078C309.048 94.2398 309.192 94.0798 309.336 93.8878C309.48 93.6958 309.6 93.5678 309.736 93.3998L309.856 93.2398C310.389 92.5355 310.88 91.8009 311.328 91.0398L311.688 90.4238C311.808 90.2158 311.92 90.0078 312.032 89.7918C312.144 89.5758 312.24 89.3598 312.352 89.1518L312.664 88.4958C312.768 88.2718 312.856 88.0478 312.952 87.8398C313.12 87.4558 313.28 87.0398 313.416 86.6718L313.488 86.4558C313.576 86.2318 313.656 86.0078 313.72 85.7838C313.872 85.3438 313.992 84.9198 314.128 84.4718C314.41 83.4203 314.621 82.3513 314.76 81.2718C314.76 81.0878 314.8 80.9118 314.816 80.7278C314.832 80.5438 314.816 80.4078 314.856 80.2558C314.896 80.1038 314.856 79.9358 314.856 79.7758C314.856 79.4798 314.856 79.1758 314.856 78.8798C314.944 71.7038 310.528 68.3678 305.112 71.4958Z"
        fill="#F0F0F0" />
    <path
        d="M240.84 177.325C237.816 176.381 234.712 178.829 232.68 183.773C230.648 188.717 226.384 201.293 225.752 204.645C225.12 207.997 239.424 215.293 239.024 215.101C238.624 214.909 240.84 177.325 240.84 177.325Z"
        fill="#263238" />
    <path
        d="M234.192 293.688C233.76 293.848 233.656 294.664 233.592 296.28C233.544 297.504 233.28 299.64 234.712 300.064C236.144 300.488 238.248 300.272 239.168 299.12C240.312 297.68 241.088 296.416 242.72 294.656C244.144 293.136 245.672 291.712 246.248 289.576C246.768 287.64 246.336 286.808 245.016 286.248C243.208 285.448 240.36 287.992 238.944 288.392C237.72 288.736 234.616 293.528 234.192 293.688Z"
        fill="#263238" />
    <path
        d="M234.191 292.197V294.181C234.936 294.657 235.797 294.921 236.681 294.945C237.564 294.969 238.438 294.752 239.207 294.317C239.295 294.125 239.727 291.477 239.727 291.477L234.191 292.197Z"
        fill="#FFA8A7" />
    <path
        d="M250.264 305.133C250.264 305.133 249.696 306.861 249.392 308.333C249.144 309.533 248.8 311.533 249.216 312.445C249.632 313.357 251.28 313.933 253.816 313.909C255.464 313.909 258.032 315.021 259.784 315.997C261.536 316.973 265.384 317.413 267.296 317.189C269.552 316.925 271.896 315.589 272.264 314.677C272.632 313.765 272.144 312.765 266.816 310.493C266.768 310.493 259.408 308.093 256.824 305.237L250.264 305.133Z"
        fill="#263238" />
    <path
        d="M250.264 302.984C250.264 302.984 250.264 304.456 250.264 305.296C250.264 306.136 251.256 307.392 253.832 307.304C255.64 307.24 256.896 306.752 256.824 305.264V303.112L250.264 302.984Z"
        fill="#FFA8A7" />
    <path
        d="M232.895 265.851C233.338 262.335 234.123 258.87 235.239 255.507C235.239 255.507 234.535 246.587 234.191 238.131C233.823 228.995 234.191 217.507 234.039 215.235C234.039 215.235 263.519 209.267 264.047 219.827C264.575 230.387 262.879 257.267 262.535 261.907C262.191 266.547 261.383 270.651 260.423 278.171C259.463 285.691 256.823 303.115 256.823 303.115C255.804 303.634 254.672 303.895 253.527 303.872C252.383 303.85 251.262 303.546 250.263 302.987C250.263 302.987 248.191 281.867 248.407 276.515C248.576 272.539 249.259 268.603 250.439 264.803L249.391 248.523C248.895 240.947 248.375 237.323 248.255 234.019L247.623 233.699C247.623 233.699 246.975 246.771 246.631 251.411C246.287 256.051 245.543 260.499 244.231 269.115C243.063 276.587 239.599 292.403 239.599 292.403C236.231 294.227 234.223 292.171 234.223 292.171C234.223 292.171 231.999 272.331 232.895 265.851Z"
        fill="#455A64" />
    <path
        d="M248.255 234.04C248.255 234.04 241.103 230.512 237.527 227.336C237.527 227.336 240.847 232.016 245.215 234.096C245.215 234.096 246.767 250.328 246.759 250.008L247.655 234.008L248.255 234.04Z"
        fill="#37474F" />
    <path d="M254.624 173.975L252.88 183.575L244.208 182.943L246.024 172.055L254.624 173.975Z" fill="#FFA8A7" />
    <path
        d="M235.048 182.245C235.904 179.637 239.216 176.797 242.528 177.445C247.454 178.278 252.308 179.49 257.048 181.069C260.08 182.149 262.84 184.773 263.096 194.757L264.632 224.485L260.96 225.285L259.68 218.549L259.088 225.285C255.248 226.245 248.584 225.453 244.208 224.485C235.088 222.493 233.992 218.709 233.992 218.709C233.992 218.709 233.872 201.981 234.144 194.757C234.4 188.581 234.456 184.005 235.048 182.245Z"
        fill="#37474F" />
    <path
        d="M261.04 162.602C261.04 162.602 263.144 165.714 262.872 166.042C262.386 166.369 261.843 166.605 261.272 166.738L261.04 162.602Z"
        fill="#FFA8A7" />
    <path
        d="M254.623 152.745C256.647 153.769 260.143 155.657 261.103 163.057C262.095 170.657 260.791 173.105 259.767 174.113C259.071 174.793 255.295 174.833 253.407 174.265C251.007 173.553 245.711 171.529 243.279 167.625C240.415 163.033 239.775 156.881 243.007 154.433C247.543 150.993 252.911 151.881 254.623 152.745Z"
        fill="#FFA8A7" />
    <path
        d="M261.528 155.29C260.864 157.114 259.744 161.578 255.088 163.442C255.088 163.442 254.424 160.594 252.032 160.898C249.64 161.202 249.232 164.25 250.704 166.146C252.176 168.042 253.6 167.354 253.6 167.354C253.6 167.354 253.92 171.434 251.2 173.282C251.2 173.282 247.912 175.362 244.432 173.762C242.832 173.042 240.648 169.29 239.352 166.21C236.6 159.698 236.208 154.474 240.36 152.826C240.872 149.866 242.208 148.754 244.888 148.202C250.656 147.01 255.016 150.802 259.864 150.138C262.4 149.786 262.288 153.21 261.528 155.29Z"
        fill="#37474F" />
    <path
        d="M240.264 153.819L237.544 152.139C237.649 151.951 237.792 151.786 237.963 151.654C238.134 151.522 238.33 151.426 238.539 151.372C238.748 151.317 238.966 151.306 239.179 151.338C239.393 151.37 239.597 151.446 239.781 151.559C239.965 151.673 240.124 151.822 240.248 151.999C240.373 152.175 240.46 152.375 240.505 152.586C240.55 152.797 240.552 153.015 240.511 153.227C240.469 153.439 240.385 153.641 240.264 153.819Z"
        fill="#37474F" />
    <path
        d="M253.984 177.47L254.976 180.342C254.976 180.342 254.248 181.622 251.152 181.686C248.056 181.75 244.752 180.766 243.728 179.446C243.494 179.187 243.322 178.88 243.222 178.547C243.122 178.213 243.098 177.862 243.152 177.518C243.152 177.518 244.384 174.798 245.552 174.918L245.36 176.102C245.36 176.102 245.624 177.07 248.432 177.814C252.8 178.974 253.984 177.47 253.984 177.47Z"
        fill="#455A64" />
    <path
        d="M278.864 196.561C280.112 195.129 280.592 191.953 282.256 189.777C283.92 187.601 284.536 186.009 285.192 186.961C286.064 188.217 284.096 190.737 284.536 190.961C284.976 191.185 286.6 194.529 286.768 196.369C286.936 198.209 282.056 202.849 282.056 202.849L278.864 196.561Z"
        fill="#FFA8A7" />
    <path
        d="M253.983 177.477C254.185 177.473 254.383 177.524 254.558 177.624C254.733 177.724 254.877 177.869 254.975 178.045C255.465 178.928 255.903 179.839 256.287 180.773L254.975 180.349L253.983 177.477Z"
        fill="#455A64" />
    <path
        d="M284.399 190.704C284.399 190.704 290.295 190.192 291.151 190.704C292.007 191.216 291.751 193.768 291.151 195.336C290.551 196.904 287.543 197.92 284.751 199.808C284.751 199.52 284.399 190.704 284.399 190.704Z"
        fill="#FFA8A7" />
    <path
        d="M256.288 180.805C258.824 181.693 261.04 182.709 263.408 187.157C266.448 192.869 272.208 202.005 272.208 202.005L278.84 196.157C278.84 196.157 279.84 195.189 281.704 198.269C282.25 199.098 282.596 200.043 282.714 201.028C282.832 202.014 282.719 203.014 282.384 203.949C282.384 203.949 274.728 212.933 273.264 214.301C271.8 215.669 269.376 214.605 267.8 212.453C266.224 210.301 256.264 197.861 256.264 197.861C256.264 197.861 250.856 190.677 256.288 180.805Z"
        fill="#37474F" />
    <path
        d="M324.696 165.867H305.808C305.095 165.867 304.411 165.584 303.907 165.08C303.403 164.576 303.12 163.892 303.12 163.179V133.171C303.12 130.81 304.058 128.545 305.728 126.875C307.398 125.205 309.662 124.267 312.024 124.267H318.504C320.861 124.274 323.12 125.214 324.784 126.884C326.449 128.553 327.384 130.814 327.384 133.171V163.179C327.384 163.892 327.101 164.576 326.596 165.08C326.092 165.584 325.409 165.867 324.696 165.867Z"
        fill="#37474F" />
    <path
        d="M302.624 155.625C300.792 161.025 297.72 176.561 297.72 176.561C297.72 176.561 291.32 184.385 289.232 186.281C288.088 187.337 285.512 189.233 285.512 189.233L290.192 192.673C294.417 189.423 298.386 185.852 302.064 181.993C302.882 181.122 303.456 180.052 303.728 178.889L306.928 165.161C306.928 165.161 306.928 154.121 308.616 152.673C310.304 151.225 310.792 150.921 310.792 150.921C308.624 150.761 304.064 151.377 302.624 155.625Z"
        fill="#F28F8F" />
    <path
        d="M311.791 150.763C308.807 150.419 304.983 150.483 303.119 153.819C301.255 157.155 298.151 174.403 298.151 174.403C298.151 174.403 301.087 176.683 304.255 176.643L311.791 150.763Z"
        fill="#77CEFF" />
    <path
        d="M303.496 166.836C304.033 169.407 304.24 172.036 304.112 174.66C303.88 178.116 301.496 184.148 301.496 184.148C301.496 184.148 303.36 186.196 308.616 185.372C312.896 184.708 311.384 171.772 308.928 169.292C307.496 167.812 305.553 166.934 303.496 166.836Z"
        fill="#77CEFF" />
    <path opacity="0.3"
        d="M303.496 166.836C304.033 169.407 304.24 172.036 304.112 174.66C303.88 178.116 301.496 184.148 301.496 184.148C301.496 184.148 303.36 186.196 308.616 185.372C312.896 184.708 311.384 171.772 308.928 169.292C307.496 167.812 305.553 166.934 303.496 166.836Z"
        fill="black" />
    <path
        d="M313.384 258.191C313.418 258.781 313.27 259.367 312.96 259.871C312.169 261.178 311.238 262.396 310.184 263.503C308.704 265.103 306.488 266.983 304.896 268.367C304.016 269.167 303.984 270.303 305.248 270.711C307.604 271.284 310.09 270.938 312.2 269.743C313.8 268.895 316.024 264.943 317.336 264.383C318.848 263.703 319.688 263.367 320.2 262.671C320.587 262.275 320.829 261.76 320.886 261.209C320.942 260.658 320.811 260.105 320.512 259.639C319.8 258.311 318.728 256.271 318.288 256.503L318.424 256.919C318.08 257.999 315.136 259.255 313.624 258.959L313.384 258.191Z"
        fill="#37474F" />
    <path
        d="M328.8 213.055C329.48 205.855 331.432 194.271 329.432 185.695L302.872 187.103C302.136 195.559 301.272 221.959 302.2 224.983C303.272 228.551 312.848 253.247 313.4 258.215C313.438 258.798 313.289 259.378 312.976 259.871C312.185 261.182 311.254 262.402 310.2 263.511C309.48 264.311 308.6 265.111 307.672 265.911C307.594 266.025 307.547 266.158 307.536 266.295C307.536 267.095 309.552 267.343 310.736 266.999C312.212 266.478 313.484 265.5 314.367 264.207C315.047 263.303 316.575 261.567 317.567 260.263C317.899 259.861 318.181 259.42 318.408 258.951C318.672 258.365 318.718 257.704 318.536 257.087L318.472 256.887C317.952 255.268 317.63 253.592 317.512 251.895C317.144 246.447 316.208 233.863 315.344 230.511C314.744 228.069 313.832 225.713 312.632 223.503L315.663 199.911C315.663 199.911 315.984 220.711 316.928 226.015C317.672 230.263 317.96 235.575 318.832 242.863C319.632 249.839 320.56 262.127 320.56 262.127C320.583 262.132 320.608 262.132 320.632 262.127V267.999H325.6V264.591C325.6 263.053 325.728 261.517 325.984 259.999C326.784 255.359 328.447 244.743 328.791 241.151C329.335 235.455 327.28 228.295 327.28 228.295C327.28 228.295 328.136 220.079 328.8 213.055Z"
        fill="#FFA8A7" />
    <path
        d="M319.44 151.013C319.44 151.013 326.584 151.813 327.44 152.221C320.736 156.933 326.168 167.421 326.168 167.421L323.6 175.477C326.456 179.133 328.92 181.309 330.448 185.317C332.144 189.797 333.648 196.461 333.248 210.117C326.848 214.917 307.376 214.397 299.792 210.117C299.792 210.117 301.072 198.061 302.584 188.693C303.584 182.509 305.944 175.773 305.544 173.493C302.536 164.245 302.344 162.581 302.888 160.517C304.384 154.709 310.304 150.781 311.76 150.781L319.44 151.013Z"
        fill="#77CEFF" />
    <path opacity="0.6"
        d="M319.44 151.013C319.44 151.013 326.584 151.813 327.44 152.221C320.736 156.933 326.168 167.421 326.168 167.421L323.6 175.477C326.456 179.133 328.92 181.309 330.448 185.317C332.144 189.797 333.648 196.461 333.248 210.117C326.848 214.917 307.376 214.397 299.792 210.117C299.792 210.117 301.072 198.061 302.584 188.693C303.584 182.509 305.944 175.773 305.544 173.493C302.536 164.245 302.344 162.581 302.888 160.517C304.384 154.709 310.304 150.781 311.76 150.781L319.44 151.013Z"
        fill="white" />
    <path
        d="M320.584 265.513V264.801C319.96 267.194 318.712 269.377 316.968 271.129C315.368 272.577 313.208 274.257 312.648 275.881C312.088 277.505 315.216 278.233 317.28 278.025C319.28 277.781 321.123 276.817 322.464 275.313C323.776 273.809 323.752 272.785 324.36 271.953C324.968 271.121 326.384 270.209 326.712 269.249C326.814 268.354 326.716 267.446 326.424 266.593C326.192 265.705 325.936 264.721 325.624 264.801V265.353C324.904 265.92 324.012 266.222 323.096 266.209C322.4 266.225 320.576 266.073 320.584 265.513Z"
        fill="#37474F" />
    <path
        d="M325.6 265.341C324.88 265.907 323.988 266.209 323.072 266.197C322.336 266.197 320.544 266.077 320.552 265.517V264.805C319.928 267.197 318.68 269.381 316.936 271.133L315.728 272.213C314.88 273.157 315.12 273.981 317.112 274.149C319.104 274.317 320.856 273.117 322.36 271.269C323.642 269.41 324.728 267.424 325.6 265.341Z"
        fill="#FFA8A7" />
    <path
        d="M307.104 129.172C305.824 129.932 304.24 133.172 304.392 139.908C304.528 145.636 306.384 147.052 307.32 147.46C308.256 147.868 310.048 147.62 311.792 147.332V150.764C311.792 150.764 309.392 153.572 309.528 155.148C309.664 156.724 313.016 157.092 315.28 155.556C316.915 154.288 318.321 152.752 319.44 151.012L319.4 143.116C319.4 143.116 320.432 144.108 322.176 142.588C323.616 141.332 324.096 139.204 322.976 138.068C322.685 137.794 322.333 137.595 321.949 137.485C321.566 137.375 321.161 137.359 320.77 137.437C320.378 137.515 320.011 137.686 319.699 137.935C319.387 138.184 319.139 138.504 318.976 138.868C318.976 138.868 318.008 136.172 313.984 134.868C310.352 133.66 308.376 132.292 307.104 129.172Z"
        fill="#FFA8A7" />
    <path
        d="M310.792 138.47C310.792 138.611 310.834 138.749 310.911 138.867C310.989 138.984 311.1 139.076 311.23 139.132C311.359 139.187 311.502 139.203 311.641 139.178C311.78 139.153 311.908 139.087 312.01 138.99C312.112 138.892 312.183 138.767 312.214 138.629C312.245 138.492 312.236 138.348 312.186 138.216C312.136 138.084 312.049 137.97 311.935 137.887C311.821 137.804 311.685 137.756 311.544 137.75C311.447 137.748 311.351 137.765 311.261 137.8C311.171 137.835 311.089 137.888 311.019 137.954C310.949 138.021 310.893 138.101 310.854 138.19C310.815 138.278 310.794 138.374 310.792 138.47Z"
        fill="#37474F" />
    <path
        d="M310.6 143.32L308.928 143.856C308.957 143.968 309.009 144.072 309.08 144.164C309.15 144.255 309.239 144.331 309.34 144.387C309.441 144.443 309.552 144.478 309.667 144.49C309.781 144.502 309.897 144.49 310.008 144.456C310.234 144.379 310.421 144.218 310.531 144.007C310.641 143.795 310.666 143.549 310.6 143.32Z"
        fill="#F28F8F" />
    <path
        d="M304.888 136.254L306.344 135.246C306.282 135.148 306.201 135.063 306.106 134.996C306.01 134.93 305.903 134.884 305.789 134.861C305.675 134.838 305.558 134.838 305.444 134.862C305.33 134.885 305.223 134.932 305.128 134.998C304.932 135.135 304.798 135.343 304.754 135.577C304.709 135.812 304.757 136.054 304.888 136.254Z"
        fill="#37474F" />
    <path
        d="M312.888 136.803L311.424 135.795C311.485 135.697 311.566 135.612 311.661 135.546C311.757 135.48 311.864 135.433 311.978 135.409C312.091 135.385 312.208 135.384 312.322 135.407C312.436 135.429 312.544 135.474 312.64 135.539C312.834 135.679 312.967 135.888 313.013 136.122C313.059 136.357 313.014 136.6 312.888 136.803Z"
        fill="#37474F" />
    <path
        d="M305.224 137.947C305.222 138.088 305.262 138.227 305.339 138.345C305.416 138.464 305.526 138.557 305.656 138.614C305.785 138.67 305.929 138.687 306.068 138.663C306.207 138.639 306.336 138.574 306.439 138.477C306.541 138.38 306.613 138.254 306.645 138.117C306.677 137.979 306.668 137.835 306.618 137.702C306.569 137.57 306.482 137.455 306.367 137.372C306.253 137.289 306.117 137.241 305.976 137.235C305.782 137.23 305.594 137.303 305.453 137.436C305.312 137.569 305.23 137.753 305.224 137.947Z"
        fill="#37474F" />
    <path d="M308.616 137.539L308.504 141.875L306.224 141.171L308.616 137.539Z" fill="#F28F8F" />
    <path
        d="M311.792 147.332C313.632 147.084 317.392 145.996 318.016 144.5C317.779 145.258 317.315 145.925 316.688 146.412C315.552 147.38 311.792 148.476 311.792 148.476V147.332Z"
        fill="#F28F8F" />
    <path d="M324.84 171.078L319.792 177.91L323.6 175.47L324.84 171.078Z" fill="#77CEFF" />
    <path
        d="M285.072 189.233C283.992 190.625 283.328 193.329 282.76 194.241C282.192 195.153 281.512 195.945 282.76 196.113C284.008 196.281 285.832 193.841 286.512 192.361C286.856 191.527 287.506 190.854 288.328 190.481C287.744 190.281 288.048 187.937 287.64 187.609C287.64 187.609 285.512 188.481 285.072 189.233Z"
        fill="#F28F8F" />
    <path
        d="M284.752 199.79C285.88 198.95 285.92 197.918 286.136 196.278C286.352 194.638 290.872 192.862 291.016 194.086C291.16 195.31 291.568 196.334 290.216 197.822C288.864 199.31 286.816 200.894 284.752 199.79Z"
        fill="#F28F8F" />
    <path
        d="M319.44 151.008C319.44 151.008 326.128 151.592 327.44 152.216C328.752 152.84 330.936 156.616 328.984 162.096C327.032 167.576 325.256 174.024 325.456 175.32C325.656 176.616 330.32 183.32 330.32 183.32C329.033 184.27 327.579 184.967 326.032 185.376L323.632 180.16L324.192 185.704C321.782 186.29 319.305 186.559 316.824 186.504C316.824 186.504 314.56 165.208 319.44 151.008Z"
        fill="#77CEFF" />
    <path
        d="M335.92 177.131C336.456 173.979 335.92 172.947 334.816 169.859L329.216 173.483C329.675 174.649 329.945 175.881 330.016 177.131C329.968 178.043 328.728 187.083 327.568 190.235C327.359 190.796 326.948 191.258 326.416 191.531C325.262 192.236 324.217 193.103 323.312 194.107C322.456 194.907 321.768 195.051 321.856 195.323C321.988 195.618 322.224 195.854 322.52 195.985C322.815 196.117 323.148 196.135 323.456 196.035C324.153 195.809 324.821 195.503 325.448 195.123C324.892 196.3 324.152 197.38 323.256 198.323C321.2 200.515 321.016 201.939 324.856 202.235C327.256 202.419 329.264 201.075 331.432 195.915C332.104 194.024 332.657 192.092 333.088 190.131C334.256 185.659 335.392 180.307 335.92 177.131Z"
        fill="#FFA8A7" />
    <path
        d="M327.44 152.219C330.136 153.427 330.904 155.811 331.904 159.315C332.904 162.819 336.04 173.331 336.04 173.331C336.04 173.331 333.352 176.531 329.64 175.635L324.84 163.979C324.84 163.979 322.6 156.371 327.44 152.219Z"
        fill="#77CEFF" />
</svg>