<svg width="24" height="26" viewBox="0 0 24 26" fill="none" xmlns="http://www.w3.org/2000/svg">
    <path
        d="M12.0239 11.2216C13.4476 11.2216 14.5956 10.0735 14.5956 8.64987C14.5956 7.22628 13.4566 6.07812 12.0239 6.07812C10.6002 6.07812 9.45212 7.22628 9.45212 8.64987C9.46121 10.0827 10.6094 11.2216 12.0239 11.2216ZM6.05368 18.6706H1.43368C-0.0634161 18.6706 -0.146104 16.3836 1.46124 16.3836H5.46577L7.76199 13.0035C8.44168 12.0759 9.21324 11.635 10.3062 11.635H13.7322C14.8252 11.635 15.5967 12.0391 16.2764 13.0035L18.5818 16.3836H22.614C24.2305 16.3836 24.1294 18.6706 22.6691 18.6706H18.0491C17.6817 18.6706 17.2408 18.542 16.9836 18.1471L15.2201 15.6305L15.2109 21.9313H8.89177L8.88258 15.6305L7.11905 18.1471C6.8619 18.5328 6.42108 18.6706 6.05368 18.6706Z"
        fill="#67C380" />
    <path
        d="M20.9751 15.6133C22.5368 15.6133 23.813 14.3455 23.813 12.7754C23.813 11.2053 22.5451 9.9375 20.9751 9.9375C19.405 9.9375 18.1455 11.2137 18.1455 12.7838C18.1455 14.3455 19.4133 15.6133 20.9751 15.6133ZM20.8183 13.0161C20.2977 12.8342 19.9731 12.571 19.9731 12.1037C19.9731 11.6727 20.2585 11.334 20.7819 11.2277V10.7603H21.1737V11.2053C21.4984 11.2053 21.7335 11.2724 21.907 11.3648L21.7475 11.9246C21.6188 11.8715 21.4089 11.7818 21.1206 11.7818C20.8323 11.7818 20.6755 11.9246 20.6755 12.0673C20.6755 12.2632 20.8574 12.3388 21.2493 12.4983C21.7839 12.6942 22.0329 12.9657 22.0329 13.4107C22.0329 13.8556 21.7614 14.1943 21.1877 14.323V14.7681H20.7959V14.3371C20.4573 14.3371 20.1159 14.2476 19.9507 14.1552L20.0934 13.5815C20.2753 13.671 20.5609 13.7774 20.8631 13.7774C21.1878 13.7774 21.3474 13.6346 21.3474 13.4388C21.3474 13.2429 21.1933 13.1617 20.8183 13.0161Z"
        fill="#67C380" />
    <path
        d="M5.10636 12.9967C5.72858 12.4496 5.80611 11.4964 5.25664 10.8624C4.70952 10.2402 3.75627 10.1627 3.12233 10.7121L2.90624 10.9L2.69024 10.7121C2.06802 10.165 1.10296 10.2402 0.555925 10.8624C0.00645667 11.487 0.0838942 12.4497 0.706113 12.9967L2.87099 15.2156L5.10636 12.9967Z"
        fill="#67C380" />
</svg>