<svg width="24" height="26" viewBox="0 0 24 26" fill="none" xmlns="http://www.w3.org/2000/svg">
    <path d="M24 24.3594H0V24.7344H24V24.3594Z" fill="#2B6997" />
    <path d="M5.28223 20.145V22.9927H8.96777V19.25C7.77171 19.6133 6.5427 19.9165 5.28223 20.145Z" fill="#2B6997" />
    <path d="M0.407227 20.6504V22.9875H4.09277V20.3281C2.8872 20.501 1.65743 20.6094 0.407227 20.6504Z"
        fill="#2B6997" />
    <path d="M10.1455 18.8618V22.989H13.8545V17.3047C12.6672 17.8957 11.4287 18.4165 10.1455 18.8618Z" fill="#2B6997" />
    <path d="M15.0146 16.6931V22.9868H18.7354V14.2578C17.5722 15.1513 16.3286 15.9658 15.0146 16.6931Z"
        fill="#2B6997" />
    <path d="M19.8867 13.3306V22.9912H23.6133V9.45312C22.5183 10.8513 21.2681 12.1492 19.8867 13.3306Z"
        fill="#2B6997" />
    <path
        d="M19.363 4.70558L20.6594 5.79177C16.5447 10.926 8.6902 17.4292 0 18.3967V19.4346C8.61914 19.1299 17.8645 13.2259 22.6663 7.47341L24 8.59034V3.26562L19.363 4.70558Z"
        fill="#2B6997" />
</svg>