<svg width="24" height="26" viewBox="0 0 24 26" fill="none" xmlns="http://www.w3.org/2000/svg">
    <path fill-rule="evenodd" clip-rule="evenodd"
        d="M12.052 3.25H11.948C11.0495 3.24997 10.3003 3.24995 9.70552 3.32991C9.07773 3.41432 8.51093 3.59999 8.05546 4.05546C7.59999 4.51093 7.41432 5.07773 7.32991 5.70552C7.27259 6.13189 7.25637 7.15147 7.25179 8.02566C5.22954 8.09171 4.01536 8.32778 3.17157 9.17157C2 10.3431 2 12.2288 2 16C2 19.7712 2 21.6569 3.17157 22.8284C4.34314 24 6.22876 24 9.99998 24H14C17.7712 24 19.6569 24 20.8284 22.8284C22 21.6569 22 19.7712 22 16C22 12.2288 22 10.3431 20.8284 9.17157C19.9846 8.32778 18.7705 8.09171 16.7482 8.02566C16.7436 7.15147 16.7274 6.13189 16.6701 5.70552C16.5857 5.07773 16.4 4.51093 15.9445 4.05546C15.4891 3.59999 14.9223 3.41432 14.2945 3.32991C13.6997 3.24995 12.9505 3.24997 12.052 3.25ZM15.2479 8.00188C15.2434 7.15523 15.229 6.24407 15.1835 5.9054C15.1214 5.44393 15.0142 5.24644 14.8839 5.11612C14.7536 4.9858 14.5561 4.87858 14.0946 4.81654C13.6116 4.7516 12.964 4.75 12 4.75C11.036 4.75 10.3884 4.7516 9.90539 4.81654C9.44393 4.87858 9.24644 4.9858 9.11612 5.11612C8.9858 5.24644 8.87858 5.44393 8.81654 5.9054C8.771 6.24407 8.75661 7.15523 8.75208 8.00188C9.1435 8 9.55885 8 10 8H14C14.4412 8 14.8565 8 15.2479 8.00188ZM12 11.25C12.4142 11.25 12.75 11.5858 12.75 12V12.0102C13.8388 12.2845 14.75 13.143 14.75 14.3333C14.75 14.7475 14.4142 15.0833 14 15.0833C13.5858 15.0833 13.25 14.7475 13.25 14.3333C13.25 13.9493 12.8242 13.4167 12 13.4167C11.1758 13.4167 10.75 13.9493 10.75 14.3333C10.75 14.7174 11.1758 15.25 12 15.25C13.3849 15.25 14.75 16.2098 14.75 17.6667C14.75 18.857 13.8388 19.7155 12.75 19.9898V20C12.75 20.4142 12.4142 20.75 12 20.75C11.5858 20.75 11.25 20.4142 11.25 20V19.9898C10.1612 19.7155 9.25 18.857 9.25 17.6667C9.25 17.2525 9.58579 16.9167 10 16.9167C10.4142 16.9167 10.75 17.2525 10.75 17.6667C10.75 18.0507 11.1758 18.5833 12 18.5833C12.8242 18.5833 13.25 18.0507 13.25 17.6667C13.25 17.2826 12.8242 16.75 12 16.75C10.6151 16.75 9.25 15.7903 9.25 14.3333C9.25 13.143 10.1612 12.2845 11.25 12.0102V12C11.25 11.5858 11.5858 11.25 12 11.25Z"
        fill="#E1C16D" />
</svg>