<svg width="400" height="400" viewBox="0 0 400 400" fill="none" xmlns="http://www.w3.org/2000/svg">
    <path
        d="M325.864 319.075C255.928 359.251 142.544 359.251 72.6082 319.075C2.67218 278.899 2.68018 213.771 72.6082 173.603C142.536 133.435 255.936 133.435 325.864 173.603C395.792 213.771 395.8 278.907 325.864 319.075Z"
        fill="#FAFAFA" />
    <path
        d="M219.664 246.337C204.968 237.857 181.144 237.857 166.448 246.337C153.992 253.537 152.104 264.505 160.76 272.857C160.271 272.984 159.8 273.175 159.36 273.425L112.96 300.225C110.992 301.361 110.992 303.209 112.96 304.345L115.872 306.025C116.965 306.58 118.18 306.853 119.405 306.818C120.631 306.783 121.828 306.442 122.888 305.825L166.088 277.529C166.264 277.413 166.43 277.282 166.584 277.137C181.288 285.545 204.984 285.521 219.656 277.065C234.328 268.609 234.4 254.825 219.664 246.337Z"
        fill="#E6E6E6" />
    <path
        d="M322.96 215.479L263.824 249.695C263.087 250.07 262.271 250.265 261.444 250.265C260.617 250.265 259.801 250.07 259.064 249.695L156.192 190.295C154.88 189.543 154.88 188.311 156.192 187.551L215.328 153.335C216.065 152.961 216.881 152.766 217.708 152.766C218.535 152.766 219.351 152.961 220.088 153.335L322.96 212.735C324.272 213.487 324.272 214.719 322.96 215.479Z"
        fill="#E6E6E6" />
    <path
        d="M59.624 280.188L43.808 271.052C41.896 269.948 41.896 268.156 43.808 267.052L153.864 203.508C154.938 202.964 156.124 202.68 157.328 202.68C158.532 202.68 159.719 202.964 160.792 203.508L176.616 212.644C178.528 213.748 178.528 215.54 176.616 216.644L66.552 280.188C65.4785 280.733 64.2918 281.017 63.088 281.017C61.8843 281.017 60.6975 280.733 59.624 280.188Z"
        fill="#E6E6E6" />
    <path
        d="M323.12 298.35C339.26 298.35 352.344 291.201 352.344 282.382C352.344 273.563 339.26 266.414 323.12 266.414C306.981 266.414 293.896 273.563 293.896 282.382C293.896 291.201 306.981 298.35 323.12 298.35Z"
        fill="#E6E6E6" />
    <path
        d="M335.912 266.53C336.192 262.986 339.344 255.858 343.392 251.554C347.44 247.25 353.48 244.354 357.472 246.09C361.192 247.69 360.376 252.69 355.464 255.634C350.552 258.578 343.256 262.202 340.752 267.778L335.912 274.482V266.53Z"
        fill="#77CEFF" />
    <path opacity="0.1"
        d="M335.912 266.53C336.192 262.986 339.344 255.858 343.392 251.554C347.44 247.25 353.48 244.354 357.472 246.09C361.192 247.69 360.376 252.69 355.464 255.634C350.552 258.578 343.256 262.202 340.752 267.778L335.912 274.482V266.53Z"
        fill="black" />
    <path
        d="M335.256 271.355C335.314 271.355 335.37 271.337 335.417 271.302C335.463 271.267 335.497 271.218 335.512 271.163C338.856 259.267 349.424 250.227 355.448 248.531C355.508 248.506 355.556 248.46 355.584 248.402C355.612 248.343 355.617 248.277 355.6 248.215C355.582 248.153 355.542 248.099 355.488 248.065C355.433 248.03 355.368 248.017 355.304 248.027C349.168 249.763 338.4 258.947 335.008 271.027C334.999 271.06 334.996 271.095 335 271.129C335.004 271.163 335.015 271.196 335.032 271.226C335.049 271.256 335.072 271.282 335.1 271.303C335.127 271.323 335.159 271.338 335.192 271.347L335.256 271.355Z"
        fill="white" />
    <path
        d="M336.44 279.203C337.168 277.259 339.864 274.171 344.016 271.771C348.608 269.123 354.224 268.187 355.68 265.947C357.432 263.267 355.28 260.427 350.76 260.619C346.24 260.811 337.904 266.275 335.912 275.355L336.44 279.203Z"
        fill="#77CEFF" />
    <path
        d="M335.744 277.076C335.794 277.077 335.842 277.062 335.884 277.035C335.925 277.008 335.957 276.969 335.976 276.924C340.52 266.868 348.712 263.868 352.408 263.684C352.476 263.684 352.541 263.657 352.589 263.609C352.637 263.561 352.664 263.496 352.664 263.428C352.664 263.36 352.637 263.295 352.589 263.247C352.541 263.199 352.476 263.172 352.408 263.172C348.32 263.372 340.168 266.444 335.528 276.708C335.514 276.739 335.506 276.773 335.505 276.808C335.504 276.842 335.51 276.877 335.523 276.909C335.536 276.941 335.555 276.97 335.579 276.995C335.603 277.019 335.632 277.039 335.664 277.052C335.689 277.065 335.716 277.073 335.744 277.076Z"
        fill="white" />
    <path
        d="M45.1119 246.774C45.1119 246.774 44.3119 239.422 40.6159 233.71C36.9199 227.998 31.9279 224.446 27.2399 224.07C22.5519 223.694 18.7679 228.014 23.7839 230.982C28.7999 233.95 37.7119 236.966 41.8159 248.046L45.1119 246.774Z"
        fill="#77CEFF" />
    <path opacity="0.1"
        d="M45.1119 246.774C45.1119 246.774 44.3119 239.422 40.6159 233.71C36.9199 227.998 31.9279 224.446 27.2399 224.07C22.5519 223.694 18.7679 228.014 23.7839 230.982C28.7999 233.95 37.7119 236.966 41.8159 248.046L45.1119 246.774Z"
        fill="black" />
    <path
        d="M43.7362 244.859H43.7842C43.815 244.847 43.8429 244.829 43.8665 244.805C43.89 244.782 43.9087 244.754 43.9214 244.724C43.9341 244.693 43.9405 244.661 43.9403 244.627C43.9401 244.594 43.9333 244.562 43.9202 244.531C38.9763 232.339 29.5202 227.251 25.2642 226.259C25.2019 226.253 25.1393 226.269 25.0883 226.306C25.0373 226.342 25.0015 226.396 24.9877 226.457C24.9739 226.519 24.983 226.583 25.0134 226.638C25.0437 226.693 25.0931 226.734 25.1522 226.755C29.3522 227.715 38.5842 232.723 43.4562 244.715C43.4802 244.767 43.5208 244.809 43.5715 244.835C43.6222 244.861 43.6802 244.87 43.7362 244.859Z"
        fill="white" />
    <path
        d="M21.2401 244.797C21.6961 245.821 22.8401 246.349 23.8401 246.765C24.9206 247.057 25.8741 247.698 26.5521 248.589C27.6801 250.533 25.8321 253.269 27.0401 255.157C27.3235 255.539 27.683 255.859 28.096 256.096C28.5091 256.333 28.9667 256.481 29.4401 256.533C30.2145 256.645 30.9942 256.717 31.7761 256.749C32.1481 256.739 32.5193 256.71 32.8881 256.661C33.9635 256.419 35.0887 256.54 36.0881 257.005C37.6321 257.869 38.1041 259.821 39.0401 261.325C39.6221 262.211 40.3887 262.962 41.2875 263.526C42.1863 264.089 43.1962 264.451 44.2481 264.589C45.1438 264.77 46.0716 264.709 46.9361 264.413L47.0881 264.317C47.1855 264.213 47.2764 264.103 47.3601 263.989V263.941C47.6321 262.933 47.1841 261.885 47.1681 260.845V260.653C47.1681 259.445 47.2481 258.253 47.2721 257.037C47.3254 254.813 47.3468 252.589 47.3361 250.365C47.3361 248.925 47.4961 247.341 46.8881 245.981C46.2081 244.485 44.5281 244.453 43.8961 242.981C43.6401 242.397 43.5041 241.773 43.2561 241.181C42.875 240.314 42.2629 239.569 41.4869 239.028C40.7108 238.486 39.8007 238.168 38.8561 238.109C35.9121 237.957 33.2561 240.333 30.3441 240.117C29.5879 240.015 28.8375 239.873 28.0961 239.693C25.6961 239.245 22.9681 239.925 21.6321 241.933C21.3374 242.341 21.1476 242.816 21.0792 243.316C21.0109 243.815 21.0661 244.324 21.2401 244.797Z"
        fill="#77CEFF" />
    <path
        d="M47.6323 259.328C47.6644 259.32 47.6947 259.306 47.7212 259.287C47.7477 259.267 47.7699 259.242 47.7864 259.214C47.8029 259.185 47.8134 259.154 47.8172 259.121C47.8209 259.088 47.8179 259.055 47.8083 259.024C43.7683 243.792 27.7283 241.6 24.0003 241.864C23.9677 241.866 23.9358 241.874 23.9065 241.889C23.8772 241.903 23.851 241.923 23.8294 241.947C23.8079 241.972 23.7914 242.001 23.7809 242.031C23.7704 242.062 23.7661 242.095 23.7683 242.128C23.7638 242.161 23.7663 242.195 23.7759 242.227C23.7854 242.26 23.8016 242.29 23.8235 242.315C23.8454 242.341 23.8725 242.362 23.9029 242.376C23.9334 242.391 23.9665 242.399 24.0003 242.4C27.6723 242.136 43.3683 244.288 47.3363 259.2C47.3622 259.253 47.4063 259.295 47.4606 259.318C47.5149 259.342 47.5758 259.345 47.6323 259.328Z"
        fill="white" />
    <path
        d="M29.8081 251.611C29.8598 251.602 29.9073 251.577 29.9441 251.539C31.4251 250.256 33.1708 249.316 35.057 248.785C36.9432 248.254 38.9233 248.145 40.8561 248.467C40.9226 248.474 40.9892 248.456 41.0427 248.416C41.0961 248.376 41.1324 248.317 41.1441 248.251C41.1486 248.219 41.1466 248.186 41.1381 248.154C41.1296 248.122 41.1149 248.092 41.0948 248.066C41.0747 248.04 41.0496 248.018 41.021 248.002C40.9924 247.986 40.9608 247.975 40.9281 247.971C38.919 247.642 36.862 247.76 34.9038 248.317C32.9457 248.875 31.1347 249.857 29.6001 251.195C29.5769 251.218 29.5585 251.246 29.5459 251.276C29.5333 251.306 29.5269 251.339 29.5269 251.371C29.5269 251.404 29.5333 251.436 29.5459 251.467C29.5585 251.497 29.5769 251.524 29.6001 251.547C29.6283 251.572 29.6614 251.591 29.6972 251.602C29.7331 251.613 29.7709 251.616 29.8081 251.611Z"
        fill="white" />
    <path
        d="M320.8 204.398L263.664 237.462C262.95 237.821 262.163 238.008 261.364 238.008C260.565 238.008 259.778 237.821 259.064 237.462L159.624 180.062C158.352 179.334 158.352 178.142 159.624 177.414L216.8 144.342C217.512 143.984 218.298 143.797 219.096 143.797C219.893 143.797 220.68 143.984 221.392 144.342L320.8 201.742C322.032 202.478 322.032 203.662 320.8 204.398Z"
        fill="#37474F" />
    <path
        d="M290.232 219.562C289.24 220.065 288.144 220.328 287.032 220.328C285.92 220.328 284.823 220.065 283.832 219.562C282.072 218.546 282.072 216.898 283.832 215.882C284.822 215.374 285.919 215.109 287.032 215.109C288.145 215.109 289.241 215.374 290.232 215.882C292 216.898 292 218.546 290.232 219.562Z"
        fill="#263238" />
    <path
        d="M263.624 237.464L320.8 204.4C321.936 203.744 322.056 202.72 321.16 202C321.728 202.449 322.195 203.014 322.53 203.656C322.865 204.299 323.061 205.005 323.104 205.728V207.888C323.063 208.689 322.833 209.47 322.433 210.165C322.032 210.86 321.473 211.451 320.8 211.888L263.664 244.952C262.958 245.328 262.168 245.518 261.368 245.504V238.04C262.157 238.04 262.932 237.842 263.624 237.464Z"
        fill="#455A64" />
    <path
        d="M159.624 187.537C158.953 187.098 158.395 186.507 157.996 185.812C157.597 185.117 157.368 184.337 157.328 183.537V181.377C157.37 180.652 157.565 179.944 157.9 179.301C158.235 178.657 158.703 178.091 159.272 177.641C158.376 178.377 158.472 179.393 159.624 180.041L259.024 237.441C259.733 237.818 260.526 238.007 261.328 237.993V245.457C260.526 245.472 259.733 245.282 259.024 244.905L159.624 187.537Z"
        fill="#263238" />
    <path
        d="M254.08 230.538L307.976 199.338C308.146 199.284 308.293 199.177 308.398 199.034C308.503 198.89 308.56 198.716 308.56 198.538C308.56 198.36 308.503 198.187 308.398 198.043C308.293 197.899 308.146 197.793 307.976 197.738L228.312 151.658C227.886 151.441 227.414 151.328 226.936 151.328C226.458 151.328 225.986 151.441 225.56 151.658L171.64 182.858C171.47 182.913 171.323 183.019 171.218 183.163C171.113 183.307 171.056 183.48 171.056 183.658C171.056 183.836 171.113 184.01 171.218 184.154C171.323 184.297 171.47 184.404 171.64 184.458L251.32 230.538C251.748 230.755 252.22 230.869 252.7 230.869C253.18 230.869 253.652 230.755 254.08 230.538Z"
        fill="#FAFAFA" />
    <path
        d="M180 184.268L205.744 199.196C206.281 199.468 206.874 199.61 207.476 199.61C208.078 199.61 208.671 199.468 209.208 199.196L254.488 173.06C254.697 172.989 254.878 172.854 255.007 172.675C255.135 172.496 255.205 172.28 255.205 172.06C255.205 171.839 255.135 171.624 255.007 171.445C254.878 171.265 254.697 171.131 254.488 171.06L228.712 156.164C228.175 155.892 227.582 155.75 226.98 155.75C226.378 155.75 225.785 155.892 225.248 156.164L180 182.268C179.791 182.339 179.609 182.473 179.481 182.653C179.352 182.832 179.283 183.047 179.283 183.268C179.283 183.488 179.352 183.704 179.481 183.883C179.609 184.062 179.791 184.197 180 184.268Z"
        fill="#EBEBEB" />
    <path
        d="M198.904 177.159L205.512 178.447C205.925 178.533 206.354 178.494 206.744 178.335L212.344 175.935C213.232 175.551 214.496 175.935 214.48 176.567L214.392 180.567C214.392 180.823 214.6 181.063 214.96 181.215L220.656 183.543C221.56 183.911 221.344 184.719 220.28 184.911L213.6 186.119C213.425 186.135 213.256 186.19 213.104 186.278C212.952 186.366 212.821 186.487 212.72 186.631L210.648 190.479C210.312 191.087 208.912 191.215 208.248 190.695L204.248 187.407C203.928 187.175 203.539 187.06 203.144 187.079L196.16 187.127C195.048 187.127 194.408 186.407 195.072 185.895L199.248 182.695C199.308 182.661 199.36 182.615 199.402 182.561C199.444 182.507 199.474 182.445 199.492 182.379C199.51 182.312 199.515 182.243 199.506 182.175C199.497 182.107 199.474 182.042 199.44 181.983L197.2 178.167C196.848 177.527 197.848 176.951 198.904 177.159Z"
        fill="#FAFAFA" />
    <path
        d="M213.6 168.73L227.776 160.546C228.054 160.382 228.367 160.285 228.689 160.263C229.011 160.241 229.334 160.294 229.632 160.418C230.08 160.682 229.976 161.162 229.408 161.49L215.24 169.674C214.961 169.835 214.649 169.931 214.327 169.953C214.005 169.975 213.683 169.924 213.384 169.802C212.936 169.538 213.04 169.058 213.6 168.73Z"
        fill="#FAFAFA" />
    <path
        d="M217.185 170.792L231.353 162.608C231.631 162.444 231.943 162.347 232.265 162.325C232.588 162.303 232.91 162.356 233.209 162.48C233.657 162.744 233.561 163.224 232.985 163.552L218.816 171.736C218.537 171.898 218.225 171.993 217.903 172.016C217.582 172.038 217.259 171.986 216.961 171.864C216.505 171.6 216.609 171.12 217.185 170.792Z"
        fill="#FAFAFA" />
    <path
        d="M220.752 172.858L234.92 164.674C235.198 164.508 235.511 164.41 235.833 164.388C236.155 164.365 236.479 164.42 236.776 164.546C237.232 164.81 237.128 165.29 236.552 165.618L222.4 173.802C222.121 173.963 221.809 174.059 221.487 174.081C221.165 174.103 220.843 174.051 220.544 173.93C220.08 173.666 220.176 173.186 220.752 172.858Z"
        fill="#FAFAFA" />
    <path
        d="M224.32 174.912L238.496 166.736C238.772 166.57 239.084 166.472 239.405 166.45C239.726 166.428 240.048 166.482 240.344 166.608C240.8 166.864 240.696 167.344 240.128 167.68L225.952 175.856C225.675 176.022 225.362 176.12 225.04 176.142C224.717 176.164 224.394 176.11 224.096 175.984C223.648 175.728 223.752 175.248 224.32 174.912Z"
        fill="#FAFAFA" />
    <path
        d="M227.896 176.975L242.064 168.799C242.342 168.633 242.655 168.535 242.977 168.513C243.3 168.49 243.623 168.545 243.92 168.671C244.368 168.927 244.272 169.407 243.696 169.743L229.528 177.919C229.251 178.084 228.938 178.182 228.616 178.205C228.293 178.227 227.97 178.173 227.672 178.047C227.2 177.791 227.32 177.311 227.896 176.975Z"
        fill="#FAFAFA" />
    <path
        d="M231.464 179.037L245.6 170.861C245.878 170.695 246.191 170.597 246.513 170.575C246.836 170.553 247.159 170.607 247.456 170.733C247.904 170.989 247.808 171.469 247.232 171.805L233.096 179.997C232.819 180.163 232.506 180.261 232.184 180.283C231.861 180.305 231.538 180.251 231.24 180.125C230.792 179.853 230.888 179.373 231.464 179.037Z"
        fill="#FAFAFA" />
    <path
        d="M211.769 202.642L212.937 203.322C213.259 203.484 213.615 203.568 213.977 203.568C214.338 203.568 214.694 203.484 215.017 203.322L242.217 187.634C242.793 187.298 242.793 186.762 242.217 186.434L241.041 185.754C240.718 185.592 240.362 185.508 240.001 185.508C239.639 185.508 239.283 185.592 238.961 185.754L211.761 201.442C211.635 201.485 211.525 201.566 211.448 201.674C211.371 201.782 211.33 201.912 211.331 202.045C211.332 202.178 211.375 202.307 211.453 202.414C211.532 202.521 211.642 202.601 211.769 202.642Z"
        fill="#E0E0E0" />
    <path
        d="M260.512 174.496L261.68 175.176C262.256 175.504 262.256 176.04 261.68 176.376L250.76 182.68C250.437 182.842 250.081 182.927 249.72 182.927C249.359 182.927 249.003 182.842 248.68 182.68L247.512 182C246.936 181.672 246.936 181.136 247.512 180.8L258.4 174.496C258.727 174.329 259.089 174.242 259.456 174.242C259.823 174.242 260.185 174.329 260.512 174.496Z"
        fill="#E0E0E0" />
    <path
        d="M218.992 206.792L244.8 221.68C245.337 221.952 245.93 222.094 246.532 222.094C247.134 222.094 247.727 221.952 248.264 221.68L293.544 195.544C293.753 195.473 293.935 195.339 294.063 195.159C294.192 194.98 294.261 194.765 294.261 194.544C294.261 194.323 294.192 194.108 294.063 193.929C293.935 193.75 293.753 193.615 293.544 193.544L267.768 178.648C267.231 178.376 266.638 178.234 266.036 178.234C265.434 178.234 264.841 178.376 264.304 178.648L218.992 204.8C218.786 204.873 218.608 205.008 218.481 205.186C218.355 205.364 218.287 205.578 218.287 205.796C218.287 206.015 218.355 206.228 218.481 206.406C218.608 206.585 218.786 206.72 218.992 206.792Z"
        fill="#EBEBEB" />
    <path
        d="M237.92 199.674L244.536 200.97C244.949 201.056 245.377 201.017 245.768 200.858L251.368 198.458C252.264 198.074 253.528 198.458 253.512 199.082L253.424 203.082C253.424 203.338 253.624 203.578 253.984 203.722L259.688 206.05C260.592 206.426 260.368 207.234 259.312 207.426L252.64 208.618C252.465 208.637 252.297 208.692 252.145 208.78C251.994 208.869 251.862 208.988 251.76 209.13L249.688 212.978C249.36 213.586 247.96 213.714 247.288 213.194L243.288 209.906C242.965 209.675 242.573 209.559 242.176 209.578L235.192 209.626C234.088 209.626 233.44 208.906 234.104 208.394L238.28 205.194C238.398 205.124 238.485 205.011 238.522 204.878C238.56 204.746 238.544 204.604 238.48 204.482L236.232 200.666C235.872 200.05 236.872 199.474 237.92 199.674Z"
        fill="#FAFAFA" />
    <path
        d="M252.632 191.245L266.8 183.061C267.078 182.897 267.391 182.801 267.713 182.778C268.035 182.756 268.358 182.809 268.656 182.933C269.112 183.197 269.008 183.677 268.432 184.005L254.264 192.189C253.985 192.351 253.673 192.447 253.351 192.469C253.029 192.491 252.707 192.439 252.408 192.317C252 192.053 252.056 191.573 252.632 191.245Z"
        fill="#FAFAFA" />
    <path
        d="M256.2 193.308L270.4 185.124C270.679 184.96 270.991 184.863 271.313 184.841C271.635 184.819 271.958 184.872 272.256 184.996C272.704 185.26 272.6 185.74 272.032 186.068L257.856 194.252C257.579 194.418 257.267 194.517 256.945 194.542C256.623 194.567 256.3 194.517 256 194.396C255.528 194.116 255.632 193.636 256.2 193.308Z"
        fill="#FAFAFA" />
    <path
        d="M259.776 195.365L273.944 187.197C274.222 187.031 274.535 186.933 274.857 186.911C275.179 186.889 275.503 186.943 275.8 187.069C276.248 187.325 276.152 187.805 275.576 188.141L261.408 196.317C261.129 196.479 260.817 196.574 260.495 196.596C260.173 196.619 259.851 196.567 259.552 196.445C259.096 196.181 259.2 195.701 259.776 195.365Z"
        fill="#FAFAFA" />
    <path
        d="M263.344 197.428L277.512 189.252C277.79 189.086 278.102 188.988 278.425 188.966C278.747 188.944 279.071 188.998 279.368 189.124C279.824 189.38 279.72 189.86 279.144 190.196L264.976 198.396C264.699 198.561 264.386 198.659 264.064 198.682C263.741 198.704 263.418 198.65 263.12 198.524C262.672 198.244 262.768 197.764 263.344 197.428Z"
        fill="#FAFAFA" />
    <path
        d="M266.912 199.498L281.088 191.322C281.364 191.156 281.676 191.058 281.997 191.036C282.318 191.014 282.64 191.068 282.936 191.194C283.392 191.45 283.288 191.93 282.72 192.266L268.544 200.442C268.267 200.608 267.954 200.706 267.631 200.728C267.309 200.75 266.986 200.696 266.688 200.57C266.24 200.314 266.344 199.834 266.912 199.498Z"
        fill="#FAFAFA" />
    <path
        d="M270.488 201.6L284.656 193.424C284.934 193.258 285.246 193.16 285.569 193.138C285.891 193.115 286.215 193.17 286.512 193.296C286.96 193.552 286.864 194.032 286.288 194.368L272.12 202.544C271.843 202.709 271.53 202.807 271.208 202.83C270.885 202.852 270.562 202.798 270.264 202.672C269.808 202.4 269.912 201.896 270.488 201.6Z"
        fill="#FAFAFA" />
    <path
        d="M250.784 225.158L251.96 225.838C252.283 225.999 252.639 226.084 253 226.084C253.361 226.084 253.717 225.999 254.04 225.838L281.24 210.15C281.366 210.108 281.476 210.027 281.554 209.92C281.632 209.812 281.673 209.682 281.673 209.55C281.673 209.417 281.632 209.287 281.554 209.18C281.476 209.072 281.366 208.991 281.24 208.95L280.064 208.27C279.741 208.108 279.385 208.023 279.024 208.023C278.663 208.023 278.307 208.108 277.984 208.27L250.784 223.958C250.658 223.999 250.548 224.08 250.47 224.188C250.392 224.295 250.351 224.425 250.351 224.558C250.351 224.69 250.392 224.82 250.47 224.928C250.548 225.035 250.658 225.116 250.784 225.158Z"
        fill="#E0E0E0" />
    <path
        d="M299.528 197.012L300.704 197.692C301.28 198.02 301.28 198.556 300.704 198.892L289.784 205.196C289.461 205.358 289.105 205.442 288.744 205.442C288.383 205.442 288.027 205.358 287.704 205.196L286.528 204.516C286.402 204.474 286.292 204.393 286.214 204.286C286.137 204.178 286.095 204.049 286.095 203.916C286.095 203.783 286.137 203.653 286.214 203.546C286.292 203.438 286.402 203.357 286.528 203.316L297.456 197.012C297.778 196.85 298.132 196.766 298.492 196.766C298.852 196.766 299.207 196.85 299.528 197.012Z"
        fill="#E0E0E0" />
    <path
        d="M193.024 163.354C192.805 163.461 192.564 163.517 192.32 163.517C192.076 163.517 191.836 163.461 191.616 163.354C191.534 163.325 191.462 163.271 191.411 163.199C191.36 163.127 191.333 163.042 191.333 162.954C191.333 162.866 191.36 162.78 191.411 162.709C191.462 162.637 191.534 162.583 191.616 162.554C191.836 162.446 192.076 162.391 192.32 162.391C192.564 162.391 192.805 162.446 193.024 162.554C193.416 162.77 193.416 163.13 193.024 163.354Z"
        fill="#263238" />
    <path
        d="M190.777 169.74C190.34 169.961 189.858 170.076 189.369 170.076C188.879 170.076 188.397 169.961 187.961 169.74C187.802 169.676 187.666 169.565 187.57 169.422C187.474 169.28 187.423 169.112 187.423 168.94C187.423 168.769 187.474 168.601 187.57 168.459C187.666 168.316 187.802 168.205 187.961 168.14C188.397 167.92 188.879 167.805 189.369 167.805C189.858 167.805 190.34 167.92 190.777 168.14C190.935 168.205 191.072 168.316 191.167 168.459C191.263 168.601 191.314 168.769 191.314 168.94C191.314 169.112 191.263 169.28 191.167 169.422C191.072 169.565 190.935 169.676 190.777 169.74Z"
        fill="#263238" />
    <path
        d="M192.8 166.909C192.28 166.605 192.312 166.109 192.864 165.789L202.128 160.437C202.429 160.283 202.763 160.203 203.1 160.203C203.438 160.203 203.772 160.283 204.072 160.437C204.584 160.733 204.56 161.237 204.008 161.557L194.744 166.901C194.444 167.054 194.111 167.135 193.773 167.136C193.436 167.138 193.103 167.06 192.8 166.909Z"
        fill="#263238" />
    <path
        d="M170.328 88.6477V90.5277L163.832 94.2797L154.088 99.8797L68.0718 149.6C67.5622 149.919 67.1413 150.362 66.8478 150.888C66.5318 151.404 66.3553 151.994 66.3358 152.6V266.92C66.3358 273.136 61.9678 275.656 56.5918 272.52C51.2158 269.384 46.8398 261.856 46.8398 255.64V141.312C46.8731 140.71 47.0477 140.125 47.3493 139.604C47.6509 139.083 48.0711 138.64 48.5758 138.312L144.328 83.0237L153.6 77.6797C153.91 78.2011 154.08 78.7934 154.096 79.3997V81.1437L51.8238 140.344C51.3439 140.642 50.9453 141.054 50.6638 141.544C50.3142 142.081 50.1178 142.703 50.0958 143.344V257.512C50.0958 261.656 53.0078 266.688 56.5998 268.76C60.1918 270.832 63.0958 269.152 63.0958 265.008V150.688C63.1237 150.089 63.2925 149.505 63.5886 148.984C63.8847 148.462 64.2997 148.018 64.7998 147.688L169.824 87.0477C170.126 87.5292 170.299 88.0801 170.328 88.6477Z"
        fill="#E0E0E0" />
    <path
        d="M160.576 83.1417V88.6457L61.5997 145.814C61.0912 146.137 60.666 146.576 60.3588 147.094C60.0516 147.613 59.871 148.196 59.8318 148.798V263.118C59.8318 265.19 58.3837 266.03 56.5917 264.99C55.6481 264.377 54.8622 263.551 54.2979 262.578C53.7335 261.605 53.4066 260.513 53.3438 259.39V145.062C53.3644 144.458 53.5378 143.869 53.8477 143.35C54.146 142.828 54.5659 142.386 55.0717 142.062L160.088 81.4297C160.392 81.9502 160.56 82.5391 160.576 83.1417Z"
        fill="#E0E0E0" />
    <path
        d="M70.0878 152.735C69.7768 153.25 69.6033 153.837 69.5838 154.439V267.775C69.5855 268.599 69.532 269.422 69.4238 270.239C69.3918 270.452 69.3598 270.66 69.3278 270.863C69.3278 271.055 69.2558 271.239 69.2158 271.431C69.1758 271.623 69.1358 271.767 69.0878 271.927C69.0398 272.087 69.0078 272.239 68.9598 272.391C68.4298 274.337 67.184 276.012 65.4718 277.079C63.1438 278.415 60.0238 278.255 56.5918 276.279C49.3918 272.135 43.5918 261.607 43.5918 252.775V139.431C43.6113 138.829 43.7848 138.242 44.0958 137.727L47.3518 139.599C47.0357 140.115 46.8593 140.705 46.8398 141.311V255.631C46.8398 261.847 51.2078 269.407 56.5918 272.511C61.9758 275.615 66.3358 273.103 66.3358 266.911V152.567C66.3553 151.961 66.5317 151.371 66.8478 150.855L70.0878 152.735Z"
        fill="#EBEBEB" />
    <path
        d="M63.5919 148.988C63.2819 149.504 63.1085 150.09 63.0879 150.692V265.012C63.0879 269.156 60.1759 270.836 56.5919 268.764C53.0079 266.692 50.0879 261.66 50.0879 257.516V143.316C50.1098 142.675 50.3062 142.053 50.6559 141.516L53.8559 143.356C53.5459 143.875 53.3725 144.464 53.3519 145.068V259.388C53.4148 260.511 53.7417 261.603 54.306 262.576C54.8704 263.549 55.6563 264.375 56.5999 264.988C58.3919 266.028 59.8399 265.188 59.8399 263.116V148.804C59.8594 148.198 60.0358 147.608 60.3519 147.092L63.5919 148.988Z"
        fill="#EBEBEB" />
    <path
        d="M153.6 77.6806L144.344 83.0246L48.5757 138.313C48.0643 138.63 47.6428 139.074 47.3517 139.601L44.0957 137.729C44.3866 137.199 44.8079 136.753 45.3197 136.433L141.08 81.1446L142.928 80.0726L144.8 79.0166L146.4 78.0886L147.352 77.5366L149.12 76.5206C149.635 76.2464 150.208 76.0977 150.792 76.0866C151.376 76.0755 151.954 76.2023 152.48 76.4566C152.953 76.7605 153.339 77.1823 153.6 77.6806Z"
        fill="#FAFAFA" />
    <path
        d="M176.328 90.8058L167.072 96.1498L150.824 105.526L71.3197 151.438C70.8074 151.76 70.3839 152.206 70.0877 152.734L66.8877 150.854C67.1741 150.345 67.5806 149.914 68.0717 149.598L154.08 99.9098L163.824 94.3098L170.32 90.5578L171.832 89.6858L172 89.5978C172.499 89.3586 173.046 89.2344 173.6 89.2344C174.153 89.2344 174.7 89.3586 175.2 89.5978L175.368 89.7018C175.764 89.9961 176.091 90.3728 176.328 90.8058Z"
        fill="#FAFAFA" />
    <path
        d="M160.088 81.4314L55.0719 142.063C54.5661 142.388 54.1462 142.83 53.8479 143.351L50.6479 141.511C50.9294 141.022 51.328 140.609 51.8079 140.311L154.08 81.1114L155.584 80.2394C156.1 79.9652 156.672 79.8165 157.256 79.8054C157.84 79.7942 158.418 79.921 158.944 80.1754C159.428 80.4872 159.823 80.9201 160.088 81.4314Z"
        fill="#FAFAFA" />
    <path
        d="M169.848 87.0513L64.7998 147.691C64.2858 148.012 63.8618 148.458 63.5678 148.987L60.3198 147.107C60.6265 146.573 61.0679 146.129 61.5998 145.819L160.608 88.6513L165.408 85.8993C165.924 85.6263 166.497 85.479 167.081 85.4693C167.665 85.4595 168.243 85.5877 168.768 85.8433C169.226 86.1466 169.597 86.5626 169.848 87.0513Z"
        fill="#FAFAFA" />
    <path
        d="M176.8 92.5323V205.868C176.8 210.516 175.2 213.772 172.616 215.212L65.3198 277.164C66.2697 276.593 67.0936 275.835 67.7413 274.935C68.3891 274.036 68.8472 273.014 69.0878 271.932C69.1358 271.772 69.1758 271.604 69.2158 271.436C69.2558 271.268 69.2878 271.06 69.3278 270.868C69.3678 270.676 69.3918 270.46 69.4238 270.244C69.532 269.427 69.5855 268.604 69.5838 267.78V154.444C69.6033 153.843 69.7769 153.256 70.0878 152.74C70.3841 152.212 70.8076 151.767 71.3198 151.444L150.824 105.54L167.072 96.1643L176.328 90.8203C176.629 91.3411 176.792 91.9306 176.8 92.5323Z"
        fill="#F5F5F5" />
    <path
        d="M81.0719 153.322L97.0719 144.066C98.0319 143.514 98.7999 143.954 98.7999 145.066V167.33C98.7688 167.931 98.596 168.516 98.2957 169.037C97.9954 169.559 97.5761 170.001 97.0719 170.33L81.0719 179.586C80.1119 180.138 79.3359 179.69 79.3359 178.586V156.322C79.3686 155.72 79.5428 155.135 79.8445 154.614C80.1462 154.093 80.5668 153.65 81.0719 153.322Z"
        fill="#455A64" />
    <path d="M79.3359 188.086L167.08 137.43V141.182L79.3359 191.838V188.086Z" fill="#77CEFF" />
    <path opacity="0.4" d="M79.3359 188.086L167.08 137.43V141.182L79.3359 191.838V188.086Z" fill="white" />
    <path
        d="M80.3759 198.747L97.7999 188.691C98.3679 188.355 98.8319 188.627 98.8319 189.291V224.411C98.8133 224.771 98.7102 225.122 98.5309 225.434C98.3516 225.747 98.1012 226.013 97.7999 226.211L80.3759 236.267C79.7999 236.603 79.3359 236.331 79.3359 235.667V200.547C79.3548 200.186 79.4589 199.835 79.6397 199.522C79.8205 199.209 80.0728 198.944 80.3759 198.747Z"
        fill="#F0F0F0" />
    <path
        d="M80.3759 240L97.7999 229.936C98.3679 229.608 98.8319 229.88 98.8319 230.536V258.024L79.3359 269.304V241.824C79.3511 241.459 79.4534 241.103 79.6344 240.786C79.8153 240.468 80.0696 240.199 80.3759 240Z"
        fill="#F0F0F0" />
    <path
        d="M103.128 185.603L120.544 175.547C121.12 175.219 121.584 175.483 121.584 176.147V222.547C121.564 222.908 121.46 223.259 121.279 223.571C121.099 223.884 120.847 224.15 120.544 224.347L103.128 234.403C102.552 234.731 102.088 234.467 102.088 233.803V187.403C102.109 187.043 102.214 186.692 102.394 186.379C102.575 186.067 102.826 185.801 103.128 185.603Z"
        fill="#F0F0F0" />
    <path
        d="M125.872 172.482L143.288 162.402C143.864 162.066 144.328 162.338 144.328 163.002V198.122C144.309 198.483 144.205 198.834 144.024 199.147C143.844 199.46 143.591 199.725 143.288 199.922L125.872 210.002C125.296 210.338 124.832 210.066 124.832 209.402V174.282C124.851 173.921 124.955 173.57 125.136 173.257C125.317 172.944 125.569 172.679 125.872 172.482Z"
        fill="#F0F0F0" />
    <path
        d="M148.624 159.341L166.04 149.285C166.616 148.949 167.08 149.221 167.08 149.885V196.285C167.059 196.645 166.954 196.996 166.774 197.308C166.593 197.621 166.342 197.887 166.04 198.085L148.624 208.141C148.048 208.469 147.584 208.205 147.584 207.541V161.141C147.603 160.78 147.707 160.429 147.888 160.116C148.069 159.803 148.321 159.537 148.624 159.341Z"
        fill="#F0F0F0" />
    <path
        d="M103.128 238.146L120.544 228.09C121.12 227.754 121.584 228.026 121.584 228.69V244.914L102.088 256.178V239.946C102.107 239.585 102.211 239.233 102.392 238.921C102.572 238.608 102.825 238.342 103.128 238.146Z"
        fill="#F0F0F0" />
    <path
        d="M124.8 215.551V243.039L144.296 231.783V204.295C144.296 203.631 143.832 203.367 143.256 203.695L125.84 213.751C125.537 213.948 125.285 214.214 125.104 214.527C124.924 214.84 124.819 215.191 124.8 215.551Z"
        fill="#F0F0F0" />
    <path
        d="M148.616 211.88L166.04 201.824C166.616 201.488 167.08 201.76 167.08 202.424V218.648L147.584 229.904V213.68C147.603 213.32 147.706 212.969 147.885 212.657C148.064 212.344 148.315 212.078 148.616 211.88Z"
        fill="#F0F0F0" />
    <path
        d="M106.4 240.003L117.32 233.699C117.896 233.363 118.36 233.635 118.36 234.299V243.203C118.341 243.564 118.237 243.915 118.056 244.228C117.875 244.541 117.623 244.806 117.32 245.003L106.4 251.291C105.824 251.619 105.36 251.355 105.36 250.691V241.835C105.374 241.469 105.475 241.111 105.656 240.792C105.837 240.473 106.092 240.203 106.4 240.003Z"
        fill="#E0E0E0" />
    <path
        d="M151.872 213.769L162.792 207.465C163.36 207.129 163.832 207.401 163.832 208.065V216.921C163.811 217.281 163.705 217.631 163.525 217.944C163.344 218.256 163.093 218.522 162.792 218.721L151.872 225.025C151.296 225.353 150.832 225.089 150.832 224.425V215.569C150.851 215.208 150.955 214.856 151.136 214.544C151.317 214.231 151.569 213.965 151.872 213.769Z"
        fill="#E0E0E0" />
    <path
        d="M83.624 200.623L94.544 194.311C95.12 193.983 95.584 194.255 95.584 194.911V203.775C95.5632 204.136 95.4583 204.486 95.2777 204.799C95.0971 205.111 94.8458 205.377 94.544 205.575L83.624 211.879C83.056 212.207 82.584 211.943 82.584 211.279V202.399C82.6072 202.043 82.7133 201.696 82.8938 201.388C83.0744 201.08 83.3244 200.818 83.624 200.623Z"
        fill="#E0E0E0" />
    <path
        d="M83.28 213.952L94.896 207.248C95.28 207.032 95.584 207.208 95.584 207.648V207.928C95.5718 208.168 95.5031 208.402 95.3835 208.611C95.264 208.819 95.097 208.997 94.896 209.128L83.28 215.832C82.896 216.056 82.584 215.832 82.584 215.432V215.152C82.5977 214.912 82.6679 214.678 82.7888 214.469C82.9097 214.261 83.078 214.084 83.28 213.952Z"
        fill="#E0E0E0" />
    <path
        d="M83.28 217.702L94.896 210.998C95.28 210.782 95.584 210.958 95.584 211.398V211.678C95.5718 211.918 95.5031 212.152 95.3835 212.361C95.264 212.569 95.097 212.747 94.896 212.878L83.28 219.582C82.896 219.806 82.584 219.582 82.584 219.182V218.902C82.5977 218.662 82.6679 218.428 82.7888 218.219C82.9097 218.011 83.078 217.834 83.28 217.702Z"
        fill="#E0E0E0" />
    <path
        d="M83.28 221.46L94.896 214.756C95.28 214.54 95.584 214.716 95.584 215.156V215.436C95.5718 215.676 95.5031 215.91 95.3835 216.119C95.264 216.327 95.097 216.504 94.896 216.636L83.28 223.34C82.896 223.564 82.584 223.38 82.584 222.94V222.66C82.5977 222.42 82.6679 222.186 82.7888 221.977C82.9097 221.769 83.078 221.592 83.28 221.46Z"
        fill="#E0E0E0" />
    <path
        d="M83.28 225.21L94.896 218.506C95.28 218.29 95.584 218.466 95.584 218.906V219.202C95.5718 219.442 95.5031 219.676 95.3835 219.884C95.264 220.093 95.097 220.27 94.896 220.402L83.28 227.106C82.896 227.33 82.584 227.146 82.584 226.706V226.402C82.599 226.163 82.6697 225.931 82.7905 225.724C82.9114 225.517 83.079 225.341 83.28 225.21Z"
        fill="#E0E0E0" />
    <path
        d="M83.28 228.96L94.896 222.256C95.28 222.04 95.584 222.216 95.584 222.656V222.936C95.5718 223.176 95.5031 223.41 95.3835 223.619C95.264 223.827 95.097 224.004 94.896 224.136L83.28 230.84C82.896 231.064 82.584 230.88 82.584 230.44V230.16C82.5977 229.92 82.6679 229.686 82.7888 229.477C82.9097 229.269 83.078 229.092 83.28 228.96Z"
        fill="#E0E0E0" />
    <path
        d="M106.4 187.487L117.32 181.183C117.896 180.847 118.36 181.119 118.36 181.783V190.639C118.34 191 118.236 191.351 118.055 191.664C117.875 191.976 117.623 192.242 117.32 192.439L106.4 198.743C105.824 199.071 105.36 198.807 105.36 198.143V189.287C105.379 188.926 105.483 188.575 105.664 188.262C105.844 187.949 106.097 187.684 106.4 187.487Z"
        fill="#E0E0E0" />
    <path
        d="M106.024 200.801L117.64 194.097C118.024 193.873 118.336 194.049 118.336 194.497V194.769C118.323 195.01 118.253 195.244 118.132 195.453C118.011 195.661 117.842 195.838 117.64 195.969L106.024 202.673C105.648 202.897 105.336 202.673 105.336 202.273V202.001C105.348 201.761 105.417 201.527 105.536 201.319C105.656 201.11 105.823 200.933 106.024 200.801Z"
        fill="#E0E0E0" />
    <path
        d="M106.024 204.575L117.64 197.871C118.024 197.647 118.336 197.823 118.336 198.271V198.543C118.323 198.783 118.253 199.018 118.132 199.226C118.011 199.435 117.842 199.612 117.64 199.743L106.024 206.447C105.648 206.671 105.336 206.487 105.336 206.047V205.775C105.348 205.535 105.417 205.301 105.536 205.092C105.656 204.884 105.823 204.706 106.024 204.575Z"
        fill="#E0E0E0" />
    <path
        d="M106.024 208.325L117.64 201.597C118.024 201.373 118.336 201.549 118.336 201.997V202.269C118.323 202.51 118.253 202.744 118.132 202.953C118.011 203.161 117.842 203.338 117.64 203.469L106.024 210.173C105.648 210.397 105.336 210.213 105.336 209.773V209.501C105.352 209.265 105.422 209.036 105.542 208.832C105.661 208.628 105.826 208.455 106.024 208.325Z"
        fill="#E0E0E0" />
    <path
        d="M106.024 212.082L117.64 205.378C118.024 205.154 118.336 205.33 118.336 205.778V206.05C118.323 206.291 118.253 206.525 118.132 206.734C118.011 206.942 117.842 207.119 117.64 207.25L106.024 213.954C105.648 214.178 105.336 213.994 105.336 213.554V213.282C105.348 213.042 105.417 212.809 105.536 212.6C105.656 212.392 105.823 212.214 106.024 212.082Z"
        fill="#E0E0E0" />
    <path
        d="M106.024 215.832L117.64 209.128C118.024 208.904 118.336 209.08 118.336 209.528V209.8C118.323 210.041 118.253 210.275 118.132 210.484C118.011 210.692 117.842 210.869 117.64 211L106.024 217.704C105.648 217.928 105.336 217.744 105.336 217.304V217.032C105.348 216.792 105.417 216.559 105.536 216.35C105.656 216.142 105.823 215.964 106.024 215.832Z"
        fill="#E0E0E0" />
    <path
        d="M106.024 219.581L117.64 212.877C118.024 212.653 118.336 212.837 118.336 213.277V213.549C118.324 213.79 118.255 214.025 118.134 214.233C118.013 214.442 117.843 214.619 117.64 214.749L106.024 221.453C105.648 221.677 105.336 221.501 105.336 221.053V220.797C105.348 220.555 105.416 220.318 105.535 220.107C105.655 219.896 105.822 219.716 106.024 219.581Z"
        fill="#E0E0E0" />
    <path
        d="M106.024 223.339L117.64 216.635C118.024 216.411 118.336 216.595 118.336 217.035V217.307C118.324 217.548 118.255 217.782 118.134 217.991C118.013 218.2 117.843 218.377 117.64 218.507L106.024 225.211C105.648 225.435 105.336 225.259 105.336 224.811V224.539C105.35 224.299 105.419 224.066 105.539 223.858C105.658 223.65 105.824 223.472 106.024 223.339Z"
        fill="#E0E0E0" />
    <path
        d="M106.024 227.089L117.64 220.385C118.024 220.161 118.336 220.345 118.336 220.785V221.057C118.324 221.298 118.255 221.532 118.134 221.741C118.013 221.95 117.843 222.127 117.64 222.257L106.024 228.961C105.648 229.185 105.336 229.009 105.336 228.561V228.289C105.35 228.049 105.419 227.816 105.539 227.608C105.658 227.4 105.824 227.222 106.024 227.089Z"
        fill="#E0E0E0" />
    <path
        d="M83.624 241.904L94.544 235.592C95.12 235.264 95.584 235.536 95.584 236.192V245.056C95.5644 245.417 95.4601 245.768 95.2794 246.081C95.0987 246.394 94.8467 246.659 94.544 246.856L83.624 253.16C83.056 253.488 82.584 253.224 82.584 252.56V243.704C82.6035 243.344 82.7079 242.993 82.8886 242.68C83.0693 242.367 83.3213 242.101 83.624 241.904Z"
        fill="#E0E0E0" />
    <path
        d="M83.28 255.202L94.896 248.498C95.28 248.282 95.584 248.458 95.584 248.898V249.178C95.5718 249.418 95.5031 249.652 95.3835 249.861C95.264 250.069 95.097 250.247 94.896 250.378L83.28 257.082C82.896 257.306 82.584 257.122 82.584 256.682V256.402C82.5977 256.162 82.6679 255.928 82.7888 255.719C82.9097 255.511 83.078 255.334 83.28 255.202Z"
        fill="#E0E0E0" />
    <path
        d="M83.28 258.984L94.896 252.28C95.28 252.064 95.584 252.24 95.584 252.68V252.96C95.5718 253.2 95.5031 253.433 95.3835 253.642C95.264 253.85 95.097 254.028 94.896 254.16L83.28 260.864C82.896 261.088 82.584 260.904 82.584 260.464V260.184C82.5977 259.943 82.6679 259.709 82.7888 259.501C82.9097 259.292 83.078 259.115 83.28 258.984Z"
        fill="#E0E0E0" />
    <path
        d="M83.28 262.742L94.896 255.998C95.28 255.782 95.584 255.958 95.584 256.398V256.678C95.5718 256.918 95.5031 257.152 95.3835 257.361C95.264 257.569 95.097 257.747 94.896 257.878L83.28 264.582C82.896 264.806 82.584 264.622 82.584 264.182V263.91C82.6007 263.675 82.6724 263.447 82.7933 263.244C82.9141 263.041 83.0808 262.869 83.28 262.742Z"
        fill="#E0E0E0" />
    <path
        d="M129.12 174.351L140.04 168.047C140.616 167.719 141.08 167.983 141.08 168.647V177.503C141.061 177.864 140.957 178.215 140.776 178.528C140.595 178.841 140.343 179.106 140.04 179.303L129.12 185.599C128.552 185.927 128.08 185.655 128.08 184.999V176.151C128.102 175.791 128.207 175.441 128.388 175.128C128.568 174.816 128.819 174.55 129.12 174.351Z"
        fill="#E0E0E0" />
    <path
        d="M128.8 187.688L140.416 180.984C140.792 180.768 141.104 180.984 141.104 181.384V181.664C141.09 181.903 141.02 182.136 140.901 182.345C140.782 182.553 140.616 182.731 140.416 182.864L128.8 189.6C128.416 189.816 128.104 189.6 128.104 189.2V188.92C128.113 188.674 128.181 188.433 128.302 188.219C128.423 188.004 128.594 187.822 128.8 187.688Z"
        fill="#E0E0E0" />
    <path
        d="M128.8 191.438L140.416 184.734C140.792 184.518 141.104 184.734 141.104 185.134V185.414C141.09 185.653 141.02 185.886 140.901 186.095C140.782 186.303 140.616 186.481 140.416 186.614L128.8 193.318C128.416 193.534 128.104 193.318 128.104 192.918V192.638C128.118 192.397 128.188 192.163 128.309 191.955C128.43 191.746 128.598 191.569 128.8 191.438Z"
        fill="#E0E0E0" />
    <path
        d="M128.8 195.202L140.416 188.498C140.792 188.282 141.104 188.458 141.104 188.898V189.178C141.09 189.418 141.02 189.651 140.901 189.859C140.782 190.067 140.616 190.245 140.416 190.378L128.8 197.074C128.416 197.29 128.104 197.074 128.104 196.674V196.394C128.119 196.155 128.19 195.923 128.311 195.716C128.431 195.509 128.599 195.333 128.8 195.202Z"
        fill="#E0E0E0" />
    <path
        d="M128.8 198.945L140.416 192.241C140.792 192.025 141.104 192.201 141.104 192.641V192.921C141.09 193.16 141.02 193.393 140.901 193.601C140.782 193.81 140.616 193.987 140.416 194.121L128.8 200.801C128.416 201.017 128.104 200.841 128.104 200.401V200.121C128.121 199.884 128.193 199.655 128.314 199.451C128.435 199.247 128.601 199.074 128.8 198.945Z"
        fill="#E0E0E0" />
    <path
        d="M128.8 202.694L140.392 195.998C140.768 195.782 141.08 195.958 141.08 196.398V196.678C141.066 196.918 140.996 197.151 140.877 197.359C140.758 197.567 140.592 197.745 140.392 197.878L128.8 204.574C128.416 204.79 128.104 204.614 128.104 204.174V203.894C128.118 203.654 128.188 203.42 128.309 203.211C128.43 203.003 128.598 202.826 128.8 202.694Z"
        fill="#E0E0E0" />
    <path
        d="M151.872 161.222L162.792 154.918C163.36 154.582 163.832 154.854 163.832 155.518V164.374C163.811 164.734 163.705 165.084 163.525 165.397C163.344 165.709 163.093 165.975 162.792 166.174L151.872 172.478C151.296 172.806 150.832 172.542 150.832 171.878V163.022C150.851 162.661 150.955 162.31 151.136 161.997C151.317 161.684 151.569 161.418 151.872 161.222Z"
        fill="#E0E0E0" />
    <path
        d="M151.52 174.554L163.136 167.85C163.52 167.634 163.832 167.81 163.832 168.25V168.53C163.818 168.771 163.748 169.005 163.627 169.213C163.506 169.421 163.338 169.599 163.136 169.73L151.52 176.434C151.144 176.658 150.832 176.474 150.832 176.034V175.754C150.846 175.514 150.916 175.281 151.035 175.073C151.154 174.865 151.32 174.687 151.52 174.554Z"
        fill="#E0E0E0" />
    <path
        d="M151.52 178.312L163.136 171.6C163.52 171.384 163.832 171.56 163.832 172V172.28C163.818 172.521 163.748 172.755 163.627 172.963C163.506 173.171 163.338 173.349 163.136 173.48L151.52 180.184C151.144 180.408 150.832 180.224 150.832 179.784V179.512C150.844 179.272 150.913 179.038 151.032 178.83C151.152 178.621 151.319 178.444 151.52 178.312Z"
        fill="#E0E0E0" />
    <path
        d="M151.52 182.062L163.136 175.35C163.52 175.134 163.832 175.31 163.832 175.75V175.998C163.818 176.239 163.748 176.473 163.627 176.681C163.506 176.889 163.338 177.067 163.136 177.198L151.52 183.902C151.144 184.126 150.832 183.942 150.832 183.502V183.23C150.849 182.995 150.92 182.768 151.039 182.565C151.159 182.363 151.323 182.191 151.52 182.062Z"
        fill="#E0E0E0" />
    <path
        d="M151.52 185.813L163.136 179.101C163.52 178.885 163.832 179.101 163.832 179.501V179.781C163.818 180.022 163.748 180.256 163.627 180.464C163.506 180.673 163.338 180.85 163.136 180.981L151.52 187.685C151.144 187.909 150.832 187.685 150.832 187.285V187.013C150.844 186.773 150.913 186.539 151.032 186.331C151.152 186.122 151.319 185.945 151.52 185.813Z"
        fill="#E0E0E0" />
    <path
        d="M151.52 189.602L163.136 182.89C163.52 182.674 163.832 182.89 163.832 183.29V183.57C163.818 183.811 163.748 184.045 163.627 184.253C163.506 184.462 163.338 184.639 163.136 184.77L151.52 191.442C151.144 191.666 150.832 191.442 150.832 191.042V190.77C150.849 190.536 150.92 190.308 151.039 190.106C151.159 189.903 151.323 189.731 151.52 189.602Z"
        fill="#E0E0E0" />
    <path
        d="M151.52 193.325L163.136 186.621C163.52 186.397 163.832 186.573 163.832 187.021V187.293C163.819 187.533 163.749 187.768 163.628 187.976C163.507 188.185 163.338 188.362 163.136 188.493L151.52 195.205C151.144 195.429 150.832 195.205 150.832 194.805V194.533C150.844 194.291 150.912 194.056 151.032 193.846C151.151 193.636 151.318 193.458 151.52 193.325Z"
        fill="#E0E0E0" />
    <path
        d="M151.52 197.074L163.136 190.402C163.52 190.178 163.832 190.354 163.832 190.802V191.074C163.819 191.315 163.749 191.549 163.628 191.757C163.507 191.966 163.338 192.143 163.136 192.274L151.52 198.978C151.144 199.202 150.832 198.978 150.832 198.578V198.306C150.84 198.06 150.906 197.82 151.026 197.606C151.146 197.392 151.315 197.209 151.52 197.074Z"
        fill="#E0E0E0" />
    <path
        d="M151.52 200.801L163.136 194.097C163.52 193.873 163.832 194.049 163.832 194.497V194.769C163.819 195.01 163.749 195.244 163.628 195.453C163.507 195.661 163.338 195.838 163.136 195.969L151.52 202.673C151.144 202.897 150.832 202.721 150.832 202.273V202.001C150.845 201.761 150.914 201.528 151.033 201.319C151.153 201.111 151.32 200.933 151.52 200.801Z"
        fill="#E0E0E0" />
    <path
        d="M129.12 215.632L140.04 209.328C140.616 209 141.08 209.264 141.08 209.928V218.784C141.061 219.145 140.957 219.496 140.776 219.809C140.595 220.122 140.343 220.388 140.04 220.584L129.12 226.896C128.552 227.224 128.08 226.952 128.08 226.296V217.432C128.102 217.072 128.207 216.722 128.388 216.41C128.568 216.097 128.819 215.831 129.12 215.632Z"
        fill="#E0E0E0" />
    <path
        d="M128.8 228.968L140.416 222.264C140.792 222.048 141.104 222.224 141.104 222.664V222.944C141.09 223.184 141.02 223.417 140.901 223.625C140.782 223.833 140.616 224.011 140.416 224.144L128.8 230.848C128.416 231.064 128.104 230.888 128.104 230.448V230.168C128.118 229.927 128.188 229.693 128.309 229.485C128.43 229.277 128.598 229.099 128.8 228.968Z"
        fill="#E0E0E0" />
    <path
        d="M128.8 232.719L140.416 226.015C140.792 225.799 141.104 226.015 141.104 226.415V226.695C141.09 226.935 141.02 227.168 140.901 227.376C140.782 227.584 140.616 227.762 140.416 227.895L128.8 234.599C128.416 234.815 128.104 234.639 128.104 234.199V233.919C128.118 233.678 128.188 233.444 128.309 233.236C128.43 233.028 128.598 232.85 128.8 232.719Z"
        fill="#E0E0E0" />
    <path
        d="M128.8 236.469L140.416 229.765C140.792 229.549 141.104 229.765 141.104 230.165V230.445C141.09 230.685 141.02 230.918 140.901 231.126C140.782 231.334 140.616 231.512 140.416 231.645L128.8 238.349C128.416 238.565 128.104 238.389 128.104 237.949V237.669C128.118 237.428 128.188 237.194 128.309 236.986C128.43 236.778 128.598 236.6 128.8 236.469Z"
        fill="#E0E0E0" />
    <path
        d="M105.84 163.249C105.68 163.196 105.6 163.044 105.6 162.793C105.609 162.549 105.658 162.309 105.744 162.081L106.608 159.329C106.663 159.08 106.788 158.853 106.968 158.673C107.026 158.641 107.093 158.624 107.16 158.624C107.227 158.624 107.293 158.641 107.352 158.673C107.796 158.859 108.281 158.93 108.76 158.88C109.24 158.83 109.699 158.659 110.096 158.385C110.811 157.968 111.372 157.331 111.696 156.569C112.07 155.634 112.247 154.632 112.216 153.625V137.489C112.201 137.023 112.285 136.559 112.464 136.129C112.655 135.732 112.969 135.407 113.36 135.201L115.136 134.177C115.536 133.945 115.824 133.913 115.992 134.089C116.203 134.407 116.294 134.79 116.248 135.169V151.361C116.276 153.633 115.795 155.883 114.84 157.945C113.969 159.843 112.529 161.422 110.72 162.465C108.794 163.58 107.168 163.841 105.84 163.249Z"
        fill="#455A64" />
    <path
        d="M120.248 153.526C118.813 152.054 118.096 149.235 118.096 145.07C118.014 141.312 118.749 137.581 120.248 134.134C121.526 131.186 123.709 128.72 126.48 127.094C129.192 125.494 131.28 125.494 132.696 126.95C134.112 128.406 134.848 131.23 134.848 135.398C134.93 139.156 134.195 142.887 132.696 146.334C131.421 149.277 129.244 151.739 126.48 153.366C123.76 154.934 121.683 154.987 120.248 153.526ZM129.784 144.854C130.598 142.543 130.978 140.102 130.904 137.654C130.904 134.768 130.531 132.806 129.784 131.766C129.04 130.726 127.944 130.63 126.48 131.47C124.928 132.421 123.752 133.879 123.152 135.598C122.34 137.908 121.963 140.35 122.04 142.798C122.04 145.678 122.408 147.646 123.152 148.678C123.896 149.71 125.008 149.814 126.48 148.958C128.025 148.016 129.194 146.564 129.784 144.854Z"
        fill="#455A64" />
    <path
        d="M137.072 146.314C136.861 146.005 136.77 145.629 136.816 145.258V123.314C136.803 122.845 136.89 122.378 137.072 121.946C137.238 121.575 137.518 121.266 137.872 121.066L144.912 116.994C146.683 115.975 148.016 115.836 148.912 116.578C149.808 117.319 150.248 118.786 150.232 120.978C150.232 122.137 150.052 123.29 149.696 124.394C149.385 125.418 148.883 126.373 148.216 127.21C149.864 127.098 150.688 128.484 150.688 131.37C150.687 132.786 150.474 134.193 150.056 135.546C149.635 136.911 148.983 138.193 148.128 139.338C147.27 140.49 146.18 141.449 144.928 142.154L137.888 146.226C137.512 146.442 137.24 146.474 137.072 146.314ZM144.272 127.562C144.914 127.186 145.432 126.63 145.76 125.962C146.134 125.198 146.318 124.356 146.296 123.506C146.296 122.498 146.128 121.906 145.8 121.626C145.472 121.346 144.96 121.466 144.272 121.858L140.8 123.874V129.602L144.272 127.562ZM144.656 137.85C145.371 137.447 145.933 136.82 146.256 136.066C146.609 135.253 146.786 134.375 146.776 133.49C146.776 132.434 146.576 131.754 146.176 131.458C145.776 131.162 145.208 131.218 144.488 131.634L140.8 133.754V140.082L144.656 137.85Z"
        fill="#455A64" />
    <path
        d="M154.248 136.721C153.335 136.989 152.36 136.95 151.472 136.609C151.367 136.564 151.277 136.489 151.214 136.394C151.15 136.299 151.114 136.188 151.112 136.073C151.122 135.874 151.163 135.677 151.232 135.489L152.224 132.513C152.264 132.3 152.374 132.106 152.536 131.961C152.591 131.932 152.653 131.917 152.716 131.917C152.779 131.917 152.84 131.932 152.896 131.961C153.561 132.14 154.258 132.167 154.936 132.041C155.757 131.894 156.545 131.601 157.264 131.177C158.097 130.728 158.808 130.083 159.336 129.297C159.799 128.528 160.032 127.643 160.008 126.745C160.048 126.243 159.934 125.741 159.68 125.305C159.446 125 159.101 124.799 158.72 124.745C158.07 124.659 157.415 124.616 156.76 124.617C155.881 124.638 155.003 124.536 154.152 124.313C153.417 124.089 152.792 123.599 152.4 122.937C151.876 121.956 151.637 120.847 151.712 119.737C151.683 117.514 152.258 115.324 153.376 113.401C154.417 111.576 155.925 110.061 157.744 109.009C160.144 107.625 161.96 107.265 163.224 107.913C163.324 107.965 163.41 108.041 163.473 108.135C163.536 108.229 163.574 108.337 163.584 108.449C163.574 108.649 163.533 108.846 163.464 109.033L162.48 112.009C162.44 112.221 162.33 112.413 162.168 112.553C162.113 112.585 162.051 112.602 161.988 112.602C161.925 112.602 161.863 112.585 161.808 112.553C160.832 112.132 159.648 112.321 158.256 113.121C157.453 113.535 156.784 114.166 156.324 114.943C155.864 115.72 155.632 116.611 155.656 117.513C155.62 117.997 155.725 118.481 155.96 118.905C156.144 119.189 156.431 119.389 156.76 119.465C157.309 119.565 157.866 119.61 158.424 119.601H159.096C160.032 119.605 160.962 119.748 161.856 120.025C162.54 120.274 163.097 120.783 163.408 121.441C163.824 122.454 164.007 123.548 163.944 124.641C163.945 126.757 163.394 128.837 162.344 130.673C161.272 132.578 159.693 134.148 157.784 135.209C156.691 135.895 155.498 136.406 154.248 136.721Z"
        fill="#455A64" />
    <path
        d="M254.216 59.7345L250.968 57.8545C250.733 57.7448 250.472 57.7003 250.213 57.7257C249.954 57.751 249.707 57.8452 249.496 57.9985L208.161 81.9185C207.556 82.314 207.053 82.8458 206.692 83.4711C206.331 84.0963 206.121 84.7976 206.08 85.5185V170.718C206.053 170.976 206.095 171.237 206.202 171.473C206.309 171.709 206.477 171.913 206.688 172.062L209.888 173.935H209.937C210.166 174.027 210.416 174.061 210.662 174.031C210.908 174.002 211.143 173.911 211.344 173.767L222.264 167.463V174.03C222.264 175.19 222.448 175.862 222.752 176.047L225.952 177.91C226.32 178.11 226.856 177.599 227.456 176.311L235.2 159.91L252.616 149.798C253.221 149.403 253.724 148.871 254.085 148.246C254.446 147.621 254.656 146.919 254.696 146.198V61.0705C254.736 60.8254 254.713 60.5741 254.629 60.3404C254.545 60.1067 254.403 59.8982 254.216 59.7345Z"
        fill="#77CEFF" />
    <path opacity="0.4"
        d="M254.137 59.6871C253.907 59.6049 253.661 59.5788 253.419 59.6108C253.177 59.6428 252.946 59.732 252.745 59.8711L211.401 83.7991C210.8 84.1728 210.305 84.6931 209.961 85.3111L206.713 83.4311C207.055 82.8114 207.551 82.2906 208.153 81.9191L249.489 57.9911C249.767 57.8206 250.083 57.7242 250.409 57.7111C250.602 57.7075 250.792 57.7544 250.961 57.8471L254.137 59.6871Z"
        fill="white" />
    <path opacity="0.2"
        d="M222.808 176.082C222.512 175.898 222.328 175.226 222.328 174.066V167.506L225.6 165.602V175.922C225.6 177.026 225.768 177.698 226.032 177.922L222.808 176.082Z"
        fill="black" />
    <path opacity="0.1"
        d="M209.952 173.942L206.704 172.07C206.497 171.918 206.333 171.715 206.228 171.481C206.122 171.247 206.08 170.989 206.104 170.734V85.5177C206.134 84.7781 206.354 84.0586 206.744 83.4297L209.992 85.3097C209.604 85.9391 209.386 86.6587 209.36 87.3977V172.598C209.33 172.854 209.369 173.114 209.473 173.35C209.577 173.587 209.743 173.791 209.952 173.942Z"
        fill="black" />
    <path
        d="M217.552 87.7395L246.584 70.9395C247.544 70.3875 248.32 70.8355 248.32 71.9395V90.3955C248.288 90.998 248.113 91.5843 247.812 92.1069C247.51 92.6295 247.09 93.0737 246.584 93.4035L217.552 110.203C216.6 110.755 215.824 110.307 215.824 109.203V90.7395C215.857 90.139 216.031 89.5547 216.331 89.0337C216.631 88.5126 217.049 88.0693 217.552 87.7395Z"
        fill="#455A64" />
    <path
        d="M248.32 98.0676C248.278 98.6504 248.099 99.215 247.797 99.7154C247.495 100.216 247.08 100.638 246.584 100.948L217.552 117.708C216.6 118.26 215.824 117.868 215.824 116.828C215.867 116.247 216.046 115.685 216.346 115.186C216.647 114.687 217.06 114.266 217.552 113.956L246.584 97.1956C247.544 96.6436 248.32 97.0356 248.32 98.0676Z"
        fill="#455A64" />
    <path
        d="M248.32 105.599C248.278 106.181 248.099 106.746 247.797 107.246C247.495 107.747 247.08 108.169 246.584 108.479L217.552 125.279C216.6 125.831 215.824 125.439 215.824 124.399C215.867 123.818 216.046 123.256 216.346 122.757C216.647 122.258 217.06 121.837 217.552 121.527L246.584 104.727C247.544 104.151 248.32 104.543 248.32 105.599Z"
        fill="#455A64" />
    <path
        d="M248.32 113.075C248.278 113.658 248.099 114.223 247.797 114.723C247.495 115.224 247.08 115.646 246.584 115.955L217.552 132.755C216.6 133.307 215.824 132.915 215.824 131.875C215.867 131.295 216.046 130.733 216.346 130.234C216.647 129.735 217.06 129.314 217.552 129.003L246.584 112.203C247.544 111.651 248.32 112.043 248.32 113.075Z"
        fill="#455A64" />
    <path
        d="M248.32 120.579C248.278 121.162 248.099 121.727 247.797 122.227C247.495 122.728 247.08 123.15 246.584 123.459L217.552 140.219C216.6 140.771 215.824 140.379 215.824 139.339C215.867 138.759 216.046 138.196 216.346 137.698C216.647 137.199 217.06 136.777 217.552 136.467L246.584 119.667C247.544 119.195 248.32 119.547 248.32 120.579Z"
        fill="#455A64" />
    <path
        d="M215.824 146.859C215.824 147.891 216.624 148.283 217.552 147.731L220.592 145.979C221.085 145.668 221.498 145.247 221.798 144.748C222.098 144.249 222.277 143.687 222.32 143.107C222.32 142.067 221.52 141.675 220.592 142.227L217.552 143.979C217.059 144.29 216.645 144.712 216.345 145.212C216.045 145.713 215.866 146.277 215.824 146.859Z"
        fill="#455A64" />
    <path
        d="M226.721 140.579C226.721 141.611 227.521 142.003 228.457 141.451L246.585 130.971C247.08 130.661 247.496 130.239 247.798 129.739C248.099 129.238 248.278 128.674 248.321 128.091C248.321 127.059 247.521 126.667 246.585 127.219L228.457 137.699C227.961 138.009 227.546 138.431 227.244 138.931C226.942 139.432 226.763 139.996 226.721 140.579Z"
        fill="#455A64" />
    <path
        d="M215.824 154.398C215.824 155.43 216.624 155.822 217.552 155.27L220.592 153.518C221.085 153.208 221.498 152.786 221.798 152.287C222.098 151.788 222.277 151.226 222.32 150.646C222.32 149.606 221.52 149.214 220.592 149.766L217.552 151.518C217.059 151.829 216.645 152.251 216.345 152.752C216.045 153.252 215.866 153.816 215.824 154.398Z"
        fill="#455A64" />
    <path
        d="M226.721 148.079C226.721 149.111 227.521 149.503 228.457 148.951L246.585 138.471C247.08 138.161 247.496 137.739 247.798 137.239C248.099 136.738 248.278 136.174 248.321 135.591C248.321 134.559 247.521 134.167 246.585 134.719L228.457 145.199C227.961 145.509 227.546 145.931 227.244 146.431C226.942 146.932 226.763 147.496 226.721 148.079Z"
        fill="#455A64" />
    <path
        d="M215.824 161.866C215.824 162.898 216.624 163.29 217.552 162.738L220.592 160.986C221.085 160.676 221.498 160.255 221.798 159.756C222.098 159.257 222.277 158.695 222.32 158.114C222.32 157.074 221.52 156.682 220.592 157.234L217.552 158.986C217.059 159.297 216.645 159.72 216.345 160.22C216.045 160.721 215.866 161.284 215.824 161.866Z"
        fill="#455A64" />
    <path
        d="M226.721 155.587C226.721 156.619 227.521 157.011 228.457 156.459L246.585 145.979C247.079 145.67 247.494 145.249 247.796 144.75C248.097 144.251 248.277 143.688 248.321 143.107C248.321 142.067 247.521 141.675 246.585 142.227L228.457 152.707C227.961 153.016 227.546 153.438 227.244 153.939C226.942 154.439 226.763 155.004 226.721 155.587Z"
        fill="#455A64" />
    <path
        d="M293.233 82.1954L290.033 80.3154C289.797 80.2058 289.536 80.1613 289.277 80.1866C289.018 80.2119 288.771 80.3061 288.561 80.4594L247.201 104.371C246.596 104.767 246.094 105.299 245.732 105.924C245.371 106.549 245.161 107.25 245.121 107.971V193.171C245.093 193.429 245.135 193.69 245.242 193.926C245.349 194.162 245.517 194.366 245.729 194.515L248.969 196.387H249.009C249.24 196.481 249.491 196.515 249.738 196.485C249.986 196.456 250.222 196.364 250.425 196.219L261.345 189.915V196.483C261.345 197.643 261.529 198.315 261.825 198.499L265.025 200.363H265.065C265.433 200.563 265.969 200.051 266.561 198.763L274.313 182.363L291.729 172.251C292.333 171.856 292.836 171.324 293.197 170.699C293.558 170.074 293.768 169.372 293.809 168.651V83.5314C293.837 83.2779 293.799 83.0212 293.698 82.7868C293.597 82.5525 293.437 82.3486 293.233 82.1954Z"
        fill="#77CEFF" />
    <path opacity="0.4"
        d="M293.145 82.148C292.915 82.0658 292.669 82.0396 292.427 82.0716C292.185 82.1036 291.954 82.1929 291.753 82.332L250.401 106.26C249.8 106.634 249.305 107.154 248.961 107.772L245.713 105.892C246.057 105.274 246.552 104.754 247.153 104.38L288.497 80.452C288.774 80.2798 289.091 80.1832 289.417 80.172C289.607 80.1694 289.794 80.2162 289.961 80.308L293.145 82.148Z"
        fill="white" />
    <path opacity="0.2"
        d="M261.817 198.542C261.521 198.358 261.337 197.686 261.337 196.526V189.966L264.585 188.086V198.398C264.585 199.502 264.753 200.174 265.025 200.398L261.817 198.542Z"
        fill="black" />
    <path opacity="0.1"
        d="M248.961 196.402L245.721 194.53C245.512 194.38 245.347 194.177 245.242 193.943C245.136 193.708 245.095 193.45 245.121 193.194V107.994C245.147 107.255 245.365 106.536 245.753 105.906L249.001 107.786C248.613 108.416 248.395 109.135 248.369 109.874V195.074C248.342 195.328 248.382 195.585 248.486 195.818C248.59 196.051 248.754 196.253 248.961 196.402Z"
        fill="black" />
    <path
        d="M256.569 110.2L285.601 93.4004C286.553 92.8484 287.329 93.2964 287.329 94.4004V112.904C287.297 113.506 287.123 114.092 286.823 114.614C286.523 115.137 286.104 115.581 285.601 115.912L256.569 132.712C255.609 133.264 254.833 132.816 254.833 131.712V113.2C254.866 112.599 255.04 112.014 255.342 111.492C255.643 110.971 256.064 110.528 256.569 110.2Z"
        fill="#455A64" />
    <path
        d="M287.329 120.529C287.287 121.11 287.109 121.674 286.809 122.175C286.508 122.675 286.095 123.098 285.601 123.409L256.569 140.169C255.609 140.721 254.833 140.329 254.833 139.289C254.876 138.707 255.056 138.144 255.358 137.645C255.66 137.146 256.074 136.725 256.569 136.417L285.601 119.657C286.553 119.105 287.329 119.497 287.329 120.529Z"
        fill="#455A64" />
    <path
        d="M287.329 128.034C287.287 128.616 287.109 129.18 286.809 129.68C286.508 130.18 286.095 130.603 285.601 130.914L256.569 147.674C255.609 148.226 254.833 147.834 254.833 146.794C254.876 146.212 255.056 145.649 255.358 145.15C255.66 144.651 256.074 144.23 256.569 143.922L285.601 127.194C286.553 126.61 287.329 127.002 287.329 128.034Z"
        fill="#455A64" />
    <path
        d="M287.329 135.536C287.283 136.114 287.103 136.673 286.803 137.169C286.503 137.665 286.092 138.084 285.601 138.392L256.569 155.192C255.609 155.744 254.833 155.352 254.833 154.312C254.876 153.731 255.056 153.168 255.358 152.669C255.66 152.17 256.074 151.749 256.569 151.44L285.601 134.664C286.553 134.112 287.329 134.504 287.329 135.536Z"
        fill="#455A64" />
    <path
        d="M287.329 143.047C287.287 143.629 287.109 144.193 286.809 144.693C286.508 145.193 286.095 145.616 285.601 145.927L256.569 162.727C255.609 163.279 254.833 162.887 254.833 161.847C254.876 161.266 255.056 160.703 255.358 160.204C255.66 159.705 256.074 159.284 256.569 158.975L285.601 142.175C286.553 141.599 287.329 142.015 287.329 143.047Z"
        fill="#455A64" />
    <path
        d="M254.833 169.32C254.833 170.352 255.633 170.744 256.569 170.192L259.601 168.44C260.096 168.131 260.51 167.71 260.812 167.211C261.114 166.712 261.294 166.149 261.337 165.568C261.337 164.528 260.537 164.136 259.601 164.688L256.569 166.44C256.073 166.749 255.658 167.171 255.356 167.672C255.055 168.172 254.875 168.737 254.833 169.32Z"
        fill="#455A64" />
    <path
        d="M265.736 163.032C265.736 164.064 266.536 164.456 267.472 163.904L285.6 153.424C286.094 153.113 286.508 152.691 286.808 152.19C287.108 151.69 287.286 151.126 287.328 150.544C287.328 149.512 286.528 149.12 285.6 149.672L267.464 160.152C266.971 160.463 266.557 160.886 266.257 161.386C265.957 161.886 265.778 162.45 265.736 163.032Z"
        fill="#455A64" />
    <path
        d="M254.833 176.796C254.833 177.828 255.633 178.22 256.569 177.668L259.601 175.916C260.096 175.607 260.51 175.186 260.812 174.687C261.114 174.189 261.294 173.626 261.337 173.044C261.337 172.004 260.537 171.612 259.601 172.164L256.569 173.916C256.073 174.226 255.658 174.648 255.356 175.148C255.055 175.649 254.875 176.213 254.833 176.796Z"
        fill="#455A64" />
    <path
        d="M265.736 170.54C265.736 171.572 266.536 171.964 267.472 171.412L285.6 160.932C286.094 160.621 286.508 160.198 286.808 159.698C287.108 159.198 287.286 158.634 287.328 158.052C287.328 157.02 286.528 156.628 285.6 157.18L267.464 167.66C266.971 167.971 266.557 168.394 266.257 168.894C265.957 169.394 265.778 169.958 265.736 170.54Z"
        fill="#455A64" />
    <path
        d="M254.833 184.327C254.833 185.359 255.633 185.751 256.569 185.199L259.601 183.447C260.096 183.139 260.51 182.718 260.812 182.219C261.114 181.72 261.294 181.157 261.337 180.575C261.337 179.535 260.537 179.143 259.601 179.695L256.569 181.447C256.073 181.757 255.658 182.179 255.356 182.679C255.055 183.18 254.875 183.745 254.833 184.327Z"
        fill="#455A64" />
    <path
        d="M265.736 178.048C265.736 179.08 266.536 179.472 267.472 178.92L285.6 168.44C286.093 168.129 286.506 167.708 286.806 167.209C287.106 166.71 287.285 166.148 287.328 165.568C287.328 164.528 286.528 164.136 285.6 164.688L267.464 175.2C266.975 175.507 266.564 175.925 266.264 176.419C265.964 176.914 265.783 177.471 265.736 178.048Z"
        fill="#455A64" />
    <path
        d="M335.504 49.1759L331.2 46.7119H331.16C329.264 45.6479 326.664 45.8079 323.784 47.4639C317.984 50.8159 313.288 58.9599 313.288 65.6559C313.288 68.9919 314.456 71.3439 316.352 72.4399L320.24 74.6639L321.168 73.0639C322.227 72.8316 323.245 72.4377 324.184 71.8959C329.976 68.5519 334.68 60.4079 334.68 53.7119C334.677 52.8087 334.567 51.9091 334.352 51.0319L335.504 49.1759Z"
        fill="#77CEFF" />
    <path
        d="M313.312 65.5943C313.312 68.9383 314.48 71.2903 316.376 72.3863L320.264 74.6103L321.192 73.0583C322.251 72.8194 323.268 72.423 324.208 71.8823C327.523 69.7961 330.215 66.8558 332 63.3703L316.8 54.5703C314.665 57.8634 313.46 61.6724 313.312 65.5943Z"
        fill="#263238" />
    <path
        d="M335.512 49.1739L331.24 46.7099H331.2C329.304 45.6379 326.704 45.7979 323.824 47.4619C320.941 49.2362 318.532 51.6818 316.8 54.5899L332 63.3899C333.654 60.4523 334.576 57.1594 334.688 53.7899C334.685 52.8868 334.575 51.9871 334.36 51.1099L335.512 49.1739Z"
        fill="#455A64" />
    <path
        d="M327.864 49.7757C322.072 53.1197 317.368 61.2637 317.368 67.9997C317.368 74.7357 322.072 77.4077 327.864 74.0557C333.656 70.7037 338.4 62.5277 338.4 55.8317C338.4 49.1357 333.664 46.3997 327.864 49.7757Z"
        fill="#37474F" />
    <path
        d="M328.632 55.3188C328.943 55.2105 329.277 55.1856 329.6 55.2468C329.864 55.3079 330.107 55.4376 330.304 55.6228C330.495 55.8085 330.64 56.0357 330.728 56.2868C330.829 56.5423 330.889 56.8124 330.904 57.0868C330.91 57.2203 330.879 57.3529 330.816 57.4708C330.768 57.5759 330.69 57.6648 330.592 57.7268L329.792 58.1828C329.664 58.2628 329.568 58.2788 329.504 58.2388C329.426 58.1886 329.365 58.1162 329.328 58.0308C329.273 57.9275 329.198 57.8362 329.107 57.762C329.017 57.6879 328.912 57.6324 328.8 57.5988C328.621 57.573 328.439 57.5838 328.264 57.6306C328.09 57.6773 327.926 57.759 327.784 57.8708C327.581 57.985 327.392 58.1248 327.224 58.2868C327.048 58.4489 326.893 58.6315 326.76 58.8308C326.628 59.0234 326.523 59.2334 326.448 59.4548C326.376 59.6659 326.338 59.8875 326.336 60.1108C326.319 60.3139 326.364 60.5174 326.464 60.6948C326.511 60.7566 326.571 60.8069 326.641 60.8416C326.71 60.8763 326.787 60.8945 326.864 60.8948C327.104 60.9054 327.344 60.8812 327.576 60.8228L328.632 60.5748C329.005 60.4762 329.391 60.433 329.776 60.4468C330.067 60.4519 330.349 60.5532 330.576 60.7348C330.792 60.9302 330.943 61.187 331.008 61.4708C331.099 61.8615 331.142 62.2617 331.136 62.6628C331.13 63.1135 331.071 63.5619 330.96 63.9988C330.844 64.4633 330.677 64.9139 330.464 65.3428C330.244 65.7842 329.976 66.2 329.664 66.5828C329.356 66.9684 329.004 67.3174 328.616 67.6228V68.7988C328.614 68.9298 328.581 69.0585 328.52 69.1748C328.48 69.282 328.407 69.3741 328.312 69.4388L327.392 69.9668C327.363 69.9938 327.324 70.0087 327.284 70.0087C327.244 70.0087 327.206 69.9938 327.176 69.9668C327.144 69.9296 327.12 69.8864 327.105 69.8397C327.09 69.793 327.084 69.7437 327.088 69.6948V68.5108C326.783 68.618 326.46 68.6668 326.136 68.6548C325.852 68.6422 325.575 68.5538 325.336 68.3988C325.103 68.2308 324.918 68.0046 324.8 67.7428C324.654 67.4014 324.578 67.0341 324.576 66.6628C324.569 66.529 324.599 66.3959 324.664 66.2788C324.71 66.1722 324.785 66.0807 324.88 66.0148L325.68 65.5588C325.808 65.4868 325.904 65.4628 325.976 65.4948C326.055 65.5453 326.115 65.6216 326.144 65.7108C326.2 65.8297 326.265 65.9446 326.336 66.0548C326.412 66.159 326.518 66.2373 326.64 66.2788C326.798 66.3156 326.962 66.3156 327.12 66.2788C327.376 66.2195 327.619 66.1167 327.84 65.9748C328.071 65.8411 328.291 65.6886 328.496 65.5188C328.7 65.347 328.885 65.1539 329.048 64.9428C329.205 64.7337 329.334 64.5051 329.432 64.2628C329.53 64.0242 329.579 63.7685 329.576 63.5108C329.588 63.4152 329.579 63.3184 329.552 63.2262C329.524 63.134 329.478 63.0484 329.416 62.9748C329.349 62.9215 329.272 62.8821 329.19 62.8587C329.108 62.8354 329.021 62.8286 328.936 62.8388C328.666 62.8536 328.398 62.8965 328.136 62.9668C327.816 63.0468 327.456 63.1188 327.04 63.1988C326.716 63.2754 326.381 63.2997 326.048 63.2708C325.79 63.2532 325.544 63.149 325.352 62.9748C325.151 62.7671 325.008 62.5107 324.936 62.2308C324.837 61.8143 324.791 61.3868 324.8 60.9588C324.8 60.5024 324.859 60.0478 324.976 59.6068C325.088 59.1579 325.243 58.7211 325.44 58.3028C325.636 57.8854 325.878 57.491 326.16 57.1268C326.431 56.7716 326.736 56.4447 327.072 56.1508V54.9748C327.076 54.8447 327.106 54.7168 327.16 54.5988C327.206 54.4922 327.281 54.4007 327.376 54.3348L328.296 53.8068C328.324 53.7803 328.362 53.7656 328.4 53.7656C328.439 53.7656 328.476 53.7803 328.504 53.8068C328.539 53.8425 328.566 53.8853 328.582 53.9322C328.599 53.9792 328.605 54.0292 328.6 54.0788L328.632 55.3188Z"
        fill="#FAFAFA" />
    <path
        d="M335.504 127.455L331.2 124.991H331.16C329.264 123.919 326.664 124.079 323.784 125.743C317.984 129.087 313.288 137.231 313.288 143.927C313.288 147.271 314.456 149.615 316.352 150.719L320.24 152.935L321.168 151.383C322.226 151.147 323.243 150.753 324.184 150.215C329.976 146.863 334.68 138.719 334.68 132.023C334.676 131.12 334.566 130.22 334.352 129.343L335.504 127.455Z"
        fill="#77CEFF" />
    <path
        d="M313.312 143.907C313.312 147.251 314.48 149.595 316.376 150.699L320.264 152.915L321.192 151.363C322.251 151.124 323.268 150.728 324.208 150.187C327.526 148.098 330.218 145.151 332 141.659L316.8 132.859C314.663 136.16 313.458 139.978 313.312 143.907Z"
        fill="#263238" />
    <path
        d="M335.512 127.455L331.24 124.991H331.2C329.304 123.919 326.704 124.079 323.824 125.743C320.946 127.524 318.542 129.975 316.816 132.887L332.016 141.687C333.685 138.723 334.61 135.399 334.712 131.999C334.709 131.096 334.599 130.196 334.384 129.319L335.512 127.455Z"
        fill="#455A64" />
    <path
        d="M327.864 128.054C322.072 131.398 317.368 139.542 317.368 146.238C317.368 152.934 322.072 155.646 327.864 152.302C333.656 148.958 338.4 140.798 338.4 134.118C338.4 127.438 333.664 124.71 327.864 128.054Z"
        fill="#37474F" />
    <path
        d="M333.208 142.562L322.528 148.73C322.4 148.802 322.304 148.73 322.304 148.514V139.042C322.301 138.95 322.32 138.859 322.359 138.776C322.398 138.692 322.456 138.619 322.528 138.562L333.208 132.394C333.328 132.322 333.432 132.394 333.432 132.61V142.09C333.433 142.181 333.414 142.27 333.375 142.352C333.336 142.434 333.279 142.506 333.208 142.562Z"
        fill="#FAFAFA" />
    <path
        d="M329.968 134.897C329.848 134.969 329.744 134.897 329.744 134.681V133.241L325.992 135.409V136.849C325.994 136.941 325.974 137.033 325.933 137.116C325.893 137.2 325.834 137.273 325.76 137.329C325.64 137.401 325.536 137.329 325.536 137.113V135.321C325.535 135.23 325.554 135.141 325.593 135.059C325.632 134.977 325.689 134.905 325.76 134.849L329.968 132.449C330.096 132.377 330.192 132.449 330.192 132.665V134.401C330.199 134.496 330.182 134.59 330.142 134.677C330.103 134.764 330.043 134.839 329.968 134.897Z"
        fill="#FAFAFA" />
    <path
        d="M329.968 133.109L325.76 135.509C325.64 135.581 325.536 135.509 325.536 135.293V134.493C325.535 134.401 325.555 134.311 325.594 134.228C325.633 134.145 325.689 134.071 325.76 134.013L329.968 131.613C330.096 131.541 330.192 131.613 330.192 131.829V132.629C330.195 132.721 330.176 132.812 330.137 132.895C330.098 132.979 330.04 133.052 329.968 133.109Z"
        fill="#FAFAFA" />
    <path
        d="M329.392 139.023L326.336 140.783C326.248 140.839 326.176 140.783 326.176 140.623V140.047C326.175 139.981 326.188 139.916 326.216 139.857C326.244 139.797 326.285 139.745 326.336 139.703L329.392 137.943C329.488 137.887 329.56 137.943 329.56 138.095V138.671C329.561 138.739 329.547 138.806 329.518 138.867C329.489 138.928 329.445 138.982 329.392 139.023Z"
        fill="#37474F" />
    <path
        d="M335.504 88.3147L331.2 85.8427H331.16C329.264 84.7707 326.664 84.9307 323.784 86.5947C317.984 89.9467 313.288 98.0827 313.288 104.779C313.288 108.123 314.456 110.475 316.352 111.571L320.24 113.787L321.168 112.235C322.227 112.002 323.245 111.608 324.184 111.067C329.976 107.715 334.68 99.5787 334.68 92.8827C334.677 91.9769 334.567 91.0747 334.352 90.1947L335.504 88.3147Z"
        fill="#77CEFF" />
    <path
        d="M313.312 104.799C313.312 108.143 314.48 110.495 316.376 111.591L320.264 113.807L321.192 112.255C322.252 112.022 323.269 111.629 324.208 111.087C327.531 108.985 330.223 106.025 332 102.519L316.8 93.7188C314.658 97.029 313.452 100.858 313.312 104.799Z"
        fill="#263238" />
    <path
        d="M335.512 88.3191L331.24 85.8471H331.2C329.304 84.7831 326.704 84.9351 323.824 86.5991C320.946 88.3799 318.542 90.8311 316.816 93.7431L332.016 102.543C333.675 99.5929 334.597 96.2859 334.704 92.9031C334.701 91.9973 334.591 91.0951 334.376 90.2151L335.512 88.3191Z"
        fill="#455A64" />
    <path
        d="M327.864 88.91C322.072 92.262 317.368 100.398 317.368 107.094C317.368 113.79 322.072 116.51 327.864 113.158C333.656 109.806 338.4 101.67 338.4 94.974C338.4 88.278 333.664 85.598 327.864 88.91Z"
        fill="#37474F" />
    <path
        d="M324 99.5669C324 98.0469 324.8 96.3669 325.792 95.7749C326.784 95.1829 327.584 95.9749 327.584 97.5029C327.584 99.0309 326.784 100.703 325.792 101.295C324.8 101.887 324 101.095 324 99.5669Z"
        fill="white" />
    <path
        d="M328.992 107.244L322.4 111.052L322.752 106.668C322.904 104.804 323.888 102.892 325.056 102.22L326.328 101.484C327.496 100.812 328.48 101.58 328.632 103.276L328.992 107.244Z"
        fill="white" />
    <path
        d="M328.353 94.9966C328.353 93.4766 329.153 91.7966 330.145 91.2046C331.137 90.6126 331.937 91.4046 331.937 92.9326C331.937 94.4606 331.137 96.1326 330.145 96.7246C329.153 97.3166 328.353 96.5246 328.353 94.9966Z"
        fill="white" />
    <path
        d="M333.328 102.678L329.288 105.014L329.104 102.918C328.968 101.446 328.304 100.518 327.424 100.518C327.734 99.3708 328.432 98.367 329.4 97.6778L330.672 96.9498C331.84 96.2698 332.824 97.0378 332.976 98.7338L333.328 102.678Z"
        fill="white" />
    <path
        d="M226 251.855C226 246.895 222.72 241.935 216.16 238.151C203.048 230.575 181.76 230.575 168.672 238.151C162.112 241.935 158.832 246.895 158.832 251.855V260.999C158.832 265.959 162.112 270.919 168.672 274.711C181.784 282.279 203.072 282.279 216.16 274.711C222.72 270.919 226 265.959 226 260.999V251.855ZM170.296 240.959C176.152 237.575 184.008 235.719 192.416 235.719C200.824 235.719 208.68 237.575 214.536 240.959C219.832 244.015 222.752 247.887 222.752 251.855C222.752 255.823 219.832 259.695 214.536 262.751C208.68 266.135 200.8 267.999 192.416 267.999C184.032 267.999 176.152 266.135 170.296 262.751C165 259.695 162.08 255.823 162.08 251.855C162.08 247.887 165 243.999 170.296 240.959Z"
        fill="#77CEFF" />
    <path opacity="0.3"
        d="M168.664 265.595C181.784 273.163 203.064 273.163 216.16 265.595C229.256 258.027 229.272 245.747 216.16 238.179C203.048 230.611 181.76 230.603 168.664 238.179C155.568 245.755 155.552 257.995 168.664 265.595ZM162.08 251.883C162.08 247.883 164.992 244.043 170.288 240.987C176.144 237.603 184.008 235.747 192.416 235.747C200.824 235.747 208.68 237.603 214.536 240.987C219.832 244.043 222.744 247.915 222.744 251.883C222.744 255.851 219.832 259.723 214.536 262.779C208.68 266.131 200.8 267.995 192.416 267.995C184.032 267.995 176.144 266.131 170.288 262.747C164.992 259.691 162.08 255.819 162.08 251.851V251.883Z"
        fill="white" />
    <path
        d="M162.08 251.855C162.1 253.47 162.553 255.051 163.392 256.431C164.72 254.127 167.064 251.959 170.296 250.103C176.144 246.719 184.008 244.855 192.416 244.855C200.824 244.855 208.68 246.719 214.536 250.103C217.346 251.583 219.727 253.762 221.448 256.431C222.282 255.048 222.732 253.469 222.752 251.855C222.752 247.855 219.832 244.015 214.536 240.959C208.68 237.583 200.824 235.719 192.416 235.719C184.008 235.719 176.144 237.583 170.296 240.959C164.992 243.999 162.08 247.887 162.08 251.855Z"
        fill="#77CEFF" />
    <path opacity="0.1"
        d="M162.08 251.855C162.1 253.47 162.553 255.051 163.392 256.431C164.72 254.127 167.064 251.959 170.296 250.103C176.144 246.719 184.008 244.855 192.416 244.855C200.824 244.855 208.68 246.719 214.536 250.103C217.346 251.583 219.727 253.762 221.448 256.431C222.282 255.048 222.732 253.469 222.752 251.855C222.752 247.855 219.832 244.015 214.536 240.959C208.68 237.583 200.824 235.719 192.416 235.719C184.008 235.719 176.144 237.583 170.296 240.959C164.992 243.999 162.08 247.887 162.08 251.855Z"
        fill="black" />
    <path opacity="0.4"
        d="M170.288 245.092C176.144 241.716 184.008 239.852 192.416 239.852C200.824 239.852 208.68 241.716 214.536 245.092C218.904 247.62 221.648 250.692 222.48 253.892C221.68 257.092 218.904 260.196 214.536 262.692C208.68 266.132 200.8 267.996 192.416 267.996C184.032 267.996 176.144 266.132 170.288 262.748C165.92 260.228 163.176 257.148 162.352 253.948C163.2 250.692 165.92 247.62 170.288 245.092Z"
        fill="white" />
    <path opacity="0.1"
        d="M184.504 270.699V279.835C178.949 279.147 173.576 277.407 168.672 274.707C162.112 270.915 158.832 265.955 158.832 260.995V251.851C158.835 250.841 158.969 249.835 159.232 248.859C157.632 254.763 160.784 261.011 168.664 265.563C173.57 268.266 178.946 270.009 184.504 270.699Z"
        fill="black" />
    <path
        d="M169.664 271.385C169.623 270.569 169.39 269.774 168.984 269.065C168.578 268.356 168.011 267.753 167.328 267.305C167.092 267.132 166.815 267.025 166.524 266.994C166.233 266.963 165.939 267.009 165.672 267.129L154.4 273.601C154.158 273.766 153.966 273.994 153.844 274.261C153.723 274.527 153.677 274.822 153.712 275.113C153.747 275.926 153.972 276.719 154.37 277.429C154.767 278.139 155.325 278.746 156 279.201C156.237 279.375 156.516 279.482 156.809 279.512C157.102 279.541 157.397 279.492 157.664 279.369L168.968 272.921C169.21 272.75 169.403 272.518 169.525 272.248C169.647 271.978 169.695 271.68 169.664 271.385Z"
        fill="#37474F" />
    <path
        d="M168.968 272.913C169.209 272.743 169.401 272.512 169.523 272.243C169.645 271.975 169.694 271.679 169.664 271.385C169.654 270.778 169.521 270.179 169.272 269.625L154.688 277.961C155.038 278.458 155.484 278.88 156 279.201C156.237 279.375 156.516 279.482 156.809 279.512C157.102 279.541 157.397 279.492 157.664 279.369L168.968 272.921V272.913Z"
        fill="#263238" />
    <path
        d="M157.904 279.201C157.852 278.137 157.55 277.101 157.022 276.177C156.493 275.252 155.754 274.465 154.864 273.881C154.561 273.66 154.204 273.522 153.831 273.481C153.458 273.441 153.08 273.498 152.736 273.649L115.24 293.649L120.84 303.537L157.032 281.137C157.334 280.918 157.573 280.624 157.726 280.285C157.879 279.945 157.94 279.572 157.904 279.201Z"
        fill="#77CEFF" />
    <path opacity="0.1"
        d="M120.8 303.529L156.992 281.129C157.306 280.911 157.555 280.612 157.714 280.265C157.873 279.917 157.936 279.533 157.896 279.153C157.85 278.015 157.499 276.909 156.88 275.953L117.92 298.401L120.8 303.529Z"
        fill="black" />
    <path
        d="M117.976 303.202C116.808 302.436 115.836 301.405 115.141 300.192C114.446 298.98 114.047 297.621 113.976 296.226C113.976 293.666 115.784 292.634 117.976 293.922C119.144 294.686 120.116 295.716 120.811 296.927C121.506 298.137 121.905 299.495 121.976 300.89C121.992 303.49 120.192 304.522 117.976 303.202Z"
        fill="#77CEFF" />
    <g opacity="0.2">
        <path
            d="M117.976 303.202C116.808 302.436 115.836 301.405 115.141 300.192C114.446 298.98 114.047 297.621 113.976 296.226C113.976 293.666 115.784 292.634 117.976 293.922C119.144 294.686 120.116 295.716 120.811 296.927C121.506 298.137 121.905 299.495 121.976 300.89C121.992 303.49 120.192 304.522 117.976 303.202Z"
            fill="black" />
    </g>
    <path
        d="M338.983 214.851C339.391 199.651 338.183 195.995 334.127 193.203L332.527 202.003C332.527 202.003 334.375 212.403 334.175 215.851C334.007 218.891 333.711 222.699 332.991 225.155C332.859 225.587 332.575 225.957 332.191 226.195C331.353 226.792 330.604 227.506 329.967 228.315C329.359 228.955 328.839 229.115 328.919 229.315C329.036 229.538 329.233 229.709 329.47 229.794C329.707 229.878 329.968 229.87 330.199 229.771C330.718 229.565 331.21 229.297 331.663 228.971C331.305 229.904 330.8 230.774 330.167 231.547C328.719 233.315 328.655 234.403 331.575 234.435C333.407 234.435 334.871 233.323 336.247 229.291C336.779 227.813 337.21 226.3 337.535 224.763C338.22 221.492 338.704 218.182 338.983 214.851Z"
        fill="#FFA8A7" />
    <path
        d="M330.72 192.052C331.964 191.83 333.247 192.017 334.375 192.587C335.504 193.157 336.416 194.078 336.976 195.212C338.672 198.244 339.088 203.468 339.28 208.66C339.28 208.66 335.912 211.484 331.864 210.1L330.72 192.052Z"
        fill="#77CEFF" />
    <path
        d="M336.408 275.729C336.712 275.849 336.792 276.433 336.84 277.593C336.84 278.473 337.056 279.993 336.04 280.321C335.024 280.649 333.496 280.465 332.84 279.641C332.04 278.601 331.456 277.697 330.28 276.441C329.256 275.345 328.152 274.321 327.744 272.785C327.368 271.393 327.68 270.793 328.624 270.385C329.928 269.833 331.976 271.649 333 271.929C333.864 272.169 336.096 275.617 336.408 275.729Z"
        fill="#263238" />
    <path
        d="M336.408 274.661V276.085C335.872 276.428 335.253 276.619 334.617 276.636C333.981 276.652 333.353 276.495 332.8 276.181C332.736 276.045 332.424 274.141 332.424 274.141L336.408 274.661Z"
        fill="#FFA8A7" />
    <path
        d="M324.84 284C325.092 284.764 325.303 285.541 325.472 286.328C325.648 287.192 325.904 288.632 325.6 289.28C325.296 289.928 324.12 290.352 322.288 290.336C320.768 290.522 319.306 291.032 318 291.832C316.297 292.555 314.443 292.849 312.6 292.688C311 292.504 309.288 291.56 309.024 290.888C308.76 290.216 309.112 289.512 312.944 287.88C312.944 287.88 318.272 286.144 320.144 284.096L324.84 284Z"
        fill="#263238" />
    <path
        d="M324.839 282.398V284.062C324.839 284.67 324.135 285.574 322.279 285.502C320.983 285.454 320.071 285.11 320.127 284.038V282.494L324.839 282.398Z"
        fill="#FFA8A7" />
    <path
        d="M337.336 255.715C337.019 253.185 336.453 250.693 335.648 248.275C335.648 248.275 336.16 241.875 336.4 235.779C336.664 229.211 336.4 220.947 336.512 219.307C336.512 219.307 315.312 215.019 314.912 222.619C314.512 230.219 315.712 249.547 316 252.883C316.288 256.219 316.8 259.163 317.512 264.571C318.224 269.979 320.104 282.515 320.104 282.515C320.836 282.888 321.65 283.075 322.472 283.058C323.294 283.041 324.099 282.822 324.816 282.419C324.816 282.419 326.312 267.219 326.152 263.387C326.032 260.533 325.542 257.707 324.696 254.979C324.696 254.979 325.096 248.715 325.448 243.267C325.8 237.819 326.184 235.203 326.248 232.867L326.704 232.643C326.704 232.643 327.168 242.043 327.424 245.379C327.68 248.715 328.224 251.915 329.168 258.107C330.008 263.483 332.496 274.859 332.496 274.859C334.896 276.171 336.368 274.691 336.368 274.691C336.368 274.691 337.984 260.379 337.336 255.715Z"
        fill="#37474F" />
    <path
        d="M326.288 232.8C326.288 232.8 331.432 230.264 334.008 228C334.008 228 331.608 231.368 328.48 232.856C328.48 232.856 327.36 244.536 327.368 244.304L326.72 232.8H326.288Z"
        fill="#263238" />
    <path d="M321.712 189.642L322.968 196.546L329.2 196.09L327.896 188.266L321.712 189.642Z" fill="#FFA8A7" />
    <path
        d="M335.791 195.587C335.167 193.707 332.791 191.667 330.407 192.107C326.877 192.713 323.398 193.585 319.999 194.715C317.815 195.515 315.831 197.379 315.647 204.555C315.647 204.555 314.919 221.291 314.903 224.555C319.457 226.342 324.416 226.832 329.231 225.971C335.791 224.539 336.583 221.819 336.583 221.819C336.583 221.819 336.663 209.819 336.471 204.587C336.271 200.147 336.215 196.875 335.791 195.587Z"
        fill="#F5F5F5" />
    <path
        d="M316.895 181.242C316.895 181.242 315.295 183.762 315.511 184.002C315.727 184.242 316.911 184.434 316.911 184.434L316.895 181.242Z"
        fill="#FFA8A7" />
    <path
        d="M321.288 174.269C317.992 175.069 317.072 176.525 316.872 181.789C316.672 187.301 317.272 188.989 318.016 189.741C318.512 190.229 321.216 190.261 322.584 189.853C324.288 189.341 328.12 187.885 329.872 185.053C331.928 181.749 332.392 177.325 330.064 175.565C326.8 173.117 322.632 173.957 321.288 174.269Z"
        fill="#FFA8A7" />
    <path
        d="M316.911 175.642C317.669 176.745 318.739 177.598 319.983 178.09C320.615 178.81 320.263 181.618 321.375 182.09C321.375 182.09 321.855 180.042 323.575 180.258C325.295 180.474 325.583 182.658 324.527 184.034C323.471 185.41 322.447 184.906 322.447 184.906C322.447 184.906 322.567 187.81 323.895 189.426C325.275 189.694 326.699 189.629 328.047 189.234C329.695 188.842 331.991 186.714 332.927 184.498C334.911 179.818 334.959 175.642 331.967 174.458C331.599 172.322 329.895 171.402 327.967 171.01C323.815 170.154 321.143 172.746 317.951 172.514C316.119 172.362 315.775 173.698 316.911 175.642Z"
        fill="#263238" />
    <path
        d="M332.04 175.147L333.992 173.931C333.917 173.793 333.815 173.672 333.691 173.575C333.568 173.477 333.426 173.407 333.274 173.366C333.122 173.326 332.963 173.318 332.808 173.341C332.652 173.364 332.503 173.419 332.37 173.502C332.237 173.585 332.122 173.695 332.032 173.824C331.943 173.953 331.881 174.099 331.85 174.254C331.819 174.408 331.82 174.566 331.852 174.72C331.885 174.874 331.949 175.019 332.04 175.147Z"
        fill="#263238" />
    <path
        d="M293.6 207.144C294.624 207.6 306.704 216.528 308.592 215.488C310.48 214.448 320.136 203.152 320.136 203.152C320.952 201.89 321.386 200.419 321.386 198.916C321.386 197.413 320.952 195.942 320.136 194.68C318.248 195.087 316.571 196.164 315.416 197.712C313.816 200.16 306.792 208.912 306.792 208.912C305.064 208.048 303.336 207.168 301.624 206.28C300.208 205.544 298.784 204.816 297.4 204.024C297.009 203.848 296.644 203.622 296.312 203.352C295.624 202.68 295.744 201.04 295.76 200.152C295.754 199.738 295.773 199.324 295.816 198.912C295.88 198.4 295.976 197.16 295.056 197.552C294.884 197.638 294.736 197.764 294.624 197.92C294.479 198.107 294.368 198.318 294.296 198.544C294.12 199.08 294.176 199.672 294.024 200.208C294.005 200.29 293.963 200.364 293.904 200.424C293.865 200.458 293.819 200.483 293.769 200.498C293.72 200.514 293.667 200.518 293.616 200.512C292.288 200.472 291.024 198.608 290.416 197.616C290.194 197.145 289.845 196.746 289.408 196.464C289.023 196.348 288.61 196.363 288.234 196.508C287.859 196.653 287.543 196.919 287.336 197.264C286.761 198.127 286.524 199.173 286.672 200.2C286.791 201.595 287.407 202.901 288.408 203.88C289.937 205.259 291.694 206.363 293.6 207.144Z"
        fill="#FFA8A7" />
    <path
        d="M321.215 194.32C319.887 194.472 318.015 194.224 315.407 197.032C313.302 199.436 311.339 201.96 309.527 204.592C309.872 205.974 310.606 207.227 311.643 208.203C312.68 209.179 313.975 209.836 315.375 210.096C315.375 210.096 319.943 205.408 321.215 202.832C322.487 200.256 322.791 196.064 321.215 194.32Z"
        fill="#77CEFF" />
</svg>