<svg width="16" height="16" viewBox="0 0 16 16" fill="none" xmlns="http://www.w3.org/2000/svg">
    <path
        d="M8 0C4.6865 0 2 2.6865 2 6C2 7.30475 2.42775 8.502 3.13875 9.4825C3.1515 9.506 3.1535 9.53225 3.168 9.55475L7.168 15.5548C7.3535 15.833 7.666 16 8 16C8.334 16 8.6465 15.833 8.832 15.5548L12.832 9.55475C12.8467 9.53225 12.8485 9.506 12.8612 9.4825C13.5723 8.502 14 7.30475 14 6C14 2.6865 11.3135 0 8 0ZM8 8C6.8955 8 6 7.1045 6 6C6 4.8955 6.8955 4 8 4C9.1045 4 10 4.8955 10 6C10 7.1045 9.1045 8 8 8Z"
        fill="#6D747A" />
</svg>