<svg width="16" height="16" viewBox="0 0 16 16" fill="none" xmlns="http://www.w3.org/2000/svg">
    <path fill-rule="evenodd" clip-rule="evenodd"
        d="M8.03483 0.835938H7.9655C7.3665 0.835918 6.86703 0.835905 6.47051 0.889212C6.05198 0.945485 5.67412 1.06926 5.37047 1.37291C5.06682 1.67656 4.94304 2.05442 4.88677 2.47295C4.84856 2.7572 4.83774 3.43692 4.83469 4.01971C3.48652 4.06374 2.67707 4.22112 2.11454 4.78365C1.3335 5.5647 1.3335 6.8218 1.3335 9.33594C1.3335 11.8501 1.3335 13.1072 2.11454 13.8882C2.89559 14.6693 4.15267 14.6693 6.66682 14.6693H9.3335C11.8476 14.6693 13.1048 14.6693 13.8858 13.8882C14.6668 13.1072 14.6668 11.8501 14.6668 9.33594C14.6668 6.8218 14.6668 5.5647 13.8858 4.78365C13.3232 4.22112 12.5138 4.06374 11.1656 4.01971C11.1626 3.43692 11.1518 2.7572 11.1136 2.47295C11.0573 2.05442 10.9335 1.67656 10.6298 1.37291C10.3262 1.06926 9.94836 0.945485 9.52983 0.889212C9.1333 0.835905 8.63383 0.835918 8.03483 0.835938ZM10.1654 4.00386C10.1624 3.43942 10.1528 2.83198 10.1225 2.6062C10.0811 2.29856 10.0096 2.1669 9.92276 2.08002C9.8359 1.99314 9.70423 1.92166 9.39656 1.8803C9.07456 1.837 8.64283 1.83594 8.00016 1.83594C7.3575 1.83594 6.92576 1.837 6.60376 1.8803C6.29612 1.92166 6.16446 1.99314 6.07758 2.08002C5.9907 2.1669 5.91922 2.29856 5.87786 2.6062C5.8475 2.83198 5.8379 3.43942 5.83488 4.00386C6.09583 4.0026 6.37273 4.0026 6.66683 4.0026H9.3335C9.62763 4.0026 9.9045 4.0026 10.1654 4.00386Z"
        fill="#6D747A" />
</svg>