<svg width="24" height="24" viewBox="0 0 24 24" fill="none" xmlns="http://www.w3.org/2000/svg">
    <path d="M18.0749 1.55469L22.2479 5.90469V22.4467H6.65918V22.5007H22.3012V5.95944L18.0749 1.55469Z"
        fill="#909090" />
    <path d="M18.0237 1.5H6.60645V22.446H22.2484V5.90475L18.0237 1.5Z" fill="#F4F4F4" />
    <path d="M6.49172 2.625H1.69922V7.74525H16.7742V2.625H6.49172Z" fill="#7A7B7C" />
    <path d="M16.8536 7.65525H1.7959V2.53125H16.8536V7.65525Z" fill="#DD2025" />
    <path
        d="M6.78884 3.39844H6.76634H6.61109H5.80859V6.99844H6.57959V5.78419L6.74984 5.79394C6.91527 5.79109 7.07915 5.76146 7.23509 5.70619C7.37182 5.65916 7.4976 5.58492 7.60484 5.48794C7.71397 5.39555 7.8 5.27896 7.85609 5.14744C7.93132 4.92881 7.95818 4.69646 7.93484 4.46644C7.93016 4.30212 7.90135 4.13938 7.84934 3.98344C7.802 3.87087 7.73174 3.76939 7.64303 3.68546C7.55432 3.60153 7.44911 3.53698 7.33409 3.49594C7.23465 3.45994 7.13191 3.43381 7.02734 3.41794C6.94816 3.40572 6.86821 3.3992 6.78809 3.39844M6.64634 5.11894H6.57959V4.00894H6.72434C6.78823 4.00433 6.85233 4.01414 6.91192 4.03763C6.9715 4.06113 7.02505 4.09772 7.06859 4.14469C7.15883 4.26545 7.20704 4.41244 7.20584 4.56319C7.20584 4.74769 7.20584 4.91494 7.03934 5.03269C6.91939 5.09866 6.78286 5.12911 6.64634 5.11894Z"
        fill="#464648" />
    <path
        d="M9.39979 3.39223C9.31654 3.39223 9.23554 3.39823 9.17854 3.40048L9.00004 3.40498H8.41504V7.00498H9.10354C9.36666 7.01219 9.62863 6.9676 9.87454 6.87373C10.0725 6.79522 10.2477 6.66867 10.3845 6.50548C10.5176 6.34082 10.613 6.14911 10.6643 5.94373C10.7232 5.71113 10.7519 5.47192 10.7498 5.23198C10.7643 4.9486 10.7424 4.66452 10.6845 4.38673C10.6296 4.18225 10.5268 3.9938 10.3845 3.83698C10.2729 3.71035 10.1363 3.60821 9.98329 3.53698C9.85187 3.47617 9.71364 3.43135 9.57154 3.40348C9.51503 3.39415 9.45781 3.38988 9.40054 3.39073M9.26404 6.34348H9.18904V4.04548H9.19879C9.35341 4.02769 9.50985 4.05559 9.64879 4.12573C9.75054 4.20698 9.83344 4.30933 9.89179 4.42573C9.95476 4.54823 9.99105 4.68268 9.99829 4.82023C10.005 4.98523 9.99829 5.12023 9.99829 5.23198C10.0013 5.36071 9.99306 5.48946 9.97354 5.61673C9.95042 5.7474 9.90769 5.87383 9.84679 5.99173C9.77786 6.10135 9.68472 6.19371 9.57454 6.26173C9.48201 6.32158 9.37243 6.3495 9.26254 6.34123"
        fill="#464648" />
    <path d="M13.0725 3.40625H11.25V7.00625H12.021V5.57825H12.996V4.90925H12.021V4.07525H13.071V3.40625"
        fill="#464648" />
    <path
        d="M16.3355 15.1882C16.3355 15.1882 18.7265 14.7547 18.7265 15.5715C18.7265 16.3882 17.2453 16.056 16.3355 15.1882ZM14.5678 15.2505C14.1879 15.3344 13.8177 15.4573 13.463 15.6172L13.763 14.9422C14.063 14.2672 14.3743 13.347 14.3743 13.347C14.7323 13.9495 15.1488 14.5152 15.6178 15.036C15.2641 15.0887 14.9136 15.1608 14.5678 15.252V15.2505ZM13.6213 10.3755C13.6213 9.66371 13.8515 9.46946 14.0308 9.46946C14.21 9.46946 14.4118 9.55571 14.4185 10.1737C14.3601 10.7951 14.23 11.4077 14.0308 11.9992C13.7579 11.5026 13.6166 10.9444 13.6205 10.3777L13.6213 10.3755ZM10.1345 18.2625C9.40102 17.8237 11.6728 16.473 12.0845 16.4295C12.0823 16.4302 10.9025 18.7215 10.1345 18.2625ZM19.4248 15.6682C19.4173 15.5932 19.3498 14.763 17.8723 14.7982C17.2564 14.7883 16.6409 14.8317 16.0325 14.928C15.4432 14.3343 14.9357 13.6646 14.5235 12.9367C14.7832 12.1863 14.9404 11.4042 14.9908 10.6117C14.969 9.71171 14.7538 9.19571 14.0638 9.20321C13.3738 9.21071 13.2733 9.81446 13.364 10.713C13.4529 11.3167 13.6206 11.9063 13.8628 12.4665C13.8628 12.4665 13.544 13.4587 13.1225 14.4457C12.701 15.4327 12.413 15.9502 12.413 15.9502C11.6801 16.1888 10.9901 16.5433 10.3693 17.0002C9.75127 17.5755 9.50002 18.0172 9.82552 18.459C10.106 18.84 11.0878 18.9262 11.9653 17.7765C12.4315 17.1826 12.8575 16.5582 13.2403 15.9075C13.2403 15.9075 14.5783 15.5407 14.9945 15.4402C15.4108 15.3397 15.914 15.2602 15.914 15.2602C15.914 15.2602 17.1358 16.4895 18.314 16.446C19.4923 16.4025 19.4353 15.7417 19.4278 15.6697"
        fill="#DD2025" />
    <path d="M17.9658 1.55469V5.95944H22.1906L17.9658 1.55469Z" fill="#909090" />
    <path d="M18.0234 1.5V5.90475H22.2482L18.0234 1.5Z" fill="#F4F4F4" />
    <path
        d="M6.73123 3.34375H6.70873H6.55348H5.75098V6.94375H6.52498V5.73025L6.69598 5.74C6.8614 5.73715 7.02528 5.70752 7.18123 5.65225C7.31794 5.6052 7.44372 5.53096 7.55098 5.434C7.65928 5.34137 7.74453 5.22479 7.79998 5.0935C7.8752 4.87487 7.90207 4.64252 7.87873 4.4125C7.87404 4.24818 7.84523 4.08544 7.79323 3.9295C7.74588 3.81693 7.67562 3.71545 7.58691 3.63152C7.4982 3.54759 7.39299 3.48305 7.27798 3.442C7.17808 3.40565 7.07482 3.37927 6.96973 3.36325C6.89055 3.35103 6.81059 3.34452 6.73048 3.34375M6.58873 5.06425H6.52198V3.95425H6.66748C6.73136 3.94964 6.79547 3.95945 6.85505 3.98295C6.91464 4.00644 6.96818 4.04303 7.01173 4.09C7.10197 4.21076 7.15017 4.35775 7.14898 4.5085C7.14898 4.693 7.14898 4.86025 6.98248 4.978C6.86253 5.04397 6.72599 5.07368 6.58948 5.0635"
        fill="white" />
    <path
        d="M9.34188 3.32973C9.25863 3.32973 9.17763 3.33573 9.12063 3.33798L8.94437 3.34248H8.35938V6.94248H9.04788C9.31099 6.94969 9.57296 6.9051 9.81888 6.81123C10.0168 6.73272 10.1921 6.60617 10.3289 6.44298C10.4619 6.27832 10.5574 6.08661 10.6086 5.88123C10.6675 5.64863 10.6963 5.40942 10.6941 5.16948C10.7087 4.8861 10.6867 4.60202 10.6289 4.32423C10.574 4.11975 10.4711 3.9313 10.3289 3.77448C10.2173 3.64785 10.0807 3.54571 9.92763 3.47448C9.79621 3.41367 9.65797 3.36885 9.51587 3.34098C9.45937 3.33165 9.40214 3.32738 9.34488 3.32823M9.20837 6.28098H9.13338V3.98298H9.14313C9.29774 3.96519 9.45419 3.99309 9.59313 4.06323C9.69487 4.14448 9.77778 4.24683 9.83612 4.36323C9.89909 4.48573 9.93539 4.62018 9.94263 4.75773C9.94938 4.92273 9.94263 5.05773 9.94263 5.16948C9.94568 5.29821 9.9374 5.42696 9.91788 5.55423C9.89476 5.6849 9.85203 5.81133 9.79113 5.92923C9.72219 6.03885 9.62906 6.13121 9.51888 6.19923C9.42634 6.25908 9.31677 6.287 9.20688 6.27873"
        fill="white" />
    <path d="M13.0149 3.34375H11.1924V6.94375H11.9634V5.51575H12.9384V4.84675H11.9634V4.01275H13.0134V3.34375"
        fill="white" />
</svg>