<svg width="16" height="16" viewBox="0 0 16 16" fill="none" xmlns="http://www.w3.org/2000/svg">
    <path
        d="M11.3512 1.32362C11.3214 1.52125 11.1942 1.73234 10.9614 1.92184C10.1981 2.539 9.94364 3.04787 9.87871 3.20759C9.86518 3.24278 9.85977 3.26172 9.85977 3.26172H6.14058C6.14058 3.26172 6.13517 3.24278 6.12164 3.20759C6.05668 3.04787 5.80224 2.539 5.03893 1.92184C5.0308 1.91644 5.02539 1.911 5.01999 1.90559C4.15921 1.18556 4.84405 0.213844 6.14061 0.576531C6.20286 0.592781 6.25971 0.606313 6.31114 0.614438C7.00677 0.717313 6.82543 0 8.00018 0C9.26427 0 8.95839 0.828281 9.85977 0.576563C10.1088 0.506187 10.3335 0.48725 10.5311 0.5035C11.0968 0.554906 11.4216 0.914906 11.3512 1.32362Z"
        fill="#6D747A" />
    <path
        d="M13.8468 10.1539C13.8468 13.3832 11.2293 16.0007 8.00007 16.0007C7.16098 16.0007 6.36244 15.8247 5.64241 15.5026C4.31066 14.9179 3.23879 13.846 2.65138 12.5143C2.33198 11.7916 2.15332 10.9931 2.15332 10.1539C2.15332 7.10878 5.09563 4.78363 5.9997 3.95806C6.05382 3.91203 6.10257 3.86603 6.14045 3.82812H9.8596C9.89751 3.86603 9.94623 3.91203 10.0004 3.95806C10.9045 4.78363 13.8468 7.10875 13.8468 10.1539Z"
        fill="#6D747A" />
    <path
        d="M8.936 9.32C8.856 9.63467 8.696 9.888 8.456 10.08C8.216 10.2667 7.952 10.4 7.664 10.48L9.576 13H8.568L7.152 11.12C6.99733 10.912 6.872 10.7627 6.776 10.672C6.68533 10.576 6.57067 10.528 6.432 10.528V9.944H6.904C7.18667 9.944 7.424 9.896 7.616 9.8C7.81333 9.69867 7.94933 9.53867 8.024 9.32H6.288L6.528 8.64H8.04C7.99733 8.46933 7.90933 8.336 7.776 8.24C7.648 8.144 7.472 8.09067 7.248 8.08H6.288L6.528 7.4H10.04L9.8 8.08H8.776C8.87733 8.256 8.93867 8.44267 8.96 8.64H10.04L9.8 9.32H8.936Z"
        fill="white" />
</svg>