<svg width="62" height="59" viewBox="0 0 62 59" fill="none" xmlns="http://www.w3.org/2000/svg">
    <path
        d="M61.3 57.4453H59.9V26.9453C59.9 26.6453 59.7 26.4453 59.4 26.4453H58.9V23.2453L59 23.1453C59.6 22.4453 59.8 21.4453 59.7 20.5453C59.6 19.6453 59.1 18.7453 58.4 18.2453L54 14.7453V14.4453C54.3 14.2453 54.6 13.9453 54.6 13.5453C54.6 12.9453 54.1 12.4453 53.5 12.4453C52.9 12.4453 52.4 12.9453 52.4 13.5453C52.4 13.9453 52.6 14.3453 53 14.4453V14.7453L48.6 18.2453C47.9 18.8453 47.4 19.6453 47.3 20.5453C47.2 21.4453 47.4 22.3453 48 23.0453V25.5453H47.5C47.2 25.5453 47 25.7453 47 26.0453V26.5453H40.8L39 23.8453V20.2453L41 17.2453C41.1 17.0453 41.1 16.8453 41 16.7453C40.9 16.5453 40.7 16.4453 40.6 16.4453H39V15.2453L39.1 15.1453C40 13.9453 40.3 12.4453 40 11.0453C39.7 9.64532 38.8 8.44531 37.5 7.74531L34.1 5.94531V3.94531C34.1 3.64531 33.9 3.44531 33.6 3.44531H33.1V2.44531C33.1 1.34531 32.2 0.445312 31.1 0.445312C30 0.445312 29.1 1.34531 29.1 2.44531V3.44531H28.6C28.3 3.44531 28.1 3.64531 28.1 3.94531V6.04531L24.6 7.74531C23.2 8.54531 22.3 9.94531 22 11.3453C21.8 12.6453 22.1 13.8453 22.9 14.9453V16.4453H21.5C21.3 16.4453 21.1 16.5453 21.1 16.7453C21 16.9453 21 17.1453 21.1 17.2453L22.9 19.9453V23.7453L21.2 26.3453H14.9V25.8453C14.9 25.5453 14.7 25.3453 14.4 25.3453H13.9V23.1453L14 23.0453C14.6 22.3453 14.8 21.3453 14.7 20.4453C14.6 19.5453 14.1 18.6453 13.4 18.1453L9 14.6453V14.3453C9.3 14.1453 9.6 13.8453 9.6 13.4453C9.6 12.8453 9.1 12.3453 8.5 12.3453C7.9 12.3453 7.4 12.8453 7.4 13.4453C7.4 13.8453 7.6 14.2453 8 14.3453V14.6453L3.6 18.2453C2.9 18.8453 2.4 19.6453 2.3 20.5453C2.2 21.4453 2.4 22.3453 3 23.0453V26.5453H2.5C2.2 26.5453 2 26.7453 2 27.0453V57.5453H0.5C0.2 57.5453 0 57.7453 0 58.0453C0 58.3453 0.2 58.5453 0.5 58.5453H61.3C61.6 58.5453 61.8 58.3453 61.8 58.0453C61.8 57.7453 61.6 57.4453 61.3 57.4453ZM48.2 20.6453C48.3 19.9453 48.6 19.3453 49.1 18.9453L53.4 15.5453L57.7 18.9453C58.2 19.3453 58.6 19.9453 58.6 20.6453C58.7 21.3453 58.5 21.9453 58.1 22.4453H48.6C48.3 21.9453 48.2 21.3453 48.2 20.6453ZM48.9 23.4453H57.9V26.4453H50.9V25.9453C50.9 25.6453 50.7 25.4453 50.4 25.4453H48.9V23.4453ZM46.9 44.4453H44.5V40.4453H46.9V44.4453ZM44.5 45.4453H46.9V48.4453H44.5V45.4453ZM46.9 39.4453H44.5V36.4453H46.9V39.4453ZM47.4 35.4453H10V33.4453H52V35.4453H47.4ZM38 40.4453H40.4V44.4453H38V40.4453ZM40.4 39.4453H38V36.4453H40.4V39.4453ZM38 45.4453H40.4V48.4453H38V45.4453ZM27.9 40.4453H33.9V44.4453H27.9V40.4453ZM33.9 39.4453H27.9V36.4453H33.9V39.4453ZM27.9 45.4453H33.9V48.4453H27.9V45.4453ZM21.4 40.4453H23.7V44.4453H21.4V40.4453ZM23.8 39.4453H21.5V36.4453H23.8V39.4453ZM21.4 45.4453H23.7V48.4453H21.4V45.4453ZM17.3 39.4453H15V36.4453H17.3V39.4453ZM15 40.4453H17.3V44.4453H15V40.4453ZM15 45.4453H17.3V48.4453H15V45.4453ZM52.4 32.4453H8.7L10.7 30.4453H51.3L53.3 32.4453H52.4ZM11.9 26.4453H13.9V29.4453H11.9V26.4453ZM23.9 20.4453H26L25.9 23.4453H23.9V20.4453ZM29 23.5453H26.9L27 20.5453H35.1L35 23.5453H32.8L31.1 22.5453C30.9 22.4453 30.8 22.4453 30.6 22.5453L29 23.5453ZM34.9 26.4453V24.9453C34.9 24.7453 34.8 24.6453 34.6 24.5453L34.5 24.4453H35.2L36.5 26.4453H34.9ZM36.1 20.4453H37.9V23.4453H36L36.1 20.4453ZM26.8 19.4453L25.5 17.4453H36.6L35.3 19.4453H26.8ZM27.3 24.4453L27.2 24.5453C27 24.6453 26.9 24.8453 26.9 24.9453V26.4453H25.4L26.7 24.4453H27.3ZM27.9 25.2453L30.9 23.5453L33.9 25.2453V29.4453H27.9V25.2453ZM47.9 26.4453H49.9V29.4453H47.9V26.4453ZM46.9 29.4453H34.9V27.4453H46.9V29.4453ZM37.8 26.4453L36.5 24.4453H38.2L39.6 26.4453H37.8ZM38.2 19.4453H36.5L37.8 17.4453H39.6L38.2 19.4453ZM29.9 2.44531C29.9 1.94531 30.4 1.44531 30.9 1.44531C31.4 1.44531 31.9 1.84531 31.9 2.44531V3.44531H29.9V2.44531ZM28.9 4.44531H32.9V5.44531H28.9V4.44531ZM23 11.5453C23.2 10.3453 24 9.24531 25.1 8.64531L29.2 6.44531H32.7L36.8 8.64531C37.8 9.24531 38.6 10.1453 38.8 11.2453C39 12.3453 38.8 13.4453 38.1 14.4453H32.8V13.3453C32.8 12.4453 32.4 11.7453 31.6 11.2453L31 10.8453C30.8 10.7453 30.6 10.7453 30.5 10.8453L29.9 11.2453C29.2 11.7453 28.8 12.4453 28.8 13.3453V14.4453H23.6C23.1 13.5453 22.8 12.5453 23 11.5453ZM31.9 14.4453H29.9V13.3453C29.9 12.8453 30.2 12.3453 30.6 12.0453L30.9 11.8453L31.2 12.0453C31.6 12.3453 31.9 12.7453 31.9 13.3453V14.4453ZM23.9 15.4453H37.9V16.4453H23.9V15.4453ZM23.4 17.4453H24.2L25.5 19.4453H23.7L22.4 17.4453H23.4ZM23.7 24.4453H25.5L24.2 26.4453H22.4L23.7 24.4453ZM15 27.4453H26.9V29.4453H15V27.4453ZM3.2 20.6453C3.3 19.9453 3.6 19.3453 4.1 18.9453L8.4 15.5453L12.7 18.9453C13.2 19.3453 13.6 19.9453 13.6 20.6453C13.7 21.3453 13.5 21.9453 13.1 22.4453H3.6C3.3 21.9453 3.2 21.3453 3.2 20.6453ZM3.9 23.4453H12.9V25.4453H11.4C11.1 25.4453 10.9 25.6453 10.9 25.9453V26.4453H3.9V23.4453ZM10.4 57.4453H2.9V27.4453H10.9V29.4453H10.5C10.4 29.4453 10.2 29.5453 10.1 29.5453L7.1 32.5453C7 32.6453 6.9 32.9453 7 33.0453C7.1 33.1453 7.3 33.3453 7.5 33.3453H8.9V35.8453C8.9 36.1453 9.1 36.3453 9.4 36.3453H10.9V57.3453H10.4V57.4453ZM11.9 57.4453V36.4453H14V57.4453H11.9ZM15 57.4453V49.4453H17.3V57.4453H15ZM18.3 57.4453V36.4453H20.4V57.4453H18.3ZM21.4 57.4453V49.4453H23.7V57.4453H21.4ZM24.8 57.4453V36.4453H26.9V57.4453H24.8ZM27.9 57.4453V49.4453H33.9V57.4453H27.9ZM34.9 57.4453V36.4453H37V57.4453H34.9ZM38 57.4453V49.4453H40.4V57.4453H38ZM41.4 57.4453V36.4453H43.5V57.4453H41.4ZM44.5 57.4453V49.4453H46.9V57.4453H44.5ZM48.9 57.4453H47.9V36.4453H50V57.4453H48.9ZM51 57.4453V36.4453H52.4C52.7 36.4453 52.9 36.2453 52.9 35.9453V33.4453H54.5C54.7 33.4453 54.9 33.3453 55 33.1453C55.1 32.9453 55 32.7453 54.9 32.6453L51.9 29.6453C51.8 29.5453 51.7 29.5453 51.5 29.5453H50.9V27.5453H58.9V57.5453H51V57.4453Z"
        fill="#146DFA" />
</svg>