<svg width="52" height="65" viewBox="0 0 52 65" fill="none" xmlns="http://www.w3.org/2000/svg">
    <path
        d="M22 0.445312C21.8674 0.445312 21.7402 0.497991 21.6464 0.591759C21.5527 0.685527 21.5 0.812704 21.5 0.945312V2.49531C20.756 2.6033 20.0668 2.94886 19.5352 3.48047C19.0035 4.01209 18.658 4.70129 18.55 5.44531H16C15.8674 5.44531 15.7402 5.49799 15.6464 5.59176C15.5527 5.68553 15.5 5.8127 15.5 5.94531V7.44531H10C9.86739 7.44531 9.74021 7.49799 9.64645 7.59176C9.55268 7.68553 9.5 7.8127 9.5 7.94531V16.4453H7C6.86739 16.4453 6.74021 16.498 6.64645 16.5918C6.55268 16.6855 6.5 16.8127 6.5 16.9453V19.4453H5C4.86739 19.4453 4.74021 19.498 4.64645 19.5918C4.55268 19.6855 4.5 19.8127 4.5 19.9453V23.4453H2C1.91481 23.4458 1.83113 23.4679 1.75686 23.5097C1.68258 23.5514 1.62015 23.6113 1.57544 23.6838C1.53072 23.7564 1.50521 23.8391 1.50128 23.9242C1.49735 24.0093 1.51515 24.094 1.553 24.1703L4.5 30.0643V40.4453H4C3.86739 40.4453 3.74021 40.498 3.64645 40.5918C3.55268 40.6855 3.5 40.8127 3.5 40.9453C3.5 41.0779 3.55268 41.2051 3.64645 41.2989C3.74021 41.3926 3.86739 41.4453 4 41.4453H4.5V47.4453H3.064C2.97383 47.446 2.88551 47.471 2.80833 47.5176C2.73116 47.5643 2.66797 47.6309 2.6254 47.7104C2.58284 47.7898 2.56248 47.8793 2.56645 47.9694C2.57043 48.0595 2.5986 48.1469 2.648 48.2223L4.5 51.0003V60.4453H4C3.86739 60.4453 3.74021 60.498 3.64645 60.5918C3.55268 60.6855 3.5 60.8127 3.5 60.9453C3.5 61.0779 3.55268 61.2051 3.64645 61.2989C3.74021 61.3926 3.86739 61.4453 4 61.4453H4.5V63.4453H0.5C0.367392 63.4453 0.240214 63.498 0.146446 63.5918C0.052678 63.6855 0 63.8127 0 63.9453C0 64.0779 0.052678 64.2051 0.146446 64.2989C0.240214 64.3926 0.367392 64.4453 0.5 64.4453H51.5C51.6326 64.4453 51.7598 64.3926 51.8536 64.2989C51.9473 64.2051 52 64.0779 52 63.9453C52 63.8127 51.9473 63.6855 51.8536 63.5918C51.7598 63.498 51.6326 63.4453 51.5 63.4453H47.5V61.4453H48C48.1326 61.4453 48.2598 61.3926 48.3536 61.2989C48.4473 61.2051 48.5 61.0779 48.5 60.9453C48.5 60.8127 48.4473 60.6855 48.3536 60.5918C48.2598 60.498 48.1326 60.4453 48 60.4453H47.5V51.0973L49.416 48.2223C49.4661 48.147 49.4948 48.0595 49.4992 47.9692C49.5035 47.8789 49.4832 47.789 49.4405 47.7093C49.3979 47.6296 49.3343 47.5629 49.2568 47.5164C49.1792 47.4699 49.0904 47.4454 49 47.4453H47.5V41.4453H48C48.1326 41.4453 48.2598 41.3926 48.3536 41.2989C48.4473 41.2051 48.5 41.0779 48.5 40.9453C48.5 40.8127 48.4473 40.6855 48.3536 40.5918C48.2598 40.498 48.1326 40.4453 48 40.4453H47.5V30.0623L50.447 24.1683C50.4853 24.0922 50.5034 24.0075 50.4996 23.9223C50.4959 23.8372 50.4704 23.7544 50.4255 23.6819C50.3807 23.6094 50.3181 23.5496 50.2436 23.5082C50.1691 23.4668 50.0852 23.4451 50 23.4453H47.5V19.9453C47.5 19.8127 47.4473 19.6855 47.3536 19.5918C47.2598 19.498 47.1326 19.4453 47 19.4453H45.5V16.9453C45.5 16.8127 45.4473 16.6855 45.3536 16.5918C45.2598 16.498 45.1326 16.4453 45 16.4453H42.5V7.94531C42.5 7.8127 42.4473 7.68553 42.3536 7.59176C42.2598 7.49799 42.1326 7.44531 42 7.44531H36.5V5.94531C36.5 5.8127 36.4473 5.68553 36.3536 5.59176C36.2598 5.49799 36.1326 5.44531 36 5.44531H33.45C33.44 5.37831 33.443 5.30631 33.43 5.24031C33.2824 4.53747 32.922 3.8971 32.3978 3.40618C31.8736 2.91527 31.211 2.59759 30.5 2.49631V0.945312C30.5 0.812704 30.4473 0.685527 30.3536 0.591759C30.2598 0.497991 30.1326 0.445312 30 0.445312H22ZM22.5 1.44531H29.5V2.44531H22.5V1.44531ZM22 3.44531H30C31.207 3.44531 32.22 4.30531 32.451 5.44531H19.551C19.783 4.30531 20.793 3.44531 22 3.44531ZM16.5 6.44531H35.5V7.44531H16.5V6.44531ZM10.5 8.44531H41.5V16.4453H10.5V8.44531ZM20 10.4453C19.8674 10.4453 19.7402 10.498 19.6464 10.5918C19.5527 10.6855 19.5 10.8127 19.5 10.9453V13.9453C19.5 14.0779 19.5527 14.2051 19.6464 14.2989C19.7402 14.3926 19.8674 14.4453 20 14.4453H21.5V14.9453C21.5 15.0779 21.5527 15.2051 21.6464 15.2989C21.7402 15.3926 21.8674 15.4453 22 15.4453H30C30.1326 15.4453 30.2598 15.3926 30.3536 15.2989C30.4473 15.2051 30.5 15.0779 30.5 14.9453V14.4453H32C32.1326 14.4453 32.2598 14.3926 32.3536 14.2989C32.4473 14.2051 32.5 14.0779 32.5 13.9453V10.9453C32.5 10.8127 32.4473 10.6855 32.3536 10.5918C32.2598 10.498 32.1326 10.4453 32 10.4453H20ZM16 10.4663C15.3371 10.4668 14.7015 10.7304 14.2328 11.1991C13.7641 11.6679 13.5005 12.3034 13.5 12.9663C13.5 14.3463 14.621 15.4663 16 15.4663C17.379 15.4663 18.5 14.3463 18.5 12.9663C18.5 11.5873 17.379 10.4663 16 10.4663ZM36 10.4663C35.3371 10.4668 34.7015 10.7304 34.2328 11.1991C33.7641 11.6679 33.5005 12.3034 33.5 12.9663C33.5 14.3463 34.621 15.4663 36 15.4663C37.379 15.4663 38.5 14.3463 38.5 12.9663C38.5 11.5873 37.379 10.4663 36 10.4663ZM20.5 11.4453H31.5V13.4453H30C29.8674 13.4453 29.7402 13.498 29.6464 13.5918C29.5527 13.6855 29.5 13.8127 29.5 13.9453V14.4453H22.5V13.9453C22.5 13.8127 22.4473 13.6855 22.3536 13.5918C22.2598 13.498 22.1326 13.4453 22 13.4453H20.5V11.4453ZM16 11.4663C16.827 11.4663 17.5 12.1393 17.5 12.9663C17.5 13.7933 16.827 14.4663 16 14.4663C15.173 14.4663 14.5 13.7933 14.5 12.9663C14.5 12.1393 15.173 11.4663 16 11.4663ZM36 11.4663C36.827 11.4663 37.5 12.1393 37.5 12.9663C37.5 13.7933 36.827 14.4663 36 14.4663C35.173 14.4663 34.5 13.7933 34.5 12.9663C34.5 12.1393 35.173 11.4663 36 11.4663ZM7.5 17.4453H44.5V19.4453H7.5V17.4453ZM5.5 20.4453H46.5V23.4453H5.5V20.4453ZM2.809 24.4453H49.19L48.69 25.4453H3.31L2.809 24.4453ZM3.809 26.4453H4.5V27.8283L3.809 26.4453ZM5.5 26.4453H7.5V29.4453H5.5V26.4453ZM8.5 26.4453H10.5V29.4453H8.5V26.4453ZM11.5 26.4453H13.5V29.4453H11.5V26.4453ZM14.5 26.4453H16.5V29.4453H14.5V26.4453ZM17.5 26.4453H19.5V29.4453H17.5V26.4453ZM20.5 26.4453H22.5V29.4453H20.5V26.4453ZM23.5 26.4453H25.5V29.4453H23.5V26.4453ZM26.5 26.4453H28.5V29.4453H26.5V26.4453ZM29.5 26.4453H31.5V29.4453H29.5V26.4453ZM32.5 26.4453H34.5V29.4453H32.5V26.4453ZM35.5 26.4453H37.5V29.4453H35.5V26.4453ZM38.5 26.4453H40.5V29.4453H38.5V26.4453ZM41.5 26.4453H43.5V29.4453H41.5V26.4453ZM44.5 26.4453H46.5V29.4453H44.5V26.4453ZM47.5 26.4453H48.191L47.5 27.8283V26.4453ZM5.5 30.4453H16.5V40.4453H15.5V36.9453C15.5 36.8127 15.4473 36.6855 15.3536 36.5918C15.2598 36.498 15.1326 36.4453 15 36.4453H7C6.86739 36.4453 6.74021 36.498 6.64645 36.5918C6.55268 36.6855 6.5 36.8127 6.5 36.9453V40.4453H5.5V30.4453ZM17.5 30.4453H34.5V32.4453H27C26.8674 32.4453 26.7402 32.498 26.6464 32.5918C26.5527 32.6855 26.5 32.8127 26.5 32.9453V36.4453H25.5V32.9453C25.5 32.8127 25.4473 32.6855 25.3536 32.5918C25.2598 32.498 25.1326 32.4453 25 32.4453H17.5V30.4453ZM35.5 30.4453H46.5V40.4453H45.5V36.9453C45.5 36.8127 45.4473 36.6855 45.3536 36.5918C45.2598 36.498 45.1326 36.4453 45 36.4453H37C36.8674 36.4453 36.7402 36.498 36.6464 36.5918C36.5527 36.6855 36.5 36.8127 36.5 36.9453V40.4453H35.5V30.4453ZM11 31.4453C9.897 31.4453 9 32.3423 9 33.4453C9 34.5483 9.897 35.4453 11 35.4453C12.103 35.4453 13 34.5483 13 33.4453C13 32.3423 12.103 31.4453 11 31.4453ZM41 31.4453C39.897 31.4453 39 32.3423 39 33.4453C39 34.5483 39.897 35.4453 41 35.4453C42.103 35.4453 43 34.5483 43 33.4453C43 32.3423 42.103 31.4453 41 31.4453ZM11 32.4453C11.2652 32.4453 11.5196 32.5507 11.7071 32.7382C11.8946 32.9257 12 33.1801 12 33.4453C12 33.7105 11.8946 33.9649 11.7071 34.1524C11.5196 34.34 11.2652 34.4453 11 34.4453C10.7348 34.4453 10.4804 34.34 10.2929 34.1524C10.1054 33.9649 10 33.7105 10 33.4453C10 33.1801 10.1054 32.9257 10.2929 32.7382C10.4804 32.5507 10.7348 32.4453 11 32.4453ZM41 32.4453C41.2652 32.4453 41.5196 32.5507 41.7071 32.7382C41.8946 32.9257 42 33.1801 42 33.4453C42 33.7105 41.8946 33.9649 41.7071 34.1524C41.5196 34.34 41.2652 34.4453 41 34.4453C40.7348 34.4453 40.4804 34.34 40.2929 34.1524C40.1054 33.9649 40 33.7105 40 33.4453C40 33.1801 40.1054 32.9257 40.2929 32.7382C40.4804 32.5507 40.7348 32.4453 41 32.4453ZM17.5 33.4453H24.5V33.6113C21.242 34.2773 18.75 37.0503 18.523 40.4453H17.5V33.4453ZM27.5 33.4453H34.5V40.4453H33.477C33.251 37.0503 30.757 34.2773 27.5 33.6113V33.4453ZM24.5 34.6313V35.6793C23.4372 35.9825 22.4908 36.5998 21.785 37.4503C21.0792 38.3008 20.647 39.3448 20.545 40.4453H19.523C19.6313 39.0745 20.1714 37.7733 21.0656 36.7286C21.9599 35.684 23.1623 34.9497 24.5 34.6313ZM27.5 34.6313C28.8377 34.9497 30.0401 35.684 30.9344 36.7286C31.8286 37.7733 32.3687 39.0745 32.477 40.4453H31.455C31.3533 39.3447 30.9212 38.3006 30.2153 37.45C29.5095 36.5995 28.563 35.9822 27.5 35.6793V34.6313ZM24.5 36.7263V36.9453C24.5 37.0779 24.5527 37.2051 24.6464 37.2989C24.7402 37.3926 24.8674 37.4453 25 37.4453H27C27.1326 37.4453 27.2598 37.3926 27.3536 37.2989C27.4473 37.2051 27.5 37.0779 27.5 36.9453V36.7263C28.2918 37.0069 28.9889 37.5043 29.5117 38.1619C30.0345 38.8194 30.3621 39.6106 30.457 40.4453H30C29.8674 40.4453 29.7402 40.498 29.6464 40.5918C29.5527 40.6855 29.5 40.8127 29.5 40.9453C29.5 41.0779 29.5527 41.2051 29.6464 41.2989C29.7402 41.3926 29.8674 41.4453 30 41.4453H30.5V47.4453H30C29.8674 47.4453 29.7402 47.498 29.6464 47.5918C29.5527 47.6855 29.5 47.8127 29.5 47.9453C29.5 48.0779 29.5527 48.2051 29.6464 48.2989C29.7402 48.3926 29.8674 48.4453 30 48.4453H30.5V63.4453H21.5V48.4453H22C22.1326 48.4453 22.2598 48.3926 22.3536 48.2989C22.4473 48.2051 22.5 48.0779 22.5 47.9453C22.5 47.8127 22.4473 47.6855 22.3536 47.5918C22.2598 47.498 22.1326 47.4453 22 47.4453H21.5V41.4453H22C22.1326 41.4453 22.2598 41.3926 22.3536 41.2989C22.4473 41.2051 22.5 41.0779 22.5 40.9453C22.5 40.8127 22.4473 40.6855 22.3536 40.5918C22.2598 40.498 22.1326 40.4453 22 40.4453H21.543C21.6382 39.6107 21.9658 38.8196 22.4886 38.1621C23.0114 37.5046 23.7083 37.0071 24.5 36.7263ZM7.5 37.4453H9V38.4453H7.5V37.4453ZM10 37.4453H12V38.4453H10V37.4453ZM13 37.4453H14.5V38.4453H13V37.4453ZM37.5 37.4453H39V38.4453H37.5V37.4453ZM40 37.4453H42V38.4453H40V37.4453ZM43 37.4453H44.5V38.4453H43V37.4453ZM7.5 39.4453H14.5V40.4453H7.5V39.4453ZM37.5 39.4453H44.5V40.4453H37.5V39.4453ZM5.5 41.4453H6.5V42.4453H5.5V41.4453ZM7.5 41.4453H14.5V42.4453H7.5V41.4453ZM15.5 41.4453H16.5V42.4453H15.5V41.4453ZM17.5 41.4453H20.5V47.4453H17.5V41.4453ZM31.5 41.4453H34.5V47.4453H31.5V41.4453ZM35.5 41.4453H36.5V42.4453H35.5V41.4453ZM37.5 41.4453H44.5V42.4453H37.5V41.4453ZM45.5 41.4453H46.5V42.4453H45.5V41.4453ZM5.5 43.4453H6.5V47.4453H5.5V43.4453ZM7.5 43.4453H8.5V45.9453C8.5 46.0779 8.55268 46.2051 8.64645 46.2989C8.74021 46.3926 8.86739 46.4453 9 46.4453H13C13.1326 46.4453 13.2598 46.3926 13.3536 46.2989C13.4473 46.2051 13.5 46.0779 13.5 45.9453V43.4453H14.5V47.4453H7.5V43.4453ZM9.5 43.4453H12.5V45.4453H9.5V43.4453ZM15.5 43.4453H16.5V47.4453H15.5V43.4453ZM35.5 43.4453H36.5V47.4453H35.5V43.4453ZM37.5 43.4453H38.5V45.9453C38.5 46.0779 38.5527 46.2051 38.6464 46.2989C38.7402 46.3926 38.8674 46.4453 39 46.4453H43C43.1326 46.4453 43.2598 46.3926 43.3536 46.2989C43.4473 46.2051 43.5 46.0779 43.5 45.9453V43.4453H44.5V47.4453H37.5V43.4453ZM39.5 43.4453H42.5V45.4453H39.5V43.4453ZM45.5 43.4453H46.5V47.4453H45.5V43.4453ZM3.998 48.4453H18.066L16.732 50.4453H5.33L3.998 48.4453ZM19.268 48.4453H20.5V63.4453H17.5V51.0973L19.268 48.4453ZM31.5 48.4453H32.797L34.5 51.0003V63.4453H31.5V48.4453ZM33.998 48.4453H48.066L46.732 50.4453H35.33L33.998 48.4453ZM5.5 51.4453H6.5V60.4453H5.5V51.4453ZM7.5 51.4453H14.5V60.4453H7.5V51.4453ZM15.5 51.4453H16.5V60.4453H15.5V51.4453ZM35.5 51.4453H36.5V60.4453H35.5V51.4453ZM37.5 51.4453H44.5V60.4453H37.5V51.4453ZM45.5 51.4453H46.5V60.4453H45.5V51.4453ZM5.5 61.4453H6.5V63.4453H5.5V61.4453ZM7.5 61.4453H8.5V63.4453H7.5V61.4453ZM9.5 61.4453H12.5V63.4453H9.5V61.4453ZM13.5 61.4453H14.5V63.4453H13.5V61.4453ZM15.5 61.4453H16.5V63.4453H15.5V61.4453ZM35.5 61.4453H36.5V63.4453H35.5V61.4453ZM37.5 61.4453H38.5V63.4453H37.5V61.4453ZM39.5 61.4453H42.5V63.4453H39.5V61.4453ZM43.5 61.4453H44.5V63.4453H43.5V61.4453ZM45.5 61.4453H46.5V63.4453H45.5V61.4453Z"
        fill="#146DFA" />
</svg>