<svg width="64" height="58" viewBox="0 0 64 58" fill="none" xmlns="http://www.w3.org/2000/svg">
    <path
        d="M63.4 56.4453H61.9V47.4453H62.4C62.7 47.4453 62.9 47.2453 62.9 46.9453C62.9 46.6453 62.7 46.4453 62.4 46.4453H61.9V38.4453H62.4C62.7 38.4453 62.9 38.2453 62.9 37.9453C62.9 37.6453 62.7 37.4453 62.4 37.4453H61.9V34.4453H62.4C62.7 34.4453 62.9 34.2453 62.9 33.9453C62.9 33.6453 62.7 33.4453 62.4 33.4453H61.9V29.9453C61.9 29.6453 61.7 29.4453 61.4 29.4453C61.1 29.4453 60.9 29.6453 60.9 29.9453V30.4453H59.9V27.4453H60.4C60.7 27.4453 60.9 27.2453 60.9 26.9453C60.9 26.6453 60.7 26.4453 60.4 26.4453H59.9C59.9 25.5453 59.3 24.7453 58.4 24.5453V22.9453C58.4 22.6453 58.2 22.4453 57.9 22.4453C57.6 22.4453 57.4 22.6453 57.4 22.9453V24.5453C56.5 24.7453 55.9 25.5453 55.9 26.4453H55.4C55.1 26.4453 54.9 26.6453 54.9 26.9453C54.9 27.2453 55.1 27.4453 55.4 27.4453H55.9V30.4453H54.9V29.9453C54.9 29.6453 54.7 29.4453 54.4 29.4453C54.1 29.4453 53.9 29.6453 53.9 29.9453V33.4453H53.4C53.1 33.4453 52.9 33.6453 52.9 33.9453C52.9 34.2453 53.1 34.4453 53.4 34.4453H53.9V35.4453H45.9V34.4453H46.4C46.7 34.4453 46.9 34.2453 46.9 33.9453C46.9 33.6453 46.7 33.4453 46.4 33.4453H45.9V28.4453H46.4C46.7 28.4453 46.9 28.2453 46.9 27.9453C46.9 27.6453 46.7 27.4453 46.4 27.4453H45.9C45.7 26.4453 44.9 25.6453 43.9 25.4453V23.9453C43.9 23.6453 43.7 23.4453 43.4 23.4453C43.1 23.4453 42.9 23.6453 42.9 23.9453V25.4453H42.4C41.2 25.4453 40.2 24.5453 40 23.4453H41.4C41.7 23.4453 41.9 23.2453 41.9 22.9453V20.9453C41.9 20.6453 41.7 20.4453 41.4 20.4453H39.9V18.4453H40.4C40.7 18.4453 40.9 18.2453 40.9 17.9453C40.9 17.6453 40.7 17.4453 40.4 17.4453H39.9C39.5 14.3453 37.4 11.8453 34.5 10.8453V7.44531H35C35.3 7.44531 35.5 7.24531 35.5 6.94531C35.5 6.64531 35.3 6.44531 35 6.44531H34.5C34.3 5.44531 33.5 4.64531 32.5 4.44531V0.945312C32.5 0.645312 32.3 0.445312 32 0.445312C31.7 0.445312 31.5 0.645312 31.5 0.945312V4.44531C30.5 4.64531 29.7 5.44531 29.5 6.44531H29C28.7 6.44531 28.5 6.64531 28.5 6.94531C28.5 7.24531 28.7 7.44531 29 7.44531H29.5V10.8453C26.6 11.8453 24.5 14.3453 24.1 17.4453H23.5C23.2 17.4453 23 17.6453 23 17.9453C23 18.2453 23.2 18.4453 23.5 18.4453H24V20.4453H22.5C22.2 20.4453 22 20.6453 22 20.9453V22.9453C22 23.2453 22.2 23.4453 22.5 23.4453H23.9C23.7 24.5453 22.7 25.4453 21.5 25.4453H21V23.9453C21 23.6453 20.8 23.4453 20.5 23.4453C20.2 23.4453 20 23.6453 20 23.9453V25.4453C19 25.6453 18.2 26.4453 18 27.4453H17.5C17.2 27.4453 17 27.6453 17 27.9453C17 28.2453 17.2 28.4453 17.5 28.4453H18V33.4453H17.5C17.2 33.4453 17 33.6453 17 33.9453C17 34.2453 17.2 34.4453 17.5 34.4453H18V35.4453H10V34.4453H10.5C10.8 34.4453 11 34.2453 11 33.9453C11 33.6453 10.8 33.4453 10.5 33.4453H10V29.9453C10 29.6453 9.8 29.4453 9.5 29.4453C9.2 29.4453 9 29.6453 9 29.9453V30.4453H8V27.4453H8.5C8.8 27.4453 9 27.2453 9 26.9453C9 26.6453 8.8 26.4453 8.5 26.4453H8C8 25.5453 7.4 24.7453 6.5 24.5453V22.9453C6.5 22.6453 6.3 22.4453 6 22.4453C5.7 22.4453 5.5 22.6453 5.5 22.9453V24.5453C4.6 24.7453 4 25.5453 4 26.4453H3.5C3.2 26.4453 3 26.6453 3 26.9453C3 27.2453 3.2 27.4453 3.5 27.4453H4V30.4453H3V29.9453C3 29.6453 2.8 29.4453 2.5 29.4453C2.2 29.4453 2 29.6453 2 29.9453V33.4453H1.5C1.2 33.4453 1 33.6453 1 33.9453C1 34.2453 1.2 34.4453 1.5 34.4453H2V37.4453H1.5C1.2 37.4453 1 37.6453 1 37.9453C1 38.2453 1.2 38.4453 1.5 38.4453H2V46.4453H1.5C1.2 46.4453 1 46.6453 1 46.9453C1 47.2453 1.2 47.4453 1.5 47.4453H2V56.4453H0.5C0.2 56.4453 0 56.6453 0 56.9453C0 57.2453 0.2 57.4453 0.5 57.4453H63.5C63.8 57.4453 64 57.2453 64 56.9453C64 56.6453 63.7 56.4453 63.4 56.4453ZM60.9 46.4453H54.9V38.4453H60.9V46.4453ZM57.9 25.4453C58.5 25.4453 58.9 25.8453 58.9 26.4453H56.9C56.9 25.8453 57.4 25.4453 57.9 25.4453ZM56.9 27.4453H58.9V30.4453H56.9V27.4453ZM54.9 31.5453L56.4 31.4453H60.8V33.4453H54.8V31.5453H54.9ZM60.9 34.4453V37.4453H54.9V34.4453H60.9ZM53.9 36.4453V37.4453H53.4C53.1 37.4453 52.9 37.6453 52.9 37.9453C52.9 38.2453 53.1 38.4453 53.4 38.4453H53.9V39.4453H45.9V38.4453H46.4C46.7 38.4453 46.9 38.2453 46.9 37.9453C46.9 37.6453 46.7 37.4453 46.4 37.4453H45.9V36.4453H53.9ZM27.9 53.4453V44.4453C27.9 42.2453 29.7 40.4453 31.9 40.4453C34.1 40.4453 35.9 42.2453 35.9 44.4453V56.4453H27.9V53.4453ZM31.9 39.4453C30.3 39.4453 28.8 40.2453 27.9 41.4453V38.4453H35.9V41.4453C35 40.2453 33.6 39.4453 31.9 39.4453ZM34.4 37.4453H27.9V35.4453H35.9V37.4453H34.4ZM24.9 30.4453H26.9V32.4453H24.9V30.4453ZM29.4 30.4453H35.9V32.4453H27.9V30.4453H29.4ZM26.9 23.4453H27.9V27.4453H26.9V23.4453ZM28.9 23.4453H34.9V27.4453H33.9V26.3453C33.9 25.2453 33 24.3453 31.9 24.3453C30.8 24.3453 29.9 25.2453 29.9 26.3453V27.4453H28.9V23.4453ZM36.9 27.4453H35.9V23.4453H36.9V27.4453ZM32.9 27.4453H30.9V26.3453C30.9 25.7453 31.3 25.3453 31.9 25.3453C32.5 25.3453 32.9 25.7453 32.9 26.3453V27.4453ZM29.9 28.4453H33.9V29.4453H29.9V28.4453ZM38.9 32.4453H36.9V30.4453H38.9V32.4453ZM24.4 33.4453H40.9V34.4453H22.9V33.4453H24.4ZM18.9 35.9453V34.4453H21.9V34.9453C21.9 35.2453 22.1 35.4453 22.4 35.4453H23.9V37.4453H18.9V35.9453ZM23.9 38.4453V40.7453C23.6 40.5453 23.3 40.4453 22.9 40.4453C22.5 40.4453 22.2 40.5453 21.9 40.7453V38.4453H23.9ZM23.9 51.4453H21.9V49.4453C21.9 48.8453 22.3 48.4453 22.9 48.4453C23.5 48.4453 23.9 48.8453 23.9 49.4453V51.4453ZM22.9 47.4453C22.5 47.4453 22.2 47.5453 21.9 47.7453V45.4453H23.9V47.7453C23.6 47.5453 23.3 47.4453 22.9 47.4453ZM23.9 44.4453H21.9V42.4453C21.9 41.8453 22.3 41.4453 22.9 41.4453C23.5 41.4453 23.9 41.8453 23.9 42.4453V44.4453ZM21.9 52.4453H23.9V56.4453H21.9V52.4453ZM24.9 35.4453H26.9V37.4453H24.9V35.4453ZM36.9 35.4453H38.9V37.4453H36.9V35.4453ZM41.9 51.4453H39.9V49.4453C39.9 48.8453 40.3 48.4453 40.9 48.4453C41.5 48.4453 41.9 48.8453 41.9 49.4453V51.4453ZM40.9 47.4453C40.5 47.4453 40.2 47.5453 39.9 47.7453V45.4453H41.9V47.7453C41.6 47.5453 41.3 47.4453 40.9 47.4453ZM41.9 44.4453H39.9V42.4453C39.9 41.8453 40.3 41.4453 40.9 41.4453C41.5 41.4453 41.9 41.8453 41.9 42.4453V44.4453ZM39.9 52.4453H41.9V56.4453H39.9V52.4453ZM41.9 40.7453C41.6 40.5453 41.3 40.4453 40.9 40.4453C40.5 40.4453 40.2 40.5453 39.9 40.7453V38.4453H41.9V40.7453ZM39.9 37.4453V35.4453H41.4C41.7 35.4453 41.9 35.2453 41.9 34.9453V34.4453H44.9V37.4453H39.9ZM44.9 33.4453H43.9V30.9453C43.9 30.6453 43.7 30.4453 43.4 30.4453C43.1 30.4453 42.9 30.6453 42.9 30.9453V33.4453H41.9V28.4453H44.9V33.4453ZM44.8 27.4453H42C42.2 26.8453 42.8 26.4453 43.4 26.4453C44 26.4453 44.6 26.8453 44.8 27.4453ZM41.5 26.3453C41.2 26.6453 41 27.0453 40.9 27.4453H40.4C40.1 27.4453 39.9 27.6453 39.9 27.9453C39.9 28.2453 40.1 28.4453 40.4 28.4453H40.9V32.4453H39.9V29.9453C39.9 29.6453 39.7 29.4453 39.4 29.4453H34.9V28.4453H38.4C38.7 28.4453 38.9 28.2453 38.9 27.9453C38.9 27.6453 38.7 27.4453 38.4 27.4453H37.9V23.4453H39C39.2 24.8453 40.2 25.9453 41.5 26.3453ZM38.9 20.4453H37.9V18.4453H38.9V20.4453ZM26.9 18.4453H28.9V20.4453H26.9V18.4453ZM29.9 18.4453H33.9V20.4453H29.9V18.4453ZM34.9 18.4453H36.9V20.4453H34.9V18.4453ZM31.9 5.44531C32.6 5.44531 33.1 5.84531 33.3 6.44531H30.5C30.7 5.84531 31.2 5.44531 31.9 5.44531ZM30.4 7.44531H33.4V10.5453C33.1 10.4453 32.7 10.4453 32.4 10.4453V8.94531C32.4 8.64531 32.2 8.44531 31.9 8.44531C31.6 8.44531 31.4 8.64531 31.4 8.94531V10.4453C31.1 10.4453 30.7 10.5453 30.4 10.5453V7.44531ZM31.9 11.4453C35.4 11.4453 38.3 14.0453 38.8 17.4453H25C25.5 14.0453 28.4 11.4453 31.9 11.4453ZM24.9 18.4453H25.9V20.4453H24.9V18.4453ZM22.9 21.4453H40.9V22.4453H22.9V21.4453ZM24.9 23.4453H26V27.4453H25.5C25.2 27.4453 25 27.6453 25 27.9453C25 28.2453 25.2 28.4453 25.5 28.4453H29V29.4453H24.5C24.2 29.4453 24 29.6453 24 29.9453V32.4453H23V28.4453H23.5C23.8 28.4453 24 28.2453 24 27.9453C24 27.6453 23.8 27.4453 23.5 27.4453H23C22.9 27.0453 22.7 26.6453 22.4 26.3453C23.6 25.9453 24.7 24.8453 24.9 23.4453ZM20.4 26.4453C21.1 26.4453 21.6 26.8453 21.8 27.4453H19C19.2 26.8453 19.8 26.4453 20.4 26.4453ZM21.9 28.4453V33.4453H20.9V30.9453C20.9 30.6453 20.7 30.4453 20.4 30.4453C20.1 30.4453 19.9 30.6453 19.9 30.9453V33.4453H18.9V28.4453H21.9ZM17.9 36.4453V37.4453H17.4C17.1 37.4453 16.9 37.6453 16.9 37.9453C16.9 38.2453 17.1 38.4453 17.4 38.4453H17.9V39.4453H9.9V38.4453H10.4C10.7 38.4453 10.9 38.2453 10.9 37.9453C10.9 37.6453 10.7 37.4453 10.4 37.4453H9.9V36.4453H17.9ZM5.9 25.4453C6.5 25.4453 6.9 25.8453 6.9 26.4453H4.9C4.9 25.8453 5.3 25.4453 5.9 25.4453ZM4.9 27.4453H6.9V30.4453H4.9V27.4453ZM2.9 31.5453L4.3 31.4453H8.8V33.4453H2.8V31.5453H2.9ZM2.9 34.4453H8.9V37.4453H2.9V34.4453ZM2.9 38.4453H8.9V46.4453H2.9V38.4453ZM2.9 47.4453H8.9V56.4453H2.9V47.4453ZM9.9 47.4453H10.4C10.7 47.4453 10.9 47.2453 10.9 46.9453C10.9 46.6453 10.7 46.4453 10.4 46.4453H9.9V40.4453H17.9V56.4453H9.9V47.4453ZM18.9 56.4453V38.4453H20.9V56.4453H18.9ZM24.9 56.4453V38.4453H26.9V56.4453H24.9ZM36.9 56.4453V38.4453H38.9V56.4453H36.9ZM42.9 51.9453V38.4453H44.9V56.4453H42.9V51.9453ZM45.9 40.4453H53.9V46.4453H53.4C53.1 46.4453 52.9 46.6453 52.9 46.9453C52.9 47.2453 53.1 47.4453 53.4 47.4453H53.9V56.4453H45.9V40.4453ZM54.9 56.4453V47.4453H60.9V56.4453H54.9Z"
        fill="#146DFA" />
</svg>