<svg width="64" height="50" viewBox="0 0 64 50" fill="none" xmlns="http://www.w3.org/2000/svg">
    <path
        d="M62.5 48.4453H60V27.4453H61.5C61.7 27.4453 61.9 27.3453 62 27.1453L63 24.1453C63.1 23.9453 63 23.8453 62.9 23.6453C62.8 23.5453 62.7 23.4453 62.5 23.4453H60V19.4453H60.5C60.8 19.4453 61 19.2453 61 18.9453V15.9453C61 15.6453 60.8 15.4453 60.5 15.4453H46V11.9453C46 11.6453 45.8 11.4453 45.5 11.4453H45V4.44531C45 3.54531 44.4 2.74531 43.5 2.54531V0.945312C43.5 0.645312 43.3 0.445312 43 0.445312C42.7 0.445312 42.5 0.645312 42.5 0.945312V2.54531C41.6 2.74531 41 3.54531 41 4.44531V8.44531H22V4.44531C22 3.54531 21.4 2.74531 20.5 2.54531V0.945312C20.5 0.645312 20.3 0.445312 20 0.445312C19.7 0.445312 19.5 0.645312 19.5 0.945312V2.54531C18.6 2.74531 18 3.54531 18 4.44531V11.4453H17.5C17.2 11.4453 17 11.6453 17 11.9453V15.4453H2.5C2.2 15.4453 2 15.6453 2 15.9453V18.9453C2 19.2453 2.2 19.4453 2.5 19.4453H3V23.4453H0.5C0.3 23.4453 0.2 23.5453 0.1 23.6453C3.7998e-07 23.7453 0 23.9453 0 24.1453L1 27.1453C1.1 27.3453 1.3 27.4453 1.5 27.4453H3V48.4453H0.5C0.2 48.4453 0 48.6453 0 48.9453C0 49.2453 0.2 49.4453 0.5 49.4453H62.5C62.8 49.4453 63 49.2453 63 48.9453C63 48.6453 62.8 48.4453 62.5 48.4453ZM61.1 26.4453H46V24.4453H61.8L61.1 26.4453ZM23 12.4453H40V18.4453H23V12.4453ZM45 12.4453V18.4453H41V12.4453H45ZM28 19.4453V23.4453H26V19.4453H28ZM29 19.4453H31V23.4453H29V19.4453ZM32 19.4453H34V23.4453H32V19.4453ZM35 19.4453H37V23.4453H35V19.4453ZM38 19.4453H40V23.4453H38V19.4453ZM41 23.4453V19.4453H45V23.4453H41ZM25 19.4453V23.4453H23V19.4453H25ZM22 23.4453H18V19.4453H22V23.4453ZM22 24.4453V26.4453H18V24.4453H22ZM41 24.4453H45V26.4453H41V24.4453ZM59 23.4453H46V19.4453H59V23.4453ZM60 16.4453V18.4453H46V16.4453H60ZM42 11.4453V6.44531H44V11.4453H42ZM43 3.44531C43.6 3.44531 44 3.84531 44 4.44531V5.44531H42V4.44531C42 3.84531 42.4 3.44531 43 3.44531ZM41 9.44531V11.4453H22V9.44531H41ZM20 3.44531C20.6 3.44531 21 3.84531 21 4.44531V5.44531H19V4.44531C19 3.84531 19.4 3.44531 20 3.44531ZM19 6.44531H21V11.4453H19V6.44531ZM18.5 12.4453H22V18.4453H18V12.4453H18.5ZM3 16.4453H17V18.4453H3V16.4453ZM4 19.4453H17V23.4453H4V19.4453ZM1.2 24.4453H17V26.4453H1.9L1.2 24.4453ZM4 27.4453H17V48.4453H15.5V37.0453C15.5 34.3453 14 31.9453 11.5 30.7453C11.2 30.5453 10.8 30.5453 10.4 30.7453C8 31.9453 6.5 34.3453 6.4 37.0453V48.4453H3.9V27.4453H4ZM8.5 48.4453H7.5V37.4453H14.5V48.4453H13.5V41.9453C13.5 39.3453 11.3 38.5453 11.2 38.4453H10.9C10.8 38.4453 8.5 39.3453 8.5 41.9453V48.4453ZM7.5 36.4453C7.7 34.3453 8.9 32.4453 10.9 31.4453H11.1C13 32.4453 14.3 34.2453 14.5 36.4453H7.5ZM9.5 48.4453V41.9453C9.5 40.4453 10.6 39.7453 11 39.4453C11.5 39.7453 12.5 40.4453 12.5 41.9453V48.4453H9.5ZM18 48.4453V27.4453H22V48.4453H18ZM25 48.4453V37.5453C25 34.5453 26.5 31.7453 29.1 30.1453L31.5 28.5453L33.9 30.0453C36.5 31.6453 38 34.4453 38 37.5453V48.5453H25V48.4453ZM34.4 29.2453L31.7 27.5453C31.5 27.4453 31.3 27.4453 31.2 27.5453L28.5 29.2453C25.7 31.0453 24 34.1453 24 37.5453V48.4453H23V24.4453H40V48.4453H39V37.4453C39 34.1453 37.3 31.0453 34.4 29.2453ZM41 48.4453V27.4453H45V48.4453H41ZM48.5 37.4453H55.5V48.4453H54.5V41.9453C54.5 39.3453 52.3 38.5453 52.2 38.4453H51.9C51.8 38.4453 49.5 39.3453 49.5 41.9453V48.4453H48.5V37.4453ZM48.5 36.4453C48.7 34.3453 49.9 32.4453 51.9 31.4453H52.1C54 32.4453 55.3 34.2453 55.5 36.4453H48.5ZM50.5 48.4453V41.9453C50.5 40.4453 51.6 39.7453 52 39.4453C52.5 39.7453 53.5 40.4453 53.5 41.9453V48.4453H50.5ZM56.5 48.4453V37.0453C56.5 34.3453 55 31.9453 52.5 30.6453C52.2 30.4453 51.8 30.4453 51.4 30.6453C49 31.8453 47.4 34.3453 47.4 37.0453V48.4453H45.9V27.4453H58.9V48.4453H56.5Z"
        fill="#146DFA" />
</svg>