<svg width="56" height="56" viewBox="0 0 56 56" fill="none" xmlns="http://www.w3.org/2000/svg">
<g id="phone_call_line 1" clip-path="url(#clip0_3765_6890)">
<g id="Group">
<path id="Vector" d="M16.0001 5.70672C18.9471 7.85572 21.1778 10.8751 23.0771 13.6494L24.5658 15.8381C25.028 16.5137 25.2396 17.3297 25.1637 18.1449C25.0879 18.96 24.7294 19.723 24.1504 20.3017L20.9864 23.4657L21.3201 24.1751C22.1368 25.8294 23.5461 28.2117 25.6671 30.3351C27.3004 31.9684 29.0854 33.1771 30.5764 34.0217L31.4328 34.4814L32.1958 34.8594L32.5364 35.0157L35.6981 31.8517C36.2791 31.2715 37.0455 30.9136 37.8634 30.8407C38.6813 30.7678 39.4989 30.9844 40.1734 31.4527L42.5394 33.0931C45.2274 34.9831 48.0344 37.1367 50.2161 39.9321C50.5932 40.4172 50.8331 40.9947 50.9107 41.6042C50.9883 42.2138 50.9007 42.8329 50.6571 43.3971C48.7041 47.9541 43.7621 51.8344 38.6218 51.6431L37.9218 51.6057L37.3781 51.5591L36.7761 51.4891L36.1204 51.4004L35.4088 51.2814L34.6481 51.1321L33.8408 50.9524L32.9868 50.7331L32.0884 50.4764L31.1504 50.1731C26.8431 48.7124 21.3761 45.8424 15.7668 40.2331C10.1598 34.6261 7.28976 29.1591 5.8291 24.8517L5.52577 23.9137L5.2691 23.0154L5.04977 22.1614L4.86776 21.3541C4.8152 21.1012 4.76619 20.8476 4.72077 20.5934L4.6041 19.8817L4.51077 19.2261L4.4431 18.6241L4.39643 18.0804L4.3591 17.3804C4.1701 12.2564 8.09243 7.27939 12.6284 5.33572C13.1744 5.09998 13.7722 5.01022 14.3633 5.07527C14.9544 5.14031 15.5185 5.35791 16.0001 5.70672ZM13.8371 9.92539C11.3358 11.2321 8.91377 14.2187 9.02343 17.2077L9.0701 17.9731L9.12143 18.4514L9.1891 18.9881L9.28243 19.5784L9.40143 20.2247L9.5531 20.9201L9.73976 21.6667L9.96376 22.4577L10.2298 23.2931C10.3278 23.5777 10.4304 23.8694 10.5424 24.1681L10.9018 25.0827L11.3124 26.0324C12.7778 29.2571 15.1671 33.0324 19.0708 36.9337C22.9721 40.8351 26.7474 43.2267 29.9721 44.6921L30.9218 45.1027L31.8364 45.4621C32.1351 45.5741 32.4268 45.6767 32.7114 45.7747L33.5468 46.0407L34.3401 46.2647L35.0844 46.4514L35.7798 46.6031L36.4261 46.7221L37.0188 46.8154L37.5554 46.8854L38.0314 46.9321L38.7968 46.9787C41.7461 47.0884 44.7561 44.6804 46.0581 42.2117C44.3968 40.2634 42.3341 38.6651 40.0591 37.0551L38.3138 35.8394L37.8704 36.3037L36.9231 37.3374L36.4214 37.8647C35.0541 39.2577 33.4581 40.4407 31.5448 39.6684L31.0174 39.4467L30.3734 39.1574L30.0141 38.9871L29.2254 38.5927L28.3598 38.1261C26.1691 36.9069 24.1541 35.3959 22.3701 33.6344C20.6086 31.8504 19.0976 29.8354 17.8784 27.6447L17.4118 26.7814L17.0151 25.9904L16.5578 24.9871L16.3338 24.4551C15.6081 22.6607 16.6068 21.1464 17.8831 19.8351L18.4058 19.3217L19.7054 18.1247L20.1721 17.6814L19.0684 16.0644C17.4281 13.6844 15.8251 11.5377 13.8348 9.92306L13.8371 9.92539ZM34.9841 14.0951L35.2548 14.1254C36.9532 14.425 38.5132 15.2546 39.7112 16.4953C40.9091 17.736 41.6836 19.3241 41.9234 21.0321C42.009 21.6228 41.8648 22.2239 41.5207 22.7116C41.1766 23.1993 40.6586 23.5366 40.0734 23.6541C39.4881 23.7715 38.8801 23.6603 38.3744 23.3431C37.8687 23.026 37.5038 22.5271 37.3548 21.9491L37.3011 21.6807C37.2072 21.0113 36.9215 20.3834 36.4784 19.8728C36.0354 19.3623 35.454 18.991 34.8044 18.8037L34.4428 18.7221C33.8569 18.6182 33.3328 18.2944 32.9777 17.817C32.6226 17.3395 32.4633 16.7444 32.5325 16.1534C32.6016 15.5624 32.8939 15.0201 33.3496 14.6375C33.8054 14.2549 34.39 14.0609 34.9841 14.0951ZM35.0004 7.00172C38.7135 7.00172 42.2744 8.47672 44.8999 11.1022C47.5254 13.7277 49.0004 17.2887 49.0004 21.0017C48.9998 21.5964 48.772 22.1685 48.3638 22.6009C47.9555 23.0334 47.3975 23.2936 46.8038 23.3285C46.2101 23.3633 45.6255 23.1702 45.1695 22.7884C44.7134 22.4067 44.4203 21.8653 44.3501 21.2747L44.3338 21.0017C44.3346 18.632 43.4336 16.3508 41.8137 14.6213C40.1938 12.8917 37.9764 11.8435 35.6118 11.6894L35.0004 11.6684C34.3816 11.6684 33.7881 11.4226 33.3505 10.985C32.9129 10.5474 32.6671 9.9539 32.6671 9.33506C32.6671 8.71622 32.9129 8.12273 33.3505 7.68514C33.7881 7.24756 34.3816 7.00172 35.0004 7.00172Z" fill="#146DFA"/>
</g>
</g>
<defs>
<clipPath id="clip0_3765_6890">
<rect width="56" height="56" fill="white"/>
</clipPath>
</defs>
</svg>
