<svg width="56" height="56" viewBox="0 0 56 56" fill="none" xmlns="http://www.w3.org/2000/svg">
<g id="chat_1_line 1" clip-path="url(#clip0_3765_8128)">
<g id="Group">
<path id="Vector" d="M28.0003 4.66406C40.8873 4.66406 51.3337 15.1104 51.3337 27.9974C51.3337 40.8844 40.8873 51.3307 28.0003 51.3307H9.33366C8.09598 51.3307 6.909 50.8391 6.03383 49.9639C5.15866 49.0887 4.66699 47.9017 4.66699 46.6641V27.9974C4.66699 15.1104 15.1133 4.66406 28.0003 4.66406ZM28.0003 9.33073C23.0496 9.33073 18.3017 11.2974 14.801 14.7981C11.3003 18.2987 9.33366 23.0467 9.33366 27.9974V46.6641H28.0003C32.951 46.6641 37.699 44.6974 41.1997 41.1967C44.7003 37.696 46.667 32.9481 46.667 27.9974C46.667 23.0467 44.7003 18.2987 41.1997 14.7981C37.699 11.2974 32.951 9.33073 28.0003 9.33073ZM28.0003 32.6641C28.595 32.6647 29.1671 32.8924 29.5995 33.3007C30.032 33.709 30.2922 34.267 30.3271 34.8607C30.3619 35.4543 30.1688 36.0389 29.787 36.495C29.4053 36.9511 28.8639 37.2442 28.2733 37.3144L28.0003 37.3307H21.0003C20.4056 37.3301 19.8336 37.1023 19.4011 36.6941C18.9687 36.2858 18.7084 35.7278 18.6736 35.1341C18.6387 34.5404 18.8319 33.9558 19.2136 33.4998C19.5953 33.0437 20.1368 32.7506 20.7273 32.6804L21.0003 32.6641H28.0003ZM35.0003 23.3307C35.6192 23.3307 36.2127 23.5766 36.6502 24.0141C37.0878 24.4517 37.3337 25.0452 37.3337 25.6641C37.3337 26.2829 37.0878 26.8764 36.6502 27.314C36.2127 27.7516 35.6192 27.9974 35.0003 27.9974H21.0003C20.3815 27.9974 19.788 27.7516 19.3504 27.314C18.9128 26.8764 18.667 26.2829 18.667 25.6641C18.667 25.0452 18.9128 24.4517 19.3504 24.0141C19.788 23.5766 20.3815 23.3307 21.0003 23.3307H35.0003Z" fill="#146DFA"/>
</g>
</g>
<defs>
<clipPath id="clip0_3765_8128">
<rect width="56" height="56" fill="white"/>
</clipPath>
</defs>
</svg>
