 <svg
                xmlns="http://www.w3.org/2000/svg"
                width="56"
                height="56"
                className="lg:w-[56px] lg:h-[56px] w-[40px] "
                viewBox="0 0 56 56"
                fill="none"
              >
                <path
                  d="M28 14V42"
                  stroke="#67C380"
                  stroke-width="4"
                  stroke-linecap="round"
                />
                <path
                  d="M35 22.1693C35 18.9476 31.8661 16.3359 28 16.3359C24.1339 16.3359 21 18.9476 21 22.1693C21 25.3909 24.1339 28.0026 28 28.0026C31.8661 28.0026 35 30.6143 35 33.8359C35 37.0576 31.8661 39.6693 28 39.6693C24.1339 39.6693 21 37.0576 21 33.8359"
                  stroke="#67C380"
                  stroke-width="4"
                  stroke-linecap="round"
                />
                <path
                  d="M16.3332 7.78564C19.7652 5.80033 23.7499 4.66406 27.9998 4.66406C40.8864 4.66406 51.3332 15.1107 51.3332 27.9974C51.3332 40.8839 40.8864 51.3307 27.9998 51.3307C15.1132 51.3307 4.6665 40.8839 4.6665 27.9974C4.6665 23.7475 5.80277 19.7628 7.78808 16.3307"
                  stroke="#67C380"
                  stroke-width="4"
                  stroke-linecap="round"
                />
              </svg>