<svg width="24" height="24" viewBox="0 0 24 24" fill="none" xmlns="http://www.w3.org/2000/svg">
<g id="folder-svgrepo-com 1">
<path id="Vector" d="M2 7C2 5.6 2 4.9 2.272 4.365C2.51173 3.89435 2.89435 3.51173 3.365 3.272C3.9 3 4.6 3 6 3H7.431C8.371 3 8.84 3 9.266 3.13C9.64325 3.24434 9.99428 3.43192 10.299 3.682C10.644 3.965 10.904 4.356 11.425 5.137L12 6H18C19.4 6 20.1 6 20.635 6.272C21.1053 6.51189 21.4875 6.89451 21.727 7.365C22 7.9 22 8.6 22 10V15C22 16.4 22 17.1 21.727 17.635C21.4874 18.1051 21.1051 18.4874 20.635 18.727C20.1 19 19.4 19 18 19H6C4.6 19 3.9 19 3.365 18.727C2.89451 18.4875 2.5119 18.1053 2.272 17.635C2 17.1 2 16.4 2 15V7Z" fill="white"/>
</g>
</svg>
