<svg width="56" height="56" viewBox="0 0 56 56" fill="none" xmlns="http://www.w3.org/2000/svg">
<g id="mail_line (1) 1" clip-path="url(#clip0_3765_6412)">
<g id="Group">
<path id="Vector" d="M46.667 9.33594C47.8443 9.33557 48.9783 9.78022 49.8416 10.5808C50.7049 11.3813 51.2337 12.4786 51.322 13.6526L51.3337 14.0026V42.0026C51.334 43.1799 50.8894 44.3139 50.0888 45.1772C49.2883 46.0405 48.191 46.5693 47.017 46.6576L46.667 46.6693H9.33366C8.15631 46.6696 7.02234 46.225 6.15905 45.4244C5.29576 44.6239 4.76696 43.5266 4.67866 42.3526L4.66699 42.0026V14.0026C4.66662 12.8253 5.11127 11.6913 5.91182 10.828C6.71236 9.9647 7.80963 9.43591 8.98366 9.3476L9.33366 9.33594H46.667ZM46.667 17.3019L30.4737 33.4953C29.8174 34.1507 28.9278 34.5189 28.0003 34.5189C27.0728 34.5189 26.1832 34.1507 25.527 33.4953L9.33366 17.3019V42.0026H46.667V17.3019ZM43.3677 14.0026H12.633L28.0003 29.3699L43.3677 14.0026Z" fill="#146DFA"/>
</g>
</g>
<defs>
<clipPath id="clip0_3765_6412">
<rect width="56" height="56" fill="white"/>
</clipPath>
</defs>
</svg>
