 <svg
                xmlns="http://www.w3.org/2000/svg"
                width="56"
                height="56"
                className="lg:w-[56px] lg:h-[56px] w-[40px] "
                viewBox="0 0 56 56"
                fill="none"
              >
                <path
                  d="M28 7.23594C34.1833 8.98594 40.95 11.0859 44.3333 12.2526V30.5693C44.3333 34.5359 40.0167 41.5359 28 48.5359C15.9833 41.4193 11.6667 34.5359 11.6667 30.5693V12.2526C15.05 10.9693 21.8167 8.98594 28 7.23594ZM28 2.33594C28 2.33594 7 8.28594 7 9.33594V30.5693C7 41.3026 22.5167 50.7526 26.8333 53.3193C27.1787 53.55 27.5847 53.6732 28 53.6732C28.4153 53.6732 28.8213 53.55 29.1667 53.3193C33.6 50.8693 49 41.3026 49 30.5693V9.33594C49 8.28594 28 2.33594 28 2.33594Z"
                  fill="#689DFF"
                />
                <path
                  d="M22.8666 34.301L17.0332 28.5844C16.629 28.1712 16.3839 27.6284 16.3412 27.052C16.2985 26.4756 16.461 25.9026 16.7999 25.4344C16.9887 25.1532 17.2395 24.919 17.5329 24.7499C17.8264 24.5807 18.1547 24.481 18.4926 24.4585C18.8306 24.436 19.1692 24.4912 19.4825 24.6199C19.7958 24.7486 20.0754 24.9474 20.2999 25.201L24.4999 29.401L35.6999 18.201C36.1492 17.864 36.705 17.7004 37.2653 17.7402C37.8256 17.7801 38.3526 18.0206 38.7498 18.4178C39.147 18.815 39.3875 19.342 39.4274 19.9023C39.4672 20.4626 39.3036 21.0184 38.9666 21.4677L26.1332 34.301C25.9256 34.5274 25.6732 34.7081 25.392 34.8317C25.1108 34.9553 24.807 35.0191 24.4999 35.0191C24.1927 35.0191 23.889 34.9553 23.6078 34.8317C23.3266 34.7081 23.0742 34.5274 22.8666 34.301Z"
                  fill="#689DFF"
                />
              </svg>