<svg
                xmlns="http://www.w3.org/2000/svg"
                width="56"
                height="56"
                className="lg:w-[56px] lg:h-[56px] w-[40px] "
                viewBox="0 0 56 56"
                fill="none"
              >
                <path
                  d="M44.31 16.3801C44.4369 16.709 44.6602 16.9918 44.9506 17.1917C45.241 17.3915 45.585 17.499 45.9375 17.5001C46.1533 17.4984 46.3668 17.4569 46.5675 17.3776C46.9983 17.2094 47.3451 16.8776 47.532 16.4546C47.7189 16.0316 47.7308 15.5518 47.565 15.1201C46.7554 13.0465 45.6212 11.1149 44.205 9.39757C43.9009 9.07234 43.4842 8.87528 43.0399 8.84652C42.5955 8.81775 42.1569 8.95944 41.8134 9.24274C41.4699 9.52604 41.2473 9.92963 41.1909 10.3713C41.1345 10.813 41.2486 11.2596 41.51 11.6201C42.6894 13.0485 43.6345 14.6552 44.31 16.3801ZM38.5 8.75007C38.9641 8.75007 39.4093 8.56569 39.7374 8.2375C40.0656 7.90931 40.25 7.46419 40.25 7.00007C40.2423 6.76476 40.1871 6.53344 40.0879 6.31995C39.9887 6.10645 39.8474 5.91518 39.6725 5.75757C39.5234 5.59576 39.342 5.467 39.14 5.37959C38.9381 5.29218 38.72 5.24805 38.5 5.25007C38.0359 5.25007 37.5907 5.43444 37.2626 5.76263C36.9344 6.09082 36.75 6.53594 36.75 7.00007C36.7568 7.25261 36.8182 7.50069 36.93 7.72725C37.0417 7.95382 37.2012 8.1535 37.3975 8.31257C37.7029 8.58229 38.0928 8.73702 38.5 8.75007ZM15.75 22.7501C15.75 25.1729 16.4684 27.5413 17.8145 29.5558C19.1605 31.5703 21.0737 33.1404 23.3121 34.0676C25.5505 34.9948 28.0136 35.2374 30.3899 34.7647C32.7661 34.292 34.9489 33.1253 36.6621 31.4121C38.3752 29.6989 39.542 27.5162 40.0146 25.1399C40.4873 22.7637 40.2447 20.3006 39.3175 18.0622C38.3904 15.8238 36.8202 13.9106 34.8057 12.5646C32.7912 11.2185 30.4228 10.5001 28 10.5001C24.7511 10.5001 21.6353 11.7907 19.3379 14.088C17.0406 16.3853 15.75 19.5012 15.75 22.7501ZM36.75 22.7501C36.75 24.4807 36.2368 26.1724 35.2754 27.6113C34.3139 29.0502 32.9473 30.1717 31.3485 30.834C29.7496 31.4963 27.9903 31.6696 26.293 31.3319C24.5956 30.9943 23.0365 30.161 21.8128 28.9373C20.5891 27.7135 19.7557 26.1544 19.4181 24.4571C19.0805 22.7598 19.2538 21.0004 19.9161 19.4016C20.5783 17.8027 21.6998 16.4362 23.1388 15.4747C24.5777 14.5132 26.2694 14.0001 28 14.0001C30.3206 14.0001 32.5462 14.9219 34.1872 16.5629C35.8281 18.2038 36.75 20.4294 36.75 22.7501Z"
                  fill="#FF8289"
                />
                <path
                  d="M53.7424 46.0058L44.0299 36.2933C47.2423 32.5117 49.0041 27.7102 48.9999 22.7483C48.9999 22.2842 48.8156 21.8391 48.4874 21.5109C48.1592 21.1827 47.7141 20.9983 47.2499 20.9983C46.7858 20.9983 46.3407 21.1827 46.0125 21.5109C45.6843 21.8391 45.4999 22.2842 45.4999 22.7483C45.4977 25.5938 44.8017 28.3958 43.4721 30.9116C42.1426 33.4274 40.2197 35.581 37.8699 37.1858L36.1199 38.2358C33.6194 39.5539 30.8353 40.2427 28.0087 40.2427C25.182 40.2427 22.398 39.5539 19.8974 38.2358L18.1474 37.1858C14.7386 34.8374 12.2726 31.3565 11.1876 27.3617C10.1026 23.3669 10.4688 19.1168 12.2212 15.3665C13.9736 11.6162 16.9986 8.60852 20.759 6.87778C24.5193 5.14704 28.7714 4.80533 32.7599 5.91334C32.9862 5.99553 33.227 6.03015 33.4673 6.01502C33.7076 5.9999 33.9421 5.93536 34.1563 5.82545C34.3705 5.71553 34.5597 5.56261 34.7121 5.37623C34.8645 5.18986 34.9768 4.97404 35.042 4.74228C35.1072 4.51053 35.1238 4.26781 35.0909 4.02932C35.058 3.79083 34.9763 3.5617 34.8508 3.35624C34.7253 3.15079 34.5588 2.97344 34.3616 2.83529C34.1644 2.69714 33.9409 2.60115 33.7049 2.55334C29.3839 1.34814 24.7906 1.55828 20.5977 3.15297C16.4048 4.74767 12.8327 7.64311 10.4048 11.4152C7.97682 15.1872 6.82055 19.6376 7.10534 24.1145C7.39014 28.5913 9.10104 32.8594 11.9874 36.2933L2.25742 46.0058C2.01062 46.2506 1.84231 46.5633 1.77393 46.9041C1.70556 47.245 1.74023 47.5984 1.87352 47.9194C2.00682 48.2405 2.23269 48.5145 2.52235 48.7067C2.81201 48.8988 3.15233 49.0004 3.49992 48.9983H9.23992L10.5874 53.0583C10.6812 53.3425 10.8462 53.5979 11.0668 53.8001C11.2874 54.0023 11.5562 54.1446 11.8474 54.2133L12.2499 54.2483C12.4802 54.2497 12.7085 54.2055 12.9218 54.1184C13.135 54.0314 13.3289 53.903 13.4924 53.7408L23.8874 43.3458C26.6019 43.8922 29.398 43.8922 32.1124 43.3458L42.5074 53.7408C42.6709 53.903 42.8649 54.0314 43.0781 54.1184C43.2913 54.2055 43.5196 54.2497 43.7499 54.2483H44.1524C44.4437 54.1796 44.7124 54.0373 44.933 53.8351C45.1536 53.6329 45.3187 53.3775 45.4124 53.0933L46.7599 48.9983H52.4999C52.8475 49.0004 53.1878 48.8988 53.4775 48.7067C53.7672 48.5145 53.993 48.2405 54.1263 47.9194C54.2596 47.5984 54.2943 47.245 54.2259 46.9041C54.1575 46.5633 53.9892 46.2506 53.7424 46.0058ZM19.9324 42.3483L12.9324 49.3483L12.0749 46.7933C11.9806 46.44 11.778 46.125 11.4955 45.8928C11.213 45.6605 10.8648 45.5225 10.4999 45.4983H7.71742L14.2624 38.9533L16.2049 40.1083C16.8475 40.5415 17.5135 40.9388 18.1999 41.2983L19.9324 42.3483ZM45.4999 45.4983C45.133 45.4974 44.7752 45.6118 44.4768 45.8253C44.1785 46.0389 43.9548 46.3408 43.8374 46.6883L42.9799 49.2433L35.9799 42.2433L37.7299 41.2108C38.4164 40.8513 39.0824 40.454 39.7249 40.0208L41.6674 38.8658L48.2824 45.4983H45.4999Z"
                  fill="#FF8289"
                />
              </svg>