<svg
                xmlns="http://www.w3.org/2000/svg"
                width="47"
                height="48"
                className="lg:w-[47px] lg:h-[48px] w-[36px]"
                viewBox="0 0 47 48"
                fill="none"
              >
                <path
                  fill-rule="evenodd"
                  clip-rule="evenodd"
                  d="M42.1999 19.7507C41.4766 12.3307 37.09 0.664062 23.5333 0.664062C9.97662 0.664062 5.58995 12.3307 4.86662 19.7507C2.32914 20.7138 0.655387 23.15 0.66656 25.8641V29.1307C0.66656 32.739 3.59169 35.6641 7.19995 35.6641C10.8082 35.6641 13.7333 32.739 13.7333 29.1307V25.8641C13.7216 23.2086 12.1093 20.8224 9.64995 19.8207C10.1166 15.5274 12.4033 5.33073 23.5333 5.33073C34.6633 5.33073 36.9266 15.5274 37.3933 19.8207C34.9389 20.8246 33.3348 23.2124 33.3333 25.8641V29.1307C33.3434 31.639 34.7837 33.9217 37.0433 35.0107C36.0633 36.8541 33.5666 39.3507 27.4299 40.0974C26.2033 38.2347 23.83 37.5004 21.7657 38.3448C19.7013 39.1892 18.5231 41.3764 18.9536 43.5648C19.3841 45.7532 21.3029 47.3307 23.5333 47.3307C25.2957 47.321 26.9023 46.3191 27.6866 44.7407C37.6966 43.5974 40.8933 38.4407 41.8966 35.4074C44.611 34.5281 46.4365 31.9838 46.4 29.1307V25.8641C46.4112 23.15 44.7374 20.7138 42.1999 19.7507ZM9.06662 29.1307C9.06662 30.1617 8.23088 30.9974 7.19995 30.9974C6.16902 30.9974 5.33328 30.1617 5.33328 29.1307V25.8641C5.33328 25.1972 5.68907 24.5809 6.26662 24.2475C6.84416 23.914 7.55573 23.914 8.13328 24.2475C8.71083 24.5809 9.06662 25.1972 9.06662 25.8641V29.1307ZM37.9999 25.8641C37.9999 24.8331 38.8357 23.9974 39.8666 23.9974C40.8975 23.9974 41.7333 24.8331 41.7333 25.8641V29.1307C41.7333 30.1617 40.8975 30.9974 39.8666 30.9974C38.8357 30.9974 37.9999 30.1617 37.9999 29.1307V25.8641Z"
                  fill="#FFA14A"
                />
              </svg>