<svg width="400" height="400" viewBox="0 0 400 400" fill="none" xmlns="http://www.w3.org/2000/svg">
<path d="M217.576 368.881C312.525 368.881 389.496 325.101 389.496 271.096C389.496 217.092 312.525 173.312 217.576 173.312C122.627 173.312 45.6562 217.092 45.6562 271.096C45.6562 325.101 122.627 368.881 217.576 368.881Z" fill="#F5F5F5"/>
<path d="M326.632 316.599C349.337 316.599 367.744 305.059 367.744 290.823C367.744 276.587 349.337 265.047 326.632 265.047C303.926 265.047 285.52 276.587 285.52 290.823C285.52 305.059 303.926 316.599 326.632 316.599Z" fill="#E6E6E6"/>
<path d="M58.9521 256.309C59.0373 257.479 59.3975 258.613 60.0036 259.618C60.6097 260.623 61.4445 261.471 62.4401 262.093L160 318.397C161.078 318.945 162.271 319.23 163.48 319.23C164.69 319.23 165.882 318.945 166.96 318.397L300.424 241.341C301.474 240.784 302.352 239.951 302.964 238.933C303.576 237.915 303.9 236.749 303.9 235.561C303.9 234.372 303.576 233.207 302.964 232.188C302.352 231.17 301.474 230.338 300.424 229.781L202.88 173.461C201.801 172.916 200.609 172.633 199.4 172.633C198.191 172.633 196.999 172.916 195.92 173.461L62.4401 250.533C61.4452 251.153 60.6107 251.999 60.0045 253.003C59.3984 254.007 59.0379 255.139 58.9521 256.309Z" fill="#37474F"/>
<path d="M163.464 311.71V319.238C162.255 319.272 161.057 318.996 159.984 318.438L62.3998 262.094C61.38 261.556 60.521 260.758 59.9102 259.78C59.2995 258.803 58.9588 257.681 58.9231 256.528C58.8873 255.376 59.1576 254.235 59.7066 253.221C60.2555 252.208 61.0634 251.358 62.0478 250.758C60.4878 251.878 60.6078 253.518 62.3998 254.55L160 310.87C161.064 311.439 162.257 311.728 163.464 311.71Z" fill="#263238"/>
<path d="M55.6878 250.654C54.7189 249.995 53.9186 249.117 53.3516 248.092C52.7846 247.066 52.4668 245.921 52.4238 244.75V128.342C52.4895 127.135 52.8388 125.961 53.4435 124.914C54.0481 123.867 54.891 122.978 55.9038 122.318L189.368 45.2623C190.404 44.7124 191.555 44.4142 192.729 44.392C193.902 44.3697 195.063 44.624 196.12 45.1343C197.089 45.7935 197.889 46.6713 198.456 47.697C199.023 48.7226 199.341 49.8672 199.384 51.0383V167.446C199.318 168.653 198.969 169.828 198.364 170.874C197.76 171.921 196.917 172.81 195.904 173.47L62.4398 250.534C61.4022 251.081 60.2508 251.377 59.0781 251.398C57.9054 251.419 56.7442 251.164 55.6878 250.654Z" fill="#455A64"/>
<path d="M62.0238 250.746C61.0251 251.194 59.9405 251.418 58.8461 251.403C57.7517 251.387 56.6738 251.133 55.6878 250.658C54.7189 249.999 53.9186 249.121 53.3516 248.095C52.7846 247.07 52.4668 245.925 52.4238 244.754V128.346C52.4621 127.135 52.815 125.955 53.4478 124.922L59.9758 128.682C59.3486 129.717 58.9962 130.896 58.9518 132.106V248.522C58.9518 250.586 60.2958 251.506 62.0238 250.746Z" fill="#263238"/>
<path d="M58.9521 132.119V248.519C58.9521 250.743 60.5521 251.639 62.4401 250.535L195.904 173.471C196.917 172.811 197.76 171.921 198.365 170.875C198.969 169.828 199.318 168.654 199.384 167.447V51.0387C199.384 48.8227 197.824 47.9187 195.904 49.0307L62.4401 126.087C61.4248 126.746 60.5797 127.637 59.9735 128.685C59.3674 129.733 59.0175 130.91 58.9521 132.119Z" fill="#37474F"/>
<path d="M62.4401 254.548L160 310.868C161.079 311.412 162.271 311.696 163.48 311.696C164.689 311.696 165.881 311.412 166.96 310.868L300.424 233.812C302.352 232.7 302.352 230.9 300.424 229.812L202.88 173.492C201.801 172.948 200.609 172.664 199.4 172.664C198.191 172.664 196.999 172.948 195.92 173.492L62.4401 250.532C60.5121 251.636 60.5121 253.436 62.4401 254.548Z" fill="#455A64"/>
<path d="M64.3118 132.548L192.992 58.2676C194.144 57.6036 195.08 58.1476 195.08 59.4756V160.276C195.04 161 194.83 161.705 194.467 162.333C194.105 162.961 193.599 163.495 192.992 163.892L64.3118 238.132C63.1518 238.796 62.2158 238.26 62.2158 236.924V136.124C62.2604 135.405 62.4733 134.707 62.8374 134.086C63.2015 133.464 63.7066 132.938 64.3118 132.548Z" fill="#FAFAFA"/>
<path d="M73.7596 251.534L197.648 179.998C198.186 179.722 198.783 179.578 199.388 179.578C199.993 179.578 200.589 179.722 201.128 179.998L207.464 183.654C207.672 183.727 207.852 183.863 207.979 184.043C208.107 184.222 208.175 184.437 208.175 184.658C208.175 184.878 208.107 185.093 207.979 185.273C207.852 185.453 207.672 185.589 207.464 185.662L83.5596 257.19C83.0211 257.466 82.4247 257.61 81.8196 257.61C81.2145 257.61 80.6181 257.466 80.0796 257.19L73.7596 253.542C73.5516 253.469 73.3713 253.333 73.2438 253.153C73.1163 252.973 73.0479 252.758 73.0479 252.538C73.0479 252.317 73.1163 252.102 73.2438 251.923C73.3713 251.743 73.5516 251.607 73.7596 251.534Z" fill="#37474F"/>
<path d="M90.088 260.965L213.976 189.437C214.516 189.165 215.112 189.023 215.716 189.023C216.32 189.023 216.916 189.165 217.456 189.437L256.432 211.941C256.64 212.014 256.82 212.15 256.948 212.33C257.075 212.51 257.144 212.725 257.144 212.945C257.144 213.166 257.075 213.381 256.948 213.561C256.82 213.741 256.64 213.876 256.432 213.949L132.688 285.373C132.148 285.647 131.55 285.79 130.944 285.79C130.338 285.79 129.741 285.647 129.2 285.373L90.096 262.973C89.8839 262.905 89.6988 262.772 89.5671 262.592C89.4355 262.412 89.3642 262.195 89.3633 261.972C89.3624 261.749 89.432 261.532 89.5622 261.351C89.6924 261.17 89.8764 261.035 90.088 260.965Z" fill="#263238"/>
<path d="M201.144 221.6L205.016 219.368C205.184 219.272 205.176 219.112 205.016 219.008L200.528 216.416C200.433 216.367 200.327 216.342 200.22 216.342C200.113 216.342 200.007 216.367 199.912 216.416L196.032 218.656C195.864 218.744 195.872 218.904 196.032 219.008L200.512 221.6C200.61 221.651 200.718 221.677 200.828 221.677C200.938 221.677 201.046 221.651 201.144 221.6ZM193.488 212.704L189.6 214.96C189.432 215.056 189.448 215.216 189.6 215.32L194.08 217.904C194.177 217.953 194.283 217.979 194.392 217.979C194.5 217.979 194.607 217.953 194.704 217.904L198.584 215.664C198.744 215.568 198.736 215.408 198.584 215.304L194.096 212.72C194.002 212.673 193.898 212.648 193.792 212.648C193.686 212.648 193.582 212.673 193.488 212.72V212.704ZM180.952 220L174.392 223.784C174.224 223.88 174.232 224.04 174.392 224.144L178.872 226.736C178.969 226.784 179.076 226.808 179.184 226.808C179.292 226.808 179.399 226.784 179.496 226.736L186.056 222.952C186.224 222.856 186.208 222.696 186.056 222.592L181.6 220C181.5 219.947 181.389 219.919 181.276 219.919C181.163 219.919 181.052 219.947 180.952 220ZM187.816 216L183.936 218.24C183.776 218.336 183.784 218.496 183.936 218.6L188.424 221.192C188.52 221.24 188.625 221.264 188.732 221.264C188.839 221.264 188.944 221.24 189.04 221.192L192.92 218.952C193.08 218.856 193.072 218.696 192.92 218.6L188.432 216C188.337 215.951 188.231 215.926 188.124 215.926C188.017 215.926 187.911 215.951 187.816 216ZM172.616 224.8L168.736 227.032C168.576 227.128 168.584 227.288 168.736 227.392L173.224 229.984C173.319 230.033 173.425 230.059 173.532 230.059C173.639 230.059 173.745 230.033 173.84 229.984L177.72 227.744C177.88 227.656 177.872 227.496 177.72 227.392L173.216 224.8C173.121 224.751 173.015 224.726 172.908 224.726C172.801 224.726 172.695 224.751 172.6 224.8H172.616ZM166.944 228.072L163.072 230.312C162.904 230.4 162.912 230.56 163.072 230.664L167.56 233.256C167.656 233.304 167.761 233.328 167.868 233.328C167.975 233.328 168.08 233.304 168.176 233.256L172.056 231.016C172.224 230.92 172.208 230.76 172.056 230.656L167.576 228.064C167.477 228.01 167.366 227.981 167.253 227.979C167.14 227.978 167.028 228.004 166.928 228.056L166.944 228.072ZM184.592 238.6L188.472 236.36C188.632 236.264 188.624 236.104 188.472 236L183.984 233.416C183.889 233.367 183.783 233.342 183.676 233.342C183.569 233.342 183.463 233.367 183.368 233.416L179.488 235.656C179.32 235.752 179.336 235.912 179.488 236.016L183.968 238.6C184.064 238.644 184.168 238.666 184.274 238.663C184.379 238.66 184.483 238.633 184.576 238.584L184.592 238.6ZM178.92 241.872L182.8 239.632C182.968 239.536 182.952 239.376 182.8 239.272L178.32 236.688C178.223 236.639 178.116 236.613 178.008 236.613C177.899 236.613 177.793 236.639 177.696 236.688L173.816 238.928C173.656 239.024 173.664 239.184 173.816 239.288L178.304 241.88C178.399 241.921 178.503 241.94 178.607 241.936C178.71 241.932 178.812 241.905 178.904 241.856L178.92 241.872ZM173.248 245.144L177.128 242.904C177.296 242.808 177.288 242.648 177.128 242.552L172.648 239.96C172.553 239.911 172.447 239.886 172.34 239.886C172.233 239.886 172.127 239.911 172.032 239.96L168.152 242.2C167.984 242.296 167.992 242.456 168.152 242.56L172.64 245.152C172.734 245.192 172.836 245.211 172.939 245.206C173.041 245.202 173.141 245.176 173.232 245.128L173.248 245.144ZM167.584 248.416L171.464 246.176C171.624 246.088 171.616 245.928 171.464 245.824L166.936 243.2C166.841 243.151 166.735 243.126 166.628 243.126C166.521 243.126 166.415 243.151 166.32 243.2L162.44 245.432C162.272 245.528 162.288 245.688 162.44 245.792L166.92 248.384C167.018 248.44 167.129 248.471 167.242 248.473C167.355 248.476 167.467 248.451 167.568 248.4L167.584 248.416ZM195.488 224.912L199.368 222.672C199.528 222.576 199.52 222.416 199.368 222.312L194.88 219.72C194.784 219.673 194.679 219.648 194.572 219.648C194.465 219.648 194.36 219.673 194.264 219.72L190.384 221.96C190.224 222.056 190.232 222.216 190.384 222.312L194.872 224.904C194.966 224.948 195.069 224.97 195.173 224.968C195.277 224.967 195.379 224.942 195.472 224.896L195.488 224.912ZM190.256 235.312L198.912 230.312C199.08 230.216 199.064 230.056 198.912 229.96L188 223.672C187.903 223.623 187.796 223.597 187.688 223.597C187.579 223.597 187.473 223.623 187.376 223.672L182.904 226.256C182.736 226.352 182.744 226.512 182.904 226.616L188.664 229.944C188.848 230.048 188.856 230.208 188.664 230.296L185.088 232.368C184.92 232.464 184.928 232.624 185.088 232.728L189.576 235.312C189.677 235.37 189.792 235.4 189.908 235.4C190.024 235.4 190.139 235.37 190.24 235.312H190.256ZM161.28 231.312L157.4 233.552C157.232 233.648 157.248 233.808 157.4 233.904L161.88 236.496C161.977 236.545 162.083 236.571 162.192 236.571C162.3 236.571 162.407 236.545 162.504 236.496L166.376 234.256C166.544 234.16 166.536 234 166.376 233.896L161.888 231.304C161.789 231.259 161.681 231.238 161.573 231.242C161.465 231.247 161.359 231.276 161.264 231.328L161.28 231.312ZM155.608 234.584L151.728 236.824C151.568 236.92 151.576 237.08 151.728 237.184L156.216 239.768C156.311 239.817 156.417 239.843 156.524 239.843C156.631 239.843 156.737 239.817 156.832 239.768L160.712 237.528C160.872 237.432 160.864 237.272 160.712 237.168L156.224 234.584C156.125 234.535 156.016 234.511 155.906 234.513C155.796 234.516 155.688 234.546 155.592 234.6L155.608 234.584ZM127.28 271.288C127.376 271.336 127.481 271.36 127.588 271.36C127.695 271.36 127.8 271.336 127.896 271.288L131.776 269.048C131.944 268.952 131.936 268.792 131.776 268.696L127.296 266.104C127.199 266.057 127.092 266.032 126.984 266.032C126.876 266.032 126.769 266.057 126.672 266.104L122.8 268.344C122.632 268.44 122.64 268.6 122.8 268.704L127.28 271.288ZM110.24 260.8L106.36 263.04C106.2 263.136 106.208 263.296 106.36 263.4L110.848 265.984C110.943 266.033 111.049 266.059 111.156 266.059C111.263 266.059 111.369 266.033 111.464 265.984L115.344 263.744C115.504 263.648 115.496 263.488 115.344 263.384L110.856 260.8C110.761 260.751 110.655 260.726 110.548 260.726C110.441 260.726 110.335 260.751 110.24 260.8ZM119.368 268.48C119.464 268.528 119.569 268.552 119.676 268.552C119.783 268.552 119.888 268.528 119.984 268.48L123.864 266.24C124.024 266.144 124.016 265.984 123.864 265.88L119.376 263.288C119.281 263.239 119.175 263.214 119.068 263.214C118.961 263.214 118.855 263.239 118.76 263.288L114.88 265.528C114.72 265.624 114.728 265.776 114.88 265.88L119.368 268.48ZM137.272 273.28L141.152 271.04C141.32 270.952 141.304 270.792 141.152 270.688L136.672 268.096C136.575 268.047 136.468 268.021 136.36 268.021C136.251 268.021 136.145 268.047 136.048 268.096L132.168 270.328C132.008 270.424 132.016 270.584 132.168 270.688L136.656 273.28C136.751 273.331 136.856 273.358 136.963 273.359C137.07 273.36 137.176 273.336 137.272 273.288V273.28ZM130.984 276.544C131.081 276.592 131.188 276.616 131.296 276.616C131.404 276.616 131.511 276.592 131.608 276.544L135.48 274.304C135.648 274.208 135.64 274.048 135.48 273.944L130.992 271.352C130.897 271.303 130.791 271.278 130.684 271.278C130.577 271.278 130.471 271.303 130.376 271.352L126.48 273.6C126.312 273.688 126.32 273.848 126.48 273.952L130.984 276.544ZM115.912 257.504L112.032 259.744C111.864 259.84 111.872 260 112.032 260.096L116.512 262.688C116.607 262.737 116.713 262.763 116.82 262.763C116.927 262.763 117.033 262.737 117.128 262.688L121.008 260.448C121.176 260.352 121.168 260.192 121.008 260.088L116.52 257.496C116.424 257.453 116.319 257.432 116.214 257.434C116.109 257.437 116.005 257.464 115.912 257.512V257.504ZM144.256 241.136L140.376 243.376C140.208 243.472 140.224 243.632 140.376 243.736L144.856 246.32C144.953 246.369 145.059 246.395 145.168 246.395C145.276 246.395 145.383 246.369 145.48 246.32L149.36 244.08C149.52 243.984 149.512 243.824 149.36 243.72L144.872 241.136C144.776 241.088 144.67 241.064 144.563 241.066C144.456 241.067 144.351 241.094 144.256 241.144V241.136ZM121.6 254.24L117.72 256.48C117.56 256.576 117.568 256.736 117.72 256.832L122.208 259.424C122.303 259.473 122.409 259.499 122.516 259.499C122.623 259.499 122.729 259.473 122.824 259.424L126.704 257.184C126.872 257.088 126.856 256.928 126.704 256.824L122.224 254.232C122.126 254.186 122.019 254.163 121.911 254.164C121.803 254.166 121.696 254.192 121.6 254.24ZM149.944 237.872L146.072 240.112C145.904 240.208 145.912 240.368 146.072 240.472L150.56 243.056C150.655 243.105 150.761 243.131 150.868 243.131C150.975 243.131 151.081 243.105 151.176 243.056L155.056 240.816C155.224 240.72 155.216 240.56 155.056 240.456L150.576 237.872C150.475 237.818 150.362 237.789 150.248 237.789C150.133 237.789 150.021 237.818 149.92 237.872H149.944ZM138.608 244.416L134.728 246.656C134.568 246.752 134.576 246.912 134.728 247.016L139.2 249.6C139.296 249.648 139.401 249.672 139.508 249.672C139.615 249.672 139.72 249.648 139.816 249.6L143.696 247.36C143.864 247.264 143.848 247.104 143.696 247.008L139.2 244.432C139.106 244.381 139.001 244.352 138.894 244.35C138.787 244.347 138.68 244.37 138.584 244.416H138.608ZM132.944 247.688L129.064 249.928C128.896 250.024 128.904 250.184 129.064 250.288L133.552 252.88C133.647 252.929 133.753 252.955 133.86 252.955C133.967 252.955 134.073 252.929 134.168 252.88L138.048 250.64C138.216 250.544 138.208 250.384 138.048 250.288L133.56 247.696C133.462 247.644 133.352 247.616 133.241 247.614C133.13 247.613 133.019 247.638 132.92 247.688H132.944ZM127.272 250.968L123.392 253.208C123.224 253.296 123.24 253.456 123.392 253.56L127.872 256.152C127.969 256.201 128.075 256.227 128.184 256.227C128.292 256.227 128.399 256.201 128.496 256.152L132.376 253.92C132.536 253.824 132.528 253.664 132.376 253.56L127.888 250.968C127.79 250.915 127.68 250.887 127.568 250.887C127.456 250.887 127.346 250.915 127.248 250.968H127.272ZM156.248 254.968L160.128 252.728C160.296 252.632 160.288 252.472 160.128 252.368L155.64 249.776C155.544 249.729 155.439 249.704 155.332 249.704C155.225 249.704 155.12 249.729 155.024 249.776L151.144 252.016C150.976 252.112 150.984 252.272 151.144 252.368L155.632 254.96C155.725 255.004 155.826 255.026 155.929 255.025C156.031 255.024 156.132 254.999 156.224 254.952L156.248 254.968ZM206.04 205.504L202.16 207.744C202 207.84 202.008 208 202.16 208.096L206.648 210.688C206.743 210.737 206.849 210.763 206.956 210.763C207.063 210.763 207.169 210.737 207.264 210.688L211.144 208.448C211.312 208.352 211.296 208.192 211.144 208.088L206.664 205.496C206.564 205.444 206.454 205.416 206.341 205.414C206.228 205.413 206.117 205.438 206.016 205.488L206.04 205.504ZM199.176 209.464L195.304 211.704C195.136 211.8 195.144 211.96 195.304 212.064L199.792 214.648C199.887 214.697 199.993 214.723 200.1 214.723C200.207 214.723 200.313 214.697 200.408 214.648L204.288 212.408C204.456 212.312 204.448 212.152 204.288 212.048L199.808 209.464C199.709 209.407 199.596 209.376 199.482 209.373C199.367 209.37 199.254 209.396 199.152 209.448L199.176 209.464ZM211.712 202.264L207.832 204.504C207.664 204.592 207.68 204.752 207.832 204.856L212.312 207.448C212.409 207.496 212.516 207.52 212.624 207.52C212.732 207.52 212.839 207.496 212.936 207.448L216.816 205.208C216.976 205.112 216.968 204.952 216.816 204.848L212.328 202.256C212.233 202.197 212.125 202.162 212.013 202.155C211.901 202.148 211.789 202.169 211.688 202.216L211.712 202.264ZM182.368 232.52L186.248 230.28C186.408 230.184 186.4 230.024 186.248 229.92L181.76 227.336C181.665 227.287 181.559 227.262 181.452 227.262C181.345 227.262 181.239 227.287 181.144 227.336L177.264 229.576C177.104 229.672 177.112 229.832 177.264 229.936L181.752 232.52C181.848 232.558 181.951 232.574 182.053 232.565C182.156 232.557 182.255 232.525 182.344 232.472L182.368 232.52ZM218 199C217.903 198.951 217.796 198.925 217.688 198.925C217.579 198.925 217.473 198.951 217.376 199L213.504 201.232C213.336 201.328 213.344 201.488 213.504 201.592L217.992 204.184C218.087 204.233 218.193 204.259 218.3 204.259C218.407 204.259 218.513 204.233 218.608 204.184L222.488 201.944C222.656 201.856 222.648 201.696 222.488 201.592L218 199ZM161.92 251.72L165.8 249.488C165.968 249.392 165.952 249.232 165.8 249.128L161.32 246.536C161.223 246.487 161.116 246.461 161.008 246.461C160.899 246.461 160.793 246.487 160.696 246.536L156.8 248.72C156.64 248.808 156.648 248.968 156.8 249.072L161.288 251.664C161.381 251.713 161.485 251.74 161.591 251.741C161.697 251.742 161.801 251.719 161.896 251.672L161.92 251.72ZM231.44 211.584L235.32 209.344C235.488 209.248 235.472 209.088 235.32 208.992L230.84 206.4C230.743 206.351 230.636 206.325 230.528 206.325C230.419 206.325 230.313 206.351 230.216 206.4L226.344 208.64C226.176 208.736 226.184 208.896 226.344 209L230.832 211.592C230.927 211.626 231.029 211.639 231.13 211.629C231.231 211.619 231.328 211.588 231.416 211.536L231.44 211.584ZM219.368 211.16L223.248 208.92C223.408 208.824 223.4 208.664 223.248 208.56L218.76 205.976C218.665 205.927 218.559 205.902 218.452 205.902C218.345 205.902 218.239 205.927 218.144 205.976L214.264 208.216C214.096 208.312 214.112 208.472 214.264 208.576L218.744 211.16C218.841 211.198 218.945 211.214 219.049 211.205C219.153 211.197 219.254 211.165 219.344 211.112L219.368 211.16ZM224.408 202.704C224.311 202.655 224.204 202.629 224.096 202.629C223.987 202.629 223.881 202.655 223.784 202.704L219.912 204.944C219.744 205.04 219.752 205.2 219.912 205.304L224.4 207.888C224.495 207.937 224.601 207.963 224.708 207.963C224.815 207.963 224.921 207.937 225.016 207.888L228.896 205.648C229.064 205.552 229.056 205.392 228.896 205.288L224.408 202.704ZM225.6 202.008L236.496 208.304C236.592 208.352 236.697 208.376 236.804 208.376C236.911 208.376 237.016 208.352 237.112 208.304L240.992 206.064C241.152 205.968 241.144 205.808 240.992 205.712L230.096 199.416C230 199.369 229.895 199.344 229.788 199.344C229.681 199.344 229.576 199.369 229.48 199.416L225.6 201.656C225.392 201.704 225.4 201.864 225.6 201.96V202.008ZM212.448 209.208L208.568 211.448C208.408 211.544 208.416 211.704 208.568 211.808L213.056 214.392C213.151 214.441 213.257 214.467 213.364 214.467C213.471 214.467 213.577 214.441 213.672 214.392L217.552 212.152C217.72 212.056 217.704 211.896 217.552 211.792L213.072 209.208C212.974 209.151 212.864 209.119 212.751 209.115C212.638 209.111 212.526 209.135 212.424 209.184L212.448 209.208ZM169.76 233.816L165.88 236.056C165.712 236.152 165.728 236.312 165.88 236.416L170.36 239.008C170.457 239.057 170.563 239.083 170.672 239.083C170.78 239.083 170.887 239.057 170.984 239.008L174.856 236.768C175.024 236.672 175.016 236.52 174.856 236.416L170.4 233.832C170.302 233.779 170.193 233.749 170.082 233.746C169.97 233.744 169.86 233.768 169.76 233.816ZM225.128 214.8C225.225 214.849 225.331 214.875 225.44 214.875C225.548 214.875 225.655 214.849 225.752 214.8L229.632 212.56C229.792 212.472 229.784 212.312 229.632 212.208L225.12 209.6C225.024 209.553 224.919 209.528 224.812 209.528C224.705 209.528 224.6 209.553 224.504 209.6L220.624 211.84C220.456 211.936 220.472 212.096 220.624 212.2L225.128 214.8ZM175.424 230.544L171.552 232.784C171.384 232.88 171.392 233.04 171.552 233.144L176.04 235.736C176.136 235.784 176.241 235.808 176.348 235.808C176.455 235.808 176.56 235.784 176.656 235.736L180.536 233.496C180.704 233.4 180.696 233.24 180.536 233.144L176.056 230.552C175.959 230.501 175.851 230.473 175.741 230.471C175.631 230.47 175.522 230.495 175.424 230.544ZM132.936 268C133.032 268.048 133.137 268.072 133.244 268.072C133.351 268.072 133.456 268.048 133.552 268L137.432 265.76C137.592 265.664 137.584 265.504 137.432 265.408L132.944 262.816C132.849 262.767 132.743 262.742 132.636 262.742C132.529 262.742 132.423 262.767 132.328 262.816L128.448 265.056C128.288 265.152 128.296 265.312 128.448 265.416L132.936 268ZM124.408 260L120.528 262.232C120.36 262.328 120.368 262.488 120.528 262.592L125.008 265.184C125.105 265.233 125.211 265.259 125.32 265.259C125.428 265.259 125.535 265.233 125.632 265.184L129.504 262.944C129.672 262.856 129.664 262.696 129.504 262.592L125.024 260C124.929 259.951 124.823 259.926 124.716 259.926C124.609 259.926 124.503 259.951 124.408 260ZM139.2 264.8L143.072 262.56C143.24 262.464 143.232 262.304 143.072 262.2L138.584 259.616C138.489 259.567 138.383 259.542 138.276 259.542C138.169 259.542 138.063 259.567 137.968 259.616L134.088 261.856C133.92 261.952 133.928 262.112 134.088 262.216L138.568 264.8C138.666 264.851 138.774 264.877 138.884 264.877C138.994 264.877 139.102 264.851 139.2 264.8ZM144.864 261.528L148.744 259.288C148.912 259.192 148.896 259.032 148.744 258.928L144.264 256.344C144.167 256.295 144.06 256.269 143.952 256.269C143.843 256.269 143.737 256.295 143.64 256.344L139.76 258.584C139.6 258.68 139.608 258.84 139.76 258.944L144.248 261.528C144.349 261.577 144.46 261.599 144.572 261.593C144.684 261.588 144.792 261.554 144.888 261.496L144.864 261.528ZM150.536 258.256L154.416 256.016C154.576 255.92 154.568 255.76 154.416 255.656L149.928 253.064C149.832 253.017 149.727 252.992 149.62 252.992C149.513 252.992 149.408 253.017 149.312 253.064L145.432 255.304C145.264 255.4 145.28 255.56 145.432 255.656L149.912 258.248C150.014 258.298 150.126 258.322 150.239 258.317C150.352 258.313 150.462 258.281 150.56 258.224L150.536 258.256ZM130.048 256.76L126.168 259C126.008 259.096 126.016 259.256 126.168 259.36L130.656 261.952C130.752 262 130.857 262.024 130.964 262.024C131.071 262.024 131.176 262 131.272 261.952L135.152 259.712C135.32 259.616 135.304 259.456 135.152 259.36L130.672 256.768C130.581 256.718 130.48 256.689 130.376 256.682C130.273 256.675 130.169 256.691 130.072 256.728L130.048 256.76ZM135.72 253.488L131.84 255.728C131.672 255.824 131.688 255.984 131.84 256.088L136.32 258.68C136.417 258.728 136.524 258.752 136.632 258.752C136.74 258.752 136.847 258.728 136.944 258.68L140.824 256.44C140.984 256.344 140.976 256.184 140.824 256.088L136.336 253.496C136.247 253.445 136.147 253.414 136.045 253.407C135.942 253.4 135.839 253.417 135.744 253.456L135.72 253.488ZM158.4 240.368L154.528 242.608C154.36 242.704 154.368 242.864 154.528 242.96L159.016 245.552C159.111 245.601 159.217 245.627 159.324 245.627C159.431 245.627 159.537 245.601 159.632 245.552L163.512 243.312C163.68 243.216 163.672 243.056 163.512 242.952L159.032 240.36C158.933 240.313 158.825 240.289 158.715 240.29C158.605 240.292 158.498 240.318 158.4 240.368ZM152.736 243.64L148.856 245.88C148.688 245.976 148.704 246.136 148.856 246.232L153.336 248.824C153.433 248.873 153.539 248.899 153.648 248.899C153.756 248.899 153.863 248.873 153.96 248.824L157.84 246.584C158 246.488 157.992 246.328 157.84 246.224L153.352 243.632C153.258 243.589 153.155 243.567 153.051 243.568C152.947 243.57 152.845 243.594 152.752 243.64H152.736ZM164.072 237.096L160.192 239.336C160.032 239.424 160.04 239.584 160.192 239.688L164.68 242.28C164.775 242.329 164.881 242.355 164.988 242.355C165.095 242.355 165.201 242.329 165.296 242.28L169.176 240.048C169.336 239.952 169.328 239.792 169.176 239.688L164.688 237.096C164.595 237.05 164.492 237.026 164.388 237.026C164.284 237.026 164.181 237.05 164.088 237.096H164.072ZM141.4 250.184L137.52 252.424C137.352 252.52 137.36 252.68 137.52 252.784L142.008 255.368C142.103 255.417 142.209 255.443 142.316 255.443C142.423 255.443 142.529 255.417 142.624 255.368L146.504 253.128C146.672 253.032 146.664 252.872 146.504 252.768L142.016 250.184C141.923 250.138 141.82 250.114 141.716 250.114C141.612 250.114 141.509 250.138 141.416 250.184H141.4ZM147.064 246.912L143.184 249.152C143.024 249.248 143.032 249.408 143.184 249.512L147.672 252.096C147.767 252.145 147.873 252.171 147.98 252.171C148.087 252.171 148.193 252.145 148.288 252.096L152.168 249.856C152.336 249.76 152.32 249.6 152.168 249.496L147.68 246.912C147.587 246.866 147.484 246.842 147.38 246.842C147.276 246.842 147.173 246.866 147.08 246.912H147.064ZM142.928 270.016L146.808 267.776C146.968 267.68 146.96 267.52 146.808 267.424L142.312 264.8C142.217 264.751 142.111 264.726 142.004 264.726C141.897 264.726 141.791 264.751 141.696 264.8L137.816 267.04C137.648 267.136 137.664 267.296 137.816 267.4L142.296 269.992C142.394 270.047 142.504 270.078 142.617 270.082C142.73 270.087 142.842 270.064 142.944 270.016H142.928ZM109.656 266.656L105.176 264.072C105.079 264.023 104.972 263.997 104.864 263.997C104.755 263.997 104.649 264.023 104.552 264.072L100.672 266.312C100.512 266.408 100.52 266.568 100.672 266.672L105.16 269.256C105.255 269.305 105.361 269.331 105.468 269.331C105.575 269.331 105.681 269.305 105.776 269.256L109.656 267.016C109.864 266.92 109.848 266.76 109.672 266.656H109.656ZM118.152 269.152L113.672 266.56C113.575 266.513 113.468 266.488 113.36 266.488C113.252 266.488 113.145 266.513 113.048 266.56L107.08 270C106.92 270.096 106.928 270.256 107.08 270.36L111.568 272.952C111.663 273.001 111.769 273.027 111.876 273.027C111.983 273.027 112.089 273.001 112.184 272.952L118.152 269.512C118.4 269.416 118.344 269.256 118.168 269.152H118.152ZM102.776 261.656L98.2959 259.064C98.1993 259.015 98.0924 258.989 97.9839 258.989C97.8755 258.989 97.7686 259.015 97.6719 259.064L92.8719 261.824C92.7119 261.92 92.7199 262.08 92.8719 262.176L97.3599 264.768C97.4551 264.817 97.5607 264.843 97.6679 264.843C97.7751 264.843 97.8807 264.817 97.9759 264.768L102.776 262.008C102.984 261.912 102.968 261.752 102.792 261.656H102.776ZM106.44 259.536C106.535 259.585 106.641 259.611 106.748 259.611C106.855 259.611 106.961 259.585 107.056 259.536L110.936 257.296C111.096 257.2 111.088 257.04 110.936 256.936L106.44 254.4C106.345 254.351 106.239 254.326 106.132 254.326C106.025 254.326 105.919 254.351 105.824 254.4L101.944 256.64C101.784 256.736 101.792 256.896 101.944 257L106.44 259.536ZM126.072 272L121.6 269.4C121.505 269.351 121.399 269.326 121.292 269.326C121.185 269.326 121.079 269.351 120.984 269.4L113.52 273.704C113.36 273.8 113.368 273.96 113.52 274.064L118.008 276.648C118.103 276.697 118.209 276.723 118.316 276.723C118.423 276.723 118.529 276.697 118.624 276.648L126.08 272.344C126.256 272.256 126.248 272.096 126.072 272ZM129.792 277.248L125.304 274.656C125.208 274.609 125.103 274.584 124.996 274.584C124.889 274.584 124.784 274.609 124.688 274.656L119.888 277.408C119.728 277.504 119.736 277.664 119.888 277.768L124.376 280.36C124.472 280.408 124.577 280.432 124.684 280.432C124.791 280.432 124.896 280.408 124.992 280.36L129.792 277.608C129.976 277.504 129.968 277.344 129.792 277.24V277.248ZM148.6 235.2C148.697 235.248 148.804 235.272 148.912 235.272C149.02 235.272 149.127 235.248 149.224 235.2L153.104 232.96C153.264 232.864 153.256 232.704 153.104 232.608L148.616 230.016C148.521 229.967 148.415 229.942 148.308 229.942C148.201 229.942 148.095 229.967 148 230.016L144.12 232.256C143.952 232.352 143.968 232.512 144.12 232.616L148.6 235.2ZM137.264 241.744C137.361 241.793 137.467 241.819 137.576 241.819C137.684 241.819 137.791 241.793 137.888 241.744L141.76 239.504C141.928 239.416 141.92 239.256 141.76 239.152L137.272 236.56C137.176 236.513 137.071 236.488 136.964 236.488C136.857 236.488 136.752 236.513 136.656 236.56L132.8 238.8C132.632 238.896 132.64 239.056 132.8 239.16L137.264 241.744ZM112.12 256.256C112.217 256.305 112.323 256.331 112.432 256.331C112.54 256.331 112.647 256.305 112.744 256.256L116.616 254.016C116.784 253.92 116.776 253.76 116.616 253.656L112.128 251.072C112.033 251.023 111.927 250.998 111.82 250.998C111.713 250.998 111.607 251.023 111.512 251.072L107.632 253.312C107.464 253.408 107.48 253.568 107.632 253.672L112.12 256.256ZM142.936 238.472C143.032 238.52 143.137 238.544 143.244 238.544C143.351 238.544 143.456 238.52 143.552 238.472L147.432 236.232C147.6 236.136 147.584 235.976 147.432 235.88L142.952 233.288C142.855 233.239 142.748 233.213 142.64 233.213C142.531 233.213 142.425 233.239 142.328 233.288L138.448 235.528C138.288 235.624 138.296 235.784 138.448 235.888L142.936 238.472ZM131.6 245.016C131.695 245.065 131.801 245.091 131.908 245.091C132.015 245.091 132.121 245.065 132.216 245.016L136.096 242.784C136.256 242.688 136.248 242.528 136.096 242.424L131.608 239.832C131.513 239.783 131.407 239.758 131.3 239.758C131.193 239.758 131.087 239.783 130.992 239.832L127.112 242.072C126.952 242.16 126.96 242.32 127.112 242.424L131.6 245.016ZM132.912 277.656C132.815 277.607 132.708 277.581 132.6 277.581C132.491 277.581 132.385 277.607 132.288 277.656L126.32 281.104C126.16 281.2 126.168 281.36 126.32 281.456L130.808 284.048C130.903 284.097 131.009 284.123 131.116 284.123C131.223 284.123 131.329 284.097 131.424 284.048L137.392 280.6C137.552 280.504 137.544 280.344 137.392 280.24L132.912 277.656ZM123.464 249.712C123.56 249.76 123.665 249.784 123.772 249.784C123.879 249.784 123.984 249.76 124.08 249.712L127.96 247.472C128.12 247.376 128.112 247.216 127.96 247.112L123.472 244.52C123.376 244.473 123.271 244.448 123.164 244.448C123.057 244.448 122.952 244.473 122.856 244.52L118.976 246.76C118.816 246.856 118.824 247.016 118.976 247.112L123.464 249.712ZM117.792 252.984C117.887 253.033 117.993 253.059 118.1 253.059C118.207 253.059 118.313 253.033 118.408 252.984L122.288 250.744C122.456 250.648 122.448 250.488 122.288 250.384L117.808 247.792C117.711 247.745 117.604 247.72 117.496 247.72C117.388 247.72 117.281 247.745 117.184 247.792L113.312 250.032C113.144 250.128 113.152 250.288 113.312 250.384L117.792 252.984ZM237.936 216.984C237.841 216.935 237.735 216.91 237.628 216.91C237.521 216.91 237.415 216.935 237.32 216.984L227.768 222.496C227.608 222.592 227.616 222.752 227.768 222.856L232.256 225.448C232.352 225.496 232.457 225.52 232.564 225.52C232.671 225.52 232.776 225.496 232.872 225.448L242.44 220C242.608 219.904 242.6 219.744 242.44 219.648L237.936 216.984ZM225.4 224.184C225.304 224.137 225.199 224.112 225.092 224.112C224.985 224.112 224.88 224.137 224.784 224.184L220.904 226.424C220.744 226.52 220.752 226.68 220.904 226.776L225.392 229.368C225.488 229.416 225.593 229.44 225.7 229.44C225.807 229.44 225.912 229.416 226.008 229.368L229.888 227.128C230.048 227.032 230.04 226.872 229.888 226.768L225.4 224.184ZM148.6 266.672L152.48 264.432C152.648 264.336 152.64 264.176 152.48 264.08L148 261.6C147.905 261.551 147.799 261.526 147.692 261.526C147.585 261.526 147.479 261.551 147.384 261.6L143.504 263.84C143.336 263.936 143.344 264.096 143.504 264.2L147.992 266.792C148.091 266.832 148.199 266.849 148.306 266.84C148.412 266.832 148.516 266.799 148.608 266.744L148.6 266.672ZM214.056 230.736C213.961 230.687 213.855 230.662 213.748 230.662C213.641 230.662 213.535 230.687 213.44 230.736L209.56 232.976C209.392 233.072 209.408 233.232 209.56 233.336L214.04 235.92C214.137 235.969 214.243 235.995 214.352 235.995C214.46 235.995 214.567 235.969 214.664 235.92L218.544 233.68C218.704 233.584 218.696 233.424 218.544 233.32L214.056 230.736ZM243.6 213.68C243.503 213.631 243.396 213.606 243.288 213.606C243.179 213.606 243.073 213.631 242.976 213.68L239.096 215.92C238.936 216.016 238.944 216.176 239.096 216.28L243.584 218.864C243.679 218.913 243.785 218.939 243.892 218.939C243.999 218.939 244.105 218.913 244.2 218.864L248.08 216.624C248.248 216.528 248.232 216.368 248.08 216.264L243.6 213.68ZM253.752 212.992L242.856 206.704C242.761 206.655 242.655 206.63 242.548 206.63C242.441 206.63 242.335 206.655 242.24 206.704L238.36 208.944C238.192 209.032 238.208 209.192 238.36 209.296L249.248 215.584C249.345 215.633 249.451 215.659 249.56 215.659C249.668 215.659 249.775 215.633 249.872 215.584L253.752 213.344C253.944 213.328 253.936 213.168 253.76 213.064L253.752 212.992ZM192.872 242.96C192.776 242.913 192.671 242.888 192.564 242.888C192.457 242.888 192.352 242.913 192.256 242.96L187.456 245.712C187.288 245.808 187.304 245.968 187.456 246.072L191.936 248.664C192.033 248.712 192.14 248.736 192.248 248.736C192.356 248.736 192.463 248.712 192.56 248.664L197.36 245.912C197.52 245.816 197.512 245.656 197.36 245.552L192.872 242.96ZM207.2 234.768C207.105 234.719 206.999 234.694 206.892 234.694C206.785 234.694 206.679 234.719 206.584 234.768L200.616 238.216C200.456 238.312 200.464 238.472 200.616 238.576L205.104 241.16C205.199 241.209 205.305 241.235 205.412 241.235C205.519 241.235 205.625 241.209 205.72 241.16L211.688 237.712C211.848 237.616 211.84 237.456 211.688 237.36L207.2 234.768ZM179.752 250.616C179.657 250.567 179.551 250.542 179.444 250.542C179.337 250.542 179.231 250.567 179.136 250.616L147.208 269.016C147.04 269.112 147.056 269.272 147.208 269.376L151.688 271.968C151.785 272.016 151.892 272.04 152 272.04C152.108 272.04 152.215 272.016 152.312 271.968L184.232 253.568C184.4 253.472 184.392 253.312 184.232 253.216L179.752 250.616ZM146.04 270.08C145.943 270.031 145.836 270.006 145.728 270.006C145.619 270.006 145.513 270.031 145.416 270.08L140.616 272.832C140.456 272.928 140.464 273.088 140.616 273.192L145.104 275.776C145.199 275.825 145.305 275.851 145.412 275.851C145.519 275.851 145.625 275.825 145.72 275.776L150.52 273.016C150.688 272.928 150.672 272.768 150.52 272.664L146.04 270.08ZM186.32 246.824C186.223 246.775 186.116 246.749 186.008 246.749C185.899 246.749 185.793 246.775 185.696 246.824L180.896 249.576C180.728 249.672 180.736 249.832 180.896 249.936L185.384 252.52C185.479 252.569 185.585 252.595 185.692 252.595C185.799 252.595 185.905 252.569 186 252.52L190.8 249.76C190.968 249.672 190.952 249.512 190.8 249.408L186.32 246.824ZM139.472 273.872C139.377 273.823 139.271 273.798 139.164 273.798C139.057 273.798 138.951 273.823 138.856 273.872L134.056 276.632C133.888 276.728 133.904 276.888 134.056 276.992L138.536 279.576C138.633 279.625 138.739 279.651 138.848 279.651C138.956 279.651 139.063 279.625 139.16 279.576L143.96 276.816C144.128 276.72 144.12 276.56 143.96 276.464L139.472 273.872ZM199.472 239.248C199.375 239.199 199.268 239.173 199.16 239.173C199.051 239.173 198.945 239.199 198.848 239.248L194.048 242.008C193.88 242.104 193.888 242.264 194.048 242.36L198.536 244.952C198.632 245 198.737 245.024 198.844 245.024C198.951 245.024 199.056 245 199.152 244.952L203.952 242.192C204.12 242.096 204.104 241.936 203.952 241.832L199.472 239.248ZM219.76 227.528C219.663 227.481 219.556 227.456 219.448 227.456C219.34 227.456 219.233 227.481 219.136 227.528L215.264 229.768C215.096 229.864 215.104 230.024 215.264 230.12L219.752 232.712C219.847 232.761 219.953 232.787 220.06 232.787C220.167 232.787 220.273 232.761 220.368 232.712L224.248 230.472C224.416 230.376 224.408 230.216 224.248 230.112L219.76 227.528ZM232.184 218.512L236.056 216.272C236.224 216.176 236.216 216.016 236.056 215.912L231.568 213.328C231.473 213.279 231.367 213.254 231.26 213.254C231.153 213.254 231.047 213.279 230.952 213.328L227.072 215.568C226.904 215.664 226.912 215.824 227.072 215.928L231.552 218.512C231.646 218.559 231.75 218.583 231.856 218.583C231.961 218.583 232.065 218.559 232.16 218.512H232.184ZM206.832 218.344L210.712 216.104C210.88 216.016 210.864 215.856 210.712 215.752L206.232 213.16C206.135 213.113 206.028 213.088 205.92 213.088C205.812 213.088 205.705 213.113 205.608 213.16L201.728 215.4C201.568 215.496 201.576 215.656 201.728 215.76L206.216 218.352C206.309 218.396 206.41 218.418 206.513 218.417C206.615 218.416 206.716 218.391 206.808 218.344H206.832ZM194.032 240.56L205.368 234.016C205.528 233.92 205.52 233.76 205.368 233.656L200.8 231.064C200.704 231.017 200.599 230.992 200.492 230.992C200.385 230.992 200.28 231.017 200.184 231.064L188.84 237.6C188.672 237.696 188.68 237.856 188.84 237.96L193.32 240.544C193.418 240.6 193.529 240.631 193.642 240.633C193.755 240.636 193.867 240.611 193.968 240.56H194.032ZM225.936 221.768C226.031 221.817 226.137 221.843 226.244 221.843C226.351 221.843 226.457 221.817 226.552 221.768L230.432 219.528C230.592 219.432 230.584 219.272 230.432 219.168L225.944 216.584C225.849 216.535 225.743 216.51 225.636 216.51C225.529 216.51 225.423 216.535 225.328 216.584L221.448 218.824C221.288 218.92 221.296 219.08 221.448 219.184L225.936 221.768ZM220.144 218.088L224.024 215.848C224.184 215.752 224.176 215.592 224.024 215.488L219.536 212.896C219.441 212.847 219.335 212.822 219.228 212.822C219.121 212.822 219.015 212.847 218.92 212.896L215.04 215.136C214.88 215.224 214.888 215.384 215.04 215.488L219.528 218.08C219.615 218.119 219.708 218.14 219.803 218.141C219.898 218.143 219.992 218.125 220.08 218.088H220.144ZM188.36 243.832L192.24 241.592C192.4 241.496 192.392 241.336 192.24 241.24L187.752 238.648C187.657 238.599 187.551 238.574 187.444 238.574C187.337 238.574 187.231 238.599 187.136 238.648L183.256 240.888C183.096 240.984 183.104 241.144 183.256 241.248L187.744 243.84C187.832 243.877 187.926 243.895 188.021 243.893C188.116 243.892 188.209 243.871 188.296 243.832H188.36ZM213.4 229.008C213.495 229.057 213.601 229.083 213.708 229.083C213.815 229.083 213.921 229.057 214.016 229.008L217.896 226.768C218.064 226.672 218.056 226.512 217.896 226.416L213.408 223.824C213.312 223.777 213.207 223.752 213.1 223.752C212.993 223.752 212.888 223.777 212.792 223.824L208.912 226.064C208.744 226.16 208.752 226.32 208.912 226.424L213.4 229.008ZM160.016 260.208L163.896 257.968C164.056 257.872 164.048 257.712 163.896 257.608L159.408 255.024C159.313 254.975 159.207 254.95 159.1 254.95C158.993 254.95 158.887 254.975 158.792 255.024L154.912 257.264C154.744 257.36 154.76 257.52 154.912 257.624L159.392 260.208C159.481 260.246 159.576 260.265 159.673 260.264C159.769 260.262 159.864 260.241 159.952 260.2L160.016 260.208ZM165.68 256.936L169.56 254.696C169.728 254.6 169.72 254.44 169.56 254.336L165.08 251.744C164.984 251.697 164.879 251.672 164.772 251.672C164.665 251.672 164.56 251.697 164.464 251.744L160.584 253.984C160.416 254.08 160.424 254.24 160.584 254.336L165.072 256.928C165.155 256.964 165.245 256.982 165.336 256.982C165.427 256.982 165.516 256.964 165.6 256.928L165.68 256.936ZM154.344 263.48L158.224 261.24C158.392 261.144 158.376 260.984 158.224 260.88L153.744 258.296C153.647 258.247 153.54 258.221 153.432 258.221C153.323 258.221 153.217 258.247 153.12 258.296L149.24 260.536C149.08 260.632 149.088 260.792 149.24 260.896L153.728 263.48C153.815 263.518 153.91 263.537 154.005 263.536C154.1 263.534 154.194 263.513 154.28 263.472L154.344 263.48ZM176.96 250.4L180.832 248.168C181 248.072 180.992 247.912 180.832 247.808L176.344 245.216C176.249 245.167 176.143 245.142 176.036 245.142C175.929 245.142 175.823 245.167 175.728 245.216L171.848 247.456C171.68 247.544 171.696 247.704 171.848 247.808L176.328 250.4C176.426 250.451 176.534 250.477 176.644 250.477C176.754 250.477 176.862 250.451 176.96 250.4ZM171.288 253.68L175.168 251.44C175.328 251.344 175.32 251.184 175.168 251.08L170.68 248.488C170.584 248.441 170.479 248.416 170.372 248.416C170.265 248.416 170.16 248.441 170.064 248.488L166.184 250.728C166.024 250.824 166.032 250.984 166.184 251.08L170.672 253.672C170.769 253.717 170.875 253.739 170.982 253.736C171.089 253.733 171.193 253.706 171.288 253.656V253.68ZM182.624 247.128L186.504 244.888C186.672 244.792 186.656 244.632 186.504 244.536L182.024 241.944C181.927 241.897 181.82 241.872 181.712 241.872C181.604 241.872 181.497 241.897 181.4 241.944L177.528 244.184C177.36 244.28 177.368 244.44 177.528 244.544L182.016 247.136C182.113 247.177 182.218 247.196 182.324 247.19C182.429 247.185 182.532 247.155 182.624 247.104V247.128ZM208.56 198.712C208.657 198.761 208.763 198.787 208.872 198.787C208.98 198.787 209.087 198.761 209.184 198.712L213.064 196.472C213.224 196.384 213.216 196.224 213.064 196.12L211.872 195.432C211.775 195.383 211.668 195.357 211.56 195.357C211.451 195.357 211.345 195.383 211.248 195.432L207.368 197.672C207.208 197.768 207.216 197.928 207.368 198.032L208.56 198.712ZM180.672 216.712C180.767 216.761 180.873 216.787 180.98 216.787C181.087 216.787 181.193 216.761 181.288 216.712L185.168 214.472C185.328 214.376 185.32 214.216 185.168 214.112L180.68 211.528C180.585 211.479 180.479 211.454 180.372 211.454C180.265 211.454 180.159 211.479 180.064 211.528L176.184 213.768C176.024 213.864 176.032 214.024 176.184 214.128L180.672 216.712ZM192 210.144C192.095 210.193 192.201 210.219 192.308 210.219C192.415 210.219 192.521 210.193 192.616 210.144L196.496 207.904C196.664 207.808 196.648 207.648 196.496 207.544L192.016 204.952C191.919 204.905 191.812 204.88 191.704 204.88C191.596 204.88 191.489 204.905 191.392 204.952L187.512 207.192C187.352 207.288 187.36 207.448 187.512 207.544L192 210.144ZM173.736 220.688C173.833 220.736 173.94 220.76 174.048 220.76C174.156 220.76 174.263 220.736 174.36 220.688L178.24 218.448C178.4 218.352 178.392 218.192 178.24 218.088L173.752 215.496C173.656 215.449 173.551 215.424 173.444 215.424C173.337 215.424 173.232 215.449 173.136 215.496L169.256 217.736C169.088 217.824 169.104 217.984 169.256 218.088L173.736 220.688ZM186.328 213.416C186.425 213.465 186.531 213.491 186.64 213.491C186.748 213.491 186.855 213.465 186.952 213.416L190.824 211.176C190.992 211.08 190.984 210.92 190.824 210.816L186.336 208.232C186.241 208.183 186.135 208.158 186.028 208.158C185.921 208.158 185.815 208.183 185.72 208.232L181.84 210.472C181.672 210.568 181.68 210.728 181.84 210.832L186.328 213.416ZM162.4 227.2C162.495 227.249 162.601 227.275 162.708 227.275C162.815 227.275 162.921 227.249 163.016 227.2L166.896 224.96C167.064 224.864 167.056 224.704 166.896 224.6L162.4 222.064C162.305 222.015 162.199 221.99 162.092 221.99C161.985 221.99 161.879 222.015 161.784 222.064L157.904 224.304C157.736 224.4 157.744 224.56 157.904 224.664L162.4 227.2ZM168.08 224C168.175 224.049 168.281 224.075 168.388 224.075C168.495 224.075 168.601 224.049 168.696 224L172.576 221.76C172.744 221.664 172.728 221.504 172.576 221.4L168.088 218.808C167.992 218.761 167.887 218.736 167.78 218.736C167.673 218.736 167.568 218.761 167.472 218.808L163.592 221.048C163.432 221.144 163.44 221.304 163.592 221.4L168.08 224ZM197.224 205.272C197.319 205.321 197.425 205.347 197.532 205.347C197.639 205.347 197.745 205.321 197.84 205.272L201.72 203.032C201.888 202.936 201.88 202.776 201.72 202.672L200.528 201.984C200.433 201.935 200.327 201.91 200.22 201.91C200.113 201.91 200.007 201.935 199.912 201.984L196.032 204.224C195.864 204.32 195.88 204.48 196.032 204.584L197.224 205.272ZM214.232 195.456C214.328 195.504 214.433 195.528 214.54 195.528C214.647 195.528 214.752 195.504 214.848 195.456L218.728 193.216C218.896 193.12 218.888 192.96 218.728 192.864L217.536 192.176C217.441 192.127 217.335 192.102 217.228 192.102C217.121 192.102 217.015 192.127 216.92 192.176L213.04 194.416C212.872 194.512 212.888 194.672 213.04 194.776L214.232 195.456ZM223.656 200.896C223.752 200.944 223.857 200.968 223.964 200.968C224.071 200.968 224.176 200.944 224.272 200.896L228.152 198.656C228.32 198.56 228.304 198.4 228.152 198.304L223.664 195.712C223.569 195.663 223.463 195.638 223.356 195.638C223.249 195.638 223.143 195.663 223.048 195.712L219.168 197.952C219.008 198.048 219.016 198.208 219.168 198.312L223.656 200.896ZM237.824 215.296L241.704 213.056C241.872 212.96 241.856 212.8 241.704 212.696L237.224 210.104C237.127 210.057 237.02 210.032 236.912 210.032C236.804 210.032 236.697 210.057 236.6 210.104L232.72 212.344C232.56 212.44 232.568 212.6 232.72 212.696L237.208 215.288C237.307 215.33 237.415 215.348 237.522 215.339C237.629 215.331 237.733 215.297 237.824 215.24V215.296ZM202.896 202.016C202.992 202.064 203.097 202.088 203.204 202.088C203.311 202.088 203.416 202.064 203.512 202.016L207.392 199.776C207.552 199.68 207.544 199.52 207.392 199.416L206.2 198.728C206.105 198.679 205.999 198.654 205.892 198.654C205.785 198.654 205.679 198.679 205.584 198.728L201.704 200.968C201.536 201.064 201.544 201.224 201.704 201.328L202.896 202.016ZM156.736 230.56C156.833 230.609 156.939 230.635 157.048 230.635C157.156 230.635 157.263 230.609 157.36 230.56L161.24 228.32C161.4 228.224 161.392 228.064 161.24 227.96L156.752 225.376C156.657 225.327 156.551 225.302 156.444 225.302C156.337 225.302 156.231 225.327 156.136 225.376L152.256 227.616C152.088 227.712 152.104 227.872 152.256 227.976L156.736 230.56Z" fill="#455A64"/>
<path d="M181.88 264.533L220.16 242.397C220.807 242.069 221.522 241.898 222.248 241.898C222.973 241.898 223.688 242.069 224.336 242.397L246.288 255.069C247.44 255.741 247.44 256.821 246.288 257.469L208 279.613C207.354 279.944 206.638 280.117 205.912 280.117C205.186 280.117 204.47 279.944 203.824 279.613L181.872 266.941C180.728 266.277 180.728 265.197 181.88 264.533Z" fill="#263238"/>
<path d="M190.248 69.7711V75.6191L103.12 125.923C102.52 126.267 102.032 125.987 102.032 125.291L102.096 123.195C101.577 122.988 101.042 122.822 100.496 122.699L74.4 137.763C74.0822 137.972 73.8176 138.252 73.6273 138.581C73.4371 138.91 73.3263 139.28 73.304 139.659V141.867C73.2857 142.247 73.1776 142.617 72.9884 142.946C72.7993 143.276 72.5345 143.556 72.216 143.763L69.208 145.499V139.659C69.2263 139.28 69.3345 138.91 69.5236 138.58C69.7128 138.25 69.9775 137.97 70.296 137.763L189.16 69.1391C189.76 68.7951 190.248 69.0751 190.248 69.7711Z" fill="#77CEFF"/>
<path d="M190.256 157.337C190.236 157.716 190.126 158.085 189.935 158.413C189.745 158.741 189.479 159.02 189.16 159.225L70.296 227.849C69.696 228.201 69.208 227.913 69.208 227.217V145.497L72.216 143.761C72.816 143.417 73.816 138.113 74.4 137.761L100.496 122.697C101.096 122.353 102.52 126.265 103.12 125.897L190.248 75.6172V157.337H190.256Z" fill="#EBEBEB"/>
<path d="M74.3995 167.897L126.608 137.729C127.208 137.377 127.696 137.665 127.696 138.361V189.673C127.677 190.052 127.569 190.422 127.38 190.752C127.191 191.081 126.926 191.361 126.608 191.569L74.3995 221.737C73.7995 222.081 73.3115 221.801 73.3115 221.105V169.793C73.3298 169.413 73.438 169.043 73.6271 168.713C73.8163 168.384 74.081 168.104 74.3995 167.897Z" fill="#FAFAFA"/>
<path d="M74.3995 154.351L185.064 90.4629C185.664 90.1109 186.152 90.3989 186.152 91.0949V98.7829C186.132 99.1612 186.023 99.5294 185.834 99.8575C185.645 100.186 185.381 100.464 185.064 100.671L74.3995 164.567C73.7995 164.911 73.3115 164.631 73.3115 163.935V156.247C73.3298 155.867 73.438 155.497 73.6271 155.168C73.8163 154.838 74.081 154.558 74.3995 154.351Z" fill="#455A64"/>
<path d="M145.12 119.61V121.642C145.12 122.066 145.416 122.234 145.776 122.026L177.944 103.45V99.8984L145.776 118.474C145.586 118.599 145.427 118.767 145.313 118.964C145.199 119.162 145.133 119.383 145.12 119.61Z" fill="#FAFAFA"/>
<path d="M181.392 97.9105C181.76 97.7025 182.048 97.9105 182.048 98.2865V100.327C182.037 100.554 181.971 100.776 181.857 100.974C181.743 101.171 181.584 101.339 181.392 101.463L177.944 103.455V99.9025L181.392 97.9105Z" fill="#77CEFF"/>
<path d="M181.144 100.697L180.752 100.577C180.793 100.415 180.815 100.248 180.816 100.081C180.83 99.9284 180.806 99.7749 180.744 99.6349C180.682 99.4948 180.586 99.3729 180.464 99.2807C180.379 99.2299 180.283 99.2031 180.184 99.2031C180.085 99.2031 179.988 99.2299 179.904 99.2807C179.653 99.4648 179.45 99.7059 179.311 99.9841C179.172 100.262 179.101 100.57 179.104 100.881C179.091 101.033 179.116 101.186 179.178 101.326C179.239 101.465 179.335 101.588 179.456 101.681C179.532 101.722 179.617 101.744 179.704 101.745C179.815 101.741 179.922 101.708 180.016 101.649C180.303 101.455 180.522 101.175 180.64 100.849L181.024 100.969H181.064C181.094 100.97 181.124 100.961 181.148 100.944C181.173 100.927 181.191 100.902 181.2 100.873C181.213 100.841 181.214 100.807 181.204 100.775C181.194 100.742 181.172 100.715 181.144 100.697ZM179.904 101.433C179.863 101.457 179.816 101.47 179.768 101.47C179.72 101.47 179.673 101.457 179.632 101.433C179.554 101.36 179.495 101.27 179.458 101.17C179.422 101.07 179.41 100.962 179.424 100.857C179.421 100.599 179.475 100.344 179.583 100.11C179.691 99.8761 179.85 99.6693 180.048 99.5047C180.102 99.4728 180.162 99.4537 180.224 99.4487C180.255 99.437 180.289 99.437 180.32 99.4487C180.456 99.5207 180.528 99.7367 180.528 100.017C180.545 100.285 180.497 100.554 180.389 100.801C180.28 101.047 180.114 101.264 179.904 101.433Z" fill="#FAFAFA"/>
<path d="M190.248 75.6172V82.7292L69.208 152.609V145.497L71.456 144.201C72.056 143.849 72.256 143.321 72.544 142.305L73.304 139.657C73.3481 139.283 73.4681 138.922 73.6565 138.596C73.845 138.27 74.098 137.986 74.4 137.761L100.496 122.697C100.612 122.594 100.752 122.52 100.903 122.482C101.054 122.445 101.212 122.445 101.363 122.482C101.514 122.519 101.654 122.592 101.77 122.695C101.887 122.798 101.977 122.928 102.032 123.073L102.968 124.769C103.312 125.361 103.48 125.713 104.08 125.361L190.248 75.6172Z" fill="#E6E6E6"/>
<path d="M185.128 73.4392C185.928 72.9992 186.504 73.3512 186.504 74.2392C186.481 74.7196 186.344 75.1876 186.105 75.6048C185.866 76.022 185.531 76.3765 185.128 76.6392C184.328 77.0792 183.744 76.7192 183.744 75.8392C183.766 75.3577 183.903 74.8885 184.144 74.4709C184.385 74.0533 184.722 73.6996 185.128 73.4392Z" fill="#455A64"/>
<path d="M180.168 76.2986C180.928 75.8586 181.544 76.2106 181.544 77.0986C181.521 77.579 181.384 78.047 181.145 78.4642C180.906 78.8814 180.571 79.2359 180.168 79.4986C179.368 79.9386 178.792 79.5786 178.792 78.6986C178.815 78.2181 178.951 77.7498 179.19 77.3325C179.43 76.9152 179.765 76.5608 180.168 76.2986Z" fill="#455A64"/>
<path d="M175.2 79.197C175.96 78.757 176.576 79.109 176.576 79.997C176.553 80.4774 176.416 80.9454 176.177 81.3626C175.938 81.7798 175.603 82.1344 175.2 82.397C174.4 82.837 173.824 82.477 173.824 81.597C173.847 81.1165 173.983 80.6483 174.223 80.231C174.462 79.8136 174.797 79.4592 175.2 79.197Z" fill="#455A64"/>
<path opacity="0.5" d="M74.2236 146.016L72.5036 147L73.1596 145.744C73.1848 145.697 73.198 145.645 73.198 145.592C73.198 145.539 73.1848 145.487 73.1596 145.44C73.1036 145.376 73.0156 145.44 72.9596 145.528L72.0316 147.32V147.384C72.0277 147.416 72.0277 147.448 72.0316 147.48C72.0272 147.504 72.0272 147.528 72.0316 147.552V147.592L72.9596 148.312C72.9744 148.32 72.9909 148.324 73.0076 148.324C73.0243 148.324 73.0408 148.32 73.0556 148.312C73.0997 148.275 73.1351 148.228 73.1596 148.176C73.1864 148.131 73.2005 148.08 73.2005 148.028C73.2005 147.976 73.1864 147.925 73.1596 147.88L72.5036 147.384L74.2236 146.392C74.2666 146.356 74.301 146.31 74.3245 146.259C74.348 146.208 74.36 146.152 74.3596 146.096C74.3996 146.024 74.2956 145.968 74.2236 146.016Z" fill="#455A64"/>
<path opacity="0.5" d="M75.6555 145.19L77.3755 144.198L76.7195 143.694C76.6635 143.654 76.6555 143.518 76.7195 143.406C76.7835 143.294 76.8555 143.23 76.9115 143.27L77.8475 143.99C77.852 144.016 77.852 144.043 77.8475 144.07C77.8514 144.102 77.8514 144.134 77.8475 144.166C77.8496 144.187 77.8496 144.208 77.8475 144.23L76.9115 146.022C76.8909 146.063 76.8608 146.099 76.8235 146.126C76.8084 146.137 76.7902 146.143 76.7715 146.143C76.7528 146.143 76.7346 146.137 76.7195 146.126C76.6943 146.079 76.6811 146.027 76.6811 145.974C76.6811 145.921 76.6943 145.868 76.7195 145.822L77.3755 144.558L75.6555 145.598C75.5755 145.646 75.5195 145.598 75.5195 145.47C75.5198 145.416 75.5322 145.363 75.5557 145.314C75.5792 145.266 75.6134 145.223 75.6555 145.19Z" fill="#455A64"/>
<path opacity="0.5" d="M81.2881 140.244C81.2881 140.14 81.1841 140.156 81.1441 140.244L80.9041 140.82C80.5041 140.772 80.0161 141.164 79.6881 141.86C79.2641 142.764 79.2641 143.828 79.6881 144.26C79.7946 144.361 79.9331 144.421 80.0794 144.429C80.2257 144.438 80.3704 144.395 80.4881 144.308C80.8415 144.082 81.1199 143.756 81.2881 143.372C81.3441 143.252 81.3441 143.116 81.2881 143.068C81.2321 143.02 81.1441 143.068 81.0961 143.18C80.7761 143.852 80.2961 144.148 79.9441 143.844C79.7832 143.577 79.6982 143.272 79.6982 142.96C79.6982 142.648 79.7832 142.343 79.9441 142.076C80.1681 141.596 80.4961 141.276 80.7441 141.276L80.5681 141.708C80.5201 141.82 80.5681 141.932 80.6321 141.884L81.3361 141.428C81.363 141.404 81.3842 141.374 81.398 141.341C81.4118 141.308 81.418 141.272 81.4161 141.236L81.2881 140.244Z" fill="#455A64"/>
<path opacity="0.5" d="M99.7362 125.944L100.368 124.616C100.404 124.554 100.423 124.483 100.423 124.412C100.423 124.34 100.404 124.27 100.368 124.208C100.288 124.136 100.168 124.208 100.096 124.36L99.4722 125.688L98.8482 125.08C98.7682 125.016 98.6562 125.08 98.5762 125.24C98.5404 125.302 98.5216 125.372 98.5216 125.444C98.5216 125.515 98.5404 125.586 98.5762 125.648L99.2002 126.256L98.5762 127.576C98.5397 127.639 98.5205 127.711 98.5205 127.784C98.5205 127.857 98.5397 127.929 98.5762 127.992C98.5963 128.006 98.62 128.013 98.6442 128.013C98.6685 128.013 98.6922 128.006 98.7122 127.992C98.7711 127.948 98.8179 127.89 98.8482 127.824L99.4722 126.504L100.096 127.104C100.105 127.113 100.116 127.12 100.127 127.125C100.139 127.13 100.152 127.132 100.164 127.132C100.177 127.132 100.189 127.13 100.201 127.125C100.213 127.12 100.223 127.113 100.232 127.104C100.293 127.066 100.34 127.01 100.368 126.944C100.405 126.881 100.424 126.809 100.424 126.736C100.424 126.663 100.405 126.591 100.368 126.528L99.7362 125.944Z" fill="#455A64"/>
<path d="M83.5684 141.878V139.662C83.5866 139.283 83.6948 138.913 83.884 138.583C84.0731 138.253 84.3378 137.973 84.6564 137.766L183.008 81.0141C183.608 80.6701 184.096 80.9501 184.096 81.6461V83.8621C184.078 84.2417 183.97 84.6115 183.781 84.9412C183.592 85.2708 183.327 85.5508 183.008 85.7581L84.6564 142.51C84.0564 142.854 83.5684 142.574 83.5684 141.878Z" fill="#FAFAFA"/>
<path d="M182.4 82.1851L182.688 82.7931C182.701 82.8028 182.716 82.8081 182.732 82.8081C182.748 82.8081 182.763 82.8028 182.776 82.7931L183.424 82.5451C183.52 82.5451 183.568 82.6491 183.488 82.7851L183.024 83.6571C183.009 83.7122 183.009 83.7701 183.024 83.8251L183.136 84.6251C183.136 84.7451 183.04 84.9131 182.952 84.9051L182.376 84.8331C182.353 84.832 182.331 84.8374 182.311 84.8488C182.291 84.8601 182.275 84.8769 182.264 84.8971L181.688 85.6331C181.592 85.7451 181.488 85.7051 181.504 85.5611L181.616 84.6491C181.627 84.6294 181.632 84.6074 181.632 84.5851C181.632 84.5628 181.627 84.5408 181.616 84.5211L181.144 84.1851C181.072 84.1291 181.144 83.9371 181.216 83.8571L181.856 83.3691C181.903 83.3296 181.937 83.2765 181.952 83.2171L182.24 82.2811C182.192 82.1611 182.32 82.0891 182.4 82.1851Z" stroke="#E0E0E0" stroke-width="0.75" stroke-miterlimit="10"/>
<g opacity="0.5">
<path d="M185.384 80.7507C185.318 80.7491 185.253 80.7307 185.196 80.6971C185.138 80.6635 185.09 80.6159 185.056 80.5587C185.007 80.4705 184.995 80.3664 185.022 80.2691C185.049 80.1718 185.113 80.089 185.2 80.0387L188.272 78.2627C188.358 78.2279 188.453 78.2251 188.541 78.2548C188.628 78.2845 188.702 78.3447 188.749 78.4244C188.795 78.5041 188.812 78.5979 188.795 78.6887C188.778 78.7795 188.729 78.8611 188.656 78.9187L185.6 80.6947C185.537 80.7374 185.461 80.7572 185.384 80.7507Z" fill="#455A64"/>
<path d="M185.385 82.5241C185.318 82.5225 185.253 82.5041 185.196 82.4705C185.139 82.4369 185.091 82.3893 185.057 82.3321C185.033 82.289 185.017 82.2416 185.011 82.1926C185.006 82.1435 185.009 82.0938 185.023 82.0463C185.036 81.9987 185.059 81.9543 185.089 81.9155C185.12 81.8767 185.158 81.8443 185.201 81.8201L188.273 80.0361C188.358 80.0013 188.454 79.9985 188.541 80.0282C188.629 80.0579 188.702 80.1181 188.749 80.1978C188.796 80.2775 188.812 80.3713 188.795 80.4621C188.778 80.5529 188.729 80.6346 188.657 80.6921L185.601 82.4761C185.535 82.5121 185.46 82.5287 185.385 82.5241Z" fill="#455A64"/>
<path d="M185.384 84.3024C185.301 84.3024 185.22 84.2749 185.154 84.2241C185.088 84.1732 185.041 84.102 185.02 84.0215C184.999 83.941 185.005 83.8558 185.038 83.7792C185.07 83.7027 185.127 83.6391 185.2 83.5984L188.272 81.8224C188.315 81.7955 188.362 81.7777 188.412 81.77C188.462 81.7622 188.513 81.7649 188.561 81.7776C188.61 81.7904 188.656 81.813 188.696 81.8441C188.735 81.8752 188.768 81.9141 188.792 81.9584C188.842 82.0456 188.856 82.149 188.83 82.2462C188.805 82.3434 188.742 82.4268 188.656 82.4784L185.6 84.2544C185.534 84.2904 185.459 84.307 185.384 84.3024Z" fill="#455A64"/>
</g>
<path d="M98.3122 180.001C102.704 175.529 103.832 173.497 103.832 171.705C103.832 169.913 103.08 168.785 100.744 170.105C99.0945 171.027 97.8585 172.543 97.2882 174.345C97.1421 174.723 96.9122 175.064 96.6157 175.341C96.3192 175.618 95.9638 175.824 95.5762 175.945L92.5282 176.617C91.8002 176.785 91.3122 176.321 91.4882 175.593C92.8242 170.145 96.1922 165.113 100.92 162.385C106.6 159.105 109.912 161.585 109.912 167.121C109.912 172.441 107.112 176.881 104.312 180.073C103.791 180.741 103.486 181.554 103.44 182.401V184.209C103.418 184.614 103.3 185.008 103.097 185.36C102.894 185.711 102.612 186.01 102.272 186.233L98.5282 188.393C97.8802 188.769 97.3602 188.465 97.3602 187.721V182.265C97.417 181.425 97.752 180.628 98.3122 180.001Z" fill="#455A64"/>
<path d="M97.2883 195.899C97.2802 194.788 97.5613 193.695 98.1042 192.725C98.647 191.756 99.4328 190.945 100.384 190.371C102.392 189.203 103.44 190.235 103.44 192.347C103.457 193.458 103.184 194.555 102.648 195.528C102.112 196.502 101.332 197.319 100.384 197.899C98.3283 199.083 97.2883 198.011 97.2883 195.899Z" fill="#455A64"/>
<path d="M221.337 51.1024L218.401 49.3904C218.116 49.2535 217.8 49.1968 217.485 49.2264C217.171 49.256 216.87 49.3708 216.617 49.5584L143.521 91.7504C142.79 92.2264 142.182 92.8677 141.746 93.6224C141.309 94.3771 141.057 95.2239 141.009 96.0944V201.222C140.98 201.528 141.031 201.835 141.156 202.115C141.28 202.395 141.475 202.639 141.721 202.822L144.681 204.534L216.585 160.454C217.314 159.978 217.921 159.336 218.356 158.582C218.791 157.827 219.042 156.98 219.089 156.11L221.337 51.1024Z" fill="#77CEFF"/>
<path opacity="0.15" d="M144.633 204.532L141.713 202.844C141.466 202.662 141.272 202.418 141.148 202.138C141.025 201.857 140.977 201.549 141.009 201.244V96.0922C141.042 95.1702 141.318 94.2733 141.809 93.4922L144.801 95.1962C144.307 95.979 144.031 96.8792 144.001 97.8042V202.94C143.966 203.237 144.005 203.538 144.115 203.816C144.226 204.094 144.403 204.34 144.633 204.532Z" fill="black"/>
<path d="M146.456 93.4725L219.552 51.2725C220.936 50.4725 222.056 51.1205 222.056 52.7205V157.848C222.01 158.718 221.759 159.565 221.323 160.32C220.888 161.074 220.282 161.716 219.552 162.192L146.456 204.392C145.072 205.192 143.944 204.544 143.944 202.944V97.8085C143.994 96.9394 144.247 96.0941 144.683 95.3409C145.12 94.5877 145.727 93.9477 146.456 93.4725Z" fill="#77CEFF"/>
<path opacity="0.4" d="M218.4 49.3937L221.264 51.0497C220.987 50.9497 220.689 50.9178 220.397 50.9568C220.104 50.9958 219.826 51.1045 219.584 51.2737L146.488 93.4737C145.793 93.9031 145.213 94.4964 144.8 95.2017L141.832 93.4977C142.244 92.7878 142.824 92.1891 143.52 91.7537L216.576 49.6017C216.83 49.4146 217.131 49.3007 217.446 49.2725C217.76 49.2443 218.076 49.3028 218.36 49.4417L218.4 49.3937Z" fill="white"/>
<path d="M154.753 97.599L213.289 63.799C214.337 63.191 215.185 63.687 215.185 64.895V154.823C215.149 155.481 214.959 156.122 214.629 156.693C214.3 157.265 213.841 157.75 213.289 158.111L154.753 191.847C153.705 192.447 152.849 191.959 152.849 190.751V100.903C152.88 100.241 153.069 99.5952 153.401 99.0205C153.732 98.4459 154.195 97.9586 154.753 97.599Z" fill="white"/>
<path d="M201.137 117.398L201.729 116.91C200.751 115.85 199.482 115.104 198.081 114.766L197.889 115.502C199.131 115.809 200.258 116.467 201.137 117.398Z" fill="#37474F"/>
<path d="M202.441 120.385L201.233 119.201C200.947 118.903 200.787 118.506 200.787 118.093C200.787 117.68 200.947 117.283 201.233 116.985C201.531 116.699 201.928 116.539 202.341 116.539C202.754 116.539 203.151 116.699 203.449 116.985L204.649 118.169C204.935 118.467 205.095 118.864 205.095 119.277C205.095 119.69 204.935 120.087 204.649 120.385C204.351 120.668 203.956 120.827 203.545 120.827C203.134 120.827 202.738 120.668 202.441 120.385Z" fill="#77CEFF"/>
<mask id="mask0_3733_9466" style="mask-type:luminance" maskUnits="userSpaceOnUse" x="152" y="63" width="64" height="130">
<path d="M154.753 97.599L213.289 63.799C214.337 63.191 215.185 63.687 215.185 64.895V154.823C215.149 155.481 214.959 156.122 214.629 156.693C214.3 157.265 213.841 157.75 213.289 158.111L154.753 191.847C153.705 192.447 152.849 191.959 152.849 190.751V100.903C152.88 100.241 153.069 99.5952 153.401 99.0205C153.732 98.4459 154.195 97.9586 154.753 97.599Z" fill="white"/>
</mask>
<g mask="url(#mask0_3733_9466)">
<path d="M213.089 147.725L215.793 152.349C215.793 152.349 233.505 142.957 234.505 141.725C235.505 140.493 235.441 138.005 235.593 136.661C235.841 134.421 235.017 132.493 234.897 131.685C234.697 130.277 236.721 130.197 237.721 132.157C238.457 133.581 238.521 135.213 239.145 135.229C240.039 134.602 240.872 133.892 241.633 133.109C242.729 131.909 244.713 129.909 246.217 130.181C246.473 130.241 246.705 130.375 246.883 130.568C247.061 130.76 247.178 131.002 247.217 131.261C247.26 132.088 247.45 132.901 247.777 133.661C248.021 133.95 248.221 134.274 248.369 134.621C248.417 135.138 248.417 135.657 248.369 136.173C248.433 136.917 249.169 137.229 249.249 137.957C249.226 138.518 249.165 139.077 249.065 139.629C249.065 139.989 249.177 140.301 249.177 140.661C249.1 141.4 248.779 142.093 248.265 142.629C246.767 144.375 244.991 145.862 243.009 147.029C241.409 148.085 239.265 149.021 237.409 150.013C235.553 151.005 214.705 167.021 211.929 165.133C210.793 164.333 207.801 160.517 204.657 156.245" fill="#FFA8A7"/>
<path d="M204.001 156.797C200.805 152.348 197.867 147.719 195.201 142.933C192.001 133.973 195.625 128.005 195.625 128.005C195.625 128.005 200.225 126.581 204.057 132.629C205.745 135.293 210.161 142.781 213.057 147.725" fill="#FFA8A7"/>
<path d="M187.577 128.145C187.577 128.145 192.649 126.089 195.937 126.305C199.225 126.521 201.657 127.449 204.073 131.329C207.273 136.505 212.625 145.449 212.625 145.449C210.363 150.099 206.753 153.96 202.265 156.529L192.441 141.713L187.577 128.145Z" fill="#455A64"/>
<path d="M171.481 137.106C169.789 138.468 168.541 140.303 167.897 142.378C167.147 144.884 166.78 147.49 166.809 150.106V166.946L166.593 198.818C177.281 202.458 190.865 199.25 202.265 186.578C202.265 186.578 201.633 145.778 201.633 139.114C201.633 138.81 201.633 138.506 201.633 138.194C201.217 128.746 193.065 124.362 185.033 128.906L178.281 132.714L171.505 137.106H171.481Z" fill="#F0F0F0"/>
<path d="M175.201 98.3365C175.201 98.3365 169.961 97.9286 168.801 102.793C167.737 107.129 175.641 124.249 175.465 123.961C175.289 123.673 175.201 98.3365 175.201 98.3365Z" fill="#263238"/>
<path d="M193.705 88.5428C193.705 88.5428 191.761 83.3108 182.321 87.0308C177.521 88.9268 175.721 94.8708 175.721 94.8708L193.705 88.5428Z" fill="#77CEFF"/>
<path opacity="0.4" d="M193.705 88.5428C193.705 88.5428 191.761 83.3108 182.321 87.0308C177.521 88.9268 175.721 94.8708 175.721 94.8708L193.705 88.5428Z" fill="black"/>
<path d="M178.801 102.436C178.801 109.636 183.841 114.1 190.065 112.428C196.289 110.756 201.329 103.628 201.329 96.4284C201.329 89.2284 195.961 89.2284 189.737 90.9084C183.513 92.5884 178.801 95.2524 178.801 102.436Z" fill="#263238"/>
<path d="M172.921 113.812C172.921 113.812 174.577 122.373 175.241 123.677C175.441 124.054 175.733 124.376 176.089 124.612C176.445 124.848 176.855 124.991 177.281 125.028L177.169 118.724L172.921 113.812Z" fill="#263238"/>
<path d="M175.001 100.359C174.345 100.466 173.719 100.712 173.167 101.082C172.615 101.452 172.149 101.937 171.801 102.503C170.441 104.479 171.201 109.327 172.905 113.815L176.025 113.391L175.001 100.359Z" fill="#263238"/>
<path d="M176.984 113.144C176.352 113.744 175.464 112.592 174.688 111.864C173.912 111.136 171.392 110.536 170.128 113.936C168.864 117.336 171.24 120.888 173.232 121.08C176.656 121.4 177.168 118.728 177.168 118.728L177.28 133.344C183.032 139.44 193.096 132.256 188.568 129.56V125.216C190.14 125.081 191.689 124.758 193.184 124.256C195.704 123.128 197.288 120.416 198.056 117.056C199.28 111.672 199.744 107.456 198.704 97.8C197.568 87.208 186.584 90.04 180.656 95.936C174.728 101.832 176.984 113.144 176.984 113.144Z" fill="#FFA8A7"/>
<path d="M176.985 114.397C176.665 114.493 175.465 112.517 174.689 111.901C173.609 111.053 175.001 100.397 175.001 100.397C173.753 97.6449 176.057 93.4929 178.465 91.8049C180.195 90.6941 182.147 89.9759 184.185 89.7008C185.913 89.3915 187.636 89.1542 189.353 88.9888C191.453 88.879 193.543 88.6278 195.609 88.2369C197.226 87.8532 198.794 87.2841 200.281 86.5409C201.593 85.9409 202.681 87.2929 201.521 89.5409C200.482 91.5853 199.04 93.3979 197.281 94.8688C192.177 98.7008 186.249 99.6209 181.089 100.189C179.929 100.317 179.673 101.685 179.049 105.405C178.497 108.637 178.041 114.053 176.985 114.397Z" fill="#263238"/>
<path d="M171.073 100.443L167.281 99.1073C167.817 97.7073 169.105 96.8753 170.145 97.2433C171.185 97.6113 171.609 99.0433 171.073 100.443Z" fill="#263238"/>
<path d="M188.561 125.216C188.561 125.216 182.961 125.416 180.977 124.736C179.791 124.323 178.815 123.461 178.257 122.336C178.528 123.519 179.055 124.627 179.801 125.584C181.241 127.32 188.561 126.92 188.561 126.92V125.216Z" fill="#F28F8F"/>
<path d="M187.201 108.8C187.196 109.149 187.087 109.487 186.887 109.773C186.688 110.058 186.407 110.277 186.081 110.4C185.465 110.56 184.961 110.088 184.961 109.344C184.956 108.988 185.061 108.638 185.261 108.344C185.462 108.049 185.748 107.823 186.081 107.696C186.705 107.56 187.201 108 187.201 108.8Z" fill="#263238"/>
<path d="M185.401 103.882L183.001 106.066C182.832 105.658 182.796 105.207 182.896 104.777C182.997 104.346 183.229 103.958 183.561 103.666C183.679 103.527 183.831 103.418 184.001 103.351C184.172 103.284 184.357 103.26 184.539 103.281C184.721 103.302 184.895 103.368 185.045 103.473C185.196 103.578 185.318 103.719 185.401 103.882Z" fill="#263238"/>
<path d="M188.057 117.539L190.625 117.963C190.551 118.371 190.336 118.74 190.017 119.005C189.698 119.27 189.296 119.414 188.881 119.411C188.169 119.299 187.801 118.459 188.057 117.539Z" fill="#F28F8F"/>
<path d="M197.545 101.769L195.345 100.401C195.801 99.6007 196.649 99.1767 197.257 99.5527C197.565 99.8244 197.764 100.199 197.817 100.607C197.87 101.014 197.773 101.427 197.545 101.769Z" fill="#263238"/>
<path d="M196.584 105.894C196.591 106.253 196.485 106.605 196.283 106.902C196.081 107.198 195.792 107.425 195.456 107.55C194.832 107.71 194.328 107.238 194.328 106.494C194.323 106.137 194.428 105.786 194.63 105.491C194.832 105.196 195.121 104.971 195.456 104.846C196.08 104.678 196.584 105.15 196.584 105.894Z" fill="#263238"/>
<path d="M191.017 106.344L191.145 114.2L195.185 112.088L191.017 106.344Z" fill="#F28F8F"/>
<path d="M154.553 184.8C157.705 152.4 162.801 140.888 170.785 137.664C173.465 139.76 173.897 149.32 170.865 156.496C170.865 156.496 164.193 177.984 163.665 185.296C163.328 192.135 163.582 198.989 164.425 205.784C164.468 206.192 164.596 206.587 164.801 206.943C165.007 207.298 165.284 207.607 165.617 207.848C167.321 209.016 167.169 210.648 168.369 212.224C169.313 213.456 170.209 213.696 169.969 214.144C169.769 214.592 169.422 214.959 168.986 215.183C168.549 215.407 168.049 215.475 167.569 215.376C166.804 215.111 166.095 214.704 165.481 214.176C165.932 215.901 166.644 217.547 167.593 219.056C169.753 222.552 169.593 224.864 164.297 225.512C160.977 225.92 158.617 223.808 157.153 215.48C156.737 213.08 155.713 208.76 155.321 205.656C154.185 196.8 154.041 190.016 154.553 184.8Z" fill="#FFA8A7"/>
<path d="M173.073 136.125C173.073 136.125 167.265 137.997 164.273 142.645C161.281 147.293 158.289 154.813 156.017 168.245C156.017 168.245 159.537 173.317 169.145 169.405C169.145 169.405 173.697 152.317 174.233 145.525C174.785 138.117 173.073 136.125 173.073 136.125Z" fill="#455A64"/>
<path d="M178.473 88.7969C173.041 92.1969 170.697 96.3249 170.561 101.301C170.513 104.719 170.65 108.137 170.969 111.541C169.946 112.278 169.102 113.236 168.501 114.344C167.9 115.452 167.557 116.682 167.497 117.941C167.497 121.309 170.225 123.309 173.593 122.405C175.283 121.905 176.777 120.893 177.869 119.509C178.96 118.125 179.596 116.437 179.689 114.677C179.758 113.584 179.417 112.505 178.731 111.651C178.046 110.797 177.067 110.23 175.985 110.061C175.305 105.308 175.318 100.482 176.025 95.7329C177.233 88.5329 190.689 84.3809 193.705 88.5329C192.801 84.9489 186.025 84.0369 178.473 88.7969Z" fill="#77CEFF"/>
<path opacity="0.15" d="M178.473 88.7969C173.041 92.1969 170.697 96.3249 170.561 101.301C170.513 104.719 170.65 108.137 170.969 111.541C169.946 112.278 169.102 113.236 168.501 114.344C167.9 115.452 167.557 116.682 167.497 117.941C167.497 121.309 170.225 123.309 173.593 122.405C175.283 121.905 176.777 120.893 177.869 119.509C178.96 118.125 179.596 116.437 179.689 114.677C179.758 113.584 179.417 112.505 178.731 111.651C178.046 110.797 177.067 110.23 175.985 110.061C175.305 105.308 175.318 100.482 176.025 95.7329C177.233 88.5329 190.689 84.3809 193.705 88.5329C192.801 84.9489 186.025 84.0369 178.473 88.7969Z" fill="black"/>
<path d="M176.513 115.522C176.53 115.163 176.458 114.807 176.304 114.483C176.149 114.16 175.917 113.88 175.628 113.668C175.338 113.457 175.001 113.32 174.646 113.271C174.291 113.221 173.929 113.261 173.593 113.386C172.783 113.626 172.068 114.111 171.545 114.774C171.022 115.437 170.718 116.246 170.673 117.09C170.661 117.446 170.737 117.8 170.894 118.12C171.051 118.44 171.285 118.716 171.575 118.924C171.864 119.132 172.201 119.266 172.554 119.313C172.908 119.36 173.267 119.319 173.601 119.194C174.405 118.955 175.116 118.474 175.637 117.817C176.158 117.16 176.464 116.359 176.513 115.522Z" fill="#77CEFF"/>
</g>
<path d="M130.448 166.923C130.317 167.051 130.196 167.19 130.088 167.339C129.896 167.575 129.752 167.847 129.664 168.139C129.606 168.307 129.606 168.49 129.664 168.659C129.685 168.778 129.744 168.887 129.832 168.971C129.874 169.019 129.923 169.063 129.976 169.099L127.04 167.403C126.922 167.337 126.825 167.24 126.76 167.123C126.713 167.011 126.689 166.892 126.689 166.771C126.689 166.65 126.713 166.53 126.76 166.419C126.824 166.22 126.916 166.032 127.032 165.859C127.184 165.631 127.355 165.417 127.544 165.219L130.448 166.923Z" fill="#77CEFF"/>
<path d="M130.472 166.891C128.944 168.491 129.48 169.571 131.672 169.291L143.944 167.875V152.891L130.472 166.891Z" fill="#77CEFF"/>
<path d="M130.472 166.891C129.504 167.899 129.368 168.699 129.944 169.091L127.008 167.395C126.392 167.011 126.528 166.195 127.504 165.171L140.984 151.195L143.952 152.915L130.472 166.891Z" fill="#77CEFF"/>
<path opacity="0.15" d="M130.448 166.923C130.317 167.051 130.196 167.19 130.088 167.339C129.902 167.579 129.759 167.85 129.664 168.139C129.617 168.309 129.617 168.489 129.664 168.659C129.687 168.777 129.746 168.886 129.832 168.971C129.874 169.019 129.923 169.063 129.976 169.099L127.04 167.403C126.922 167.337 126.825 167.24 126.76 167.123C126.713 167.011 126.689 166.892 126.689 166.771C126.689 166.65 126.713 166.53 126.76 166.419C126.828 166.222 126.919 166.034 127.032 165.859C127.184 165.631 127.355 165.417 127.544 165.219L130.448 166.923Z" fill="black"/>
<path opacity="0.4" d="M143.952 152.891L130.472 166.891L127.496 165.171L140.984 151.195L143.952 152.891Z" fill="white"/>
<path d="M213.088 147.729L215.792 152.353C215.792 152.353 233.504 142.961 234.504 141.729C235.504 140.497 235.44 138.009 235.592 136.665C235.84 134.425 235.016 132.497 234.896 131.689C234.656 129.969 237.128 130.369 237.912 131.049C238.427 131.598 238.856 132.221 239.184 132.897C239.568 133.537 240.288 135.625 241.024 135.753C241.6 135.857 242.744 135.041 243.216 134.689C245.16 133.217 246.36 131.177 247.856 129.313C248.122 128.912 248.493 128.592 248.928 128.385C249.31 128.309 249.704 128.321 250.081 128.419C250.458 128.518 250.808 128.7 251.104 128.953C251.735 129.306 252.281 129.792 252.704 130.377C252.962 130.816 253.146 131.295 253.248 131.793C254.048 135.185 252.304 138.049 250.248 140.593C248.185 143.096 245.738 145.256 243 146.993C241.4 148.049 239.256 148.985 237.4 149.977C235.544 150.969 215.656 167.633 212.872 165.745C209.544 163.156 206.562 160.15 204 156.801" fill="#FFA8A7"/>
<path d="M343.744 118.82C350.144 118.82 353.504 120.74 356.16 126.652C358.704 132.308 366.6 148.716 366.208 152.692C365.816 156.668 349.6 173.596 349.6 173.596L344.968 167.996L355.016 151.116L345.12 136.796L343.744 118.82Z" fill="#FFA8A7"/>
<path d="M328.208 292.93C328.208 292.93 328.928 295.114 329.32 297.034C329.632 298.554 330.072 301.09 329.536 302.234C329 303.378 326.928 304.114 323.712 304.09C321.624 304.09 318.376 305.49 316.152 306.738C313.928 307.986 309.072 308.53 306.64 308.242C303.776 307.906 300.808 306.242 300.344 305.042C299.88 303.842 299.488 302.234 307.248 299.746C307.312 299.746 316.632 296.69 319.896 293.082L328.208 292.93Z" fill="#263238"/>
<path d="M328.209 293.145L326.729 292.961L319.897 293.097C316.633 296.705 307.313 299.745 307.249 299.761L306.009 300.177C304.657 301.265 305.801 303.113 309.001 303.377C312.201 303.641 322.177 300.305 324.385 299.241C325.543 298.703 326.52 297.841 327.199 296.759C327.878 295.677 328.228 294.422 328.209 293.145Z" fill="#FFA8A7"/>
<path d="M328.208 290.211C328.208 290.211 328.208 292.075 328.208 293.147C328.208 294.219 326.96 295.803 323.696 295.683C321.408 295.603 319.808 294.987 319.896 293.099V290.403L328.208 290.211Z" fill="#FFA8A7"/>
<path d="M350.112 280.66C350.696 280.9 350.816 282.036 350.84 284.284C350.84 285.98 351.152 288.956 349.144 289.5C347.136 290.044 344.232 289.652 343 288.02C341.464 285.98 340.432 284.188 338.2 281.684C336.288 279.516 334.2 277.484 333.496 274.484C332.848 271.78 333.496 270.636 335.328 269.9C337.16 269.164 338.848 269.772 341.408 271.908C342.122 272.392 342.886 272.797 343.688 273.116C345.392 273.652 349.52 280.42 350.112 280.66Z" fill="#263238"/>
<path d="M350.168 278.582L350.088 281.342C350.088 281.342 348.248 284.95 343.12 281.342C343.008 281.07 342.544 275.742 342.544 275.742L350.168 278.582Z" fill="#FFA8A7"/>
<path d="M343.712 273.133C342.91 272.814 342.146 272.409 341.432 271.925C339.368 271.261 335.032 272.029 336.976 275.037C338.605 277.51 340.69 279.649 343.12 281.341C345.44 282.485 346.248 281.069 346.248 281.069L345.448 274.597C344.986 273.985 344.393 273.484 343.712 273.133Z" fill="#FFA8A7"/>
<path d="M353.912 240.438C352.888 231.39 350.928 226.166 350.928 226.166C350.928 226.166 352.664 213.99 354.024 202.318C357.224 174.902 355.096 174.462 351.224 164.926C351.224 164.926 316.08 160.406 314.608 175.022C312.776 193.222 313.608 228.518 313.912 234.974C314.216 241.43 314.712 244.35 316.664 257.87C318.12 268.166 319.504 290.67 319.504 290.67C324.112 293.326 328.544 290.206 328.544 290.206C328.544 290.206 332.952 262.534 332.848 255.086C332.758 249.573 331.951 244.095 330.448 238.79C330.448 238.79 333.44 209.126 334.2 204.39C334.2 204.39 335.048 213.854 335.36 220.31C335.672 226.766 337.416 232.966 338.96 244.99C340.296 255.39 342.52 277.174 342.52 277.174C347.128 279.83 350.344 278.63 350.344 278.63C350.344 278.63 354.928 249.478 353.912 240.438Z" fill="#77CEFF"/>
<path d="M328.872 112.904L330.16 126.568L342.16 125.808L341.2 110.656L328.872 112.904Z" fill="#FFA8A7"/>
<path d="M352.944 124.62C351.72 121.004 349.24 118.884 343.744 118.82L341.72 118.884C341.336 120.9 335.424 122.532 329.584 120.484C328.784 120.7 326.504 121.116 325.232 121.284L322.432 121.692C318.184 123.084 316.304 130.492 315.896 142.18C315.488 153.868 313.736 178.932 313.736 178.932C313.736 178.932 322.88 183.828 337.312 181.932C350.232 180.236 355.256 172.596 354.808 173.572C353.294 167.089 351.056 160.796 348.136 154.812C354.936 138.084 354.752 129.988 352.944 124.62Z" fill="#455A64"/>
<path d="M330.16 182.353C332.551 182.378 334.941 182.233 337.312 181.921C349.088 180.377 354.304 173.921 354.792 173.497C353.279 167.036 351.046 160.764 348.136 154.801C351.576 146.353 353.224 140.113 353.784 135.305C353.224 138.809 348.048 152.377 341.272 156.449C341.272 156.449 345.096 157.041 348.368 161.537C351.64 166.033 348.952 181.385 330.16 182.353Z" fill="#37474F"/>
<path d="M325.232 121.273C319.592 121.985 314.736 122.993 312.68 128.529C309.968 136.068 305.807 143.004 300.432 148.945C296.928 152.697 282.544 159.881 279.304 159.345C276.064 158.809 273.144 154.193 271.48 155.153C269.816 156.113 273.464 159.409 273.264 160.225C273.064 161.041 267.224 159.345 264.464 157.385C261.704 155.425 260.064 161.049 263.664 165.257C267.264 169.465 274 169.793 281.328 168.329C288.656 166.865 302.048 162.513 307.368 157.553C314.344 151.033 315.616 147.489 318.64 141.873C328.272 134.401 325.232 121.273 325.232 121.273Z" fill="#FFA8A7"/>
<path d="M322.592 95.9379C322.592 95.9379 318.064 90.5379 321.616 85.2739C325.808 79.0659 333.184 76.9699 342.304 79.6739C346.816 81.0099 353.448 87.2499 353.784 96.0019C354.04 102.746 335.128 107.202 335.432 111.826L322.592 95.9379Z" fill="#263238"/>
<path d="M320 97.9141C320 97.9141 317.344 101.914 317.688 102.362C318.311 102.771 319.002 103.066 319.728 103.234L320 97.9141Z" fill="#F28F8F"/>
<path d="M328.088 85.1827C325.504 86.5187 321.04 88.9827 319.888 98.5027C318.712 108.271 320.888 111.663 322.216 112.943C323.12 113.807 327.76 114.119 330.216 113.367C333.248 112.431 339.816 109.191 342.88 104.151C346.496 98.2147 347.24 90.3107 343.064 87.2067C337.152 82.8467 330.272 84.0547 328.088 85.1827Z" fill="#FFA8A7"/>
<path d="M327.328 85.6002C327.328 85.6002 325.072 94.5122 327.768 100.144C327.768 100.144 329.368 96.6642 332.336 97.6642C335.304 98.6642 335.072 102.68 332.704 104.728C332.1 105.318 331.341 105.724 330.516 105.899C329.69 106.075 328.832 106.013 328.04 105.72C328.04 105.72 328.12 110.656 332.336 112.608C332.336 112.608 341.136 116.824 349.136 108.312C356.336 100.584 355.432 86.7122 344.784 83.2002C334.136 79.6882 327.328 85.6002 327.328 85.6002Z" fill="#263238"/>
<path d="M363.152 123.199C361.474 123.199 359.812 122.867 358.261 122.224C356.711 121.58 355.303 120.636 354.118 119.447C352.934 118.258 351.995 116.846 351.357 115.294C350.719 113.741 350.394 112.078 350.4 110.399V94.0469C353.78 94.0469 357.022 95.3895 359.412 97.7795C361.802 100.169 363.144 103.411 363.144 106.791L363.152 123.199Z" fill="#263238"/>
<path d="M320.464 81.5992C316.504 85.5992 316.28 97.2872 327.768 100.151L335.296 79.5192C330.912 76.6632 324 77.9832 320.464 81.5992Z" fill="#263238"/>
<path d="M326.616 103.327C326.328 103.231 326.063 103.079 325.834 102.879C325.606 102.679 325.421 102.435 325.288 102.162C325.156 101.889 325.08 101.592 325.064 101.289C325.048 100.987 325.093 100.683 325.196 100.398C325.299 100.113 325.458 99.8511 325.664 99.6284C325.87 99.4056 326.118 99.2263 326.395 99.1011C326.671 98.9759 326.969 98.9072 327.273 98.8992C327.576 98.8912 327.878 98.9441 328.16 99.0546L326.616 103.327Z" fill="#263238"/>
<path opacity="0.1" d="M334.216 204.406L336.128 192.174C339.979 191.713 343.685 190.425 346.992 188.398C346.992 188.398 344.592 192.006 338.272 193.51L336.32 207.678L335.52 222.518L334.216 204.406Z" fill="black"/>
</svg>
