<svg width="56" height="56" viewBox="0 0 56 56" fill="none" xmlns="http://www.w3.org/2000/svg">
<g id="complain-ecommerce-market-svgrepo-com 1">
<g id="Group">
<path id="Vector" fill-rule="evenodd" clip-rule="evenodd" d="M6.629 39.9385L3.5735 50.183C3.402 50.7552 3.535 51.3765 3.927 51.828C4.319 52.2812 4.91575 52.5017 5.50725 52.4142L18.4223 50.498C21.3535 51.7422 24.5788 52.4335 27.9668 52.4335C41.4698 52.4335 52.4335 41.4698 52.4335 27.9668C52.4335 14.4638 41.4698 3.5 27.9668 3.5C14.4637 3.5 3.5 14.4638 3.5 27.9668C3.5 32.3138 4.63575 36.3982 6.629 39.9385ZM11 40C11.1417 39.5275 11.2572 38.9235 11 38.5C9.08375 35.336 8 31.9638 8 28C8 16.4272 16.4272 8 28 8C39.571 8 48 16.4272 48 28C48 39.571 39.571 48 28 48C24.941 48 22.1215 47.1795 19.5 46C19.1955 45.8618 18.8308 45.951 18.5 46L8 48L11 40ZM28 35C28.966 35 29.75 35.784 29.75 36.75C29.75 37.716 28.966 38.5 28 38.5C27.034 38.5 26.25 37.716 26.25 36.75C26.25 35.784 27.034 35 28 35ZM25 18L26.25 31.5C26.25 32.466 27.034 33.25 28 33.25C28.966 33.25 29.75 32.466 29.75 31.5L31 18C31 17.034 28.966 16 28 16C27.034 16 25 17.034 25 18Z" fill="#146DFA"/>
</g>
</g>
</svg>
