<svg width="36" height="36" viewBox="0 0 36 36" fill="none" xmlns="http://www.w3.org/2000/svg">
<rect width="36" height="36" rx="18" fill="url(#paint0_linear_2371_18563)"/>
<path d="M23.264 22.248C23.264 23.256 23.016 24.136 22.52 24.888C22.024 25.64 21.304 26.224 20.36 26.64C19.432 27.04 18.296 27.24 16.952 27.24C16.36 27.24 15.776 27.2 15.2 27.12C14.64 27.04 14.096 26.928 13.568 26.784C13.056 26.624 12.568 26.432 12.104 26.208V22.824C12.92 23.176 13.76 23.504 14.624 23.808C15.504 24.096 16.376 24.24 17.24 24.24C17.832 24.24 18.304 24.16 18.656 24C19.024 23.84 19.288 23.624 19.448 23.352C19.624 23.08 19.712 22.768 19.712 22.416C19.712 21.984 19.56 21.616 19.256 21.312C18.968 21.008 18.576 20.728 18.08 20.472C17.584 20.2 17.016 19.912 16.376 19.608C15.976 19.416 15.544 19.192 15.08 18.936C14.616 18.664 14.168 18.336 13.736 17.952C13.32 17.552 12.976 17.072 12.704 16.512C12.432 15.952 12.296 15.28 12.296 14.496C12.296 13.472 12.528 12.6 12.992 11.88C13.472 11.144 14.144 10.584 15.008 10.2C15.888 9.816 16.92 9.624 18.104 9.624C19 9.624 19.848 9.728 20.648 9.936C21.464 10.144 22.312 10.44 23.192 10.824L22.016 13.656C21.232 13.336 20.528 13.088 19.904 12.912C19.28 12.736 18.64 12.648 17.984 12.648C17.536 12.648 17.152 12.72 16.832 12.864C16.512 13.008 16.264 13.208 16.088 13.464C15.928 13.72 15.848 14.024 15.848 14.376C15.848 14.776 15.968 15.12 16.208 15.408C16.448 15.68 16.808 15.944 17.288 16.2C17.768 16.456 18.368 16.76 19.088 17.112C19.968 17.528 20.712 17.96 21.32 18.408C21.944 18.856 22.424 19.384 22.76 19.992C23.096 20.6 23.264 21.352 23.264 22.248Z" fill="white"/>
<defs>
<linearGradient id="paint0_linear_2371_18563" x1="3.12177" y1="-2.75" x2="28.9028" y2="-2.32418" gradientUnits="userSpaceOnUse">
<stop offset="0.161458" stop-color="#35954C"/>
<stop offset="1" stop-color="#526F85"/>
</linearGradient>
</defs>
</svg>
