<svg width="28" height="29" viewBox="0 0 28 29" fill="none" xmlns="http://www.w3.org/2000/svg">
    <path
        d="M15.7502 25.9843C21.3633 25.1398 25.6668 20.2964 25.6668 14.4479C25.6668 8.00459 20.4434 2.78125 14.0002 2.78125C7.55684 2.78125 2.3335 8.00459 2.3335 14.4479C2.3335 20.2964 6.63702 25.1398 12.2502 25.9843V17.9479H10.5002C9.53366 17.9479 8.75016 17.1644 8.75016 16.1979C8.75016 15.2314 9.53366 14.4479 10.5002 14.4479H12.2502V12.1146C12.2502 9.85942 14.0783 8.03125 16.3335 8.03125H16.9168C17.8833 8.03125 18.6668 8.81475 18.6668 9.78125C18.6668 10.7478 17.8833 11.5312 16.9168 11.5312H16.3335C16.0114 11.5312 15.7502 11.7924 15.7502 12.1146V14.4479H17.5002C18.4666 14.4479 19.2502 15.2314 19.2502 16.1979C19.2502 17.1644 18.4666 17.9479 17.5002 17.9479H15.7502V25.9843Z"
        fill="white" />
</svg>