<svg width="28" height="29" viewBox="0 0 28 29" fill="none" xmlns="http://www.w3.org/2000/svg">
    <path
        d="M18.6667 3.94531C21.8883 3.94531 24.5 6.55699 24.5 9.77865V19.112C24.5 22.3336 21.8883 24.9453 18.6667 24.9453H9.33333C6.11168 24.9453 3.5 22.3336 3.5 19.112V9.77865C3.5 6.55699 6.11168 3.94531 9.33333 3.94531H18.6667ZM14 9.77865C11.4227 9.77865 9.33333 11.868 9.33333 14.4453C9.33333 17.0226 11.4227 19.112 14 19.112C16.5773 19.112 18.6667 17.0226 18.6667 14.4453C18.6667 11.868 16.5773 9.77865 14 9.77865ZM14 12.112C15.2887 12.112 16.3333 13.1566 16.3333 14.4453C16.3333 15.734 15.2887 16.7786 14 16.7786C12.7113 16.7786 11.6667 15.734 11.6667 14.4453C11.6667 13.1566 12.7113 12.112 14 12.112ZM19.25 8.02865C18.6056 8.02865 18.0833 8.55099 18.0833 9.19531C18.0833 9.83964 18.6056 10.362 19.25 10.362C19.8944 10.362 20.4167 9.83964 20.4167 9.19531C20.4167 8.55099 19.8944 8.02865 19.25 8.02865Z"
        fill="white" />
</svg>