<svg width="28" height="29" viewBox="0 0 28 29" fill="none" xmlns="http://www.w3.org/2000/svg">
    <path fill-rule="evenodd" clip-rule="evenodd"
        d="M21 3.94531C22.9331 3.94531 24.5 5.51232 24.5 7.44531V21.4453C24.5 23.3784 22.9331 24.9453 21 24.9453H7C5.06701 24.9453 3.5 23.3784 3.5 21.4453V7.44531C3.5 5.51232 5.06701 3.94531 7 3.94531H21ZM9.33333 12.112C8.68901 12.112 8.16667 12.6343 8.16667 13.2786V19.112C8.16667 19.7563 8.68901 20.2786 9.33333 20.2786C9.97766 20.2786 10.5 19.7563 10.5 19.112V13.2786C10.5 12.6343 9.97766 12.112 9.33333 12.112ZM12.8333 10.9453C12.189 10.9453 11.6667 11.4677 11.6667 12.112V19.112C11.6667 19.7563 12.189 20.2786 12.8333 20.2786C13.4777 20.2786 14 19.7563 14 19.112V14.8417C14.3557 14.4401 14.9575 13.9694 15.6255 13.6837C16.0138 13.5176 16.5979 13.4512 17.0043 13.5789C17.182 13.6348 17.2833 13.7133 17.346 13.7979C17.4068 13.8803 17.5 14.0611 17.5 14.4453V19.112C17.5 19.7562 18.0223 20.2786 18.6667 20.2786C19.311 20.2786 19.8333 19.7562 19.8333 19.112V14.4453C19.8333 13.6627 19.6348 12.9685 19.2218 12.4102C18.8104 11.8542 18.2555 11.5264 17.704 11.3531C16.6521 11.0222 15.4862 11.2054 14.7078 11.5384C14.4608 11.6441 14.2174 11.7671 13.9815 11.9035C13.8831 11.3586 13.4065 10.9453 12.8333 10.9453ZM9.33333 8.61198C8.68901 8.61198 8.16667 9.13432 8.16667 9.77865C8.16667 10.423 8.68901 10.9453 9.33333 10.9453C9.97766 10.9453 10.5 10.423 10.5 9.77865C10.5 9.13432 9.97766 8.61198 9.33333 8.61198Z"
        fill="white" />
</svg>