<svg width="28" height="29" viewBox="0 0 28 29" fill="none" xmlns="http://www.w3.org/2000/svg">
    <g clip-path="url(#clip0_4972_8487)">
        <path
            d="M23.0447 5.88026C23.469 5.39534 23.4198 4.65829 22.9349 4.234C22.45 3.80969 21.7129 3.85883 21.2886 4.34374L15.3261 11.158L10.2667 4.41199C10.0463 4.11823 9.70055 3.94531 9.33333 3.94531H4.66667C4.22477 3.94531 3.8208 4.19501 3.62318 4.59025C3.42555 4.98549 3.4682 5.45848 3.73334 5.81199L11.2428 15.8247L4.95532 23.0104C4.53103 23.4953 4.58017 24.2324 5.06508 24.6567C5.54998 25.081 6.28704 25.0319 6.71134 24.5469L12.6738 17.7326L17.7333 24.4786C17.9537 24.7724 18.2994 24.9454 18.6667 24.9454H23.3333C23.7753 24.9454 24.1792 24.6956 24.3768 24.3004C24.5744 23.9051 24.5318 23.4321 24.2667 23.0786L16.7572 13.066L23.0447 5.88026Z"
            fill="white" />
    </g>
    <defs>
        <clipPath id="clip0_4972_8487">
            <rect width="28" height="28" fill="white" transform="translate(0 0.445312)" />
        </clipPath>
    </defs>
</svg>