<svg width="72" height="72" viewBox="0 0 72 72" fill="none" xmlns="http://www.w3.org/2000/svg">
    <path d="M54.2248 4.66406L66.7438 17.7141V67.3401H19.9775V67.5021H66.9035V17.8783L54.2248 4.66406Z"
        fill="#909090" />
    <path d="M54.0701 4.5H19.8184V67.338H66.7444V17.7143L54.0701 4.5Z" fill="#F4F4F4" />
    <path d="M19.4742 7.875H5.09668V23.2357H50.3217V7.875H19.4742Z" fill="#7A7B7C" />
    <path d="M50.5619 22.9736H5.38867V7.60156H50.5619V22.9736Z" fill="#DD2025" />
    <path
        d="M20.3665 10.2031H20.299H19.8333H17.4258V21.0031H19.7388V17.3604L20.2495 17.3896C20.7458 17.3811 21.2374 17.2922 21.7053 17.1264C22.1155 16.9853 22.4928 16.7626 22.8145 16.4716C23.1419 16.1945 23.4 15.8447 23.5683 15.4501C23.7939 14.7942 23.8746 14.0972 23.8045 13.4071C23.7905 12.9142 23.7041 12.426 23.548 11.9581C23.406 11.6204 23.1952 11.316 22.9291 11.0642C22.663 10.8124 22.3473 10.6188 22.0023 10.4956C21.704 10.3876 21.3957 10.3092 21.082 10.2616C20.8445 10.225 20.6046 10.2054 20.3643 10.2031M19.939 15.3646H19.7388V12.0346H20.173C20.3647 12.0208 20.557 12.0502 20.7358 12.1207C20.9145 12.1912 21.0751 12.301 21.2058 12.4419C21.4765 12.8042 21.6211 13.2451 21.6175 13.6974C21.6175 14.2509 21.6175 14.7526 21.118 15.1059C20.7582 15.3038 20.3486 15.3952 19.939 15.3646Z"
        fill="#464648" />
    <path
        d="M28.1994 10.1689C27.9496 10.1689 27.7066 10.1869 27.5356 10.1936L27.0001 10.2071H25.2451V21.0071H27.3106C28.1 21.0288 28.8859 20.895 29.6236 20.6134C30.2174 20.3779 30.7432 19.9982 31.1536 19.5086C31.5527 19.0147 31.8391 18.4395 31.9929 17.8234C32.1696 17.1256 32.2558 16.4079 32.2494 15.6881C32.293 14.838 32.2272 13.9858 32.0536 13.1524C31.8889 12.5389 31.5804 11.9736 31.1536 11.5031C30.8188 11.1232 30.4089 10.8168 29.9499 10.6031C29.5556 10.4207 29.1409 10.2862 28.7146 10.2026C28.5451 10.1746 28.3734 10.1618 28.2016 10.1644M27.7921 19.0226H27.5671V12.1286H27.5964C28.0602 12.0753 28.5296 12.159 28.9464 12.3694C29.2516 12.6131 29.5003 12.9202 29.6754 13.2694C29.8643 13.6369 29.9732 14.0402 29.9949 14.4529C30.0151 14.9479 29.9949 15.3529 29.9949 15.6881C30.004 16.0743 29.9792 16.4606 29.9206 16.8424C29.8513 17.2344 29.7231 17.6137 29.5404 17.9674C29.3336 18.2962 29.0542 18.5733 28.7236 18.7774C28.446 18.9569 28.1173 19.0407 27.7876 19.0159"
        fill="#464648" />
    <path d="M39.2175 10.2109H33.75V21.0109H36.063V16.7269H38.988V14.7199H36.063V12.2179H39.213V10.2109"
        fill="#464648" />
    <path
        d="M49.0075 45.5724C49.0075 45.5724 56.1805 44.2719 56.1805 46.7222C56.1805 49.1724 51.7368 48.1757 49.0075 45.5724ZM43.7043 45.7592C42.5646 46.011 41.454 46.3797 40.39 46.8594L41.29 44.8344C42.19 42.8094 43.1238 40.0487 43.1238 40.0487C44.1977 41.8562 45.4473 43.5534 46.8543 45.1157C45.7932 45.2739 44.7416 45.4902 43.7043 45.7637V45.7592ZM40.8648 31.1342C40.8648 28.9989 41.5555 28.4162 42.0933 28.4162C42.631 28.4162 43.2363 28.6749 43.2565 30.5289C43.0813 32.3932 42.691 34.2309 42.0933 36.0054C41.2745 34.5156 40.8508 32.8409 40.8625 31.1409L40.8648 31.1342ZM30.4045 54.7952C28.204 53.4789 35.0193 49.4267 36.2545 49.2962C36.2478 49.2984 32.7085 56.1722 30.4045 54.7952ZM58.2753 47.0124C58.2528 46.7874 58.0503 44.2967 53.6178 44.4024C51.7702 44.3727 49.9236 44.5029 48.0985 44.7917C46.3306 43.0106 44.8082 41.0016 43.5715 38.8179C44.3506 36.5666 44.8222 34.2204 44.9733 31.8429C44.908 29.1429 44.2623 27.5949 42.1923 27.6174C40.1223 27.6399 39.8208 29.4512 40.093 32.1467C40.3597 33.958 40.8628 35.7266 41.5893 37.4072C41.5893 37.4072 40.633 40.3839 39.3685 43.3449C38.104 46.3059 37.24 47.8584 37.24 47.8584C35.0412 48.5742 32.9712 49.6377 31.1088 51.0084C29.2548 52.7342 28.501 54.0594 29.4775 55.3847C30.319 56.5277 33.2643 56.7864 35.8968 53.3372C37.2955 51.5557 38.5734 49.6825 39.7218 47.7302C39.7218 47.7302 43.7358 46.6299 44.9845 46.3284C46.2333 46.0269 47.743 45.7884 47.743 45.7884C47.743 45.7884 51.4083 49.4762 54.943 49.3457C58.4778 49.2152 58.3068 47.2329 58.2843 47.0169"
        fill="#DD2025" />
    <path d="M53.8965 4.67188V17.8861H66.5707L53.8965 4.67188Z" fill="#909090" />
    <path d="M54.0693 4.5V17.7142H66.7436L54.0693 4.5Z" fill="#F4F4F4" />
    <path
        d="M20.1937 10.0312H20.1262H19.6604H17.2529V20.8313H19.5749V17.1908L20.0879 17.22C20.5842 17.2115 21.0758 17.1226 21.5437 16.9567C21.9538 16.8156 22.3312 16.5929 22.6529 16.302C22.9778 16.0241 23.2336 15.6744 23.3999 15.2805C23.6256 14.6246 23.7062 13.9276 23.6362 13.2375C23.6221 12.7445 23.5357 12.2563 23.3797 11.7885C23.2376 11.4508 23.0269 11.1464 22.7607 10.8946C22.4946 10.6428 22.179 10.4491 21.8339 10.326C21.5342 10.2169 21.2245 10.1378 20.9092 10.0898C20.6716 10.0531 20.4318 10.0335 20.1914 10.0312M19.7662 15.1928H19.5659V11.8628H20.0024C20.1941 11.8489 20.3864 11.8784 20.5652 11.9488C20.7439 12.0193 20.9045 12.1291 21.0352 12.27C21.3059 12.6323 21.4505 13.0733 21.4469 13.5255C21.4469 14.079 21.4469 14.5808 20.9474 14.934C20.5876 15.1319 20.178 15.221 19.7684 15.1905"
        fill="white" />
    <path
        d="M28.0256 9.99701C27.7759 9.99701 27.5329 10.015 27.3619 10.0218L26.8331 10.0353H25.0781V20.8353H27.1436C27.933 20.8569 28.7189 20.7231 29.4566 20.4415C30.0504 20.206 30.5762 19.8263 30.9866 19.3368C31.3857 18.8428 31.6721 18.2676 31.8259 17.6515C32.0026 16.9537 32.0889 16.2361 32.0824 15.5163C32.126 14.6661 32.0602 13.8139 31.8866 12.9805C31.7219 12.3671 31.4134 11.8017 30.9866 11.3313C30.6518 10.9514 30.242 10.6449 29.7829 10.4313C29.3886 10.2488 28.9739 10.1144 28.5476 10.0308C28.3781 10.0028 28.2064 9.98995 28.0346 9.99251M27.6251 18.8508H27.4001V11.9568H27.4294C27.8932 11.9034 28.3626 11.9871 28.7794 12.1975C29.0846 12.4412 29.3333 12.7483 29.5084 13.0975C29.6973 13.465 29.8062 13.8684 29.8279 14.281C29.8481 14.776 29.8279 15.181 29.8279 15.5163C29.837 15.9024 29.8122 16.2887 29.7536 16.6705C29.6843 17.0625 29.5561 17.4418 29.3734 17.7955C29.1666 18.1244 28.8872 18.4014 28.5566 18.6055C28.279 18.7851 27.9503 18.8688 27.6206 18.844"
        fill="white" />
    <path d="M39.0446 10.0391H33.5771V20.8391H35.8901V16.5551H38.8151V14.5481H35.8901V12.0461H39.0401V10.0391"
        fill="white" />
</svg>