<svg width="25" height="24" viewBox="0 0 25 24" fill="none" xmlns="http://www.w3.org/2000/svg">
    <path
        d="M13.0535 16.5061C12.9114 16.6615 12.7106 16.75 12.5 16.75C12.2894 16.75 12.0886 16.6615 11.9465 16.5061L7.94649 12.1311C7.66699 11.8254 7.68823 11.351 7.99393 11.0715C8.29964 10.792 8.77403 10.8132 9.05353 11.1189L11.75 14.0682V3C11.75 2.58579 12.0858 2.25 12.5 2.25C12.9142 2.25 13.25 2.58579 13.25 3V14.0682L15.9465 11.1189C16.226 10.8132 16.7004 10.792 17.0061 11.0715C17.3118 11.351 17.333 11.8254 17.0535 12.1311L13.0535 16.5061Z"
        fill="white" />
    <path
        d="M4.25 15C4.25 14.5858 3.91422 14.25 3.5 14.25C3.08579 14.25 2.75 14.5858 2.75 15V15.0549C2.74998 16.4225 2.74996 17.5248 2.86652 18.3918C2.98754 19.2919 3.24643 20.0497 3.84835 20.6516C4.45027 21.2536 5.20814 21.5125 6.10825 21.6335C6.97522 21.75 8.07754 21.75 9.44513 21.75H15.5549C16.9225 21.75 18.0248 21.75 18.8918 21.6335C19.7919 21.5125 20.5497 21.2536 21.1517 20.6516C21.7536 20.0497 22.0125 19.2919 22.1335 18.3918C22.25 17.5248 22.25 16.4225 22.25 15.0549V15C22.25 14.5858 21.9142 14.25 21.5 14.25C21.0858 14.25 20.75 14.5858 20.75 15C20.75 16.4354 20.7484 17.4365 20.6469 18.1919C20.5482 18.9257 20.3678 19.3142 20.091 19.591C19.8142 19.8678 19.4257 20.0482 18.6919 20.1469C17.9365 20.2484 16.9354 20.25 15.5 20.25H9.5C8.06459 20.25 7.06347 20.2484 6.30812 20.1469C5.57435 20.0482 5.18577 19.8678 4.90901 19.591C4.63225 19.3142 4.4518 18.9257 4.35315 18.1919C4.25159 17.4365 4.25 16.4354 4.25 15Z"
        fill="white" />
</svg>